G04 #@! TF.GenerationSoftware,KiCad,Pcbnew,(5.1.0)-1*
G04 #@! TF.CreationDate,2019-05-27T09:53:24+03:00*
G04 #@! TF.ProjectId,USB_RFID,5553425f-5246-4494-942e-6b696361645f,rev?*
G04 #@! TF.SameCoordinates,Original*
G04 #@! TF.FileFunction,Paste,Top*
G04 #@! TF.FilePolarity,Positive*
%FSLAX46Y46*%
G04 Gerber Fmt 4.6, Leading zero omitted, Abs format (unit mm)*
G04 Created by KiCad (PCBNEW (5.1.0)-1) date 2019-05-27 09:53:24*
%MOMM*%
%LPD*%
G04 APERTURE LIST*
%ADD10C,0.100000*%
%ADD11C,1.350000*%
%ADD12C,0.975000*%
%ADD13R,1.700000X1.300000*%
%ADD14C,0.875000*%
%ADD15R,1.600000X0.550000*%
%ADD16R,0.550000X1.600000*%
%ADD17R,2.000000X7.875000*%
%ADD18R,1.300000X1.550000*%
G04 APERTURE END LIST*
D10*
G36*
X31183505Y-54579204D02*
G01*
X31207773Y-54582804D01*
X31231572Y-54588765D01*
X31254671Y-54597030D01*
X31276850Y-54607520D01*
X31297893Y-54620132D01*
X31317599Y-54634747D01*
X31335777Y-54651223D01*
X31352253Y-54669401D01*
X31366868Y-54689107D01*
X31379480Y-54710150D01*
X31389970Y-54732329D01*
X31398235Y-54755428D01*
X31404196Y-54779227D01*
X31407796Y-54803495D01*
X31409000Y-54827999D01*
X31409000Y-55728001D01*
X31407796Y-55752505D01*
X31404196Y-55776773D01*
X31398235Y-55800572D01*
X31389970Y-55823671D01*
X31379480Y-55845850D01*
X31366868Y-55866893D01*
X31352253Y-55886599D01*
X31335777Y-55904777D01*
X31317599Y-55921253D01*
X31297893Y-55935868D01*
X31276850Y-55948480D01*
X31254671Y-55958970D01*
X31231572Y-55967235D01*
X31207773Y-55973196D01*
X31183505Y-55976796D01*
X31159001Y-55978000D01*
X30308999Y-55978000D01*
X30284495Y-55976796D01*
X30260227Y-55973196D01*
X30236428Y-55967235D01*
X30213329Y-55958970D01*
X30191150Y-55948480D01*
X30170107Y-55935868D01*
X30150401Y-55921253D01*
X30132223Y-55904777D01*
X30115747Y-55886599D01*
X30101132Y-55866893D01*
X30088520Y-55845850D01*
X30078030Y-55823671D01*
X30069765Y-55800572D01*
X30063804Y-55776773D01*
X30060204Y-55752505D01*
X30059000Y-55728001D01*
X30059000Y-54827999D01*
X30060204Y-54803495D01*
X30063804Y-54779227D01*
X30069765Y-54755428D01*
X30078030Y-54732329D01*
X30088520Y-54710150D01*
X30101132Y-54689107D01*
X30115747Y-54669401D01*
X30132223Y-54651223D01*
X30150401Y-54634747D01*
X30170107Y-54620132D01*
X30191150Y-54607520D01*
X30213329Y-54597030D01*
X30236428Y-54588765D01*
X30260227Y-54582804D01*
X30284495Y-54579204D01*
X30308999Y-54578000D01*
X31159001Y-54578000D01*
X31183505Y-54579204D01*
X31183505Y-54579204D01*
G37*
D11*
X30734000Y-55278000D03*
D10*
G36*
X31183505Y-51879204D02*
G01*
X31207773Y-51882804D01*
X31231572Y-51888765D01*
X31254671Y-51897030D01*
X31276850Y-51907520D01*
X31297893Y-51920132D01*
X31317599Y-51934747D01*
X31335777Y-51951223D01*
X31352253Y-51969401D01*
X31366868Y-51989107D01*
X31379480Y-52010150D01*
X31389970Y-52032329D01*
X31398235Y-52055428D01*
X31404196Y-52079227D01*
X31407796Y-52103495D01*
X31409000Y-52127999D01*
X31409000Y-53028001D01*
X31407796Y-53052505D01*
X31404196Y-53076773D01*
X31398235Y-53100572D01*
X31389970Y-53123671D01*
X31379480Y-53145850D01*
X31366868Y-53166893D01*
X31352253Y-53186599D01*
X31335777Y-53204777D01*
X31317599Y-53221253D01*
X31297893Y-53235868D01*
X31276850Y-53248480D01*
X31254671Y-53258970D01*
X31231572Y-53267235D01*
X31207773Y-53273196D01*
X31183505Y-53276796D01*
X31159001Y-53278000D01*
X30308999Y-53278000D01*
X30284495Y-53276796D01*
X30260227Y-53273196D01*
X30236428Y-53267235D01*
X30213329Y-53258970D01*
X30191150Y-53248480D01*
X30170107Y-53235868D01*
X30150401Y-53221253D01*
X30132223Y-53204777D01*
X30115747Y-53186599D01*
X30101132Y-53166893D01*
X30088520Y-53145850D01*
X30078030Y-53123671D01*
X30069765Y-53100572D01*
X30063804Y-53076773D01*
X30060204Y-53052505D01*
X30059000Y-53028001D01*
X30059000Y-52127999D01*
X30060204Y-52103495D01*
X30063804Y-52079227D01*
X30069765Y-52055428D01*
X30078030Y-52032329D01*
X30088520Y-52010150D01*
X30101132Y-51989107D01*
X30115747Y-51969401D01*
X30132223Y-51951223D01*
X30150401Y-51934747D01*
X30170107Y-51920132D01*
X30191150Y-51907520D01*
X30213329Y-51897030D01*
X30236428Y-51888765D01*
X30260227Y-51882804D01*
X30284495Y-51879204D01*
X30308999Y-51878000D01*
X31159001Y-51878000D01*
X31183505Y-51879204D01*
X31183505Y-51879204D01*
G37*
D11*
X30734000Y-52578000D03*
D10*
G36*
X18514142Y-60981674D02*
G01*
X18537803Y-60985184D01*
X18561007Y-60990996D01*
X18583529Y-60999054D01*
X18605153Y-61009282D01*
X18625670Y-61021579D01*
X18644883Y-61035829D01*
X18662607Y-61051893D01*
X18678671Y-61069617D01*
X18692921Y-61088830D01*
X18705218Y-61109347D01*
X18715446Y-61130971D01*
X18723504Y-61153493D01*
X18729316Y-61176697D01*
X18732826Y-61200358D01*
X18734000Y-61224250D01*
X18734000Y-61711750D01*
X18732826Y-61735642D01*
X18729316Y-61759303D01*
X18723504Y-61782507D01*
X18715446Y-61805029D01*
X18705218Y-61826653D01*
X18692921Y-61847170D01*
X18678671Y-61866383D01*
X18662607Y-61884107D01*
X18644883Y-61900171D01*
X18625670Y-61914421D01*
X18605153Y-61926718D01*
X18583529Y-61936946D01*
X18561007Y-61945004D01*
X18537803Y-61950816D01*
X18514142Y-61954326D01*
X18490250Y-61955500D01*
X17577750Y-61955500D01*
X17553858Y-61954326D01*
X17530197Y-61950816D01*
X17506993Y-61945004D01*
X17484471Y-61936946D01*
X17462847Y-61926718D01*
X17442330Y-61914421D01*
X17423117Y-61900171D01*
X17405393Y-61884107D01*
X17389329Y-61866383D01*
X17375079Y-61847170D01*
X17362782Y-61826653D01*
X17352554Y-61805029D01*
X17344496Y-61782507D01*
X17338684Y-61759303D01*
X17335174Y-61735642D01*
X17334000Y-61711750D01*
X17334000Y-61224250D01*
X17335174Y-61200358D01*
X17338684Y-61176697D01*
X17344496Y-61153493D01*
X17352554Y-61130971D01*
X17362782Y-61109347D01*
X17375079Y-61088830D01*
X17389329Y-61069617D01*
X17405393Y-61051893D01*
X17423117Y-61035829D01*
X17442330Y-61021579D01*
X17462847Y-61009282D01*
X17484471Y-60999054D01*
X17506993Y-60990996D01*
X17530197Y-60985184D01*
X17553858Y-60981674D01*
X17577750Y-60980500D01*
X18490250Y-60980500D01*
X18514142Y-60981674D01*
X18514142Y-60981674D01*
G37*
D12*
X18034000Y-61468000D03*
D10*
G36*
X18514142Y-62856674D02*
G01*
X18537803Y-62860184D01*
X18561007Y-62865996D01*
X18583529Y-62874054D01*
X18605153Y-62884282D01*
X18625670Y-62896579D01*
X18644883Y-62910829D01*
X18662607Y-62926893D01*
X18678671Y-62944617D01*
X18692921Y-62963830D01*
X18705218Y-62984347D01*
X18715446Y-63005971D01*
X18723504Y-63028493D01*
X18729316Y-63051697D01*
X18732826Y-63075358D01*
X18734000Y-63099250D01*
X18734000Y-63586750D01*
X18732826Y-63610642D01*
X18729316Y-63634303D01*
X18723504Y-63657507D01*
X18715446Y-63680029D01*
X18705218Y-63701653D01*
X18692921Y-63722170D01*
X18678671Y-63741383D01*
X18662607Y-63759107D01*
X18644883Y-63775171D01*
X18625670Y-63789421D01*
X18605153Y-63801718D01*
X18583529Y-63811946D01*
X18561007Y-63820004D01*
X18537803Y-63825816D01*
X18514142Y-63829326D01*
X18490250Y-63830500D01*
X17577750Y-63830500D01*
X17553858Y-63829326D01*
X17530197Y-63825816D01*
X17506993Y-63820004D01*
X17484471Y-63811946D01*
X17462847Y-63801718D01*
X17442330Y-63789421D01*
X17423117Y-63775171D01*
X17405393Y-63759107D01*
X17389329Y-63741383D01*
X17375079Y-63722170D01*
X17362782Y-63701653D01*
X17352554Y-63680029D01*
X17344496Y-63657507D01*
X17338684Y-63634303D01*
X17335174Y-63610642D01*
X17334000Y-63586750D01*
X17334000Y-63099250D01*
X17335174Y-63075358D01*
X17338684Y-63051697D01*
X17344496Y-63028493D01*
X17352554Y-63005971D01*
X17362782Y-62984347D01*
X17375079Y-62963830D01*
X17389329Y-62944617D01*
X17405393Y-62926893D01*
X17423117Y-62910829D01*
X17442330Y-62896579D01*
X17462847Y-62884282D01*
X17484471Y-62874054D01*
X17506993Y-62865996D01*
X17530197Y-62860184D01*
X17553858Y-62856674D01*
X17577750Y-62855500D01*
X18490250Y-62855500D01*
X18514142Y-62856674D01*
X18514142Y-62856674D01*
G37*
D12*
X18034000Y-63343000D03*
D10*
G36*
X21936142Y-45275174D02*
G01*
X21959803Y-45278684D01*
X21983007Y-45284496D01*
X22005529Y-45292554D01*
X22027153Y-45302782D01*
X22047670Y-45315079D01*
X22066883Y-45329329D01*
X22084607Y-45345393D01*
X22100671Y-45363117D01*
X22114921Y-45382330D01*
X22127218Y-45402847D01*
X22137446Y-45424471D01*
X22145504Y-45446993D01*
X22151316Y-45470197D01*
X22154826Y-45493858D01*
X22156000Y-45517750D01*
X22156000Y-46430250D01*
X22154826Y-46454142D01*
X22151316Y-46477803D01*
X22145504Y-46501007D01*
X22137446Y-46523529D01*
X22127218Y-46545153D01*
X22114921Y-46565670D01*
X22100671Y-46584883D01*
X22084607Y-46602607D01*
X22066883Y-46618671D01*
X22047670Y-46632921D01*
X22027153Y-46645218D01*
X22005529Y-46655446D01*
X21983007Y-46663504D01*
X21959803Y-46669316D01*
X21936142Y-46672826D01*
X21912250Y-46674000D01*
X21424750Y-46674000D01*
X21400858Y-46672826D01*
X21377197Y-46669316D01*
X21353993Y-46663504D01*
X21331471Y-46655446D01*
X21309847Y-46645218D01*
X21289330Y-46632921D01*
X21270117Y-46618671D01*
X21252393Y-46602607D01*
X21236329Y-46584883D01*
X21222079Y-46565670D01*
X21209782Y-46545153D01*
X21199554Y-46523529D01*
X21191496Y-46501007D01*
X21185684Y-46477803D01*
X21182174Y-46454142D01*
X21181000Y-46430250D01*
X21181000Y-45517750D01*
X21182174Y-45493858D01*
X21185684Y-45470197D01*
X21191496Y-45446993D01*
X21199554Y-45424471D01*
X21209782Y-45402847D01*
X21222079Y-45382330D01*
X21236329Y-45363117D01*
X21252393Y-45345393D01*
X21270117Y-45329329D01*
X21289330Y-45315079D01*
X21309847Y-45302782D01*
X21331471Y-45292554D01*
X21353993Y-45284496D01*
X21377197Y-45278684D01*
X21400858Y-45275174D01*
X21424750Y-45274000D01*
X21912250Y-45274000D01*
X21936142Y-45275174D01*
X21936142Y-45275174D01*
G37*
D12*
X21668500Y-45974000D03*
D10*
G36*
X23811142Y-45275174D02*
G01*
X23834803Y-45278684D01*
X23858007Y-45284496D01*
X23880529Y-45292554D01*
X23902153Y-45302782D01*
X23922670Y-45315079D01*
X23941883Y-45329329D01*
X23959607Y-45345393D01*
X23975671Y-45363117D01*
X23989921Y-45382330D01*
X24002218Y-45402847D01*
X24012446Y-45424471D01*
X24020504Y-45446993D01*
X24026316Y-45470197D01*
X24029826Y-45493858D01*
X24031000Y-45517750D01*
X24031000Y-46430250D01*
X24029826Y-46454142D01*
X24026316Y-46477803D01*
X24020504Y-46501007D01*
X24012446Y-46523529D01*
X24002218Y-46545153D01*
X23989921Y-46565670D01*
X23975671Y-46584883D01*
X23959607Y-46602607D01*
X23941883Y-46618671D01*
X23922670Y-46632921D01*
X23902153Y-46645218D01*
X23880529Y-46655446D01*
X23858007Y-46663504D01*
X23834803Y-46669316D01*
X23811142Y-46672826D01*
X23787250Y-46674000D01*
X23299750Y-46674000D01*
X23275858Y-46672826D01*
X23252197Y-46669316D01*
X23228993Y-46663504D01*
X23206471Y-46655446D01*
X23184847Y-46645218D01*
X23164330Y-46632921D01*
X23145117Y-46618671D01*
X23127393Y-46602607D01*
X23111329Y-46584883D01*
X23097079Y-46565670D01*
X23084782Y-46545153D01*
X23074554Y-46523529D01*
X23066496Y-46501007D01*
X23060684Y-46477803D01*
X23057174Y-46454142D01*
X23056000Y-46430250D01*
X23056000Y-45517750D01*
X23057174Y-45493858D01*
X23060684Y-45470197D01*
X23066496Y-45446993D01*
X23074554Y-45424471D01*
X23084782Y-45402847D01*
X23097079Y-45382330D01*
X23111329Y-45363117D01*
X23127393Y-45345393D01*
X23145117Y-45329329D01*
X23164330Y-45315079D01*
X23184847Y-45302782D01*
X23206471Y-45292554D01*
X23228993Y-45284496D01*
X23252197Y-45278684D01*
X23275858Y-45275174D01*
X23299750Y-45274000D01*
X23787250Y-45274000D01*
X23811142Y-45275174D01*
X23811142Y-45275174D01*
G37*
D12*
X23543500Y-45974000D03*
D13*
X28956000Y-76172000D03*
X28956000Y-72672000D03*
X28194000Y-80010000D03*
X28194000Y-83510000D03*
D10*
G36*
X21759691Y-84196553D02*
G01*
X21780926Y-84199703D01*
X21801750Y-84204919D01*
X21821962Y-84212151D01*
X21841368Y-84221330D01*
X21859781Y-84232366D01*
X21877024Y-84245154D01*
X21892930Y-84259570D01*
X21907346Y-84275476D01*
X21920134Y-84292719D01*
X21931170Y-84311132D01*
X21940349Y-84330538D01*
X21947581Y-84350750D01*
X21952797Y-84371574D01*
X21955947Y-84392809D01*
X21957000Y-84414250D01*
X21957000Y-84851750D01*
X21955947Y-84873191D01*
X21952797Y-84894426D01*
X21947581Y-84915250D01*
X21940349Y-84935462D01*
X21931170Y-84954868D01*
X21920134Y-84973281D01*
X21907346Y-84990524D01*
X21892930Y-85006430D01*
X21877024Y-85020846D01*
X21859781Y-85033634D01*
X21841368Y-85044670D01*
X21821962Y-85053849D01*
X21801750Y-85061081D01*
X21780926Y-85066297D01*
X21759691Y-85069447D01*
X21738250Y-85070500D01*
X21225750Y-85070500D01*
X21204309Y-85069447D01*
X21183074Y-85066297D01*
X21162250Y-85061081D01*
X21142038Y-85053849D01*
X21122632Y-85044670D01*
X21104219Y-85033634D01*
X21086976Y-85020846D01*
X21071070Y-85006430D01*
X21056654Y-84990524D01*
X21043866Y-84973281D01*
X21032830Y-84954868D01*
X21023651Y-84935462D01*
X21016419Y-84915250D01*
X21011203Y-84894426D01*
X21008053Y-84873191D01*
X21007000Y-84851750D01*
X21007000Y-84414250D01*
X21008053Y-84392809D01*
X21011203Y-84371574D01*
X21016419Y-84350750D01*
X21023651Y-84330538D01*
X21032830Y-84311132D01*
X21043866Y-84292719D01*
X21056654Y-84275476D01*
X21071070Y-84259570D01*
X21086976Y-84245154D01*
X21104219Y-84232366D01*
X21122632Y-84221330D01*
X21142038Y-84212151D01*
X21162250Y-84204919D01*
X21183074Y-84199703D01*
X21204309Y-84196553D01*
X21225750Y-84195500D01*
X21738250Y-84195500D01*
X21759691Y-84196553D01*
X21759691Y-84196553D01*
G37*
D14*
X21482000Y-84633000D03*
D10*
G36*
X21759691Y-82621553D02*
G01*
X21780926Y-82624703D01*
X21801750Y-82629919D01*
X21821962Y-82637151D01*
X21841368Y-82646330D01*
X21859781Y-82657366D01*
X21877024Y-82670154D01*
X21892930Y-82684570D01*
X21907346Y-82700476D01*
X21920134Y-82717719D01*
X21931170Y-82736132D01*
X21940349Y-82755538D01*
X21947581Y-82775750D01*
X21952797Y-82796574D01*
X21955947Y-82817809D01*
X21957000Y-82839250D01*
X21957000Y-83276750D01*
X21955947Y-83298191D01*
X21952797Y-83319426D01*
X21947581Y-83340250D01*
X21940349Y-83360462D01*
X21931170Y-83379868D01*
X21920134Y-83398281D01*
X21907346Y-83415524D01*
X21892930Y-83431430D01*
X21877024Y-83445846D01*
X21859781Y-83458634D01*
X21841368Y-83469670D01*
X21821962Y-83478849D01*
X21801750Y-83486081D01*
X21780926Y-83491297D01*
X21759691Y-83494447D01*
X21738250Y-83495500D01*
X21225750Y-83495500D01*
X21204309Y-83494447D01*
X21183074Y-83491297D01*
X21162250Y-83486081D01*
X21142038Y-83478849D01*
X21122632Y-83469670D01*
X21104219Y-83458634D01*
X21086976Y-83445846D01*
X21071070Y-83431430D01*
X21056654Y-83415524D01*
X21043866Y-83398281D01*
X21032830Y-83379868D01*
X21023651Y-83360462D01*
X21016419Y-83340250D01*
X21011203Y-83319426D01*
X21008053Y-83298191D01*
X21007000Y-83276750D01*
X21007000Y-82839250D01*
X21008053Y-82817809D01*
X21011203Y-82796574D01*
X21016419Y-82775750D01*
X21023651Y-82755538D01*
X21032830Y-82736132D01*
X21043866Y-82717719D01*
X21056654Y-82700476D01*
X21071070Y-82684570D01*
X21086976Y-82670154D01*
X21104219Y-82657366D01*
X21122632Y-82646330D01*
X21142038Y-82637151D01*
X21162250Y-82629919D01*
X21183074Y-82624703D01*
X21204309Y-82621553D01*
X21225750Y-82620500D01*
X21738250Y-82620500D01*
X21759691Y-82621553D01*
X21759691Y-82621553D01*
G37*
D14*
X21482000Y-83058000D03*
D10*
G36*
X25691193Y-83600053D02*
G01*
X25712428Y-83603203D01*
X25733252Y-83608419D01*
X25753464Y-83615651D01*
X25772870Y-83624830D01*
X25791283Y-83635866D01*
X25808526Y-83648654D01*
X25824432Y-83663070D01*
X25838848Y-83678976D01*
X25851636Y-83696219D01*
X25862672Y-83714632D01*
X25871851Y-83734038D01*
X25879083Y-83754250D01*
X25884299Y-83775074D01*
X25887449Y-83796309D01*
X25888502Y-83817750D01*
X25888502Y-84330250D01*
X25887449Y-84351691D01*
X25884299Y-84372926D01*
X25879083Y-84393750D01*
X25871851Y-84413962D01*
X25862672Y-84433368D01*
X25851636Y-84451781D01*
X25838848Y-84469024D01*
X25824432Y-84484930D01*
X25808526Y-84499346D01*
X25791283Y-84512134D01*
X25772870Y-84523170D01*
X25753464Y-84532349D01*
X25733252Y-84539581D01*
X25712428Y-84544797D01*
X25691193Y-84547947D01*
X25669752Y-84549000D01*
X25232252Y-84549000D01*
X25210811Y-84547947D01*
X25189576Y-84544797D01*
X25168752Y-84539581D01*
X25148540Y-84532349D01*
X25129134Y-84523170D01*
X25110721Y-84512134D01*
X25093478Y-84499346D01*
X25077572Y-84484930D01*
X25063156Y-84469024D01*
X25050368Y-84451781D01*
X25039332Y-84433368D01*
X25030153Y-84413962D01*
X25022921Y-84393750D01*
X25017705Y-84372926D01*
X25014555Y-84351691D01*
X25013502Y-84330250D01*
X25013502Y-83817750D01*
X25014555Y-83796309D01*
X25017705Y-83775074D01*
X25022921Y-83754250D01*
X25030153Y-83734038D01*
X25039332Y-83714632D01*
X25050368Y-83696219D01*
X25063156Y-83678976D01*
X25077572Y-83663070D01*
X25093478Y-83648654D01*
X25110721Y-83635866D01*
X25129134Y-83624830D01*
X25148540Y-83615651D01*
X25168752Y-83608419D01*
X25189576Y-83603203D01*
X25210811Y-83600053D01*
X25232252Y-83599000D01*
X25669752Y-83599000D01*
X25691193Y-83600053D01*
X25691193Y-83600053D01*
G37*
D14*
X25451002Y-84074000D03*
D10*
G36*
X24116193Y-83600053D02*
G01*
X24137428Y-83603203D01*
X24158252Y-83608419D01*
X24178464Y-83615651D01*
X24197870Y-83624830D01*
X24216283Y-83635866D01*
X24233526Y-83648654D01*
X24249432Y-83663070D01*
X24263848Y-83678976D01*
X24276636Y-83696219D01*
X24287672Y-83714632D01*
X24296851Y-83734038D01*
X24304083Y-83754250D01*
X24309299Y-83775074D01*
X24312449Y-83796309D01*
X24313502Y-83817750D01*
X24313502Y-84330250D01*
X24312449Y-84351691D01*
X24309299Y-84372926D01*
X24304083Y-84393750D01*
X24296851Y-84413962D01*
X24287672Y-84433368D01*
X24276636Y-84451781D01*
X24263848Y-84469024D01*
X24249432Y-84484930D01*
X24233526Y-84499346D01*
X24216283Y-84512134D01*
X24197870Y-84523170D01*
X24178464Y-84532349D01*
X24158252Y-84539581D01*
X24137428Y-84544797D01*
X24116193Y-84547947D01*
X24094752Y-84549000D01*
X23657252Y-84549000D01*
X23635811Y-84547947D01*
X23614576Y-84544797D01*
X23593752Y-84539581D01*
X23573540Y-84532349D01*
X23554134Y-84523170D01*
X23535721Y-84512134D01*
X23518478Y-84499346D01*
X23502572Y-84484930D01*
X23488156Y-84469024D01*
X23475368Y-84451781D01*
X23464332Y-84433368D01*
X23455153Y-84413962D01*
X23447921Y-84393750D01*
X23442705Y-84372926D01*
X23439555Y-84351691D01*
X23438502Y-84330250D01*
X23438502Y-83817750D01*
X23439555Y-83796309D01*
X23442705Y-83775074D01*
X23447921Y-83754250D01*
X23455153Y-83734038D01*
X23464332Y-83714632D01*
X23475368Y-83696219D01*
X23488156Y-83678976D01*
X23502572Y-83663070D01*
X23518478Y-83648654D01*
X23535721Y-83635866D01*
X23554134Y-83624830D01*
X23573540Y-83615651D01*
X23593752Y-83608419D01*
X23614576Y-83603203D01*
X23635811Y-83600053D01*
X23657252Y-83599000D01*
X24094752Y-83599000D01*
X24116193Y-83600053D01*
X24116193Y-83600053D01*
G37*
D14*
X23876002Y-84074000D03*
D10*
G36*
X27621191Y-77980053D02*
G01*
X27642426Y-77983203D01*
X27663250Y-77988419D01*
X27683462Y-77995651D01*
X27702868Y-78004830D01*
X27721281Y-78015866D01*
X27738524Y-78028654D01*
X27754430Y-78043070D01*
X27768846Y-78058976D01*
X27781634Y-78076219D01*
X27792670Y-78094632D01*
X27801849Y-78114038D01*
X27809081Y-78134250D01*
X27814297Y-78155074D01*
X27817447Y-78176309D01*
X27818500Y-78197750D01*
X27818500Y-78710250D01*
X27817447Y-78731691D01*
X27814297Y-78752926D01*
X27809081Y-78773750D01*
X27801849Y-78793962D01*
X27792670Y-78813368D01*
X27781634Y-78831781D01*
X27768846Y-78849024D01*
X27754430Y-78864930D01*
X27738524Y-78879346D01*
X27721281Y-78892134D01*
X27702868Y-78903170D01*
X27683462Y-78912349D01*
X27663250Y-78919581D01*
X27642426Y-78924797D01*
X27621191Y-78927947D01*
X27599750Y-78929000D01*
X27162250Y-78929000D01*
X27140809Y-78927947D01*
X27119574Y-78924797D01*
X27098750Y-78919581D01*
X27078538Y-78912349D01*
X27059132Y-78903170D01*
X27040719Y-78892134D01*
X27023476Y-78879346D01*
X27007570Y-78864930D01*
X26993154Y-78849024D01*
X26980366Y-78831781D01*
X26969330Y-78813368D01*
X26960151Y-78793962D01*
X26952919Y-78773750D01*
X26947703Y-78752926D01*
X26944553Y-78731691D01*
X26943500Y-78710250D01*
X26943500Y-78197750D01*
X26944553Y-78176309D01*
X26947703Y-78155074D01*
X26952919Y-78134250D01*
X26960151Y-78114038D01*
X26969330Y-78094632D01*
X26980366Y-78076219D01*
X26993154Y-78058976D01*
X27007570Y-78043070D01*
X27023476Y-78028654D01*
X27040719Y-78015866D01*
X27059132Y-78004830D01*
X27078538Y-77995651D01*
X27098750Y-77988419D01*
X27119574Y-77983203D01*
X27140809Y-77980053D01*
X27162250Y-77979000D01*
X27599750Y-77979000D01*
X27621191Y-77980053D01*
X27621191Y-77980053D01*
G37*
D14*
X27381000Y-78454000D03*
D10*
G36*
X29196191Y-77980053D02*
G01*
X29217426Y-77983203D01*
X29238250Y-77988419D01*
X29258462Y-77995651D01*
X29277868Y-78004830D01*
X29296281Y-78015866D01*
X29313524Y-78028654D01*
X29329430Y-78043070D01*
X29343846Y-78058976D01*
X29356634Y-78076219D01*
X29367670Y-78094632D01*
X29376849Y-78114038D01*
X29384081Y-78134250D01*
X29389297Y-78155074D01*
X29392447Y-78176309D01*
X29393500Y-78197750D01*
X29393500Y-78710250D01*
X29392447Y-78731691D01*
X29389297Y-78752926D01*
X29384081Y-78773750D01*
X29376849Y-78793962D01*
X29367670Y-78813368D01*
X29356634Y-78831781D01*
X29343846Y-78849024D01*
X29329430Y-78864930D01*
X29313524Y-78879346D01*
X29296281Y-78892134D01*
X29277868Y-78903170D01*
X29258462Y-78912349D01*
X29238250Y-78919581D01*
X29217426Y-78924797D01*
X29196191Y-78927947D01*
X29174750Y-78929000D01*
X28737250Y-78929000D01*
X28715809Y-78927947D01*
X28694574Y-78924797D01*
X28673750Y-78919581D01*
X28653538Y-78912349D01*
X28634132Y-78903170D01*
X28615719Y-78892134D01*
X28598476Y-78879346D01*
X28582570Y-78864930D01*
X28568154Y-78849024D01*
X28555366Y-78831781D01*
X28544330Y-78813368D01*
X28535151Y-78793962D01*
X28527919Y-78773750D01*
X28522703Y-78752926D01*
X28519553Y-78731691D01*
X28518500Y-78710250D01*
X28518500Y-78197750D01*
X28519553Y-78176309D01*
X28522703Y-78155074D01*
X28527919Y-78134250D01*
X28535151Y-78114038D01*
X28544330Y-78094632D01*
X28555366Y-78076219D01*
X28568154Y-78058976D01*
X28582570Y-78043070D01*
X28598476Y-78028654D01*
X28615719Y-78015866D01*
X28634132Y-78004830D01*
X28653538Y-77995651D01*
X28673750Y-77988419D01*
X28694574Y-77983203D01*
X28715809Y-77980053D01*
X28737250Y-77979000D01*
X29174750Y-77979000D01*
X29196191Y-77980053D01*
X29196191Y-77980053D01*
G37*
D14*
X28956000Y-78454000D03*
D10*
G36*
X37578191Y-55660053D02*
G01*
X37599426Y-55663203D01*
X37620250Y-55668419D01*
X37640462Y-55675651D01*
X37659868Y-55684830D01*
X37678281Y-55695866D01*
X37695524Y-55708654D01*
X37711430Y-55723070D01*
X37725846Y-55738976D01*
X37738634Y-55756219D01*
X37749670Y-55774632D01*
X37758849Y-55794038D01*
X37766081Y-55814250D01*
X37771297Y-55835074D01*
X37774447Y-55856309D01*
X37775500Y-55877750D01*
X37775500Y-56390250D01*
X37774447Y-56411691D01*
X37771297Y-56432926D01*
X37766081Y-56453750D01*
X37758849Y-56473962D01*
X37749670Y-56493368D01*
X37738634Y-56511781D01*
X37725846Y-56529024D01*
X37711430Y-56544930D01*
X37695524Y-56559346D01*
X37678281Y-56572134D01*
X37659868Y-56583170D01*
X37640462Y-56592349D01*
X37620250Y-56599581D01*
X37599426Y-56604797D01*
X37578191Y-56607947D01*
X37556750Y-56609000D01*
X37119250Y-56609000D01*
X37097809Y-56607947D01*
X37076574Y-56604797D01*
X37055750Y-56599581D01*
X37035538Y-56592349D01*
X37016132Y-56583170D01*
X36997719Y-56572134D01*
X36980476Y-56559346D01*
X36964570Y-56544930D01*
X36950154Y-56529024D01*
X36937366Y-56511781D01*
X36926330Y-56493368D01*
X36917151Y-56473962D01*
X36909919Y-56453750D01*
X36904703Y-56432926D01*
X36901553Y-56411691D01*
X36900500Y-56390250D01*
X36900500Y-55877750D01*
X36901553Y-55856309D01*
X36904703Y-55835074D01*
X36909919Y-55814250D01*
X36917151Y-55794038D01*
X36926330Y-55774632D01*
X36937366Y-55756219D01*
X36950154Y-55738976D01*
X36964570Y-55723070D01*
X36980476Y-55708654D01*
X36997719Y-55695866D01*
X37016132Y-55684830D01*
X37035538Y-55675651D01*
X37055750Y-55668419D01*
X37076574Y-55663203D01*
X37097809Y-55660053D01*
X37119250Y-55659000D01*
X37556750Y-55659000D01*
X37578191Y-55660053D01*
X37578191Y-55660053D01*
G37*
D14*
X37338000Y-56134000D03*
D10*
G36*
X39153191Y-55660053D02*
G01*
X39174426Y-55663203D01*
X39195250Y-55668419D01*
X39215462Y-55675651D01*
X39234868Y-55684830D01*
X39253281Y-55695866D01*
X39270524Y-55708654D01*
X39286430Y-55723070D01*
X39300846Y-55738976D01*
X39313634Y-55756219D01*
X39324670Y-55774632D01*
X39333849Y-55794038D01*
X39341081Y-55814250D01*
X39346297Y-55835074D01*
X39349447Y-55856309D01*
X39350500Y-55877750D01*
X39350500Y-56390250D01*
X39349447Y-56411691D01*
X39346297Y-56432926D01*
X39341081Y-56453750D01*
X39333849Y-56473962D01*
X39324670Y-56493368D01*
X39313634Y-56511781D01*
X39300846Y-56529024D01*
X39286430Y-56544930D01*
X39270524Y-56559346D01*
X39253281Y-56572134D01*
X39234868Y-56583170D01*
X39215462Y-56592349D01*
X39195250Y-56599581D01*
X39174426Y-56604797D01*
X39153191Y-56607947D01*
X39131750Y-56609000D01*
X38694250Y-56609000D01*
X38672809Y-56607947D01*
X38651574Y-56604797D01*
X38630750Y-56599581D01*
X38610538Y-56592349D01*
X38591132Y-56583170D01*
X38572719Y-56572134D01*
X38555476Y-56559346D01*
X38539570Y-56544930D01*
X38525154Y-56529024D01*
X38512366Y-56511781D01*
X38501330Y-56493368D01*
X38492151Y-56473962D01*
X38484919Y-56453750D01*
X38479703Y-56432926D01*
X38476553Y-56411691D01*
X38475500Y-56390250D01*
X38475500Y-55877750D01*
X38476553Y-55856309D01*
X38479703Y-55835074D01*
X38484919Y-55814250D01*
X38492151Y-55794038D01*
X38501330Y-55774632D01*
X38512366Y-55756219D01*
X38525154Y-55738976D01*
X38539570Y-55723070D01*
X38555476Y-55708654D01*
X38572719Y-55695866D01*
X38591132Y-55684830D01*
X38610538Y-55675651D01*
X38630750Y-55668419D01*
X38651574Y-55663203D01*
X38672809Y-55660053D01*
X38694250Y-55659000D01*
X39131750Y-55659000D01*
X39153191Y-55660053D01*
X39153191Y-55660053D01*
G37*
D14*
X38913000Y-56134000D03*
D15*
X25332000Y-79254000D03*
X25332000Y-78454000D03*
X25332000Y-77654000D03*
X25332000Y-76854000D03*
X25332000Y-76054000D03*
X25332000Y-75254000D03*
X25332000Y-74454000D03*
X25332000Y-73654000D03*
D16*
X23882000Y-72204000D03*
X23082000Y-72204000D03*
X22282000Y-72204000D03*
X21482000Y-72204000D03*
X20682000Y-72204000D03*
X19882000Y-72204000D03*
X19082000Y-72204000D03*
X18282000Y-72204000D03*
D15*
X16832000Y-73654000D03*
X16832000Y-74454000D03*
X16832000Y-75254000D03*
X16832000Y-76054000D03*
X16832000Y-76854000D03*
X16832000Y-77654000D03*
X16832000Y-78454000D03*
X16832000Y-79254000D03*
D16*
X18282000Y-80704000D03*
X19082000Y-80704000D03*
X19882000Y-80704000D03*
X20682000Y-80704000D03*
X21482000Y-80704000D03*
X22282000Y-80704000D03*
X23082000Y-80704000D03*
X23882000Y-80704000D03*
D17*
X18034000Y-56071000D03*
X18034000Y-44196000D03*
D10*
G36*
X16025691Y-82316553D02*
G01*
X16046926Y-82319703D01*
X16067750Y-82324919D01*
X16087962Y-82332151D01*
X16107368Y-82341330D01*
X16125781Y-82352366D01*
X16143024Y-82365154D01*
X16158930Y-82379570D01*
X16173346Y-82395476D01*
X16186134Y-82412719D01*
X16197170Y-82431132D01*
X16206349Y-82450538D01*
X16213581Y-82470750D01*
X16218797Y-82491574D01*
X16221947Y-82512809D01*
X16223000Y-82534250D01*
X16223000Y-82971750D01*
X16221947Y-82993191D01*
X16218797Y-83014426D01*
X16213581Y-83035250D01*
X16206349Y-83055462D01*
X16197170Y-83074868D01*
X16186134Y-83093281D01*
X16173346Y-83110524D01*
X16158930Y-83126430D01*
X16143024Y-83140846D01*
X16125781Y-83153634D01*
X16107368Y-83164670D01*
X16087962Y-83173849D01*
X16067750Y-83181081D01*
X16046926Y-83186297D01*
X16025691Y-83189447D01*
X16004250Y-83190500D01*
X15491750Y-83190500D01*
X15470309Y-83189447D01*
X15449074Y-83186297D01*
X15428250Y-83181081D01*
X15408038Y-83173849D01*
X15388632Y-83164670D01*
X15370219Y-83153634D01*
X15352976Y-83140846D01*
X15337070Y-83126430D01*
X15322654Y-83110524D01*
X15309866Y-83093281D01*
X15298830Y-83074868D01*
X15289651Y-83055462D01*
X15282419Y-83035250D01*
X15277203Y-83014426D01*
X15274053Y-82993191D01*
X15273000Y-82971750D01*
X15273000Y-82534250D01*
X15274053Y-82512809D01*
X15277203Y-82491574D01*
X15282419Y-82470750D01*
X15289651Y-82450538D01*
X15298830Y-82431132D01*
X15309866Y-82412719D01*
X15322654Y-82395476D01*
X15337070Y-82379570D01*
X15352976Y-82365154D01*
X15370219Y-82352366D01*
X15388632Y-82341330D01*
X15408038Y-82332151D01*
X15428250Y-82324919D01*
X15449074Y-82319703D01*
X15470309Y-82316553D01*
X15491750Y-82315500D01*
X16004250Y-82315500D01*
X16025691Y-82316553D01*
X16025691Y-82316553D01*
G37*
D14*
X15748000Y-82753000D03*
D10*
G36*
X16025691Y-83891553D02*
G01*
X16046926Y-83894703D01*
X16067750Y-83899919D01*
X16087962Y-83907151D01*
X16107368Y-83916330D01*
X16125781Y-83927366D01*
X16143024Y-83940154D01*
X16158930Y-83954570D01*
X16173346Y-83970476D01*
X16186134Y-83987719D01*
X16197170Y-84006132D01*
X16206349Y-84025538D01*
X16213581Y-84045750D01*
X16218797Y-84066574D01*
X16221947Y-84087809D01*
X16223000Y-84109250D01*
X16223000Y-84546750D01*
X16221947Y-84568191D01*
X16218797Y-84589426D01*
X16213581Y-84610250D01*
X16206349Y-84630462D01*
X16197170Y-84649868D01*
X16186134Y-84668281D01*
X16173346Y-84685524D01*
X16158930Y-84701430D01*
X16143024Y-84715846D01*
X16125781Y-84728634D01*
X16107368Y-84739670D01*
X16087962Y-84748849D01*
X16067750Y-84756081D01*
X16046926Y-84761297D01*
X16025691Y-84764447D01*
X16004250Y-84765500D01*
X15491750Y-84765500D01*
X15470309Y-84764447D01*
X15449074Y-84761297D01*
X15428250Y-84756081D01*
X15408038Y-84748849D01*
X15388632Y-84739670D01*
X15370219Y-84728634D01*
X15352976Y-84715846D01*
X15337070Y-84701430D01*
X15322654Y-84685524D01*
X15309866Y-84668281D01*
X15298830Y-84649868D01*
X15289651Y-84630462D01*
X15282419Y-84610250D01*
X15277203Y-84589426D01*
X15274053Y-84568191D01*
X15273000Y-84546750D01*
X15273000Y-84109250D01*
X15274053Y-84087809D01*
X15277203Y-84066574D01*
X15282419Y-84045750D01*
X15289651Y-84025538D01*
X15298830Y-84006132D01*
X15309866Y-83987719D01*
X15322654Y-83970476D01*
X15337070Y-83954570D01*
X15352976Y-83940154D01*
X15370219Y-83927366D01*
X15388632Y-83916330D01*
X15408038Y-83907151D01*
X15428250Y-83899919D01*
X15449074Y-83894703D01*
X15470309Y-83891553D01*
X15491750Y-83890500D01*
X16004250Y-83890500D01*
X16025691Y-83891553D01*
X16025691Y-83891553D01*
G37*
D14*
X15748000Y-84328000D03*
D10*
G36*
X19359691Y-83891553D02*
G01*
X19380926Y-83894703D01*
X19401750Y-83899919D01*
X19421962Y-83907151D01*
X19441368Y-83916330D01*
X19459781Y-83927366D01*
X19477024Y-83940154D01*
X19492930Y-83954570D01*
X19507346Y-83970476D01*
X19520134Y-83987719D01*
X19531170Y-84006132D01*
X19540349Y-84025538D01*
X19547581Y-84045750D01*
X19552797Y-84066574D01*
X19555947Y-84087809D01*
X19557000Y-84109250D01*
X19557000Y-84546750D01*
X19555947Y-84568191D01*
X19552797Y-84589426D01*
X19547581Y-84610250D01*
X19540349Y-84630462D01*
X19531170Y-84649868D01*
X19520134Y-84668281D01*
X19507346Y-84685524D01*
X19492930Y-84701430D01*
X19477024Y-84715846D01*
X19459781Y-84728634D01*
X19441368Y-84739670D01*
X19421962Y-84748849D01*
X19401750Y-84756081D01*
X19380926Y-84761297D01*
X19359691Y-84764447D01*
X19338250Y-84765500D01*
X18825750Y-84765500D01*
X18804309Y-84764447D01*
X18783074Y-84761297D01*
X18762250Y-84756081D01*
X18742038Y-84748849D01*
X18722632Y-84739670D01*
X18704219Y-84728634D01*
X18686976Y-84715846D01*
X18671070Y-84701430D01*
X18656654Y-84685524D01*
X18643866Y-84668281D01*
X18632830Y-84649868D01*
X18623651Y-84630462D01*
X18616419Y-84610250D01*
X18611203Y-84589426D01*
X18608053Y-84568191D01*
X18607000Y-84546750D01*
X18607000Y-84109250D01*
X18608053Y-84087809D01*
X18611203Y-84066574D01*
X18616419Y-84045750D01*
X18623651Y-84025538D01*
X18632830Y-84006132D01*
X18643866Y-83987719D01*
X18656654Y-83970476D01*
X18671070Y-83954570D01*
X18686976Y-83940154D01*
X18704219Y-83927366D01*
X18722632Y-83916330D01*
X18742038Y-83907151D01*
X18762250Y-83899919D01*
X18783074Y-83894703D01*
X18804309Y-83891553D01*
X18825750Y-83890500D01*
X19338250Y-83890500D01*
X19359691Y-83891553D01*
X19359691Y-83891553D01*
G37*
D14*
X19082000Y-84328000D03*
D10*
G36*
X19359691Y-82316553D02*
G01*
X19380926Y-82319703D01*
X19401750Y-82324919D01*
X19421962Y-82332151D01*
X19441368Y-82341330D01*
X19459781Y-82352366D01*
X19477024Y-82365154D01*
X19492930Y-82379570D01*
X19507346Y-82395476D01*
X19520134Y-82412719D01*
X19531170Y-82431132D01*
X19540349Y-82450538D01*
X19547581Y-82470750D01*
X19552797Y-82491574D01*
X19555947Y-82512809D01*
X19557000Y-82534250D01*
X19557000Y-82971750D01*
X19555947Y-82993191D01*
X19552797Y-83014426D01*
X19547581Y-83035250D01*
X19540349Y-83055462D01*
X19531170Y-83074868D01*
X19520134Y-83093281D01*
X19507346Y-83110524D01*
X19492930Y-83126430D01*
X19477024Y-83140846D01*
X19459781Y-83153634D01*
X19441368Y-83164670D01*
X19421962Y-83173849D01*
X19401750Y-83181081D01*
X19380926Y-83186297D01*
X19359691Y-83189447D01*
X19338250Y-83190500D01*
X18825750Y-83190500D01*
X18804309Y-83189447D01*
X18783074Y-83186297D01*
X18762250Y-83181081D01*
X18742038Y-83173849D01*
X18722632Y-83164670D01*
X18704219Y-83153634D01*
X18686976Y-83140846D01*
X18671070Y-83126430D01*
X18656654Y-83110524D01*
X18643866Y-83093281D01*
X18632830Y-83074868D01*
X18623651Y-83055462D01*
X18616419Y-83035250D01*
X18611203Y-83014426D01*
X18608053Y-82993191D01*
X18607000Y-82971750D01*
X18607000Y-82534250D01*
X18608053Y-82512809D01*
X18611203Y-82491574D01*
X18616419Y-82470750D01*
X18623651Y-82450538D01*
X18632830Y-82431132D01*
X18643866Y-82412719D01*
X18656654Y-82395476D01*
X18671070Y-82379570D01*
X18686976Y-82365154D01*
X18704219Y-82352366D01*
X18722632Y-82341330D01*
X18742038Y-82332151D01*
X18762250Y-82324919D01*
X18783074Y-82319703D01*
X18804309Y-82316553D01*
X18825750Y-82315500D01*
X19338250Y-82315500D01*
X19359691Y-82316553D01*
X19359691Y-82316553D01*
G37*
D14*
X19082000Y-82753000D03*
D18*
X42418000Y-88478000D03*
X46918000Y-88478000D03*
X46918000Y-80518000D03*
X42418000Y-80518000D03*
M02*
