G04 #@! TF.GenerationSoftware,KiCad,Pcbnew,(5.1.0)-1*
G04 #@! TF.CreationDate,2019-05-27T09:53:24+03:00*
G04 #@! TF.ProjectId,USB_RFID,5553425f-5246-4494-942e-6b696361645f,rev?*
G04 #@! TF.SameCoordinates,Original*
G04 #@! TF.FileFunction,Profile,NP*
%FSLAX46Y46*%
G04 Gerber Fmt 4.6, Leading zero omitted, Abs format (unit mm)*
G04 Created by KiCad (PCBNEW (5.1.0)-1) date 2019-05-27 09:53:24*
%MOMM*%
%LPD*%
G04 APERTURE LIST*
%ADD10C,0.200000*%
G04 APERTURE END LIST*
D10*
X21076000Y-53999495D02*
G75*
G02X26576000Y-53999495I2750000J0D01*
G01*
X14576000Y-16789349D02*
X14576000Y-92195525D01*
X51576000Y-92195525D02*
G75*
G02X35437903Y-94209470I-18500000J82578088D01*
G01*
X30714097Y-94209470D02*
G75*
G02X14576000Y-92195525I2361903J84592033D01*
G01*
X29647797Y-31814000D02*
X22576000Y-31814000D01*
X22576000Y-39814000D02*
X29647797Y-39814000D01*
X22576000Y-31814000D02*
X22576000Y-39814000D01*
X26576000Y-60499495D02*
X26576000Y-53999495D01*
X39576000Y-59518214D02*
X39576000Y-75518214D01*
X39576000Y-44518214D02*
X39576000Y-59518214D01*
X26576000Y-60499495D02*
G75*
G02X21076000Y-60499495I-2750000J0D01*
G01*
X51576000Y-92195525D02*
X51576000Y-16789349D01*
X30714098Y-94209470D02*
G75*
G02X35437903Y-94209470I2361902J4967033D01*
G01*
X35437903Y-14775404D02*
G75*
G02X51576000Y-16789349I-2361903J-84592033D01*
G01*
X35437903Y-14775404D02*
G75*
G02X30714098Y-14775404I-2361903J-4967033D01*
G01*
X39576000Y-43230198D02*
X39576000Y-44518214D01*
X14576001Y-16789349D02*
G75*
G02X30714098Y-14775404I18499999J-82578088D01*
G01*
X39576000Y-75518214D02*
X49576000Y-75518214D01*
X21076000Y-53999495D02*
X21076000Y-60499495D01*
X49576000Y-59518214D02*
X49576000Y-44518214D01*
X49576000Y-75518214D02*
X49576000Y-59518214D01*
X49576000Y-44518214D02*
X49576000Y-38518214D01*
X29647797Y-31814000D02*
G75*
G02X44105092Y-38518214I6928203J-4000000D01*
G01*
X49576000Y-38518214D02*
X44105092Y-38518214D01*
X39576000Y-43230198D02*
G75*
G02X29647797Y-39814000I-3000000J7416198D01*
G01*
M02*
