M48
; DRILL file {KiCad (5.1.0-1275-gdad8c9821)} date 24.07.2019 10:58:09
; FORMAT={-:-/ absolute / metric / decimal}
; #@! TF.CreationDate,2019-07-24T10:58:09+03:00
; #@! TF.GenerationSoftware,Kicad,Pcbnew,(5.1.0-1275-gdad8c9821)
; #@! TF.FileFunction,Plated,1,2,PTH
FMAT,2
METRIC
T1C0.400
T2C0.500
T3C0.600
T4C0.800
T5C0.900
T6C0.950
T7C1.000
T8C1.100
T9C1.400
T10C2.700
%
G90
G05
T1
X28.351Y-40.894
X29.344Y-33.386
X29.464Y-39.624
X34.798Y-33.274
X36.496Y-42.672
X36.83Y-24.892
X39.624Y-42.215
X40.894Y-50.292
X43.876Y-37.338
X46.482Y-31.369
X46.863Y-34.29
X47.498Y-50.292
X47.625Y-24.13
X47.752Y-37.135
X47.752Y-39.675
X51.054Y-46.304
X52.197Y-24.13
X54.483Y-56.134
X54.737Y-40.894
X55.424Y-55.118
X56.048Y-39.624
X56.327Y-44.958
X56.388Y-43.688
X56.896Y-31.75
X58.674Y-49.682
X58.801Y-55.245
X59.944Y-40.132
X59.944Y-41.402
X62.107Y-49.682
X62.484Y-59.944
X64.275Y-56.896
X64.389Y-59.169
X65.358Y-22.018
X67.945Y-56.724
X71.12Y-24.13
X72.203Y-52.944
X72.39Y-29.21
X72.39Y-55.88
X72.524Y-58.42
X73.406Y-36.83
X74.124Y-55.88
X74.93Y-48.26
X75.7Y-55.372
X76.2Y-29.21
X76.524Y-58.42
X76.835Y-49.022
X77.324Y-57.658
X77.724Y-17.018
X79.724Y-34.544
X79.724Y-55.372
X80.518Y-35.56
X80.518Y-56.388
X83.2Y-36.449
X83.724Y-56.896
X86.233Y-29.21
X87.249Y-25.781
X87.63Y-24.003
X90.283Y-33.02
X93.669Y-61.722
X94.469Y-60.96
X95.269Y-61.722
X96.069Y-60.96
X97.155Y-25.146
T2
X19.664Y-59.505
X87.664Y-59.505
X88.257Y-58.073
X88.257Y-60.937
X89.689Y-57.48
X89.689Y-61.53
X91.121Y-58.073
X91.121Y-60.937
X91.714Y-59.505
X19.664Y-19.505
X20.257Y-18.073
X20.257Y-20.937
X21.689Y-17.48
X21.689Y-21.53
X23.121Y-18.073
X20.257Y-58.073
X20.257Y-60.937
X21.689Y-57.48
X21.689Y-61.53
X23.121Y-58.073
X23.121Y-60.937
X23.714Y-59.505
X23.121Y-20.937
X23.714Y-19.505
T3
X29.408Y-35.87
X67.056Y-38.354
T4
X28.956Y-18.344
X28.956Y-21.844
T5
X78.359Y-62.611
X80.899Y-62.611
X73.279Y-62.611
X75.819Y-62.611
X68.199Y-62.611
X70.739Y-62.611
X83.439Y-62.611
X85.979Y-62.611
T6
X61.595Y-31.83
X61.595Y-34.33
X61.595Y-36.83
X37.712Y-45.72
X40.212Y-45.72
X42.712Y-45.72
X45.212Y-45.72
T7
X64.516Y-44.602
X64.516Y-47.142
X64.516Y-49.682
X67.056Y-44.602
X67.056Y-47.142
X67.056Y-49.682
T8
X20.828Y-26.797
X20.828Y-29.337
X20.32Y-46.736
X20.32Y-49.276
X20.32Y-51.816
X20.32Y-54.356
T9
X25.908Y-52.792
X25.908Y-62.992
X30.808Y-50.292
X35.908Y-52.792
X35.908Y-62.992
X39.116Y-52.792
X39.116Y-62.992
X44.016Y-50.292
X49.116Y-52.792
X49.116Y-62.992
T10
X89.689Y-59.505
X21.689Y-19.505
X21.689Y-59.505
T0
M30
