G04 #@! TF.GenerationSoftware,KiCad,Pcbnew,(5.1.0-1275-gdad8c9821)*
G04 #@! TF.CreationDate,2019-07-24T10:58:07+03:00*
G04 #@! TF.ProjectId,UBD,5542442e-6b69-4636-9164-5f7063625858,rev?*
G04 #@! TF.SameCoordinates,Original*
G04 #@! TF.FileFunction,Soldermask,Bot*
G04 #@! TF.FilePolarity,Negative*
%FSLAX46Y46*%
G04 Gerber Fmt 4.6, Leading zero omitted, Abs format (unit mm)*
G04 Created by KiCad (PCBNEW (5.1.0-1275-gdad8c9821)) date 2019-07-24 10:58:07*
%MOMM*%
%LPD*%
G04 APERTURE LIST*
%ADD10C,0.100000*%
G04 APERTURE END LIST*
D10*
G36*
X25970163Y-61691001D02*
G01*
X26021823Y-61691001D01*
X26081518Y-61701527D01*
X26136934Y-61706765D01*
X26188515Y-61720393D01*
X26246010Y-61730531D01*
X26296660Y-61748966D01*
X26343774Y-61761414D01*
X26398780Y-61786135D01*
X26459926Y-61808390D01*
X26500766Y-61831969D01*
X26538911Y-61849112D01*
X26594971Y-61886358D01*
X26657073Y-61922213D01*
X26688019Y-61948179D01*
X26717100Y-61967501D01*
X26771480Y-62018211D01*
X26831460Y-62068540D01*
X26853074Y-62094299D01*
X26873564Y-62113406D01*
X26923316Y-62178010D01*
X26977787Y-62242927D01*
X26991202Y-62266163D01*
X27004093Y-62282902D01*
X27046128Y-62361298D01*
X27091610Y-62440074D01*
X27098462Y-62458899D01*
X27105190Y-62471447D01*
X27136443Y-62563252D01*
X27169469Y-62653990D01*
X27171764Y-62667007D01*
X27174133Y-62673965D01*
X27191667Y-62779884D01*
X27208999Y-62878177D01*
X27208999Y-63105823D01*
X27202489Y-63142743D01*
X27201972Y-63163903D01*
X27184550Y-63244481D01*
X27169469Y-63330010D01*
X27161066Y-63353098D01*
X27157086Y-63371504D01*
X27123393Y-63456603D01*
X27091610Y-63543926D01*
X27082729Y-63559308D01*
X27078332Y-63570414D01*
X27026836Y-63656118D01*
X26977787Y-63741073D01*
X26970752Y-63749457D01*
X26968148Y-63753791D01*
X26894706Y-63840086D01*
X26831460Y-63915460D01*
X26762806Y-63973067D01*
X26666089Y-64054799D01*
X26663713Y-64056215D01*
X26657073Y-64061787D01*
X26571103Y-64111422D01*
X26482325Y-64164344D01*
X26473341Y-64167865D01*
X26459926Y-64175610D01*
X26370837Y-64208036D01*
X26283137Y-64242405D01*
X26266962Y-64245843D01*
X26246010Y-64253469D01*
X26158446Y-64268909D01*
X26073879Y-64286884D01*
X26050476Y-64287947D01*
X26021823Y-64292999D01*
X25939221Y-64292999D01*
X25860166Y-64296589D01*
X25830059Y-64292999D01*
X25794177Y-64292999D01*
X25719223Y-64279783D01*
X25647733Y-64271258D01*
X25612000Y-64260876D01*
X25569990Y-64253469D01*
X25504662Y-64229691D01*
X25442288Y-64211570D01*
X25402505Y-64192509D01*
X25356074Y-64175610D01*
X25301655Y-64144191D01*
X25249358Y-64119135D01*
X25207543Y-64089856D01*
X25158927Y-64061787D01*
X25115915Y-64025696D01*
X25074108Y-63996422D01*
X25032689Y-63955862D01*
X24984540Y-63915460D01*
X24952776Y-63877604D01*
X24921260Y-63846742D01*
X24882897Y-63794325D01*
X24838213Y-63741073D01*
X24816886Y-63704133D01*
X24794907Y-63674103D01*
X24762446Y-63609840D01*
X24724390Y-63543926D01*
X24712117Y-63510206D01*
X24698450Y-63483150D01*
X24674789Y-63407648D01*
X24646531Y-63330010D01*
X24641478Y-63301355D01*
X24634474Y-63279004D01*
X24622444Y-63193406D01*
X24607001Y-63105823D01*
X24607001Y-63083521D01*
X24604700Y-63067148D01*
X24607001Y-62972998D01*
X24607001Y-62878177D01*
X24609691Y-62862920D01*
X24609927Y-62853275D01*
X24629288Y-62751779D01*
X24646531Y-62653990D01*
X24649497Y-62645842D01*
X24650014Y-62643130D01*
X24693709Y-62524369D01*
X24724390Y-62440074D01*
X24773544Y-62354937D01*
X24829557Y-62256337D01*
X24832740Y-62252406D01*
X24838213Y-62242927D01*
X24901280Y-62167766D01*
X24964192Y-62090076D01*
X24973122Y-62082148D01*
X24984540Y-62068540D01*
X25055724Y-62008810D01*
X25124173Y-61948038D01*
X25140111Y-61938001D01*
X25158927Y-61922213D01*
X25234133Y-61878793D01*
X25305201Y-61834039D01*
X25328914Y-61824071D01*
X25356074Y-61808390D01*
X25431682Y-61780871D01*
X25502423Y-61751134D01*
X25534151Y-61743575D01*
X25569990Y-61730531D01*
X25642784Y-61717696D01*
X25710531Y-61701556D01*
X25749947Y-61698800D01*
X25794177Y-61691001D01*
X25861484Y-61691001D01*
X25923953Y-61686633D01*
X25970163Y-61691001D01*
X25970163Y-61691001D01*
G37*
G36*
X35970163Y-61691001D02*
G01*
X36021823Y-61691001D01*
X36081518Y-61701527D01*
X36136934Y-61706765D01*
X36188515Y-61720393D01*
X36246010Y-61730531D01*
X36296660Y-61748966D01*
X36343774Y-61761414D01*
X36398780Y-61786135D01*
X36459926Y-61808390D01*
X36500766Y-61831969D01*
X36538911Y-61849112D01*
X36594971Y-61886358D01*
X36657073Y-61922213D01*
X36688019Y-61948179D01*
X36717100Y-61967501D01*
X36771480Y-62018211D01*
X36831460Y-62068540D01*
X36853074Y-62094299D01*
X36873564Y-62113406D01*
X36923316Y-62178010D01*
X36977787Y-62242927D01*
X36991202Y-62266163D01*
X37004093Y-62282902D01*
X37046128Y-62361298D01*
X37091610Y-62440074D01*
X37098462Y-62458899D01*
X37105190Y-62471447D01*
X37136443Y-62563252D01*
X37169469Y-62653990D01*
X37171764Y-62667007D01*
X37174133Y-62673965D01*
X37191667Y-62779884D01*
X37208999Y-62878177D01*
X37208999Y-63105823D01*
X37202489Y-63142743D01*
X37201972Y-63163903D01*
X37184550Y-63244481D01*
X37169469Y-63330010D01*
X37161066Y-63353098D01*
X37157086Y-63371504D01*
X37123393Y-63456603D01*
X37091610Y-63543926D01*
X37082729Y-63559308D01*
X37078332Y-63570414D01*
X37026836Y-63656118D01*
X36977787Y-63741073D01*
X36970752Y-63749457D01*
X36968148Y-63753791D01*
X36894706Y-63840086D01*
X36831460Y-63915460D01*
X36762806Y-63973067D01*
X36666089Y-64054799D01*
X36663713Y-64056215D01*
X36657073Y-64061787D01*
X36571103Y-64111422D01*
X36482325Y-64164344D01*
X36473341Y-64167865D01*
X36459926Y-64175610D01*
X36370837Y-64208036D01*
X36283137Y-64242405D01*
X36266962Y-64245843D01*
X36246010Y-64253469D01*
X36158446Y-64268909D01*
X36073879Y-64286884D01*
X36050476Y-64287947D01*
X36021823Y-64292999D01*
X35939221Y-64292999D01*
X35860166Y-64296589D01*
X35830059Y-64292999D01*
X35794177Y-64292999D01*
X35719223Y-64279783D01*
X35647733Y-64271258D01*
X35612000Y-64260876D01*
X35569990Y-64253469D01*
X35504662Y-64229691D01*
X35442288Y-64211570D01*
X35402505Y-64192509D01*
X35356074Y-64175610D01*
X35301655Y-64144191D01*
X35249358Y-64119135D01*
X35207543Y-64089856D01*
X35158927Y-64061787D01*
X35115915Y-64025696D01*
X35074108Y-63996422D01*
X35032689Y-63955862D01*
X34984540Y-63915460D01*
X34952776Y-63877604D01*
X34921260Y-63846742D01*
X34882897Y-63794325D01*
X34838213Y-63741073D01*
X34816886Y-63704133D01*
X34794907Y-63674103D01*
X34762446Y-63609840D01*
X34724390Y-63543926D01*
X34712117Y-63510206D01*
X34698450Y-63483150D01*
X34674789Y-63407648D01*
X34646531Y-63330010D01*
X34641478Y-63301355D01*
X34634474Y-63279004D01*
X34622444Y-63193406D01*
X34607001Y-63105823D01*
X34607001Y-63083521D01*
X34604700Y-63067148D01*
X34607001Y-62972998D01*
X34607001Y-62878177D01*
X34609691Y-62862920D01*
X34609927Y-62853275D01*
X34629288Y-62751779D01*
X34646531Y-62653990D01*
X34649497Y-62645842D01*
X34650014Y-62643130D01*
X34693709Y-62524369D01*
X34724390Y-62440074D01*
X34773544Y-62354937D01*
X34829557Y-62256337D01*
X34832740Y-62252406D01*
X34838213Y-62242927D01*
X34901280Y-62167766D01*
X34964192Y-62090076D01*
X34973122Y-62082148D01*
X34984540Y-62068540D01*
X35055724Y-62008810D01*
X35124173Y-61948038D01*
X35140111Y-61938001D01*
X35158927Y-61922213D01*
X35234133Y-61878793D01*
X35305201Y-61834039D01*
X35328914Y-61824071D01*
X35356074Y-61808390D01*
X35431682Y-61780871D01*
X35502423Y-61751134D01*
X35534151Y-61743575D01*
X35569990Y-61730531D01*
X35642784Y-61717696D01*
X35710531Y-61701556D01*
X35749947Y-61698800D01*
X35794177Y-61691001D01*
X35861484Y-61691001D01*
X35923953Y-61686633D01*
X35970163Y-61691001D01*
X35970163Y-61691001D01*
G37*
G36*
X39178163Y-61691001D02*
G01*
X39229823Y-61691001D01*
X39289518Y-61701527D01*
X39344934Y-61706765D01*
X39396515Y-61720393D01*
X39454010Y-61730531D01*
X39504660Y-61748966D01*
X39551774Y-61761414D01*
X39606780Y-61786135D01*
X39667926Y-61808390D01*
X39708766Y-61831969D01*
X39746911Y-61849112D01*
X39802971Y-61886358D01*
X39865073Y-61922213D01*
X39896019Y-61948179D01*
X39925100Y-61967501D01*
X39979480Y-62018211D01*
X40039460Y-62068540D01*
X40061074Y-62094299D01*
X40081564Y-62113406D01*
X40131316Y-62178010D01*
X40185787Y-62242927D01*
X40199202Y-62266163D01*
X40212093Y-62282902D01*
X40254128Y-62361298D01*
X40299610Y-62440074D01*
X40306462Y-62458899D01*
X40313190Y-62471447D01*
X40344443Y-62563252D01*
X40377469Y-62653990D01*
X40379764Y-62667007D01*
X40382133Y-62673965D01*
X40399667Y-62779884D01*
X40416999Y-62878177D01*
X40416999Y-63105823D01*
X40410489Y-63142743D01*
X40409972Y-63163903D01*
X40392550Y-63244481D01*
X40377469Y-63330010D01*
X40369066Y-63353098D01*
X40365086Y-63371504D01*
X40331393Y-63456603D01*
X40299610Y-63543926D01*
X40290729Y-63559308D01*
X40286332Y-63570414D01*
X40234836Y-63656118D01*
X40185787Y-63741073D01*
X40178752Y-63749457D01*
X40176148Y-63753791D01*
X40102706Y-63840086D01*
X40039460Y-63915460D01*
X39970806Y-63973067D01*
X39874089Y-64054799D01*
X39871713Y-64056215D01*
X39865073Y-64061787D01*
X39779103Y-64111422D01*
X39690325Y-64164344D01*
X39681341Y-64167865D01*
X39667926Y-64175610D01*
X39578837Y-64208036D01*
X39491137Y-64242405D01*
X39474962Y-64245843D01*
X39454010Y-64253469D01*
X39366446Y-64268909D01*
X39281879Y-64286884D01*
X39258476Y-64287947D01*
X39229823Y-64292999D01*
X39147221Y-64292999D01*
X39068166Y-64296589D01*
X39038059Y-64292999D01*
X39002177Y-64292999D01*
X38927223Y-64279783D01*
X38855733Y-64271258D01*
X38820000Y-64260876D01*
X38777990Y-64253469D01*
X38712662Y-64229691D01*
X38650288Y-64211570D01*
X38610505Y-64192509D01*
X38564074Y-64175610D01*
X38509655Y-64144191D01*
X38457358Y-64119135D01*
X38415543Y-64089856D01*
X38366927Y-64061787D01*
X38323915Y-64025696D01*
X38282108Y-63996422D01*
X38240689Y-63955862D01*
X38192540Y-63915460D01*
X38160776Y-63877604D01*
X38129260Y-63846742D01*
X38090897Y-63794325D01*
X38046213Y-63741073D01*
X38024886Y-63704133D01*
X38002907Y-63674103D01*
X37970446Y-63609840D01*
X37932390Y-63543926D01*
X37920117Y-63510206D01*
X37906450Y-63483150D01*
X37882789Y-63407648D01*
X37854531Y-63330010D01*
X37849478Y-63301355D01*
X37842474Y-63279004D01*
X37830444Y-63193406D01*
X37815001Y-63105823D01*
X37815001Y-63083521D01*
X37812700Y-63067148D01*
X37815001Y-62972998D01*
X37815001Y-62878177D01*
X37817691Y-62862920D01*
X37817927Y-62853275D01*
X37837288Y-62751779D01*
X37854531Y-62653990D01*
X37857497Y-62645842D01*
X37858014Y-62643130D01*
X37901709Y-62524369D01*
X37932390Y-62440074D01*
X37981544Y-62354937D01*
X38037557Y-62256337D01*
X38040740Y-62252406D01*
X38046213Y-62242927D01*
X38109280Y-62167766D01*
X38172192Y-62090076D01*
X38181122Y-62082148D01*
X38192540Y-62068540D01*
X38263724Y-62008810D01*
X38332173Y-61948038D01*
X38348111Y-61938001D01*
X38366927Y-61922213D01*
X38442133Y-61878793D01*
X38513201Y-61834039D01*
X38536914Y-61824071D01*
X38564074Y-61808390D01*
X38639682Y-61780871D01*
X38710423Y-61751134D01*
X38742151Y-61743575D01*
X38777990Y-61730531D01*
X38850784Y-61717696D01*
X38918531Y-61701556D01*
X38957947Y-61698800D01*
X39002177Y-61691001D01*
X39069484Y-61691001D01*
X39131953Y-61686633D01*
X39178163Y-61691001D01*
X39178163Y-61691001D01*
G37*
G36*
X49178163Y-61691001D02*
G01*
X49229823Y-61691001D01*
X49289518Y-61701527D01*
X49344934Y-61706765D01*
X49396515Y-61720393D01*
X49454010Y-61730531D01*
X49504660Y-61748966D01*
X49551774Y-61761414D01*
X49606780Y-61786135D01*
X49667926Y-61808390D01*
X49708766Y-61831969D01*
X49746911Y-61849112D01*
X49802971Y-61886358D01*
X49865073Y-61922213D01*
X49896019Y-61948179D01*
X49925100Y-61967501D01*
X49979480Y-62018211D01*
X50039460Y-62068540D01*
X50061074Y-62094299D01*
X50081564Y-62113406D01*
X50131316Y-62178010D01*
X50185787Y-62242927D01*
X50199202Y-62266163D01*
X50212093Y-62282902D01*
X50254128Y-62361298D01*
X50299610Y-62440074D01*
X50306462Y-62458899D01*
X50313190Y-62471447D01*
X50344443Y-62563252D01*
X50377469Y-62653990D01*
X50379764Y-62667007D01*
X50382133Y-62673965D01*
X50399667Y-62779884D01*
X50416999Y-62878177D01*
X50416999Y-63105823D01*
X50410489Y-63142743D01*
X50409972Y-63163903D01*
X50392550Y-63244481D01*
X50377469Y-63330010D01*
X50369066Y-63353098D01*
X50365086Y-63371504D01*
X50331393Y-63456603D01*
X50299610Y-63543926D01*
X50290729Y-63559308D01*
X50286332Y-63570414D01*
X50234836Y-63656118D01*
X50185787Y-63741073D01*
X50178752Y-63749457D01*
X50176148Y-63753791D01*
X50102706Y-63840086D01*
X50039460Y-63915460D01*
X49970806Y-63973067D01*
X49874089Y-64054799D01*
X49871713Y-64056215D01*
X49865073Y-64061787D01*
X49779103Y-64111422D01*
X49690325Y-64164344D01*
X49681341Y-64167865D01*
X49667926Y-64175610D01*
X49578837Y-64208036D01*
X49491137Y-64242405D01*
X49474962Y-64245843D01*
X49454010Y-64253469D01*
X49366446Y-64268909D01*
X49281879Y-64286884D01*
X49258476Y-64287947D01*
X49229823Y-64292999D01*
X49147221Y-64292999D01*
X49068166Y-64296589D01*
X49038059Y-64292999D01*
X49002177Y-64292999D01*
X48927223Y-64279783D01*
X48855733Y-64271258D01*
X48820000Y-64260876D01*
X48777990Y-64253469D01*
X48712662Y-64229691D01*
X48650288Y-64211570D01*
X48610505Y-64192509D01*
X48564074Y-64175610D01*
X48509655Y-64144191D01*
X48457358Y-64119135D01*
X48415543Y-64089856D01*
X48366927Y-64061787D01*
X48323915Y-64025696D01*
X48282108Y-63996422D01*
X48240689Y-63955862D01*
X48192540Y-63915460D01*
X48160776Y-63877604D01*
X48129260Y-63846742D01*
X48090897Y-63794325D01*
X48046213Y-63741073D01*
X48024886Y-63704133D01*
X48002907Y-63674103D01*
X47970446Y-63609840D01*
X47932390Y-63543926D01*
X47920117Y-63510206D01*
X47906450Y-63483150D01*
X47882789Y-63407648D01*
X47854531Y-63330010D01*
X47849478Y-63301355D01*
X47842474Y-63279004D01*
X47830444Y-63193406D01*
X47815001Y-63105823D01*
X47815001Y-63083521D01*
X47812700Y-63067148D01*
X47815001Y-62972998D01*
X47815001Y-62878177D01*
X47817691Y-62862920D01*
X47817927Y-62853275D01*
X47837288Y-62751779D01*
X47854531Y-62653990D01*
X47857497Y-62645842D01*
X47858014Y-62643130D01*
X47901709Y-62524369D01*
X47932390Y-62440074D01*
X47981544Y-62354937D01*
X48037557Y-62256337D01*
X48040740Y-62252406D01*
X48046213Y-62242927D01*
X48109280Y-62167766D01*
X48172192Y-62090076D01*
X48181122Y-62082148D01*
X48192540Y-62068540D01*
X48263724Y-62008810D01*
X48332173Y-61948038D01*
X48348111Y-61938001D01*
X48366927Y-61922213D01*
X48442133Y-61878793D01*
X48513201Y-61834039D01*
X48536914Y-61824071D01*
X48564074Y-61808390D01*
X48639682Y-61780871D01*
X48710423Y-61751134D01*
X48742151Y-61743575D01*
X48777990Y-61730531D01*
X48850784Y-61717696D01*
X48918531Y-61701556D01*
X48957947Y-61698800D01*
X49002177Y-61691001D01*
X49069484Y-61691001D01*
X49131953Y-61686633D01*
X49178163Y-61691001D01*
X49178163Y-61691001D01*
G37*
G36*
X86075675Y-61663627D02*
G01*
X86116905Y-61665680D01*
X86165080Y-61677468D01*
X86219954Y-61685963D01*
X86258728Y-61700383D01*
X86293176Y-61708812D01*
X86343544Y-61731925D01*
X86401037Y-61753307D01*
X86431173Y-61772138D01*
X86458107Y-61784498D01*
X86507922Y-61820097D01*
X86564880Y-61855688D01*
X86586387Y-61876168D01*
X86605749Y-61890005D01*
X86651931Y-61938585D01*
X86704790Y-61988922D01*
X86718404Y-62008511D01*
X86730782Y-62021531D01*
X86770083Y-62082866D01*
X86815052Y-62147569D01*
X86822145Y-62164119D01*
X86828683Y-62174322D01*
X86857818Y-62247349D01*
X86891162Y-62325146D01*
X86893606Y-62337051D01*
X86895928Y-62342872D01*
X86911813Y-62425748D01*
X86930010Y-62514400D01*
X86929988Y-62520580D01*
X86930056Y-62520932D01*
X86929404Y-62707704D01*
X86929335Y-62708053D01*
X86929313Y-62714237D01*
X86910491Y-62802785D01*
X86894034Y-62885522D01*
X86891671Y-62891327D01*
X86889144Y-62903215D01*
X86855246Y-62980806D01*
X86825613Y-63053599D01*
X86819009Y-63063748D01*
X86811797Y-63080257D01*
X86766357Y-63144672D01*
X86726645Y-63205707D01*
X86714180Y-63218637D01*
X86700430Y-63238129D01*
X86647221Y-63288096D01*
X86600704Y-63336349D01*
X86581248Y-63350048D01*
X86559593Y-63370384D01*
X86502380Y-63405582D01*
X86452323Y-63440828D01*
X86425302Y-63453000D01*
X86395039Y-63471618D01*
X86337399Y-63492597D01*
X86286868Y-63515360D01*
X86252362Y-63523549D01*
X86213490Y-63537697D01*
X86158568Y-63545807D01*
X86110307Y-63557260D01*
X86069057Y-63559025D01*
X86022363Y-63565920D01*
X85972741Y-63563146D01*
X85929000Y-63565017D01*
X85882403Y-63558095D01*
X85829464Y-63555135D01*
X85787057Y-63543931D01*
X85749504Y-63538352D01*
X85699566Y-63520815D01*
X85642673Y-63505783D01*
X85608600Y-63488869D01*
X85578288Y-63478224D01*
X85527557Y-63448639D01*
X85469621Y-63419879D01*
X85444245Y-63400053D01*
X85421528Y-63386805D01*
X85372930Y-63344335D01*
X85317378Y-63300933D01*
X85300292Y-63280857D01*
X85284884Y-63267392D01*
X85241628Y-63211928D01*
X85192161Y-63153804D01*
X85182277Y-63135825D01*
X85173285Y-63124295D01*
X85138661Y-63056488D01*
X85099086Y-62984501D01*
X85094749Y-62970492D01*
X85090760Y-62962679D01*
X85067983Y-62884022D01*
X85041955Y-62799941D01*
X85041095Y-62791173D01*
X85040285Y-62788375D01*
X85032295Y-62701423D01*
X85023102Y-62607663D01*
X85032949Y-62513976D01*
X85041546Y-62427079D01*
X85042376Y-62424287D01*
X85043297Y-62415521D01*
X85069920Y-62331594D01*
X85093237Y-62253129D01*
X85097280Y-62245346D01*
X85101715Y-62231365D01*
X85141811Y-62159621D01*
X85176891Y-62092090D01*
X85185956Y-62080632D01*
X85195969Y-62062716D01*
X85245849Y-62004930D01*
X85289484Y-61949776D01*
X85304984Y-61936420D01*
X85322210Y-61916464D01*
X85378069Y-61873447D01*
X85426959Y-61831321D01*
X85449768Y-61818232D01*
X85475281Y-61798584D01*
X85533401Y-61770237D01*
X85584350Y-61740999D01*
X85614746Y-61730562D01*
X85648928Y-61713891D01*
X85705921Y-61699258D01*
X85755983Y-61682069D01*
X85793572Y-61676753D01*
X85836059Y-61665844D01*
X85889020Y-61663254D01*
X85935663Y-61656657D01*
X85979388Y-61658834D01*
X86029028Y-61656406D01*
X86075675Y-61663627D01*
X86075675Y-61663627D01*
G37*
G36*
X70835675Y-61663627D02*
G01*
X70876905Y-61665680D01*
X70925080Y-61677468D01*
X70979954Y-61685963D01*
X71018728Y-61700383D01*
X71053176Y-61708812D01*
X71103544Y-61731925D01*
X71161037Y-61753307D01*
X71191173Y-61772138D01*
X71218107Y-61784498D01*
X71267922Y-61820097D01*
X71324880Y-61855688D01*
X71346387Y-61876168D01*
X71365749Y-61890005D01*
X71411931Y-61938585D01*
X71464790Y-61988922D01*
X71478404Y-62008511D01*
X71490782Y-62021531D01*
X71530083Y-62082866D01*
X71575052Y-62147569D01*
X71582145Y-62164119D01*
X71588683Y-62174322D01*
X71617818Y-62247349D01*
X71651162Y-62325146D01*
X71653606Y-62337051D01*
X71655928Y-62342872D01*
X71671813Y-62425748D01*
X71690010Y-62514400D01*
X71689988Y-62520580D01*
X71690056Y-62520932D01*
X71689404Y-62707704D01*
X71689335Y-62708053D01*
X71689313Y-62714237D01*
X71670491Y-62802785D01*
X71654034Y-62885522D01*
X71651671Y-62891327D01*
X71649144Y-62903215D01*
X71615246Y-62980806D01*
X71585613Y-63053599D01*
X71579009Y-63063748D01*
X71571797Y-63080257D01*
X71526357Y-63144672D01*
X71486645Y-63205707D01*
X71474180Y-63218637D01*
X71460430Y-63238129D01*
X71407221Y-63288096D01*
X71360704Y-63336349D01*
X71341248Y-63350048D01*
X71319593Y-63370384D01*
X71262380Y-63405582D01*
X71212323Y-63440828D01*
X71185302Y-63453000D01*
X71155039Y-63471618D01*
X71097399Y-63492597D01*
X71046868Y-63515360D01*
X71012362Y-63523549D01*
X70973490Y-63537697D01*
X70918568Y-63545807D01*
X70870307Y-63557260D01*
X70829057Y-63559025D01*
X70782363Y-63565920D01*
X70732741Y-63563146D01*
X70689000Y-63565017D01*
X70642403Y-63558095D01*
X70589464Y-63555135D01*
X70547057Y-63543931D01*
X70509504Y-63538352D01*
X70459566Y-63520815D01*
X70402673Y-63505783D01*
X70368600Y-63488869D01*
X70338288Y-63478224D01*
X70287557Y-63448639D01*
X70229621Y-63419879D01*
X70204245Y-63400053D01*
X70181528Y-63386805D01*
X70132930Y-63344335D01*
X70077378Y-63300933D01*
X70060292Y-63280857D01*
X70044884Y-63267392D01*
X70001628Y-63211928D01*
X69952161Y-63153804D01*
X69942277Y-63135825D01*
X69933285Y-63124295D01*
X69898661Y-63056488D01*
X69859086Y-62984501D01*
X69854749Y-62970492D01*
X69850760Y-62962679D01*
X69827983Y-62884022D01*
X69801955Y-62799941D01*
X69801095Y-62791173D01*
X69800285Y-62788375D01*
X69792295Y-62701423D01*
X69783102Y-62607663D01*
X69792949Y-62513976D01*
X69801546Y-62427079D01*
X69802376Y-62424287D01*
X69803297Y-62415521D01*
X69829920Y-62331594D01*
X69853237Y-62253129D01*
X69857280Y-62245346D01*
X69861715Y-62231365D01*
X69901811Y-62159621D01*
X69936891Y-62092090D01*
X69945956Y-62080632D01*
X69955969Y-62062716D01*
X70005849Y-62004930D01*
X70049484Y-61949776D01*
X70064984Y-61936420D01*
X70082210Y-61916464D01*
X70138069Y-61873447D01*
X70186959Y-61831321D01*
X70209768Y-61818232D01*
X70235281Y-61798584D01*
X70293401Y-61770237D01*
X70344350Y-61740999D01*
X70374746Y-61730562D01*
X70408928Y-61713891D01*
X70465921Y-61699258D01*
X70515983Y-61682069D01*
X70553572Y-61676753D01*
X70596059Y-61665844D01*
X70649020Y-61663254D01*
X70695663Y-61656657D01*
X70739388Y-61658834D01*
X70789028Y-61656406D01*
X70835675Y-61663627D01*
X70835675Y-61663627D01*
G37*
G36*
X75915675Y-61663627D02*
G01*
X75956905Y-61665680D01*
X76005080Y-61677468D01*
X76059954Y-61685963D01*
X76098728Y-61700383D01*
X76133176Y-61708812D01*
X76183544Y-61731925D01*
X76241037Y-61753307D01*
X76271173Y-61772138D01*
X76298107Y-61784498D01*
X76347922Y-61820097D01*
X76404880Y-61855688D01*
X76426387Y-61876168D01*
X76445749Y-61890005D01*
X76491931Y-61938585D01*
X76544790Y-61988922D01*
X76558404Y-62008511D01*
X76570782Y-62021531D01*
X76610083Y-62082866D01*
X76655052Y-62147569D01*
X76662145Y-62164119D01*
X76668683Y-62174322D01*
X76697818Y-62247349D01*
X76731162Y-62325146D01*
X76733606Y-62337051D01*
X76735928Y-62342872D01*
X76751813Y-62425748D01*
X76770010Y-62514400D01*
X76769988Y-62520580D01*
X76770056Y-62520932D01*
X76769404Y-62707704D01*
X76769335Y-62708053D01*
X76769313Y-62714237D01*
X76750491Y-62802785D01*
X76734034Y-62885522D01*
X76731671Y-62891327D01*
X76729144Y-62903215D01*
X76695246Y-62980806D01*
X76665613Y-63053599D01*
X76659009Y-63063748D01*
X76651797Y-63080257D01*
X76606357Y-63144672D01*
X76566645Y-63205707D01*
X76554180Y-63218637D01*
X76540430Y-63238129D01*
X76487221Y-63288096D01*
X76440704Y-63336349D01*
X76421248Y-63350048D01*
X76399593Y-63370384D01*
X76342380Y-63405582D01*
X76292323Y-63440828D01*
X76265302Y-63453000D01*
X76235039Y-63471618D01*
X76177399Y-63492597D01*
X76126868Y-63515360D01*
X76092362Y-63523549D01*
X76053490Y-63537697D01*
X75998568Y-63545807D01*
X75950307Y-63557260D01*
X75909057Y-63559025D01*
X75862363Y-63565920D01*
X75812741Y-63563146D01*
X75769000Y-63565017D01*
X75722403Y-63558095D01*
X75669464Y-63555135D01*
X75627057Y-63543931D01*
X75589504Y-63538352D01*
X75539566Y-63520815D01*
X75482673Y-63505783D01*
X75448600Y-63488869D01*
X75418288Y-63478224D01*
X75367557Y-63448639D01*
X75309621Y-63419879D01*
X75284245Y-63400053D01*
X75261528Y-63386805D01*
X75212930Y-63344335D01*
X75157378Y-63300933D01*
X75140292Y-63280857D01*
X75124884Y-63267392D01*
X75081628Y-63211928D01*
X75032161Y-63153804D01*
X75022277Y-63135825D01*
X75013285Y-63124295D01*
X74978661Y-63056488D01*
X74939086Y-62984501D01*
X74934749Y-62970492D01*
X74930760Y-62962679D01*
X74907983Y-62884022D01*
X74881955Y-62799941D01*
X74881095Y-62791173D01*
X74880285Y-62788375D01*
X74872295Y-62701423D01*
X74863102Y-62607663D01*
X74872949Y-62513976D01*
X74881546Y-62427079D01*
X74882376Y-62424287D01*
X74883297Y-62415521D01*
X74909920Y-62331594D01*
X74933237Y-62253129D01*
X74937280Y-62245346D01*
X74941715Y-62231365D01*
X74981811Y-62159621D01*
X75016891Y-62092090D01*
X75025956Y-62080632D01*
X75035969Y-62062716D01*
X75085849Y-62004930D01*
X75129484Y-61949776D01*
X75144984Y-61936420D01*
X75162210Y-61916464D01*
X75218069Y-61873447D01*
X75266959Y-61831321D01*
X75289768Y-61818232D01*
X75315281Y-61798584D01*
X75373401Y-61770237D01*
X75424350Y-61740999D01*
X75454746Y-61730562D01*
X75488928Y-61713891D01*
X75545921Y-61699258D01*
X75595983Y-61682069D01*
X75633572Y-61676753D01*
X75676059Y-61665844D01*
X75729020Y-61663254D01*
X75775663Y-61656657D01*
X75819388Y-61658834D01*
X75869028Y-61656406D01*
X75915675Y-61663627D01*
X75915675Y-61663627D01*
G37*
G36*
X80995675Y-61663627D02*
G01*
X81036905Y-61665680D01*
X81085080Y-61677468D01*
X81139954Y-61685963D01*
X81178728Y-61700383D01*
X81213176Y-61708812D01*
X81263544Y-61731925D01*
X81321037Y-61753307D01*
X81351173Y-61772138D01*
X81378107Y-61784498D01*
X81427922Y-61820097D01*
X81484880Y-61855688D01*
X81506387Y-61876168D01*
X81525749Y-61890005D01*
X81571931Y-61938585D01*
X81624790Y-61988922D01*
X81638404Y-62008511D01*
X81650782Y-62021531D01*
X81690083Y-62082866D01*
X81735052Y-62147569D01*
X81742145Y-62164119D01*
X81748683Y-62174322D01*
X81777818Y-62247349D01*
X81811162Y-62325146D01*
X81813606Y-62337051D01*
X81815928Y-62342872D01*
X81831813Y-62425748D01*
X81850010Y-62514400D01*
X81849988Y-62520580D01*
X81850056Y-62520932D01*
X81849404Y-62707704D01*
X81849335Y-62708053D01*
X81849313Y-62714237D01*
X81830491Y-62802785D01*
X81814034Y-62885522D01*
X81811671Y-62891327D01*
X81809144Y-62903215D01*
X81775246Y-62980806D01*
X81745613Y-63053599D01*
X81739009Y-63063748D01*
X81731797Y-63080257D01*
X81686357Y-63144672D01*
X81646645Y-63205707D01*
X81634180Y-63218637D01*
X81620430Y-63238129D01*
X81567221Y-63288096D01*
X81520704Y-63336349D01*
X81501248Y-63350048D01*
X81479593Y-63370384D01*
X81422380Y-63405582D01*
X81372323Y-63440828D01*
X81345302Y-63453000D01*
X81315039Y-63471618D01*
X81257399Y-63492597D01*
X81206868Y-63515360D01*
X81172362Y-63523549D01*
X81133490Y-63537697D01*
X81078568Y-63545807D01*
X81030307Y-63557260D01*
X80989057Y-63559025D01*
X80942363Y-63565920D01*
X80892741Y-63563146D01*
X80849000Y-63565017D01*
X80802403Y-63558095D01*
X80749464Y-63555135D01*
X80707057Y-63543931D01*
X80669504Y-63538352D01*
X80619566Y-63520815D01*
X80562673Y-63505783D01*
X80528600Y-63488869D01*
X80498288Y-63478224D01*
X80447557Y-63448639D01*
X80389621Y-63419879D01*
X80364245Y-63400053D01*
X80341528Y-63386805D01*
X80292930Y-63344335D01*
X80237378Y-63300933D01*
X80220292Y-63280857D01*
X80204884Y-63267392D01*
X80161628Y-63211928D01*
X80112161Y-63153804D01*
X80102277Y-63135825D01*
X80093285Y-63124295D01*
X80058661Y-63056488D01*
X80019086Y-62984501D01*
X80014749Y-62970492D01*
X80010760Y-62962679D01*
X79987983Y-62884022D01*
X79961955Y-62799941D01*
X79961095Y-62791173D01*
X79960285Y-62788375D01*
X79952295Y-62701423D01*
X79943102Y-62607663D01*
X79952949Y-62513976D01*
X79961546Y-62427079D01*
X79962376Y-62424287D01*
X79963297Y-62415521D01*
X79989920Y-62331594D01*
X80013237Y-62253129D01*
X80017280Y-62245346D01*
X80021715Y-62231365D01*
X80061811Y-62159621D01*
X80096891Y-62092090D01*
X80105956Y-62080632D01*
X80115969Y-62062716D01*
X80165849Y-62004930D01*
X80209484Y-61949776D01*
X80224984Y-61936420D01*
X80242210Y-61916464D01*
X80298069Y-61873447D01*
X80346959Y-61831321D01*
X80369768Y-61818232D01*
X80395281Y-61798584D01*
X80453401Y-61770237D01*
X80504350Y-61740999D01*
X80534746Y-61730562D01*
X80568928Y-61713891D01*
X80625921Y-61699258D01*
X80675983Y-61682069D01*
X80713572Y-61676753D01*
X80756059Y-61665844D01*
X80809020Y-61663254D01*
X80855663Y-61656657D01*
X80899388Y-61658834D01*
X80949028Y-61656406D01*
X80995675Y-61663627D01*
X80995675Y-61663627D01*
G37*
G36*
X84358899Y-61662959D02*
G01*
X84375769Y-61674231D01*
X84387041Y-61691101D01*
X84393448Y-61723312D01*
X84393448Y-63498688D01*
X84390999Y-63511000D01*
X84387041Y-63530899D01*
X84375769Y-63547769D01*
X84358899Y-63559041D01*
X84339000Y-63562999D01*
X84326688Y-63565448D01*
X82551312Y-63565448D01*
X82519101Y-63559041D01*
X82502231Y-63547769D01*
X82490959Y-63530899D01*
X82484552Y-63498688D01*
X82484552Y-61723312D01*
X82490959Y-61691101D01*
X82502231Y-61674231D01*
X82519101Y-61662959D01*
X82551312Y-61656552D01*
X84326688Y-61656552D01*
X84358899Y-61662959D01*
X84358899Y-61662959D01*
G37*
G36*
X79278899Y-61662959D02*
G01*
X79295769Y-61674231D01*
X79307041Y-61691101D01*
X79313448Y-61723312D01*
X79313448Y-63498688D01*
X79310999Y-63511000D01*
X79307041Y-63530899D01*
X79295769Y-63547769D01*
X79278899Y-63559041D01*
X79259000Y-63562999D01*
X79246688Y-63565448D01*
X77471312Y-63565448D01*
X77439101Y-63559041D01*
X77422231Y-63547769D01*
X77410959Y-63530899D01*
X77404552Y-63498688D01*
X77404552Y-61723312D01*
X77410959Y-61691101D01*
X77422231Y-61674231D01*
X77439101Y-61662959D01*
X77471312Y-61656552D01*
X79246688Y-61656552D01*
X79278899Y-61662959D01*
X79278899Y-61662959D01*
G37*
G36*
X74198899Y-61662959D02*
G01*
X74215769Y-61674231D01*
X74227041Y-61691101D01*
X74233448Y-61723312D01*
X74233448Y-63498688D01*
X74230999Y-63511000D01*
X74227041Y-63530899D01*
X74215769Y-63547769D01*
X74198899Y-63559041D01*
X74179000Y-63562999D01*
X74166688Y-63565448D01*
X72391312Y-63565448D01*
X72359101Y-63559041D01*
X72342231Y-63547769D01*
X72330959Y-63530899D01*
X72324552Y-63498688D01*
X72324552Y-61723312D01*
X72330959Y-61691101D01*
X72342231Y-61674231D01*
X72359101Y-61662959D01*
X72391312Y-61656552D01*
X74166688Y-61656552D01*
X74198899Y-61662959D01*
X74198899Y-61662959D01*
G37*
G36*
X69118899Y-61662959D02*
G01*
X69135769Y-61674231D01*
X69147041Y-61691101D01*
X69153448Y-61723312D01*
X69153448Y-63498688D01*
X69150999Y-63511000D01*
X69147041Y-63530899D01*
X69135769Y-63547769D01*
X69118899Y-63559041D01*
X69099000Y-63562999D01*
X69086688Y-63565448D01*
X67311312Y-63565448D01*
X67279101Y-63559041D01*
X67262231Y-63547769D01*
X67250959Y-63530899D01*
X67244552Y-63498688D01*
X67244552Y-61723312D01*
X67250959Y-61691101D01*
X67262231Y-61674231D01*
X67279101Y-61662959D01*
X67311312Y-61656552D01*
X69086688Y-61656552D01*
X69118899Y-61662959D01*
X69118899Y-61662959D01*
G37*
G36*
X89770818Y-56754773D02*
G01*
X89871972Y-56755391D01*
X89932679Y-56763114D01*
X89991730Y-56766157D01*
X90096113Y-56783906D01*
X90201021Y-56797252D01*
X90255751Y-56811050D01*
X90309246Y-56820146D01*
X90415656Y-56851363D01*
X90522659Y-56878340D01*
X90570914Y-56896912D01*
X90618299Y-56910813D01*
X90724988Y-56956209D01*
X90832225Y-56997481D01*
X90873691Y-57019483D01*
X90914665Y-57036917D01*
X91019786Y-57096999D01*
X91125236Y-57152950D01*
X91159858Y-57177058D01*
X91194291Y-57196738D01*
X91295864Y-57271760D01*
X91397447Y-57342494D01*
X91425359Y-57367406D01*
X91453364Y-57388091D01*
X91549389Y-57478107D01*
X91644916Y-57563368D01*
X91666481Y-57587872D01*
X91688340Y-57608363D01*
X91776770Y-57713191D01*
X91864057Y-57812373D01*
X91879813Y-57835342D01*
X91896012Y-57854544D01*
X91974813Y-57973826D01*
X92051696Y-58085901D01*
X92062370Y-58106362D01*
X92073538Y-58123267D01*
X92140654Y-58256424D01*
X92205116Y-58379990D01*
X92211576Y-58397131D01*
X92218510Y-58410888D01*
X92272123Y-58557789D01*
X92322093Y-58690380D01*
X92325306Y-58703510D01*
X92328930Y-58713440D01*
X92367289Y-58875079D01*
X92400934Y-59012576D01*
X92401975Y-59021245D01*
X92403296Y-59026810D01*
X92424795Y-59211210D01*
X92440496Y-59341910D01*
X92436080Y-59731185D01*
X92417811Y-59858751D01*
X92415756Y-59905814D01*
X92400415Y-59980221D01*
X92389056Y-60059536D01*
X92367641Y-60139181D01*
X92351261Y-60218626D01*
X92324951Y-60297947D01*
X92302926Y-60379861D01*
X92273859Y-60451986D01*
X92249864Y-60524327D01*
X92212390Y-60604508D01*
X92178936Y-60687517D01*
X92143701Y-60751476D01*
X92113495Y-60816107D01*
X92064322Y-60895570D01*
X92018884Y-60978050D01*
X91978976Y-61033486D01*
X91944013Y-61089985D01*
X91882832Y-61167039D01*
X91825088Y-61247250D01*
X91782022Y-61294002D01*
X91743739Y-61342217D01*
X91670454Y-61415119D01*
X91600354Y-61491219D01*
X91555586Y-61529387D01*
X91515398Y-61569365D01*
X91430187Y-61636298D01*
X91347938Y-61706422D01*
X91302857Y-61736317D01*
X91262114Y-61768321D01*
X91165382Y-61827483D01*
X91071497Y-61889742D01*
X91027409Y-61911867D01*
X90987355Y-61936365D01*
X90879738Y-61985977D01*
X90775034Y-62038523D01*
X90733090Y-62053582D01*
X90694859Y-62071207D01*
X90577260Y-62109531D01*
X90462844Y-62150610D01*
X90424050Y-62159460D01*
X90388637Y-62171000D01*
X90262203Y-62196379D01*
X90139450Y-62224381D01*
X90104620Y-62228011D01*
X90072866Y-62234385D01*
X89938972Y-62245275D01*
X89809535Y-62258765D01*
X89779279Y-62258263D01*
X89751839Y-62260495D01*
X89611955Y-62255488D01*
X89477879Y-62253265D01*
X89452652Y-62249787D01*
X89429969Y-62248975D01*
X89285666Y-62226764D01*
X89149286Y-62207961D01*
X89129275Y-62202693D01*
X89111645Y-62199979D01*
X88964558Y-62159327D01*
X88828515Y-62123510D01*
X88813724Y-62117639D01*
X88801202Y-62114178D01*
X88652236Y-62053538D01*
X88520214Y-62001133D01*
X88510449Y-61995820D01*
X88502900Y-61992747D01*
X88350867Y-61908993D01*
X88228847Y-61842604D01*
X88223694Y-61838935D01*
X88220793Y-61837337D01*
X88043525Y-61710659D01*
X87958635Y-61650220D01*
X87881595Y-61579996D01*
X87720344Y-61433526D01*
X87718173Y-61431033D01*
X87713493Y-61426767D01*
X87622774Y-61321482D01*
X87508830Y-61190635D01*
X87504230Y-61183905D01*
X87496972Y-61175481D01*
X87417851Y-61057515D01*
X87327099Y-60924726D01*
X87321068Y-60913215D01*
X87312207Y-60900003D01*
X87248485Y-60774671D01*
X87177634Y-60639434D01*
X87171253Y-60622766D01*
X87161876Y-60604324D01*
X87114670Y-60474978D01*
X87062472Y-60338642D01*
X87056887Y-60316651D01*
X87048155Y-60292725D01*
X87017652Y-60162163D01*
X86983192Y-60026474D01*
X86979573Y-59999170D01*
X86972693Y-59969721D01*
X86958531Y-59840414D01*
X86940874Y-59707193D01*
X86940394Y-59674802D01*
X86936581Y-59639991D01*
X86938009Y-59514082D01*
X86936097Y-59385153D01*
X86939892Y-59348107D01*
X86940344Y-59308311D01*
X86956317Y-59187796D01*
X86968924Y-59064749D01*
X86978073Y-59023650D01*
X86983927Y-58979485D01*
X87013156Y-58866055D01*
X87038909Y-58750373D01*
X87054389Y-58706045D01*
X87066698Y-58658277D01*
X87107701Y-58553379D01*
X87145094Y-58446302D01*
X87167773Y-58399701D01*
X87187459Y-58349338D01*
X87238611Y-58254140D01*
X87286030Y-58156701D01*
X87316611Y-58108974D01*
X87344460Y-58057145D01*
X87404032Y-57972539D01*
X87459796Y-57885511D01*
X87498831Y-57837904D01*
X87535427Y-57785930D01*
X87601618Y-57712546D01*
X87664008Y-57636456D01*
X87711847Y-57590339D01*
X87757593Y-57539622D01*
X87828611Y-57477779D01*
X87895886Y-57412925D01*
X87952672Y-57369744D01*
X88007742Y-57321788D01*
X88081802Y-57271551D01*
X88152258Y-57217975D01*
X88217903Y-57179230D01*
X88282248Y-57135583D01*
X88357648Y-57096749D01*
X88429624Y-57054268D01*
X88503822Y-57021466D01*
X88577137Y-56983706D01*
X88652253Y-56955845D01*
X88724204Y-56924036D01*
X88806411Y-56898667D01*
X88888136Y-56868355D01*
X88961467Y-56850817D01*
X89031955Y-56829065D01*
X89121404Y-56812567D01*
X89210740Y-56791202D01*
X89280959Y-56783139D01*
X89348698Y-56770646D01*
X89444398Y-56764374D01*
X89540276Y-56753365D01*
X89606216Y-56753768D01*
X89670080Y-56749582D01*
X89770818Y-56754773D01*
X89770818Y-56754773D01*
G37*
G36*
X21770819Y-56754773D02*
G01*
X21871973Y-56755391D01*
X21932680Y-56763114D01*
X21991731Y-56766157D01*
X22096114Y-56783906D01*
X22201022Y-56797252D01*
X22255752Y-56811050D01*
X22309247Y-56820146D01*
X22415657Y-56851363D01*
X22522660Y-56878340D01*
X22570915Y-56896912D01*
X22618300Y-56910813D01*
X22724989Y-56956209D01*
X22832226Y-56997481D01*
X22873692Y-57019483D01*
X22914666Y-57036917D01*
X23019787Y-57096999D01*
X23125237Y-57152950D01*
X23159859Y-57177058D01*
X23194292Y-57196738D01*
X23295865Y-57271760D01*
X23397448Y-57342494D01*
X23425360Y-57367406D01*
X23453365Y-57388091D01*
X23549390Y-57478107D01*
X23644917Y-57563368D01*
X23666482Y-57587872D01*
X23688341Y-57608363D01*
X23776771Y-57713191D01*
X23864058Y-57812373D01*
X23879814Y-57835342D01*
X23896013Y-57854544D01*
X23974814Y-57973826D01*
X24051697Y-58085901D01*
X24062371Y-58106362D01*
X24073539Y-58123267D01*
X24140655Y-58256424D01*
X24205117Y-58379990D01*
X24211577Y-58397131D01*
X24218511Y-58410888D01*
X24272124Y-58557789D01*
X24322094Y-58690380D01*
X24325307Y-58703510D01*
X24328931Y-58713440D01*
X24367290Y-58875079D01*
X24400935Y-59012576D01*
X24401976Y-59021245D01*
X24403297Y-59026810D01*
X24424796Y-59211210D01*
X24440497Y-59341910D01*
X24436081Y-59731185D01*
X24417812Y-59858751D01*
X24415757Y-59905814D01*
X24400416Y-59980221D01*
X24389057Y-60059536D01*
X24367642Y-60139181D01*
X24351262Y-60218626D01*
X24324952Y-60297947D01*
X24302927Y-60379861D01*
X24273860Y-60451986D01*
X24249865Y-60524327D01*
X24212391Y-60604508D01*
X24178937Y-60687517D01*
X24143702Y-60751476D01*
X24113496Y-60816107D01*
X24064323Y-60895570D01*
X24018885Y-60978050D01*
X23978977Y-61033486D01*
X23944014Y-61089985D01*
X23882833Y-61167039D01*
X23825089Y-61247250D01*
X23782023Y-61294002D01*
X23743740Y-61342217D01*
X23670455Y-61415119D01*
X23600355Y-61491219D01*
X23555587Y-61529387D01*
X23515399Y-61569365D01*
X23430188Y-61636298D01*
X23347939Y-61706422D01*
X23302858Y-61736317D01*
X23262115Y-61768321D01*
X23165383Y-61827483D01*
X23071498Y-61889742D01*
X23027410Y-61911867D01*
X22987356Y-61936365D01*
X22879739Y-61985977D01*
X22775035Y-62038523D01*
X22733091Y-62053582D01*
X22694860Y-62071207D01*
X22577261Y-62109531D01*
X22462845Y-62150610D01*
X22424051Y-62159460D01*
X22388638Y-62171000D01*
X22262204Y-62196379D01*
X22139451Y-62224381D01*
X22104621Y-62228011D01*
X22072867Y-62234385D01*
X21938973Y-62245275D01*
X21809536Y-62258765D01*
X21779280Y-62258263D01*
X21751840Y-62260495D01*
X21611956Y-62255488D01*
X21477880Y-62253265D01*
X21452653Y-62249787D01*
X21429970Y-62248975D01*
X21285667Y-62226764D01*
X21149287Y-62207961D01*
X21129276Y-62202693D01*
X21111646Y-62199979D01*
X20964559Y-62159327D01*
X20828516Y-62123510D01*
X20813725Y-62117639D01*
X20801203Y-62114178D01*
X20652237Y-62053538D01*
X20520215Y-62001133D01*
X20510450Y-61995820D01*
X20502901Y-61992747D01*
X20350868Y-61908993D01*
X20228848Y-61842604D01*
X20223695Y-61838935D01*
X20220794Y-61837337D01*
X20043526Y-61710659D01*
X19958636Y-61650220D01*
X19881596Y-61579996D01*
X19720345Y-61433526D01*
X19718174Y-61431033D01*
X19713494Y-61426767D01*
X19622775Y-61321482D01*
X19508831Y-61190635D01*
X19504231Y-61183905D01*
X19496973Y-61175481D01*
X19417852Y-61057515D01*
X19327100Y-60924726D01*
X19321069Y-60913215D01*
X19312208Y-60900003D01*
X19248486Y-60774671D01*
X19177635Y-60639434D01*
X19171254Y-60622766D01*
X19161877Y-60604324D01*
X19114671Y-60474978D01*
X19062473Y-60338642D01*
X19056888Y-60316651D01*
X19048156Y-60292725D01*
X19017653Y-60162163D01*
X18983193Y-60026474D01*
X18979574Y-59999170D01*
X18972694Y-59969721D01*
X18958532Y-59840414D01*
X18940875Y-59707193D01*
X18940395Y-59674802D01*
X18936582Y-59639991D01*
X18938010Y-59514082D01*
X18936098Y-59385153D01*
X18939893Y-59348107D01*
X18940345Y-59308311D01*
X18956318Y-59187796D01*
X18968925Y-59064749D01*
X18978074Y-59023650D01*
X18983928Y-58979485D01*
X19013157Y-58866055D01*
X19038910Y-58750373D01*
X19054390Y-58706045D01*
X19066699Y-58658277D01*
X19107702Y-58553379D01*
X19145095Y-58446302D01*
X19167774Y-58399701D01*
X19187460Y-58349338D01*
X19238612Y-58254140D01*
X19286031Y-58156701D01*
X19316612Y-58108974D01*
X19344461Y-58057145D01*
X19404033Y-57972539D01*
X19459797Y-57885511D01*
X19498832Y-57837904D01*
X19535428Y-57785930D01*
X19601619Y-57712546D01*
X19664009Y-57636456D01*
X19711848Y-57590339D01*
X19757594Y-57539622D01*
X19828612Y-57477779D01*
X19895887Y-57412925D01*
X19952673Y-57369744D01*
X20007743Y-57321788D01*
X20081803Y-57271551D01*
X20152259Y-57217975D01*
X20217904Y-57179230D01*
X20282249Y-57135583D01*
X20357649Y-57096749D01*
X20429625Y-57054268D01*
X20503823Y-57021466D01*
X20577138Y-56983706D01*
X20652254Y-56955845D01*
X20724205Y-56924036D01*
X20806412Y-56898667D01*
X20888137Y-56868355D01*
X20961468Y-56850817D01*
X21031956Y-56829065D01*
X21121405Y-56812567D01*
X21210741Y-56791202D01*
X21280960Y-56783139D01*
X21348699Y-56770646D01*
X21444399Y-56764374D01*
X21540277Y-56753365D01*
X21606217Y-56753768D01*
X21670081Y-56749582D01*
X21770819Y-56754773D01*
X21770819Y-56754773D01*
G37*
G36*
X20379591Y-53305345D02*
G01*
X20430391Y-53305700D01*
X20481051Y-53316099D01*
X20526828Y-53320951D01*
X20576287Y-53335648D01*
X20632293Y-53347145D01*
X20674069Y-53364706D01*
X20711981Y-53375972D01*
X20763722Y-53402392D01*
X20822300Y-53427016D01*
X20854564Y-53448779D01*
X20884015Y-53463817D01*
X20935254Y-53503205D01*
X20993174Y-53542273D01*
X21016070Y-53565330D01*
X21037158Y-53581540D01*
X21084764Y-53634504D01*
X21138407Y-53688523D01*
X21152831Y-53710233D01*
X21166284Y-53725200D01*
X21206922Y-53791646D01*
X21252468Y-53860198D01*
X21259950Y-53878350D01*
X21267065Y-53889984D01*
X21297378Y-53969158D01*
X21331011Y-54050758D01*
X21333572Y-54063693D01*
X21336132Y-54070379D01*
X21352931Y-54161461D01*
X21371045Y-54252944D01*
X21367757Y-54488363D01*
X21364234Y-54503869D01*
X21364069Y-54509973D01*
X21342745Y-54598453D01*
X21322094Y-54689352D01*
X21319358Y-54695497D01*
X21319199Y-54696157D01*
X21261914Y-54824518D01*
X21238261Y-54877645D01*
X21184257Y-54954200D01*
X21130932Y-55031643D01*
X21126520Y-55036048D01*
X21119451Y-55046068D01*
X21054969Y-55107474D01*
X20994227Y-55168109D01*
X20983742Y-55175302D01*
X20970191Y-55188206D01*
X20899960Y-55232776D01*
X20834942Y-55277378D01*
X20817400Y-55285170D01*
X20796165Y-55298646D01*
X20724347Y-55326503D01*
X20658410Y-55355791D01*
X20633446Y-55361761D01*
X20604002Y-55373182D01*
X20534304Y-55385471D01*
X20470543Y-55400720D01*
X20438438Y-55402375D01*
X20401022Y-55408972D01*
X20336608Y-55407623D01*
X20277641Y-55410662D01*
X20239342Y-55405586D01*
X20194955Y-55404656D01*
X20138223Y-55392183D01*
X20086152Y-55385281D01*
X20043267Y-55371306D01*
X19993652Y-55360397D01*
X19946265Y-55339694D01*
X19902498Y-55325431D01*
X19857176Y-55300772D01*
X19804779Y-55277880D01*
X19767565Y-55252016D01*
X19732825Y-55233114D01*
X19687703Y-55196510D01*
X19635530Y-55160249D01*
X19608502Y-55132260D01*
X19582814Y-55111422D01*
X19540877Y-55062233D01*
X19492353Y-55011985D01*
X19474751Y-54984672D01*
X19457495Y-54964432D01*
X19421942Y-54902728D01*
X19380701Y-54838734D01*
X19371105Y-54814498D01*
X19361060Y-54797064D01*
X19335127Y-54723628D01*
X19304826Y-54647096D01*
X19301282Y-54627785D01*
X19296739Y-54614921D01*
X19283546Y-54531152D01*
X19267619Y-54444371D01*
X19267803Y-54431188D01*
X19266689Y-54424114D01*
X19269196Y-54331460D01*
X19270497Y-54238279D01*
X19271895Y-54231703D01*
X19271913Y-54231026D01*
X19301406Y-54092863D01*
X19313350Y-54036672D01*
X19350226Y-53950635D01*
X19386315Y-53863722D01*
X19389718Y-53858492D01*
X19394546Y-53847227D01*
X19444828Y-53773791D01*
X19491658Y-53701818D01*
X19500423Y-53692598D01*
X19510992Y-53677162D01*
X19570409Y-53618977D01*
X19624745Y-53561818D01*
X19640286Y-53550547D01*
X19658253Y-53532953D01*
X19722701Y-53490780D01*
X19781118Y-53448415D01*
X19804301Y-53437382D01*
X19830720Y-53420094D01*
X19896316Y-53393591D01*
X19955532Y-53365410D01*
X19986596Y-53357116D01*
X20021823Y-53342883D01*
X20085128Y-53330807D01*
X20142159Y-53315579D01*
X20180663Y-53312582D01*
X20224284Y-53304261D01*
X20282370Y-53304667D01*
X20334735Y-53300591D01*
X20379591Y-53305345D01*
X20379591Y-53305345D01*
G37*
G36*
X25970163Y-51491001D02*
G01*
X26021823Y-51491001D01*
X26081518Y-51501527D01*
X26136934Y-51506765D01*
X26188515Y-51520393D01*
X26246010Y-51530531D01*
X26296660Y-51548966D01*
X26343774Y-51561414D01*
X26398780Y-51586135D01*
X26459926Y-51608390D01*
X26500766Y-51631969D01*
X26538911Y-51649112D01*
X26594971Y-51686358D01*
X26657073Y-51722213D01*
X26688019Y-51748179D01*
X26717100Y-51767501D01*
X26771480Y-51818211D01*
X26831460Y-51868540D01*
X26853074Y-51894299D01*
X26873564Y-51913406D01*
X26923316Y-51978010D01*
X26977787Y-52042927D01*
X26991202Y-52066163D01*
X27004093Y-52082902D01*
X27046128Y-52161298D01*
X27091610Y-52240074D01*
X27098462Y-52258899D01*
X27105190Y-52271447D01*
X27136443Y-52363252D01*
X27169469Y-52453990D01*
X27171764Y-52467007D01*
X27174133Y-52473965D01*
X27191667Y-52579884D01*
X27208999Y-52678177D01*
X27208999Y-52905823D01*
X27202489Y-52942743D01*
X27201972Y-52963903D01*
X27184550Y-53044481D01*
X27169469Y-53130010D01*
X27161066Y-53153098D01*
X27157086Y-53171504D01*
X27123393Y-53256603D01*
X27091610Y-53343926D01*
X27082729Y-53359308D01*
X27078332Y-53370414D01*
X27026836Y-53456118D01*
X26977787Y-53541073D01*
X26970752Y-53549457D01*
X26968148Y-53553791D01*
X26894706Y-53640086D01*
X26831460Y-53715460D01*
X26762806Y-53773067D01*
X26666089Y-53854799D01*
X26663713Y-53856215D01*
X26657073Y-53861787D01*
X26571103Y-53911422D01*
X26482325Y-53964344D01*
X26473341Y-53967865D01*
X26459926Y-53975610D01*
X26370837Y-54008036D01*
X26283137Y-54042405D01*
X26266962Y-54045843D01*
X26246010Y-54053469D01*
X26158446Y-54068909D01*
X26073879Y-54086884D01*
X26050476Y-54087947D01*
X26021823Y-54092999D01*
X25939221Y-54092999D01*
X25860166Y-54096589D01*
X25830059Y-54092999D01*
X25794177Y-54092999D01*
X25719223Y-54079783D01*
X25647733Y-54071258D01*
X25612000Y-54060876D01*
X25569990Y-54053469D01*
X25504662Y-54029691D01*
X25442288Y-54011570D01*
X25402505Y-53992509D01*
X25356074Y-53975610D01*
X25301655Y-53944191D01*
X25249358Y-53919135D01*
X25207543Y-53889856D01*
X25158927Y-53861787D01*
X25115915Y-53825696D01*
X25074108Y-53796422D01*
X25032689Y-53755862D01*
X24984540Y-53715460D01*
X24952776Y-53677604D01*
X24921260Y-53646742D01*
X24882897Y-53594325D01*
X24838213Y-53541073D01*
X24816886Y-53504133D01*
X24794907Y-53474103D01*
X24762446Y-53409840D01*
X24724390Y-53343926D01*
X24712117Y-53310206D01*
X24698450Y-53283150D01*
X24674789Y-53207648D01*
X24646531Y-53130010D01*
X24641478Y-53101355D01*
X24634474Y-53079004D01*
X24622444Y-52993406D01*
X24607001Y-52905823D01*
X24607001Y-52883521D01*
X24604700Y-52867148D01*
X24607001Y-52772998D01*
X24607001Y-52678177D01*
X24609691Y-52662920D01*
X24609927Y-52653275D01*
X24629288Y-52551779D01*
X24646531Y-52453990D01*
X24649497Y-52445842D01*
X24650014Y-52443130D01*
X24693709Y-52324369D01*
X24724390Y-52240074D01*
X24773544Y-52154937D01*
X24829557Y-52056337D01*
X24832740Y-52052406D01*
X24838213Y-52042927D01*
X24901280Y-51967766D01*
X24964192Y-51890076D01*
X24973122Y-51882148D01*
X24984540Y-51868540D01*
X25055724Y-51808810D01*
X25124173Y-51748038D01*
X25140111Y-51738001D01*
X25158927Y-51722213D01*
X25234133Y-51678793D01*
X25305201Y-51634039D01*
X25328914Y-51624071D01*
X25356074Y-51608390D01*
X25431682Y-51580871D01*
X25502423Y-51551134D01*
X25534151Y-51543575D01*
X25569990Y-51530531D01*
X25642784Y-51517696D01*
X25710531Y-51501556D01*
X25749947Y-51498800D01*
X25794177Y-51491001D01*
X25861484Y-51491001D01*
X25923953Y-51486633D01*
X25970163Y-51491001D01*
X25970163Y-51491001D01*
G37*
G36*
X35970163Y-51491001D02*
G01*
X36021823Y-51491001D01*
X36081518Y-51501527D01*
X36136934Y-51506765D01*
X36188515Y-51520393D01*
X36246010Y-51530531D01*
X36296660Y-51548966D01*
X36343774Y-51561414D01*
X36398780Y-51586135D01*
X36459926Y-51608390D01*
X36500766Y-51631969D01*
X36538911Y-51649112D01*
X36594971Y-51686358D01*
X36657073Y-51722213D01*
X36688019Y-51748179D01*
X36717100Y-51767501D01*
X36771480Y-51818211D01*
X36831460Y-51868540D01*
X36853074Y-51894299D01*
X36873564Y-51913406D01*
X36923316Y-51978010D01*
X36977787Y-52042927D01*
X36991202Y-52066163D01*
X37004093Y-52082902D01*
X37046128Y-52161298D01*
X37091610Y-52240074D01*
X37098462Y-52258899D01*
X37105190Y-52271447D01*
X37136443Y-52363252D01*
X37169469Y-52453990D01*
X37171764Y-52467007D01*
X37174133Y-52473965D01*
X37191667Y-52579884D01*
X37208999Y-52678177D01*
X37208999Y-52905823D01*
X37202489Y-52942743D01*
X37201972Y-52963903D01*
X37184550Y-53044481D01*
X37169469Y-53130010D01*
X37161066Y-53153098D01*
X37157086Y-53171504D01*
X37123393Y-53256603D01*
X37091610Y-53343926D01*
X37082729Y-53359308D01*
X37078332Y-53370414D01*
X37026836Y-53456118D01*
X36977787Y-53541073D01*
X36970752Y-53549457D01*
X36968148Y-53553791D01*
X36894706Y-53640086D01*
X36831460Y-53715460D01*
X36762806Y-53773067D01*
X36666089Y-53854799D01*
X36663713Y-53856215D01*
X36657073Y-53861787D01*
X36571103Y-53911422D01*
X36482325Y-53964344D01*
X36473341Y-53967865D01*
X36459926Y-53975610D01*
X36370837Y-54008036D01*
X36283137Y-54042405D01*
X36266962Y-54045843D01*
X36246010Y-54053469D01*
X36158446Y-54068909D01*
X36073879Y-54086884D01*
X36050476Y-54087947D01*
X36021823Y-54092999D01*
X35939221Y-54092999D01*
X35860166Y-54096589D01*
X35830059Y-54092999D01*
X35794177Y-54092999D01*
X35719223Y-54079783D01*
X35647733Y-54071258D01*
X35612000Y-54060876D01*
X35569990Y-54053469D01*
X35504662Y-54029691D01*
X35442288Y-54011570D01*
X35402505Y-53992509D01*
X35356074Y-53975610D01*
X35301655Y-53944191D01*
X35249358Y-53919135D01*
X35207543Y-53889856D01*
X35158927Y-53861787D01*
X35115915Y-53825696D01*
X35074108Y-53796422D01*
X35032689Y-53755862D01*
X34984540Y-53715460D01*
X34952776Y-53677604D01*
X34921260Y-53646742D01*
X34882897Y-53594325D01*
X34838213Y-53541073D01*
X34816886Y-53504133D01*
X34794907Y-53474103D01*
X34762446Y-53409840D01*
X34724390Y-53343926D01*
X34712117Y-53310206D01*
X34698450Y-53283150D01*
X34674789Y-53207648D01*
X34646531Y-53130010D01*
X34641478Y-53101355D01*
X34634474Y-53079004D01*
X34622444Y-52993406D01*
X34607001Y-52905823D01*
X34607001Y-52883521D01*
X34604700Y-52867148D01*
X34607001Y-52772998D01*
X34607001Y-52678177D01*
X34609691Y-52662920D01*
X34609927Y-52653275D01*
X34629288Y-52551779D01*
X34646531Y-52453990D01*
X34649497Y-52445842D01*
X34650014Y-52443130D01*
X34693709Y-52324369D01*
X34724390Y-52240074D01*
X34773544Y-52154937D01*
X34829557Y-52056337D01*
X34832740Y-52052406D01*
X34838213Y-52042927D01*
X34901280Y-51967766D01*
X34964192Y-51890076D01*
X34973122Y-51882148D01*
X34984540Y-51868540D01*
X35055724Y-51808810D01*
X35124173Y-51748038D01*
X35140111Y-51738001D01*
X35158927Y-51722213D01*
X35234133Y-51678793D01*
X35305201Y-51634039D01*
X35328914Y-51624071D01*
X35356074Y-51608390D01*
X35431682Y-51580871D01*
X35502423Y-51551134D01*
X35534151Y-51543575D01*
X35569990Y-51530531D01*
X35642784Y-51517696D01*
X35710531Y-51501556D01*
X35749947Y-51498800D01*
X35794177Y-51491001D01*
X35861484Y-51491001D01*
X35923953Y-51486633D01*
X35970163Y-51491001D01*
X35970163Y-51491001D01*
G37*
G36*
X39178163Y-51491001D02*
G01*
X39229823Y-51491001D01*
X39289518Y-51501527D01*
X39344934Y-51506765D01*
X39396515Y-51520393D01*
X39454010Y-51530531D01*
X39504660Y-51548966D01*
X39551774Y-51561414D01*
X39606780Y-51586135D01*
X39667926Y-51608390D01*
X39708766Y-51631969D01*
X39746911Y-51649112D01*
X39802971Y-51686358D01*
X39865073Y-51722213D01*
X39896019Y-51748179D01*
X39925100Y-51767501D01*
X39979480Y-51818211D01*
X40039460Y-51868540D01*
X40061074Y-51894299D01*
X40081564Y-51913406D01*
X40131316Y-51978010D01*
X40185787Y-52042927D01*
X40199202Y-52066163D01*
X40212093Y-52082902D01*
X40254128Y-52161298D01*
X40299610Y-52240074D01*
X40306462Y-52258899D01*
X40313190Y-52271447D01*
X40344443Y-52363252D01*
X40377469Y-52453990D01*
X40379764Y-52467007D01*
X40382133Y-52473965D01*
X40399667Y-52579884D01*
X40416999Y-52678177D01*
X40416999Y-52905823D01*
X40410489Y-52942743D01*
X40409972Y-52963903D01*
X40392550Y-53044481D01*
X40377469Y-53130010D01*
X40369066Y-53153098D01*
X40365086Y-53171504D01*
X40331393Y-53256603D01*
X40299610Y-53343926D01*
X40290729Y-53359308D01*
X40286332Y-53370414D01*
X40234836Y-53456118D01*
X40185787Y-53541073D01*
X40178752Y-53549457D01*
X40176148Y-53553791D01*
X40102706Y-53640086D01*
X40039460Y-53715460D01*
X39970806Y-53773067D01*
X39874089Y-53854799D01*
X39871713Y-53856215D01*
X39865073Y-53861787D01*
X39779103Y-53911422D01*
X39690325Y-53964344D01*
X39681341Y-53967865D01*
X39667926Y-53975610D01*
X39578837Y-54008036D01*
X39491137Y-54042405D01*
X39474962Y-54045843D01*
X39454010Y-54053469D01*
X39366446Y-54068909D01*
X39281879Y-54086884D01*
X39258476Y-54087947D01*
X39229823Y-54092999D01*
X39147221Y-54092999D01*
X39068166Y-54096589D01*
X39038059Y-54092999D01*
X39002177Y-54092999D01*
X38927223Y-54079783D01*
X38855733Y-54071258D01*
X38820000Y-54060876D01*
X38777990Y-54053469D01*
X38712662Y-54029691D01*
X38650288Y-54011570D01*
X38610505Y-53992509D01*
X38564074Y-53975610D01*
X38509655Y-53944191D01*
X38457358Y-53919135D01*
X38415543Y-53889856D01*
X38366927Y-53861787D01*
X38323915Y-53825696D01*
X38282108Y-53796422D01*
X38240689Y-53755862D01*
X38192540Y-53715460D01*
X38160776Y-53677604D01*
X38129260Y-53646742D01*
X38090897Y-53594325D01*
X38046213Y-53541073D01*
X38024886Y-53504133D01*
X38002907Y-53474103D01*
X37970446Y-53409840D01*
X37932390Y-53343926D01*
X37920117Y-53310206D01*
X37906450Y-53283150D01*
X37882789Y-53207648D01*
X37854531Y-53130010D01*
X37849478Y-53101355D01*
X37842474Y-53079004D01*
X37830444Y-52993406D01*
X37815001Y-52905823D01*
X37815001Y-52883521D01*
X37812700Y-52867148D01*
X37815001Y-52772998D01*
X37815001Y-52678177D01*
X37817691Y-52662920D01*
X37817927Y-52653275D01*
X37837288Y-52551779D01*
X37854531Y-52453990D01*
X37857497Y-52445842D01*
X37858014Y-52443130D01*
X37901709Y-52324369D01*
X37932390Y-52240074D01*
X37981544Y-52154937D01*
X38037557Y-52056337D01*
X38040740Y-52052406D01*
X38046213Y-52042927D01*
X38109280Y-51967766D01*
X38172192Y-51890076D01*
X38181122Y-51882148D01*
X38192540Y-51868540D01*
X38263724Y-51808810D01*
X38332173Y-51748038D01*
X38348111Y-51738001D01*
X38366927Y-51722213D01*
X38442133Y-51678793D01*
X38513201Y-51634039D01*
X38536914Y-51624071D01*
X38564074Y-51608390D01*
X38639682Y-51580871D01*
X38710423Y-51551134D01*
X38742151Y-51543575D01*
X38777990Y-51530531D01*
X38850784Y-51517696D01*
X38918531Y-51501556D01*
X38957947Y-51498800D01*
X39002177Y-51491001D01*
X39069484Y-51491001D01*
X39131953Y-51486633D01*
X39178163Y-51491001D01*
X39178163Y-51491001D01*
G37*
G36*
X49178163Y-51491001D02*
G01*
X49229823Y-51491001D01*
X49289518Y-51501527D01*
X49344934Y-51506765D01*
X49396515Y-51520393D01*
X49454010Y-51530531D01*
X49504660Y-51548966D01*
X49551774Y-51561414D01*
X49606780Y-51586135D01*
X49667926Y-51608390D01*
X49708766Y-51631969D01*
X49746911Y-51649112D01*
X49802971Y-51686358D01*
X49865073Y-51722213D01*
X49896019Y-51748179D01*
X49925100Y-51767501D01*
X49979480Y-51818211D01*
X50039460Y-51868540D01*
X50061074Y-51894299D01*
X50081564Y-51913406D01*
X50131316Y-51978010D01*
X50185787Y-52042927D01*
X50199202Y-52066163D01*
X50212093Y-52082902D01*
X50254128Y-52161298D01*
X50299610Y-52240074D01*
X50306462Y-52258899D01*
X50313190Y-52271447D01*
X50344443Y-52363252D01*
X50377469Y-52453990D01*
X50379764Y-52467007D01*
X50382133Y-52473965D01*
X50399667Y-52579884D01*
X50416999Y-52678177D01*
X50416999Y-52905823D01*
X50410489Y-52942743D01*
X50409972Y-52963903D01*
X50392550Y-53044481D01*
X50377469Y-53130010D01*
X50369066Y-53153098D01*
X50365086Y-53171504D01*
X50331393Y-53256603D01*
X50299610Y-53343926D01*
X50290729Y-53359308D01*
X50286332Y-53370414D01*
X50234836Y-53456118D01*
X50185787Y-53541073D01*
X50178752Y-53549457D01*
X50176148Y-53553791D01*
X50102706Y-53640086D01*
X50039460Y-53715460D01*
X49970806Y-53773067D01*
X49874089Y-53854799D01*
X49871713Y-53856215D01*
X49865073Y-53861787D01*
X49779103Y-53911422D01*
X49690325Y-53964344D01*
X49681341Y-53967865D01*
X49667926Y-53975610D01*
X49578837Y-54008036D01*
X49491137Y-54042405D01*
X49474962Y-54045843D01*
X49454010Y-54053469D01*
X49366446Y-54068909D01*
X49281879Y-54086884D01*
X49258476Y-54087947D01*
X49229823Y-54092999D01*
X49147221Y-54092999D01*
X49068166Y-54096589D01*
X49038059Y-54092999D01*
X49002177Y-54092999D01*
X48927223Y-54079783D01*
X48855733Y-54071258D01*
X48820000Y-54060876D01*
X48777990Y-54053469D01*
X48712662Y-54029691D01*
X48650288Y-54011570D01*
X48610505Y-53992509D01*
X48564074Y-53975610D01*
X48509655Y-53944191D01*
X48457358Y-53919135D01*
X48415543Y-53889856D01*
X48366927Y-53861787D01*
X48323915Y-53825696D01*
X48282108Y-53796422D01*
X48240689Y-53755862D01*
X48192540Y-53715460D01*
X48160776Y-53677604D01*
X48129260Y-53646742D01*
X48090897Y-53594325D01*
X48046213Y-53541073D01*
X48024886Y-53504133D01*
X48002907Y-53474103D01*
X47970446Y-53409840D01*
X47932390Y-53343926D01*
X47920117Y-53310206D01*
X47906450Y-53283150D01*
X47882789Y-53207648D01*
X47854531Y-53130010D01*
X47849478Y-53101355D01*
X47842474Y-53079004D01*
X47830444Y-52993406D01*
X47815001Y-52905823D01*
X47815001Y-52883521D01*
X47812700Y-52867148D01*
X47815001Y-52772998D01*
X47815001Y-52678177D01*
X47817691Y-52662920D01*
X47817927Y-52653275D01*
X47837288Y-52551779D01*
X47854531Y-52453990D01*
X47857497Y-52445842D01*
X47858014Y-52443130D01*
X47901709Y-52324369D01*
X47932390Y-52240074D01*
X47981544Y-52154937D01*
X48037557Y-52056337D01*
X48040740Y-52052406D01*
X48046213Y-52042927D01*
X48109280Y-51967766D01*
X48172192Y-51890076D01*
X48181122Y-51882148D01*
X48192540Y-51868540D01*
X48263724Y-51808810D01*
X48332173Y-51748038D01*
X48348111Y-51738001D01*
X48366927Y-51722213D01*
X48442133Y-51678793D01*
X48513201Y-51634039D01*
X48536914Y-51624071D01*
X48564074Y-51608390D01*
X48639682Y-51580871D01*
X48710423Y-51551134D01*
X48742151Y-51543575D01*
X48777990Y-51530531D01*
X48850784Y-51517696D01*
X48918531Y-51501556D01*
X48957947Y-51498800D01*
X49002177Y-51491001D01*
X49069484Y-51491001D01*
X49131953Y-51486633D01*
X49178163Y-51491001D01*
X49178163Y-51491001D01*
G37*
G36*
X20379591Y-50765345D02*
G01*
X20430391Y-50765700D01*
X20481051Y-50776099D01*
X20526828Y-50780951D01*
X20576287Y-50795648D01*
X20632293Y-50807145D01*
X20674069Y-50824706D01*
X20711981Y-50835972D01*
X20763722Y-50862392D01*
X20822300Y-50887016D01*
X20854564Y-50908779D01*
X20884015Y-50923817D01*
X20935254Y-50963205D01*
X20993174Y-51002273D01*
X21016070Y-51025330D01*
X21037158Y-51041540D01*
X21084764Y-51094504D01*
X21138407Y-51148523D01*
X21152831Y-51170233D01*
X21166284Y-51185200D01*
X21206922Y-51251646D01*
X21252468Y-51320198D01*
X21259950Y-51338350D01*
X21267065Y-51349984D01*
X21297378Y-51429158D01*
X21331011Y-51510758D01*
X21333572Y-51523693D01*
X21336132Y-51530379D01*
X21352931Y-51621461D01*
X21371045Y-51712944D01*
X21367757Y-51948363D01*
X21364234Y-51963869D01*
X21364069Y-51969973D01*
X21342745Y-52058453D01*
X21322094Y-52149352D01*
X21319358Y-52155497D01*
X21319199Y-52156157D01*
X21261914Y-52284518D01*
X21238261Y-52337645D01*
X21184257Y-52414200D01*
X21130932Y-52491643D01*
X21126520Y-52496048D01*
X21119451Y-52506068D01*
X21054969Y-52567474D01*
X20994227Y-52628109D01*
X20983742Y-52635302D01*
X20970191Y-52648206D01*
X20899960Y-52692776D01*
X20834942Y-52737378D01*
X20817400Y-52745170D01*
X20796165Y-52758646D01*
X20724347Y-52786503D01*
X20658410Y-52815791D01*
X20633446Y-52821761D01*
X20604002Y-52833182D01*
X20534304Y-52845471D01*
X20470543Y-52860720D01*
X20438438Y-52862375D01*
X20401022Y-52868972D01*
X20336608Y-52867623D01*
X20277641Y-52870662D01*
X20239342Y-52865586D01*
X20194955Y-52864656D01*
X20138223Y-52852183D01*
X20086152Y-52845281D01*
X20043267Y-52831306D01*
X19993652Y-52820397D01*
X19946265Y-52799694D01*
X19902498Y-52785431D01*
X19857176Y-52760772D01*
X19804779Y-52737880D01*
X19767565Y-52712016D01*
X19732825Y-52693114D01*
X19687703Y-52656510D01*
X19635530Y-52620249D01*
X19608502Y-52592260D01*
X19582814Y-52571422D01*
X19540877Y-52522233D01*
X19492353Y-52471985D01*
X19474751Y-52444672D01*
X19457495Y-52424432D01*
X19421942Y-52362728D01*
X19380701Y-52298734D01*
X19371105Y-52274498D01*
X19361060Y-52257064D01*
X19335127Y-52183628D01*
X19304826Y-52107096D01*
X19301282Y-52087785D01*
X19296739Y-52074921D01*
X19283546Y-51991152D01*
X19267619Y-51904371D01*
X19267803Y-51891188D01*
X19266689Y-51884114D01*
X19269196Y-51791460D01*
X19270497Y-51698279D01*
X19271895Y-51691703D01*
X19271913Y-51691026D01*
X19301406Y-51552863D01*
X19313350Y-51496672D01*
X19350226Y-51410635D01*
X19386315Y-51323722D01*
X19389718Y-51318492D01*
X19394546Y-51307227D01*
X19444828Y-51233791D01*
X19491658Y-51161818D01*
X19500423Y-51152598D01*
X19510992Y-51137162D01*
X19570409Y-51078977D01*
X19624745Y-51021818D01*
X19640286Y-51010547D01*
X19658253Y-50992953D01*
X19722701Y-50950780D01*
X19781118Y-50908415D01*
X19804301Y-50897382D01*
X19830720Y-50880094D01*
X19896316Y-50853591D01*
X19955532Y-50825410D01*
X19986596Y-50817116D01*
X20021823Y-50802883D01*
X20085128Y-50790807D01*
X20142159Y-50775579D01*
X20180663Y-50772582D01*
X20224284Y-50764261D01*
X20282370Y-50764667D01*
X20334735Y-50760591D01*
X20379591Y-50765345D01*
X20379591Y-50765345D01*
G37*
G36*
X30870163Y-48991001D02*
G01*
X30921823Y-48991001D01*
X30981518Y-49001527D01*
X31036934Y-49006765D01*
X31088515Y-49020393D01*
X31146010Y-49030531D01*
X31196660Y-49048966D01*
X31243774Y-49061414D01*
X31298780Y-49086135D01*
X31359926Y-49108390D01*
X31400766Y-49131969D01*
X31438911Y-49149112D01*
X31494971Y-49186358D01*
X31557073Y-49222213D01*
X31588019Y-49248179D01*
X31617100Y-49267501D01*
X31671480Y-49318211D01*
X31731460Y-49368540D01*
X31753074Y-49394299D01*
X31773564Y-49413406D01*
X31823316Y-49478010D01*
X31877787Y-49542927D01*
X31891202Y-49566163D01*
X31904093Y-49582902D01*
X31946128Y-49661298D01*
X31991610Y-49740074D01*
X31998462Y-49758899D01*
X32005190Y-49771447D01*
X32036443Y-49863252D01*
X32069469Y-49953990D01*
X32071764Y-49967007D01*
X32074133Y-49973965D01*
X32091667Y-50079884D01*
X32108999Y-50178177D01*
X32108999Y-50405823D01*
X32102489Y-50442743D01*
X32101972Y-50463903D01*
X32084550Y-50544481D01*
X32069469Y-50630010D01*
X32061066Y-50653098D01*
X32057086Y-50671504D01*
X32023393Y-50756603D01*
X31991610Y-50843926D01*
X31982729Y-50859308D01*
X31978332Y-50870414D01*
X31926836Y-50956118D01*
X31877787Y-51041073D01*
X31870752Y-51049457D01*
X31868148Y-51053791D01*
X31794706Y-51140086D01*
X31731460Y-51215460D01*
X31662806Y-51273067D01*
X31566089Y-51354799D01*
X31563713Y-51356215D01*
X31557073Y-51361787D01*
X31471103Y-51411422D01*
X31382325Y-51464344D01*
X31373341Y-51467865D01*
X31359926Y-51475610D01*
X31270837Y-51508036D01*
X31183137Y-51542405D01*
X31166962Y-51545843D01*
X31146010Y-51553469D01*
X31058446Y-51568909D01*
X30973879Y-51586884D01*
X30950476Y-51587947D01*
X30921823Y-51592999D01*
X30839221Y-51592999D01*
X30760166Y-51596589D01*
X30730059Y-51592999D01*
X30694177Y-51592999D01*
X30619223Y-51579783D01*
X30547733Y-51571258D01*
X30512000Y-51560876D01*
X30469990Y-51553469D01*
X30404662Y-51529691D01*
X30342288Y-51511570D01*
X30302505Y-51492509D01*
X30256074Y-51475610D01*
X30201655Y-51444191D01*
X30149358Y-51419135D01*
X30107543Y-51389856D01*
X30058927Y-51361787D01*
X30015915Y-51325696D01*
X29974108Y-51296422D01*
X29932689Y-51255862D01*
X29884540Y-51215460D01*
X29852776Y-51177604D01*
X29821260Y-51146742D01*
X29782897Y-51094325D01*
X29738213Y-51041073D01*
X29716886Y-51004133D01*
X29694907Y-50974103D01*
X29662446Y-50909840D01*
X29624390Y-50843926D01*
X29612117Y-50810206D01*
X29598450Y-50783150D01*
X29574789Y-50707648D01*
X29546531Y-50630010D01*
X29541478Y-50601355D01*
X29534474Y-50579004D01*
X29522444Y-50493406D01*
X29507001Y-50405823D01*
X29507001Y-50383521D01*
X29504700Y-50367148D01*
X29507001Y-50272998D01*
X29507001Y-50178177D01*
X29509691Y-50162920D01*
X29509927Y-50153275D01*
X29529288Y-50051779D01*
X29546531Y-49953990D01*
X29549497Y-49945842D01*
X29550014Y-49943130D01*
X29593709Y-49824369D01*
X29624390Y-49740074D01*
X29673544Y-49654937D01*
X29729557Y-49556337D01*
X29732740Y-49552406D01*
X29738213Y-49542927D01*
X29801280Y-49467766D01*
X29864192Y-49390076D01*
X29873122Y-49382148D01*
X29884540Y-49368540D01*
X29955724Y-49308810D01*
X30024173Y-49248038D01*
X30040111Y-49238001D01*
X30058927Y-49222213D01*
X30134133Y-49178793D01*
X30205201Y-49134039D01*
X30228914Y-49124071D01*
X30256074Y-49108390D01*
X30331682Y-49080871D01*
X30402423Y-49051134D01*
X30434151Y-49043575D01*
X30469990Y-49030531D01*
X30542784Y-49017696D01*
X30610531Y-49001556D01*
X30649947Y-48998800D01*
X30694177Y-48991001D01*
X30761484Y-48991001D01*
X30823953Y-48986633D01*
X30870163Y-48991001D01*
X30870163Y-48991001D01*
G37*
G36*
X44078163Y-48991001D02*
G01*
X44129823Y-48991001D01*
X44189518Y-49001527D01*
X44244934Y-49006765D01*
X44296515Y-49020393D01*
X44354010Y-49030531D01*
X44404660Y-49048966D01*
X44451774Y-49061414D01*
X44506780Y-49086135D01*
X44567926Y-49108390D01*
X44608766Y-49131969D01*
X44646911Y-49149112D01*
X44702971Y-49186358D01*
X44765073Y-49222213D01*
X44796019Y-49248179D01*
X44825100Y-49267501D01*
X44879480Y-49318211D01*
X44939460Y-49368540D01*
X44961074Y-49394299D01*
X44981564Y-49413406D01*
X45031316Y-49478010D01*
X45085787Y-49542927D01*
X45099202Y-49566163D01*
X45112093Y-49582902D01*
X45154128Y-49661298D01*
X45199610Y-49740074D01*
X45206462Y-49758899D01*
X45213190Y-49771447D01*
X45244443Y-49863252D01*
X45277469Y-49953990D01*
X45279764Y-49967007D01*
X45282133Y-49973965D01*
X45299667Y-50079884D01*
X45316999Y-50178177D01*
X45316999Y-50405823D01*
X45310489Y-50442743D01*
X45309972Y-50463903D01*
X45292550Y-50544481D01*
X45277469Y-50630010D01*
X45269066Y-50653098D01*
X45265086Y-50671504D01*
X45231393Y-50756603D01*
X45199610Y-50843926D01*
X45190729Y-50859308D01*
X45186332Y-50870414D01*
X45134836Y-50956118D01*
X45085787Y-51041073D01*
X45078752Y-51049457D01*
X45076148Y-51053791D01*
X45002706Y-51140086D01*
X44939460Y-51215460D01*
X44870806Y-51273067D01*
X44774089Y-51354799D01*
X44771713Y-51356215D01*
X44765073Y-51361787D01*
X44679103Y-51411422D01*
X44590325Y-51464344D01*
X44581341Y-51467865D01*
X44567926Y-51475610D01*
X44478837Y-51508036D01*
X44391137Y-51542405D01*
X44374962Y-51545843D01*
X44354010Y-51553469D01*
X44266446Y-51568909D01*
X44181879Y-51586884D01*
X44158476Y-51587947D01*
X44129823Y-51592999D01*
X44047221Y-51592999D01*
X43968166Y-51596589D01*
X43938059Y-51592999D01*
X43902177Y-51592999D01*
X43827223Y-51579783D01*
X43755733Y-51571258D01*
X43720000Y-51560876D01*
X43677990Y-51553469D01*
X43612662Y-51529691D01*
X43550288Y-51511570D01*
X43510505Y-51492509D01*
X43464074Y-51475610D01*
X43409655Y-51444191D01*
X43357358Y-51419135D01*
X43315543Y-51389856D01*
X43266927Y-51361787D01*
X43223915Y-51325696D01*
X43182108Y-51296422D01*
X43140689Y-51255862D01*
X43092540Y-51215460D01*
X43060776Y-51177604D01*
X43029260Y-51146742D01*
X42990897Y-51094325D01*
X42946213Y-51041073D01*
X42924886Y-51004133D01*
X42902907Y-50974103D01*
X42870446Y-50909840D01*
X42832390Y-50843926D01*
X42820117Y-50810206D01*
X42806450Y-50783150D01*
X42782789Y-50707648D01*
X42754531Y-50630010D01*
X42749478Y-50601355D01*
X42742474Y-50579004D01*
X42730444Y-50493406D01*
X42715001Y-50405823D01*
X42715001Y-50383521D01*
X42712700Y-50367148D01*
X42715001Y-50272998D01*
X42715001Y-50178177D01*
X42717691Y-50162920D01*
X42717927Y-50153275D01*
X42737288Y-50051779D01*
X42754531Y-49953990D01*
X42757497Y-49945842D01*
X42758014Y-49943130D01*
X42801709Y-49824369D01*
X42832390Y-49740074D01*
X42881544Y-49654937D01*
X42937557Y-49556337D01*
X42940740Y-49552406D01*
X42946213Y-49542927D01*
X43009280Y-49467766D01*
X43072192Y-49390076D01*
X43081122Y-49382148D01*
X43092540Y-49368540D01*
X43163724Y-49308810D01*
X43232173Y-49248038D01*
X43248111Y-49238001D01*
X43266927Y-49222213D01*
X43342133Y-49178793D01*
X43413201Y-49134039D01*
X43436914Y-49124071D01*
X43464074Y-49108390D01*
X43539682Y-49080871D01*
X43610423Y-49051134D01*
X43642151Y-49043575D01*
X43677990Y-49030531D01*
X43750784Y-49017696D01*
X43818531Y-49001556D01*
X43857947Y-48998800D01*
X43902177Y-48991001D01*
X43969484Y-48991001D01*
X44031953Y-48986633D01*
X44078163Y-48991001D01*
X44078163Y-48991001D01*
G37*
G36*
X67244360Y-48796235D02*
G01*
X67325397Y-48822566D01*
X67412663Y-48850248D01*
X67415655Y-48851893D01*
X67424488Y-48854763D01*
X67496466Y-48896319D01*
X67567499Y-48935370D01*
X67574986Y-48941653D01*
X67588511Y-48949461D01*
X67646259Y-49001457D01*
X67702857Y-49048949D01*
X67712962Y-49061518D01*
X67729261Y-49076193D01*
X67771454Y-49134267D01*
X67813579Y-49186660D01*
X67823994Y-49206582D01*
X67840586Y-49229419D01*
X67867297Y-49289412D01*
X67895439Y-49343243D01*
X67903582Y-49370910D01*
X67917621Y-49402442D01*
X67929992Y-49460641D01*
X67945328Y-49512749D01*
X67948518Y-49547801D01*
X67956999Y-49587701D01*
X67956999Y-49640992D01*
X67961343Y-49688724D01*
X67956999Y-49730053D01*
X67956999Y-49777099D01*
X67947217Y-49823121D01*
X67942873Y-49864447D01*
X67928702Y-49910227D01*
X67917621Y-49962358D01*
X67901028Y-49999626D01*
X67890622Y-50033243D01*
X67864789Y-50081020D01*
X67840586Y-50135381D01*
X67820298Y-50163305D01*
X67806580Y-50188676D01*
X67767859Y-50235482D01*
X67729261Y-50288607D01*
X67708284Y-50307495D01*
X67693952Y-50324819D01*
X67641845Y-50367317D01*
X67588511Y-50415339D01*
X67569524Y-50426301D01*
X67557025Y-50436495D01*
X67491780Y-50471186D01*
X67424488Y-50510037D01*
X67409636Y-50514863D01*
X67401003Y-50519453D01*
X67323430Y-50542873D01*
X67244360Y-50568565D01*
X67235114Y-50569537D01*
X67231851Y-50570522D01*
X67140710Y-50579459D01*
X67103211Y-50583400D01*
X67008789Y-50583400D01*
X66867640Y-50568565D01*
X66786603Y-50542234D01*
X66699337Y-50514552D01*
X66696345Y-50512907D01*
X66687512Y-50510037D01*
X66615534Y-50468481D01*
X66544501Y-50429430D01*
X66537014Y-50423147D01*
X66523489Y-50415339D01*
X66465741Y-50363343D01*
X66409143Y-50315851D01*
X66399038Y-50303282D01*
X66382739Y-50288607D01*
X66340546Y-50230533D01*
X66298421Y-50178140D01*
X66288006Y-50158218D01*
X66271414Y-50135381D01*
X66244703Y-50075388D01*
X66216561Y-50021557D01*
X66208418Y-49993890D01*
X66194379Y-49962358D01*
X66182008Y-49904159D01*
X66166672Y-49852051D01*
X66163482Y-49816999D01*
X66155001Y-49777099D01*
X66155001Y-49723808D01*
X66150657Y-49676076D01*
X66155001Y-49634747D01*
X66155001Y-49587701D01*
X66164783Y-49541679D01*
X66169127Y-49500353D01*
X66183298Y-49454573D01*
X66194379Y-49402442D01*
X66210972Y-49365174D01*
X66221378Y-49331557D01*
X66247211Y-49283780D01*
X66271414Y-49229419D01*
X66291702Y-49201495D01*
X66305420Y-49176124D01*
X66344141Y-49129318D01*
X66382739Y-49076193D01*
X66403716Y-49057305D01*
X66418048Y-49039981D01*
X66470155Y-48997483D01*
X66523489Y-48949461D01*
X66542476Y-48938499D01*
X66554975Y-48928305D01*
X66620220Y-48893614D01*
X66687512Y-48854763D01*
X66702364Y-48849937D01*
X66710997Y-48845347D01*
X66788570Y-48821927D01*
X66867640Y-48796235D01*
X66876886Y-48795263D01*
X66880149Y-48794278D01*
X66971290Y-48785341D01*
X67008789Y-48781400D01*
X67103211Y-48781400D01*
X67244360Y-48796235D01*
X67244360Y-48796235D01*
G37*
G36*
X64704360Y-48796235D02*
G01*
X64785397Y-48822566D01*
X64872663Y-48850248D01*
X64875655Y-48851893D01*
X64884488Y-48854763D01*
X64956466Y-48896319D01*
X65027499Y-48935370D01*
X65034986Y-48941653D01*
X65048511Y-48949461D01*
X65106259Y-49001457D01*
X65162857Y-49048949D01*
X65172962Y-49061518D01*
X65189261Y-49076193D01*
X65231454Y-49134267D01*
X65273579Y-49186660D01*
X65283994Y-49206582D01*
X65300586Y-49229419D01*
X65327297Y-49289412D01*
X65355439Y-49343243D01*
X65363582Y-49370910D01*
X65377621Y-49402442D01*
X65389992Y-49460641D01*
X65405328Y-49512749D01*
X65408518Y-49547801D01*
X65416999Y-49587701D01*
X65416999Y-49640992D01*
X65421343Y-49688724D01*
X65416999Y-49730053D01*
X65416999Y-49777099D01*
X65407217Y-49823121D01*
X65402873Y-49864447D01*
X65388702Y-49910227D01*
X65377621Y-49962358D01*
X65361028Y-49999626D01*
X65350622Y-50033243D01*
X65324789Y-50081020D01*
X65300586Y-50135381D01*
X65280298Y-50163305D01*
X65266580Y-50188676D01*
X65227859Y-50235482D01*
X65189261Y-50288607D01*
X65168284Y-50307495D01*
X65153952Y-50324819D01*
X65101845Y-50367317D01*
X65048511Y-50415339D01*
X65029524Y-50426301D01*
X65017025Y-50436495D01*
X64951780Y-50471186D01*
X64884488Y-50510037D01*
X64869636Y-50514863D01*
X64861003Y-50519453D01*
X64783430Y-50542873D01*
X64704360Y-50568565D01*
X64695114Y-50569537D01*
X64691851Y-50570522D01*
X64600710Y-50579459D01*
X64563211Y-50583400D01*
X64468789Y-50583400D01*
X64327640Y-50568565D01*
X64246603Y-50542234D01*
X64159337Y-50514552D01*
X64156345Y-50512907D01*
X64147512Y-50510037D01*
X64075534Y-50468481D01*
X64004501Y-50429430D01*
X63997014Y-50423147D01*
X63983489Y-50415339D01*
X63925741Y-50363343D01*
X63869143Y-50315851D01*
X63859038Y-50303282D01*
X63842739Y-50288607D01*
X63800546Y-50230533D01*
X63758421Y-50178140D01*
X63748006Y-50158218D01*
X63731414Y-50135381D01*
X63704703Y-50075388D01*
X63676561Y-50021557D01*
X63668418Y-49993890D01*
X63654379Y-49962358D01*
X63642008Y-49904159D01*
X63626672Y-49852051D01*
X63623482Y-49816999D01*
X63615001Y-49777099D01*
X63615001Y-49723808D01*
X63610657Y-49676076D01*
X63615001Y-49634747D01*
X63615001Y-49587701D01*
X63624783Y-49541679D01*
X63629127Y-49500353D01*
X63643298Y-49454573D01*
X63654379Y-49402442D01*
X63670972Y-49365174D01*
X63681378Y-49331557D01*
X63707211Y-49283780D01*
X63731414Y-49229419D01*
X63751702Y-49201495D01*
X63765420Y-49176124D01*
X63804141Y-49129318D01*
X63842739Y-49076193D01*
X63863716Y-49057305D01*
X63878048Y-49039981D01*
X63930155Y-48997483D01*
X63983489Y-48949461D01*
X64002476Y-48938499D01*
X64014975Y-48928305D01*
X64080220Y-48893614D01*
X64147512Y-48854763D01*
X64162364Y-48849937D01*
X64170997Y-48845347D01*
X64248570Y-48821927D01*
X64327640Y-48796235D01*
X64336886Y-48795263D01*
X64340149Y-48794278D01*
X64431290Y-48785341D01*
X64468789Y-48781400D01*
X64563211Y-48781400D01*
X64704360Y-48796235D01*
X64704360Y-48796235D01*
G37*
G36*
X20379591Y-48225345D02*
G01*
X20430391Y-48225700D01*
X20481051Y-48236099D01*
X20526828Y-48240951D01*
X20576287Y-48255648D01*
X20632293Y-48267145D01*
X20674069Y-48284706D01*
X20711981Y-48295972D01*
X20763722Y-48322392D01*
X20822300Y-48347016D01*
X20854564Y-48368779D01*
X20884015Y-48383817D01*
X20935254Y-48423205D01*
X20993174Y-48462273D01*
X21016070Y-48485330D01*
X21037158Y-48501540D01*
X21084764Y-48554504D01*
X21138407Y-48608523D01*
X21152831Y-48630233D01*
X21166284Y-48645200D01*
X21206922Y-48711646D01*
X21252468Y-48780198D01*
X21259950Y-48798350D01*
X21267065Y-48809984D01*
X21297378Y-48889158D01*
X21331011Y-48970758D01*
X21333572Y-48983693D01*
X21336132Y-48990379D01*
X21352931Y-49081461D01*
X21371045Y-49172944D01*
X21367757Y-49408363D01*
X21364234Y-49423869D01*
X21364069Y-49429973D01*
X21342745Y-49518453D01*
X21322094Y-49609352D01*
X21319358Y-49615497D01*
X21319199Y-49616157D01*
X21261914Y-49744518D01*
X21238261Y-49797645D01*
X21184257Y-49874200D01*
X21130932Y-49951643D01*
X21126520Y-49956048D01*
X21119451Y-49966068D01*
X21054969Y-50027474D01*
X20994227Y-50088109D01*
X20983742Y-50095302D01*
X20970191Y-50108206D01*
X20899960Y-50152776D01*
X20834942Y-50197378D01*
X20817400Y-50205170D01*
X20796165Y-50218646D01*
X20724347Y-50246503D01*
X20658410Y-50275791D01*
X20633446Y-50281761D01*
X20604002Y-50293182D01*
X20534304Y-50305471D01*
X20470543Y-50320720D01*
X20438438Y-50322375D01*
X20401022Y-50328972D01*
X20336608Y-50327623D01*
X20277641Y-50330662D01*
X20239342Y-50325586D01*
X20194955Y-50324656D01*
X20138223Y-50312183D01*
X20086152Y-50305281D01*
X20043267Y-50291306D01*
X19993652Y-50280397D01*
X19946265Y-50259694D01*
X19902498Y-50245431D01*
X19857176Y-50220772D01*
X19804779Y-50197880D01*
X19767565Y-50172016D01*
X19732825Y-50153114D01*
X19687703Y-50116510D01*
X19635530Y-50080249D01*
X19608502Y-50052260D01*
X19582814Y-50031422D01*
X19540877Y-49982233D01*
X19492353Y-49931985D01*
X19474751Y-49904672D01*
X19457495Y-49884432D01*
X19421942Y-49822728D01*
X19380701Y-49758734D01*
X19371105Y-49734498D01*
X19361060Y-49717064D01*
X19335127Y-49643628D01*
X19304826Y-49567096D01*
X19301282Y-49547785D01*
X19296739Y-49534921D01*
X19283546Y-49451152D01*
X19267619Y-49364371D01*
X19267803Y-49351188D01*
X19266689Y-49344114D01*
X19269196Y-49251460D01*
X19270497Y-49158279D01*
X19271895Y-49151703D01*
X19271913Y-49151026D01*
X19301406Y-49012863D01*
X19313350Y-48956672D01*
X19350226Y-48870635D01*
X19386315Y-48783722D01*
X19389718Y-48778492D01*
X19394546Y-48767227D01*
X19444828Y-48693791D01*
X19491658Y-48621818D01*
X19500423Y-48612598D01*
X19510992Y-48597162D01*
X19570409Y-48538977D01*
X19624745Y-48481818D01*
X19640286Y-48470547D01*
X19658253Y-48452953D01*
X19722701Y-48410780D01*
X19781118Y-48368415D01*
X19804301Y-48357382D01*
X19830720Y-48340094D01*
X19896316Y-48313591D01*
X19955532Y-48285410D01*
X19986596Y-48277116D01*
X20021823Y-48262883D01*
X20085128Y-48250807D01*
X20142159Y-48235579D01*
X20180663Y-48232582D01*
X20224284Y-48224261D01*
X20282370Y-48224667D01*
X20334735Y-48220591D01*
X20379591Y-48225345D01*
X20379591Y-48225345D01*
G37*
G36*
X64704360Y-46256235D02*
G01*
X64785397Y-46282566D01*
X64872663Y-46310248D01*
X64875655Y-46311893D01*
X64884488Y-46314763D01*
X64956466Y-46356319D01*
X65027499Y-46395370D01*
X65034986Y-46401653D01*
X65048511Y-46409461D01*
X65106259Y-46461457D01*
X65162857Y-46508949D01*
X65172962Y-46521518D01*
X65189261Y-46536193D01*
X65231454Y-46594267D01*
X65273579Y-46646660D01*
X65283994Y-46666582D01*
X65300586Y-46689419D01*
X65327297Y-46749412D01*
X65355439Y-46803243D01*
X65363582Y-46830910D01*
X65377621Y-46862442D01*
X65389992Y-46920641D01*
X65405328Y-46972749D01*
X65408518Y-47007801D01*
X65416999Y-47047701D01*
X65416999Y-47100992D01*
X65421343Y-47148724D01*
X65416999Y-47190053D01*
X65416999Y-47237099D01*
X65407217Y-47283121D01*
X65402873Y-47324447D01*
X65388702Y-47370227D01*
X65377621Y-47422358D01*
X65361028Y-47459626D01*
X65350622Y-47493243D01*
X65324789Y-47541020D01*
X65300586Y-47595381D01*
X65280298Y-47623305D01*
X65266580Y-47648676D01*
X65227859Y-47695482D01*
X65189261Y-47748607D01*
X65168284Y-47767495D01*
X65153952Y-47784819D01*
X65101845Y-47827317D01*
X65048511Y-47875339D01*
X65029524Y-47886301D01*
X65017025Y-47896495D01*
X64951780Y-47931186D01*
X64884488Y-47970037D01*
X64869636Y-47974863D01*
X64861003Y-47979453D01*
X64783430Y-48002873D01*
X64704360Y-48028565D01*
X64695114Y-48029537D01*
X64691851Y-48030522D01*
X64600710Y-48039459D01*
X64563211Y-48043400D01*
X64468789Y-48043400D01*
X64327640Y-48028565D01*
X64246603Y-48002234D01*
X64159337Y-47974552D01*
X64156345Y-47972907D01*
X64147512Y-47970037D01*
X64075534Y-47928481D01*
X64004501Y-47889430D01*
X63997014Y-47883147D01*
X63983489Y-47875339D01*
X63925741Y-47823343D01*
X63869143Y-47775851D01*
X63859038Y-47763282D01*
X63842739Y-47748607D01*
X63800546Y-47690533D01*
X63758421Y-47638140D01*
X63748006Y-47618218D01*
X63731414Y-47595381D01*
X63704703Y-47535388D01*
X63676561Y-47481557D01*
X63668418Y-47453890D01*
X63654379Y-47422358D01*
X63642008Y-47364159D01*
X63626672Y-47312051D01*
X63623482Y-47276999D01*
X63615001Y-47237099D01*
X63615001Y-47183808D01*
X63610657Y-47136076D01*
X63615001Y-47094747D01*
X63615001Y-47047701D01*
X63624783Y-47001679D01*
X63629127Y-46960353D01*
X63643298Y-46914573D01*
X63654379Y-46862442D01*
X63670972Y-46825174D01*
X63681378Y-46791557D01*
X63707211Y-46743780D01*
X63731414Y-46689419D01*
X63751702Y-46661495D01*
X63765420Y-46636124D01*
X63804141Y-46589318D01*
X63842739Y-46536193D01*
X63863716Y-46517305D01*
X63878048Y-46499981D01*
X63930155Y-46457483D01*
X63983489Y-46409461D01*
X64002476Y-46398499D01*
X64014975Y-46388305D01*
X64080220Y-46353614D01*
X64147512Y-46314763D01*
X64162364Y-46309937D01*
X64170997Y-46305347D01*
X64248570Y-46281927D01*
X64327640Y-46256235D01*
X64336886Y-46255263D01*
X64340149Y-46254278D01*
X64431290Y-46245341D01*
X64468789Y-46241400D01*
X64563211Y-46241400D01*
X64704360Y-46256235D01*
X64704360Y-46256235D01*
G37*
G36*
X67244360Y-46256235D02*
G01*
X67325397Y-46282566D01*
X67412663Y-46310248D01*
X67415655Y-46311893D01*
X67424488Y-46314763D01*
X67496466Y-46356319D01*
X67567499Y-46395370D01*
X67574986Y-46401653D01*
X67588511Y-46409461D01*
X67646259Y-46461457D01*
X67702857Y-46508949D01*
X67712962Y-46521518D01*
X67729261Y-46536193D01*
X67771454Y-46594267D01*
X67813579Y-46646660D01*
X67823994Y-46666582D01*
X67840586Y-46689419D01*
X67867297Y-46749412D01*
X67895439Y-46803243D01*
X67903582Y-46830910D01*
X67917621Y-46862442D01*
X67929992Y-46920641D01*
X67945328Y-46972749D01*
X67948518Y-47007801D01*
X67956999Y-47047701D01*
X67956999Y-47100992D01*
X67961343Y-47148724D01*
X67956999Y-47190053D01*
X67956999Y-47237099D01*
X67947217Y-47283121D01*
X67942873Y-47324447D01*
X67928702Y-47370227D01*
X67917621Y-47422358D01*
X67901028Y-47459626D01*
X67890622Y-47493243D01*
X67864789Y-47541020D01*
X67840586Y-47595381D01*
X67820298Y-47623305D01*
X67806580Y-47648676D01*
X67767859Y-47695482D01*
X67729261Y-47748607D01*
X67708284Y-47767495D01*
X67693952Y-47784819D01*
X67641845Y-47827317D01*
X67588511Y-47875339D01*
X67569524Y-47886301D01*
X67557025Y-47896495D01*
X67491780Y-47931186D01*
X67424488Y-47970037D01*
X67409636Y-47974863D01*
X67401003Y-47979453D01*
X67323430Y-48002873D01*
X67244360Y-48028565D01*
X67235114Y-48029537D01*
X67231851Y-48030522D01*
X67140710Y-48039459D01*
X67103211Y-48043400D01*
X67008789Y-48043400D01*
X66867640Y-48028565D01*
X66786603Y-48002234D01*
X66699337Y-47974552D01*
X66696345Y-47972907D01*
X66687512Y-47970037D01*
X66615534Y-47928481D01*
X66544501Y-47889430D01*
X66537014Y-47883147D01*
X66523489Y-47875339D01*
X66465741Y-47823343D01*
X66409143Y-47775851D01*
X66399038Y-47763282D01*
X66382739Y-47748607D01*
X66340546Y-47690533D01*
X66298421Y-47638140D01*
X66288006Y-47618218D01*
X66271414Y-47595381D01*
X66244703Y-47535388D01*
X66216561Y-47481557D01*
X66208418Y-47453890D01*
X66194379Y-47422358D01*
X66182008Y-47364159D01*
X66166672Y-47312051D01*
X66163482Y-47276999D01*
X66155001Y-47237099D01*
X66155001Y-47183808D01*
X66150657Y-47136076D01*
X66155001Y-47094747D01*
X66155001Y-47047701D01*
X66164783Y-47001679D01*
X66169127Y-46960353D01*
X66183298Y-46914573D01*
X66194379Y-46862442D01*
X66210972Y-46825174D01*
X66221378Y-46791557D01*
X66247211Y-46743780D01*
X66271414Y-46689419D01*
X66291702Y-46661495D01*
X66305420Y-46636124D01*
X66344141Y-46589318D01*
X66382739Y-46536193D01*
X66403716Y-46517305D01*
X66418048Y-46499981D01*
X66470155Y-46457483D01*
X66523489Y-46409461D01*
X66542476Y-46398499D01*
X66554975Y-46388305D01*
X66620220Y-46353614D01*
X66687512Y-46314763D01*
X66702364Y-46309937D01*
X66710997Y-46305347D01*
X66788570Y-46281927D01*
X66867640Y-46256235D01*
X66876886Y-46255263D01*
X66880149Y-46254278D01*
X66971290Y-46245341D01*
X67008789Y-46241400D01*
X67103211Y-46241400D01*
X67244360Y-46256235D01*
X67244360Y-46256235D01*
G37*
G36*
X20379591Y-45685345D02*
G01*
X20430391Y-45685700D01*
X20481051Y-45696099D01*
X20526828Y-45700951D01*
X20576287Y-45715648D01*
X20632293Y-45727145D01*
X20674069Y-45744706D01*
X20711981Y-45755972D01*
X20763722Y-45782392D01*
X20822300Y-45807016D01*
X20854564Y-45828779D01*
X20884015Y-45843817D01*
X20935254Y-45883205D01*
X20993174Y-45922273D01*
X21016070Y-45945330D01*
X21037158Y-45961540D01*
X21084764Y-46014504D01*
X21138407Y-46068523D01*
X21152831Y-46090233D01*
X21166284Y-46105200D01*
X21206922Y-46171646D01*
X21252468Y-46240198D01*
X21259950Y-46258350D01*
X21267065Y-46269984D01*
X21297378Y-46349158D01*
X21331011Y-46430758D01*
X21333572Y-46443693D01*
X21336132Y-46450379D01*
X21352931Y-46541461D01*
X21371045Y-46632944D01*
X21367757Y-46868363D01*
X21364234Y-46883869D01*
X21364069Y-46889973D01*
X21342745Y-46978453D01*
X21322094Y-47069352D01*
X21319358Y-47075497D01*
X21319199Y-47076157D01*
X21261914Y-47204518D01*
X21238261Y-47257645D01*
X21184257Y-47334200D01*
X21130932Y-47411643D01*
X21126520Y-47416048D01*
X21119451Y-47426068D01*
X21054969Y-47487474D01*
X20994227Y-47548109D01*
X20983742Y-47555302D01*
X20970191Y-47568206D01*
X20899960Y-47612776D01*
X20834942Y-47657378D01*
X20817400Y-47665170D01*
X20796165Y-47678646D01*
X20724347Y-47706503D01*
X20658410Y-47735791D01*
X20633446Y-47741761D01*
X20604002Y-47753182D01*
X20534304Y-47765471D01*
X20470543Y-47780720D01*
X20438438Y-47782375D01*
X20401022Y-47788972D01*
X20336608Y-47787623D01*
X20277641Y-47790662D01*
X20239342Y-47785586D01*
X20194955Y-47784656D01*
X20138223Y-47772183D01*
X20086152Y-47765281D01*
X20043267Y-47751306D01*
X19993652Y-47740397D01*
X19946265Y-47719694D01*
X19902498Y-47705431D01*
X19857176Y-47680772D01*
X19804779Y-47657880D01*
X19767565Y-47632016D01*
X19732825Y-47613114D01*
X19687703Y-47576510D01*
X19635530Y-47540249D01*
X19608502Y-47512260D01*
X19582814Y-47491422D01*
X19540877Y-47442233D01*
X19492353Y-47391985D01*
X19474751Y-47364672D01*
X19457495Y-47344432D01*
X19421942Y-47282728D01*
X19380701Y-47218734D01*
X19371105Y-47194498D01*
X19361060Y-47177064D01*
X19335127Y-47103628D01*
X19304826Y-47027096D01*
X19301282Y-47007785D01*
X19296739Y-46994921D01*
X19283546Y-46911152D01*
X19267619Y-46824371D01*
X19267803Y-46811188D01*
X19266689Y-46804114D01*
X19269196Y-46711460D01*
X19270497Y-46618279D01*
X19271895Y-46611703D01*
X19271913Y-46611026D01*
X19301406Y-46472863D01*
X19313350Y-46416672D01*
X19350226Y-46330635D01*
X19386315Y-46243722D01*
X19389718Y-46238492D01*
X19394546Y-46227227D01*
X19444828Y-46153791D01*
X19491658Y-46081818D01*
X19500423Y-46072598D01*
X19510992Y-46057162D01*
X19570409Y-45998977D01*
X19624745Y-45941818D01*
X19640286Y-45930547D01*
X19658253Y-45912953D01*
X19722701Y-45870780D01*
X19781118Y-45828415D01*
X19804301Y-45817382D01*
X19830720Y-45800094D01*
X19896316Y-45773591D01*
X19955532Y-45745410D01*
X19986596Y-45737116D01*
X20021823Y-45722883D01*
X20085128Y-45710807D01*
X20142159Y-45695579D01*
X20180663Y-45692582D01*
X20224284Y-45684261D01*
X20282370Y-45684667D01*
X20334735Y-45680591D01*
X20379591Y-45685345D01*
X20379591Y-45685345D01*
G37*
G36*
X40259645Y-44694001D02*
G01*
X40306699Y-44694001D01*
X40352723Y-44703784D01*
X40394047Y-44708127D01*
X40439827Y-44722298D01*
X40491958Y-44733379D01*
X40529226Y-44749972D01*
X40562843Y-44760378D01*
X40610620Y-44786211D01*
X40664981Y-44810414D01*
X40692905Y-44830702D01*
X40718276Y-44844420D01*
X40765082Y-44883141D01*
X40818207Y-44921739D01*
X40837095Y-44942716D01*
X40854419Y-44957048D01*
X40896915Y-45009153D01*
X40944939Y-45062489D01*
X40955903Y-45081479D01*
X40966096Y-45093977D01*
X41000786Y-45159219D01*
X41039637Y-45226512D01*
X41044463Y-45241364D01*
X41049052Y-45249995D01*
X41072471Y-45327562D01*
X41098165Y-45406641D01*
X41099137Y-45415887D01*
X41100122Y-45419150D01*
X41109059Y-45510291D01*
X41113000Y-45547790D01*
X41113000Y-45892211D01*
X41098165Y-46033360D01*
X41071834Y-46114397D01*
X41044152Y-46201663D01*
X41042507Y-46204655D01*
X41039637Y-46213488D01*
X40998081Y-46285466D01*
X40959030Y-46356499D01*
X40952747Y-46363986D01*
X40944939Y-46377511D01*
X40892943Y-46435259D01*
X40845451Y-46491857D01*
X40832882Y-46501962D01*
X40818207Y-46518261D01*
X40760133Y-46560454D01*
X40707742Y-46602577D01*
X40687819Y-46612992D01*
X40664980Y-46629586D01*
X40604985Y-46656298D01*
X40551154Y-46684440D01*
X40523487Y-46692583D01*
X40491957Y-46706621D01*
X40433760Y-46718991D01*
X40381650Y-46734328D01*
X40346600Y-46737518D01*
X40306698Y-46745999D01*
X40253400Y-46745999D01*
X40205676Y-46750342D01*
X40164355Y-46745999D01*
X40117301Y-46745999D01*
X40071277Y-46736216D01*
X40029953Y-46731873D01*
X39984173Y-46717702D01*
X39932042Y-46706621D01*
X39894774Y-46690028D01*
X39861157Y-46679622D01*
X39813380Y-46653789D01*
X39759019Y-46629586D01*
X39731095Y-46609298D01*
X39705724Y-46595580D01*
X39658918Y-46556859D01*
X39605793Y-46518261D01*
X39586905Y-46497284D01*
X39569581Y-46482952D01*
X39527085Y-46430847D01*
X39479061Y-46377511D01*
X39468098Y-46358521D01*
X39457904Y-46346023D01*
X39423210Y-46280773D01*
X39384363Y-46213487D01*
X39379538Y-46198638D01*
X39374948Y-46190005D01*
X39351528Y-46112432D01*
X39325835Y-46033359D01*
X39324863Y-46024113D01*
X39323878Y-46020850D01*
X39314941Y-45929709D01*
X39311000Y-45892210D01*
X39311000Y-45547789D01*
X39325835Y-45406640D01*
X39352166Y-45325603D01*
X39379848Y-45238337D01*
X39381493Y-45235345D01*
X39384363Y-45226512D01*
X39425925Y-45154524D01*
X39464970Y-45083502D01*
X39471251Y-45076017D01*
X39479061Y-45062489D01*
X39531071Y-45004726D01*
X39578550Y-44948143D01*
X39591115Y-44938040D01*
X39605793Y-44921739D01*
X39663874Y-44879541D01*
X39716261Y-44837421D01*
X39736183Y-44827006D01*
X39759020Y-44810414D01*
X39819013Y-44783703D01*
X39872844Y-44755561D01*
X39900511Y-44747418D01*
X39932043Y-44733379D01*
X39990242Y-44721008D01*
X40042350Y-44705672D01*
X40077400Y-44702482D01*
X40117302Y-44694001D01*
X40170600Y-44694001D01*
X40218324Y-44689658D01*
X40259645Y-44694001D01*
X40259645Y-44694001D01*
G37*
G36*
X37759645Y-44694001D02*
G01*
X37806699Y-44694001D01*
X37852723Y-44703784D01*
X37894047Y-44708127D01*
X37939827Y-44722298D01*
X37991958Y-44733379D01*
X38029226Y-44749972D01*
X38062843Y-44760378D01*
X38110620Y-44786211D01*
X38164981Y-44810414D01*
X38192905Y-44830702D01*
X38218276Y-44844420D01*
X38265082Y-44883141D01*
X38318207Y-44921739D01*
X38337095Y-44942716D01*
X38354419Y-44957048D01*
X38396915Y-45009153D01*
X38444939Y-45062489D01*
X38455903Y-45081479D01*
X38466096Y-45093977D01*
X38500786Y-45159219D01*
X38539637Y-45226512D01*
X38544463Y-45241364D01*
X38549052Y-45249995D01*
X38572471Y-45327562D01*
X38598165Y-45406641D01*
X38599137Y-45415887D01*
X38600122Y-45419150D01*
X38609059Y-45510291D01*
X38613000Y-45547790D01*
X38613000Y-45892211D01*
X38598165Y-46033360D01*
X38571834Y-46114397D01*
X38544152Y-46201663D01*
X38542507Y-46204655D01*
X38539637Y-46213488D01*
X38498081Y-46285466D01*
X38459030Y-46356499D01*
X38452747Y-46363986D01*
X38444939Y-46377511D01*
X38392943Y-46435259D01*
X38345451Y-46491857D01*
X38332882Y-46501962D01*
X38318207Y-46518261D01*
X38260133Y-46560454D01*
X38207742Y-46602577D01*
X38187819Y-46612992D01*
X38164980Y-46629586D01*
X38104985Y-46656298D01*
X38051154Y-46684440D01*
X38023487Y-46692583D01*
X37991957Y-46706621D01*
X37933760Y-46718991D01*
X37881650Y-46734328D01*
X37846600Y-46737518D01*
X37806698Y-46745999D01*
X37753400Y-46745999D01*
X37705676Y-46750342D01*
X37664355Y-46745999D01*
X37617301Y-46745999D01*
X37571277Y-46736216D01*
X37529953Y-46731873D01*
X37484173Y-46717702D01*
X37432042Y-46706621D01*
X37394774Y-46690028D01*
X37361157Y-46679622D01*
X37313380Y-46653789D01*
X37259019Y-46629586D01*
X37231095Y-46609298D01*
X37205724Y-46595580D01*
X37158918Y-46556859D01*
X37105793Y-46518261D01*
X37086905Y-46497284D01*
X37069581Y-46482952D01*
X37027085Y-46430847D01*
X36979061Y-46377511D01*
X36968098Y-46358521D01*
X36957904Y-46346023D01*
X36923210Y-46280773D01*
X36884363Y-46213487D01*
X36879538Y-46198638D01*
X36874948Y-46190005D01*
X36851528Y-46112432D01*
X36825835Y-46033359D01*
X36824863Y-46024113D01*
X36823878Y-46020850D01*
X36814941Y-45929709D01*
X36811000Y-45892210D01*
X36811000Y-45547789D01*
X36825835Y-45406640D01*
X36852166Y-45325603D01*
X36879848Y-45238337D01*
X36881493Y-45235345D01*
X36884363Y-45226512D01*
X36925925Y-45154524D01*
X36964970Y-45083502D01*
X36971251Y-45076017D01*
X36979061Y-45062489D01*
X37031071Y-45004726D01*
X37078550Y-44948143D01*
X37091115Y-44938040D01*
X37105793Y-44921739D01*
X37163874Y-44879541D01*
X37216261Y-44837421D01*
X37236183Y-44827006D01*
X37259020Y-44810414D01*
X37319013Y-44783703D01*
X37372844Y-44755561D01*
X37400511Y-44747418D01*
X37432043Y-44733379D01*
X37490242Y-44721008D01*
X37542350Y-44705672D01*
X37577400Y-44702482D01*
X37617302Y-44694001D01*
X37670600Y-44694001D01*
X37718324Y-44689658D01*
X37759645Y-44694001D01*
X37759645Y-44694001D01*
G37*
G36*
X42759645Y-44694001D02*
G01*
X42806699Y-44694001D01*
X42852723Y-44703784D01*
X42894047Y-44708127D01*
X42939827Y-44722298D01*
X42991958Y-44733379D01*
X43029226Y-44749972D01*
X43062843Y-44760378D01*
X43110620Y-44786211D01*
X43164981Y-44810414D01*
X43192905Y-44830702D01*
X43218276Y-44844420D01*
X43265082Y-44883141D01*
X43318207Y-44921739D01*
X43337095Y-44942716D01*
X43354419Y-44957048D01*
X43396915Y-45009153D01*
X43444939Y-45062489D01*
X43455903Y-45081479D01*
X43466096Y-45093977D01*
X43500786Y-45159219D01*
X43539637Y-45226512D01*
X43544463Y-45241364D01*
X43549052Y-45249995D01*
X43572471Y-45327562D01*
X43598165Y-45406641D01*
X43599137Y-45415887D01*
X43600122Y-45419150D01*
X43609059Y-45510291D01*
X43613000Y-45547790D01*
X43613000Y-45892211D01*
X43598165Y-46033360D01*
X43571834Y-46114397D01*
X43544152Y-46201663D01*
X43542507Y-46204655D01*
X43539637Y-46213488D01*
X43498081Y-46285466D01*
X43459030Y-46356499D01*
X43452747Y-46363986D01*
X43444939Y-46377511D01*
X43392943Y-46435259D01*
X43345451Y-46491857D01*
X43332882Y-46501962D01*
X43318207Y-46518261D01*
X43260133Y-46560454D01*
X43207742Y-46602577D01*
X43187819Y-46612992D01*
X43164980Y-46629586D01*
X43104985Y-46656298D01*
X43051154Y-46684440D01*
X43023487Y-46692583D01*
X42991957Y-46706621D01*
X42933760Y-46718991D01*
X42881650Y-46734328D01*
X42846600Y-46737518D01*
X42806698Y-46745999D01*
X42753400Y-46745999D01*
X42705676Y-46750342D01*
X42664355Y-46745999D01*
X42617301Y-46745999D01*
X42571277Y-46736216D01*
X42529953Y-46731873D01*
X42484173Y-46717702D01*
X42432042Y-46706621D01*
X42394774Y-46690028D01*
X42361157Y-46679622D01*
X42313380Y-46653789D01*
X42259019Y-46629586D01*
X42231095Y-46609298D01*
X42205724Y-46595580D01*
X42158918Y-46556859D01*
X42105793Y-46518261D01*
X42086905Y-46497284D01*
X42069581Y-46482952D01*
X42027085Y-46430847D01*
X41979061Y-46377511D01*
X41968098Y-46358521D01*
X41957904Y-46346023D01*
X41923210Y-46280773D01*
X41884363Y-46213487D01*
X41879538Y-46198638D01*
X41874948Y-46190005D01*
X41851528Y-46112432D01*
X41825835Y-46033359D01*
X41824863Y-46024113D01*
X41823878Y-46020850D01*
X41814941Y-45929709D01*
X41811000Y-45892210D01*
X41811000Y-45547789D01*
X41825835Y-45406640D01*
X41852166Y-45325603D01*
X41879848Y-45238337D01*
X41881493Y-45235345D01*
X41884363Y-45226512D01*
X41925925Y-45154524D01*
X41964970Y-45083502D01*
X41971251Y-45076017D01*
X41979061Y-45062489D01*
X42031071Y-45004726D01*
X42078550Y-44948143D01*
X42091115Y-44938040D01*
X42105793Y-44921739D01*
X42163874Y-44879541D01*
X42216261Y-44837421D01*
X42236183Y-44827006D01*
X42259020Y-44810414D01*
X42319013Y-44783703D01*
X42372844Y-44755561D01*
X42400511Y-44747418D01*
X42432043Y-44733379D01*
X42490242Y-44721008D01*
X42542350Y-44705672D01*
X42577400Y-44702482D01*
X42617302Y-44694001D01*
X42670600Y-44694001D01*
X42718324Y-44689658D01*
X42759645Y-44694001D01*
X42759645Y-44694001D01*
G37*
G36*
X45898756Y-44706764D02*
G01*
X45910228Y-44712289D01*
X45918286Y-44713795D01*
X45935543Y-44724480D01*
X45980638Y-44746197D01*
X46000738Y-44764847D01*
X46013964Y-44773036D01*
X46024264Y-44786676D01*
X46047265Y-44808017D01*
X46069617Y-44846732D01*
X46081781Y-44862840D01*
X46083750Y-44871212D01*
X46091506Y-44884646D01*
X46110419Y-44984603D01*
X46113883Y-44999331D01*
X46113883Y-45002910D01*
X46115194Y-45009839D01*
X46115194Y-46432516D01*
X46100236Y-46531756D01*
X46094711Y-46543228D01*
X46093205Y-46551286D01*
X46082520Y-46568543D01*
X46060803Y-46613638D01*
X46042153Y-46633738D01*
X46033964Y-46646964D01*
X46020324Y-46657264D01*
X45998983Y-46680265D01*
X45960268Y-46702617D01*
X45944160Y-46714781D01*
X45935788Y-46716750D01*
X45922354Y-46724506D01*
X45822397Y-46743419D01*
X45807669Y-46746883D01*
X45804090Y-46746883D01*
X45797161Y-46748194D01*
X44624484Y-46748194D01*
X44525244Y-46733236D01*
X44513772Y-46727711D01*
X44505714Y-46726205D01*
X44488457Y-46715520D01*
X44443362Y-46693803D01*
X44423262Y-46675153D01*
X44410036Y-46666964D01*
X44399736Y-46653324D01*
X44376735Y-46631983D01*
X44354383Y-46593268D01*
X44342219Y-46577160D01*
X44340250Y-46568788D01*
X44332494Y-46555354D01*
X44313581Y-46455397D01*
X44310117Y-46440669D01*
X44310117Y-46437090D01*
X44308806Y-46430161D01*
X44308806Y-45007484D01*
X44323764Y-44908244D01*
X44329289Y-44896772D01*
X44330795Y-44888714D01*
X44341480Y-44871457D01*
X44363197Y-44826362D01*
X44381847Y-44806262D01*
X44390036Y-44793036D01*
X44403676Y-44782736D01*
X44425017Y-44759735D01*
X44463732Y-44737383D01*
X44479840Y-44725219D01*
X44488212Y-44723250D01*
X44501646Y-44715494D01*
X44601603Y-44696581D01*
X44616331Y-44693117D01*
X44619910Y-44693117D01*
X44626839Y-44691806D01*
X45799516Y-44691806D01*
X45898756Y-44706764D01*
X45898756Y-44706764D01*
G37*
G36*
X65385899Y-43704359D02*
G01*
X65402769Y-43715631D01*
X65414041Y-43732501D01*
X65420448Y-43764712D01*
X65420448Y-45440088D01*
X65417999Y-45452400D01*
X65414041Y-45472299D01*
X65402769Y-45489169D01*
X65385899Y-45500441D01*
X65366000Y-45504399D01*
X65353688Y-45506848D01*
X63678312Y-45506848D01*
X63646101Y-45500441D01*
X63629231Y-45489169D01*
X63617959Y-45472299D01*
X63611552Y-45440088D01*
X63611552Y-43764712D01*
X63617959Y-43732501D01*
X63629231Y-43715631D01*
X63646101Y-43704359D01*
X63678312Y-43697952D01*
X65353688Y-43697952D01*
X65385899Y-43704359D01*
X65385899Y-43704359D01*
G37*
G36*
X67244360Y-43716235D02*
G01*
X67325397Y-43742566D01*
X67412663Y-43770248D01*
X67415655Y-43771893D01*
X67424488Y-43774763D01*
X67496466Y-43816319D01*
X67567499Y-43855370D01*
X67574986Y-43861653D01*
X67588511Y-43869461D01*
X67646259Y-43921457D01*
X67702857Y-43968949D01*
X67712962Y-43981518D01*
X67729261Y-43996193D01*
X67771454Y-44054267D01*
X67813579Y-44106660D01*
X67823994Y-44126582D01*
X67840586Y-44149419D01*
X67867297Y-44209412D01*
X67895439Y-44263243D01*
X67903582Y-44290910D01*
X67917621Y-44322442D01*
X67929992Y-44380641D01*
X67945328Y-44432749D01*
X67948518Y-44467801D01*
X67956999Y-44507701D01*
X67956999Y-44560992D01*
X67961343Y-44608724D01*
X67956999Y-44650053D01*
X67956999Y-44697099D01*
X67947217Y-44743121D01*
X67942873Y-44784447D01*
X67928702Y-44830227D01*
X67917621Y-44882358D01*
X67901028Y-44919626D01*
X67890622Y-44953243D01*
X67864789Y-45001020D01*
X67840586Y-45055381D01*
X67820298Y-45083305D01*
X67806580Y-45108676D01*
X67767859Y-45155482D01*
X67729261Y-45208607D01*
X67708284Y-45227495D01*
X67693952Y-45244819D01*
X67641845Y-45287317D01*
X67588511Y-45335339D01*
X67569524Y-45346301D01*
X67557025Y-45356495D01*
X67491780Y-45391186D01*
X67424488Y-45430037D01*
X67409636Y-45434863D01*
X67401003Y-45439453D01*
X67323430Y-45462873D01*
X67244360Y-45488565D01*
X67235114Y-45489537D01*
X67231851Y-45490522D01*
X67140710Y-45499459D01*
X67103211Y-45503400D01*
X67008789Y-45503400D01*
X66867640Y-45488565D01*
X66786603Y-45462234D01*
X66699337Y-45434552D01*
X66696345Y-45432907D01*
X66687512Y-45430037D01*
X66615534Y-45388481D01*
X66544501Y-45349430D01*
X66537014Y-45343147D01*
X66523489Y-45335339D01*
X66465741Y-45283343D01*
X66409143Y-45235851D01*
X66399038Y-45223282D01*
X66382739Y-45208607D01*
X66340546Y-45150533D01*
X66298421Y-45098140D01*
X66288006Y-45078218D01*
X66271414Y-45055381D01*
X66244703Y-44995388D01*
X66216561Y-44941557D01*
X66208418Y-44913890D01*
X66194379Y-44882358D01*
X66182008Y-44824159D01*
X66166672Y-44772051D01*
X66163482Y-44736999D01*
X66155001Y-44697099D01*
X66155001Y-44643808D01*
X66150657Y-44596076D01*
X66155001Y-44554747D01*
X66155001Y-44507701D01*
X66164783Y-44461679D01*
X66169127Y-44420353D01*
X66183298Y-44374573D01*
X66194379Y-44322442D01*
X66210972Y-44285174D01*
X66221378Y-44251557D01*
X66247211Y-44203780D01*
X66271414Y-44149419D01*
X66291702Y-44121495D01*
X66305420Y-44096124D01*
X66344141Y-44049318D01*
X66382739Y-43996193D01*
X66403716Y-43977305D01*
X66418048Y-43959981D01*
X66470155Y-43917483D01*
X66523489Y-43869461D01*
X66542476Y-43858499D01*
X66554975Y-43848305D01*
X66620220Y-43813614D01*
X66687512Y-43774763D01*
X66702364Y-43769937D01*
X66710997Y-43765347D01*
X66788570Y-43741927D01*
X66867640Y-43716235D01*
X66876886Y-43715263D01*
X66880149Y-43714278D01*
X66971290Y-43705341D01*
X67008789Y-43701400D01*
X67103211Y-43701400D01*
X67244360Y-43716235D01*
X67244360Y-43716235D01*
G37*
G36*
X61908360Y-35943835D02*
G01*
X61989397Y-35970166D01*
X62076663Y-35997848D01*
X62079655Y-35999493D01*
X62088488Y-36002363D01*
X62160466Y-36043919D01*
X62231499Y-36082970D01*
X62238986Y-36089253D01*
X62252511Y-36097061D01*
X62310259Y-36149057D01*
X62366857Y-36196549D01*
X62376962Y-36209118D01*
X62393261Y-36223793D01*
X62435454Y-36281867D01*
X62477579Y-36334260D01*
X62487994Y-36354182D01*
X62504586Y-36377019D01*
X62531297Y-36437012D01*
X62559439Y-36490843D01*
X62567582Y-36518510D01*
X62581621Y-36550042D01*
X62593992Y-36608241D01*
X62609328Y-36660349D01*
X62612518Y-36695401D01*
X62620999Y-36735301D01*
X62620999Y-36788592D01*
X62625343Y-36836324D01*
X62620999Y-36877653D01*
X62620999Y-36924699D01*
X62611217Y-36970721D01*
X62606873Y-37012047D01*
X62592702Y-37057827D01*
X62581621Y-37109958D01*
X62565028Y-37147226D01*
X62554622Y-37180843D01*
X62528789Y-37228620D01*
X62504586Y-37282981D01*
X62484298Y-37310905D01*
X62470580Y-37336276D01*
X62431859Y-37383082D01*
X62393261Y-37436207D01*
X62372284Y-37455095D01*
X62357952Y-37472419D01*
X62305845Y-37514917D01*
X62252511Y-37562939D01*
X62233524Y-37573901D01*
X62221025Y-37584095D01*
X62155780Y-37618786D01*
X62088488Y-37657637D01*
X62073636Y-37662463D01*
X62065003Y-37667053D01*
X61987430Y-37690473D01*
X61908360Y-37716165D01*
X61899114Y-37717137D01*
X61895851Y-37718122D01*
X61804710Y-37727059D01*
X61767211Y-37731000D01*
X61422789Y-37731000D01*
X61281640Y-37716165D01*
X61200603Y-37689834D01*
X61113337Y-37662152D01*
X61110345Y-37660507D01*
X61101512Y-37657637D01*
X61029534Y-37616081D01*
X60958501Y-37577030D01*
X60951014Y-37570747D01*
X60937489Y-37562939D01*
X60879741Y-37510943D01*
X60823143Y-37463451D01*
X60813038Y-37450882D01*
X60796739Y-37436207D01*
X60754546Y-37378133D01*
X60712421Y-37325740D01*
X60702006Y-37305818D01*
X60685414Y-37282981D01*
X60658703Y-37222988D01*
X60630561Y-37169157D01*
X60622418Y-37141490D01*
X60608379Y-37109958D01*
X60596008Y-37051759D01*
X60580672Y-36999651D01*
X60577482Y-36964599D01*
X60569001Y-36924699D01*
X60569001Y-36871408D01*
X60564657Y-36823676D01*
X60569001Y-36782347D01*
X60569001Y-36735301D01*
X60578783Y-36689279D01*
X60583127Y-36647953D01*
X60597298Y-36602173D01*
X60608379Y-36550042D01*
X60624972Y-36512774D01*
X60635378Y-36479157D01*
X60661211Y-36431380D01*
X60685414Y-36377019D01*
X60705702Y-36349095D01*
X60719420Y-36323724D01*
X60758141Y-36276918D01*
X60796739Y-36223793D01*
X60817716Y-36204905D01*
X60832048Y-36187581D01*
X60884155Y-36145083D01*
X60937489Y-36097061D01*
X60956476Y-36086099D01*
X60968975Y-36075905D01*
X61034220Y-36041214D01*
X61101512Y-36002363D01*
X61116364Y-35997537D01*
X61124997Y-35992947D01*
X61202570Y-35969527D01*
X61281640Y-35943835D01*
X61290886Y-35942863D01*
X61294149Y-35941878D01*
X61385290Y-35932941D01*
X61422789Y-35929000D01*
X61767211Y-35929000D01*
X61908360Y-35943835D01*
X61908360Y-35943835D01*
G37*
G36*
X61908360Y-33443835D02*
G01*
X61989397Y-33470166D01*
X62076663Y-33497848D01*
X62079655Y-33499493D01*
X62088488Y-33502363D01*
X62160466Y-33543919D01*
X62231499Y-33582970D01*
X62238986Y-33589253D01*
X62252511Y-33597061D01*
X62310259Y-33649057D01*
X62366857Y-33696549D01*
X62376962Y-33709118D01*
X62393261Y-33723793D01*
X62435454Y-33781867D01*
X62477579Y-33834260D01*
X62487994Y-33854182D01*
X62504586Y-33877019D01*
X62531297Y-33937012D01*
X62559439Y-33990843D01*
X62567582Y-34018510D01*
X62581621Y-34050042D01*
X62593992Y-34108241D01*
X62609328Y-34160349D01*
X62612518Y-34195401D01*
X62620999Y-34235301D01*
X62620999Y-34288592D01*
X62625343Y-34336324D01*
X62620999Y-34377653D01*
X62620999Y-34424699D01*
X62611217Y-34470721D01*
X62606873Y-34512047D01*
X62592702Y-34557827D01*
X62581621Y-34609958D01*
X62565028Y-34647226D01*
X62554622Y-34680843D01*
X62528789Y-34728620D01*
X62504586Y-34782981D01*
X62484298Y-34810905D01*
X62470580Y-34836276D01*
X62431859Y-34883082D01*
X62393261Y-34936207D01*
X62372284Y-34955095D01*
X62357952Y-34972419D01*
X62305845Y-35014917D01*
X62252511Y-35062939D01*
X62233524Y-35073901D01*
X62221025Y-35084095D01*
X62155780Y-35118786D01*
X62088488Y-35157637D01*
X62073636Y-35162463D01*
X62065003Y-35167053D01*
X61987430Y-35190473D01*
X61908360Y-35216165D01*
X61899114Y-35217137D01*
X61895851Y-35218122D01*
X61804710Y-35227059D01*
X61767211Y-35231000D01*
X61422789Y-35231000D01*
X61281640Y-35216165D01*
X61200603Y-35189834D01*
X61113337Y-35162152D01*
X61110345Y-35160507D01*
X61101512Y-35157637D01*
X61029534Y-35116081D01*
X60958501Y-35077030D01*
X60951014Y-35070747D01*
X60937489Y-35062939D01*
X60879741Y-35010943D01*
X60823143Y-34963451D01*
X60813038Y-34950882D01*
X60796739Y-34936207D01*
X60754546Y-34878133D01*
X60712421Y-34825740D01*
X60702006Y-34805818D01*
X60685414Y-34782981D01*
X60658703Y-34722988D01*
X60630561Y-34669157D01*
X60622418Y-34641490D01*
X60608379Y-34609958D01*
X60596008Y-34551759D01*
X60580672Y-34499651D01*
X60577482Y-34464599D01*
X60569001Y-34424699D01*
X60569001Y-34371408D01*
X60564657Y-34323676D01*
X60569001Y-34282347D01*
X60569001Y-34235301D01*
X60578783Y-34189279D01*
X60583127Y-34147953D01*
X60597298Y-34102173D01*
X60608379Y-34050042D01*
X60624972Y-34012774D01*
X60635378Y-33979157D01*
X60661211Y-33931380D01*
X60685414Y-33877019D01*
X60705702Y-33849095D01*
X60719420Y-33823724D01*
X60758141Y-33776918D01*
X60796739Y-33723793D01*
X60817716Y-33704905D01*
X60832048Y-33687581D01*
X60884155Y-33645083D01*
X60937489Y-33597061D01*
X60956476Y-33586099D01*
X60968975Y-33575905D01*
X61034220Y-33541214D01*
X61101512Y-33502363D01*
X61116364Y-33497537D01*
X61124997Y-33492947D01*
X61202570Y-33469527D01*
X61281640Y-33443835D01*
X61290886Y-33442863D01*
X61294149Y-33441878D01*
X61385290Y-33432941D01*
X61422789Y-33429000D01*
X61767211Y-33429000D01*
X61908360Y-33443835D01*
X61908360Y-33443835D01*
G37*
G36*
X62406756Y-30941764D02*
G01*
X62418228Y-30947289D01*
X62426286Y-30948795D01*
X62443543Y-30959480D01*
X62488638Y-30981197D01*
X62508738Y-30999847D01*
X62521964Y-31008036D01*
X62532264Y-31021676D01*
X62555265Y-31043017D01*
X62577617Y-31081732D01*
X62589781Y-31097840D01*
X62591750Y-31106212D01*
X62599506Y-31119646D01*
X62618419Y-31219603D01*
X62621883Y-31234331D01*
X62621883Y-31237910D01*
X62623194Y-31244839D01*
X62623194Y-32417516D01*
X62608236Y-32516756D01*
X62602711Y-32528228D01*
X62601205Y-32536286D01*
X62590520Y-32553543D01*
X62568803Y-32598638D01*
X62550153Y-32618738D01*
X62541964Y-32631964D01*
X62528324Y-32642264D01*
X62506983Y-32665265D01*
X62468268Y-32687617D01*
X62452160Y-32699781D01*
X62443788Y-32701750D01*
X62430354Y-32709506D01*
X62330397Y-32728419D01*
X62315669Y-32731883D01*
X62312090Y-32731883D01*
X62305161Y-32733194D01*
X60882484Y-32733194D01*
X60783244Y-32718236D01*
X60771772Y-32712711D01*
X60763714Y-32711205D01*
X60746457Y-32700520D01*
X60701362Y-32678803D01*
X60681262Y-32660153D01*
X60668036Y-32651964D01*
X60657736Y-32638324D01*
X60634735Y-32616983D01*
X60612383Y-32578268D01*
X60600219Y-32562160D01*
X60598250Y-32553788D01*
X60590494Y-32540354D01*
X60571581Y-32440397D01*
X60568117Y-32425669D01*
X60568117Y-32422090D01*
X60566806Y-32415161D01*
X60566806Y-31242484D01*
X60581764Y-31143244D01*
X60587289Y-31131772D01*
X60588795Y-31123714D01*
X60599480Y-31106457D01*
X60621197Y-31061362D01*
X60639847Y-31041262D01*
X60648036Y-31028036D01*
X60661676Y-31017736D01*
X60683017Y-30994735D01*
X60721732Y-30972383D01*
X60737840Y-30960219D01*
X60746212Y-30958250D01*
X60759646Y-30950494D01*
X60859603Y-30931581D01*
X60874331Y-30928117D01*
X60877910Y-30928117D01*
X60884839Y-30926806D01*
X62307516Y-30926806D01*
X62406756Y-30941764D01*
X62406756Y-30941764D01*
G37*
G36*
X95652899Y-30193959D02*
G01*
X95669769Y-30205231D01*
X95681041Y-30222101D01*
X95687448Y-30254312D01*
X95687448Y-32229688D01*
X95684999Y-32242000D01*
X95681041Y-32261899D01*
X95669769Y-32278769D01*
X95652899Y-32290041D01*
X95633000Y-32293999D01*
X95620688Y-32296448D01*
X94145312Y-32296448D01*
X94113101Y-32290041D01*
X94096231Y-32278769D01*
X94084959Y-32261899D01*
X94078552Y-32229688D01*
X94078552Y-30254312D01*
X94084959Y-30222101D01*
X94096231Y-30205231D01*
X94113101Y-30193959D01*
X94145312Y-30187552D01*
X95620688Y-30187552D01*
X95652899Y-30193959D01*
X95652899Y-30193959D01*
G37*
G36*
X93352899Y-30193959D02*
G01*
X93369769Y-30205231D01*
X93381041Y-30222101D01*
X93387448Y-30254312D01*
X93387448Y-32229688D01*
X93384999Y-32242000D01*
X93381041Y-32261899D01*
X93369769Y-32278769D01*
X93352899Y-32290041D01*
X93333000Y-32293999D01*
X93320688Y-32296448D01*
X91845312Y-32296448D01*
X91813101Y-32290041D01*
X91796231Y-32278769D01*
X91784959Y-32261899D01*
X91778552Y-32229688D01*
X91778552Y-30254312D01*
X91784959Y-30222101D01*
X91796231Y-30205231D01*
X91813101Y-30193959D01*
X91845312Y-30187552D01*
X93320688Y-30187552D01*
X93352899Y-30193959D01*
X93352899Y-30193959D01*
G37*
G36*
X91052899Y-30193959D02*
G01*
X91069769Y-30205231D01*
X91081041Y-30222101D01*
X91087448Y-30254312D01*
X91087448Y-32229688D01*
X91084999Y-32242000D01*
X91081041Y-32261899D01*
X91069769Y-32278769D01*
X91052899Y-32290041D01*
X91033000Y-32293999D01*
X91020688Y-32296448D01*
X89545312Y-32296448D01*
X89513101Y-32290041D01*
X89496231Y-32278769D01*
X89484959Y-32261899D01*
X89478552Y-32229688D01*
X89478552Y-30254312D01*
X89484959Y-30222101D01*
X89496231Y-30205231D01*
X89513101Y-30193959D01*
X89545312Y-30187552D01*
X91020688Y-30187552D01*
X91052899Y-30193959D01*
X91052899Y-30193959D01*
G37*
G36*
X20887591Y-28286345D02*
G01*
X20938391Y-28286700D01*
X20989051Y-28297099D01*
X21034828Y-28301951D01*
X21084287Y-28316648D01*
X21140293Y-28328145D01*
X21182069Y-28345706D01*
X21219981Y-28356972D01*
X21271722Y-28383392D01*
X21330300Y-28408016D01*
X21362564Y-28429779D01*
X21392015Y-28444817D01*
X21443254Y-28484205D01*
X21501174Y-28523273D01*
X21524070Y-28546330D01*
X21545158Y-28562540D01*
X21592764Y-28615504D01*
X21646407Y-28669523D01*
X21660831Y-28691233D01*
X21674284Y-28706200D01*
X21714922Y-28772646D01*
X21760468Y-28841198D01*
X21767950Y-28859350D01*
X21775065Y-28870984D01*
X21805378Y-28950158D01*
X21839011Y-29031758D01*
X21841572Y-29044693D01*
X21844132Y-29051379D01*
X21860931Y-29142461D01*
X21879045Y-29233944D01*
X21875757Y-29469363D01*
X21872234Y-29484869D01*
X21872069Y-29490973D01*
X21850745Y-29579453D01*
X21830094Y-29670352D01*
X21827358Y-29676497D01*
X21827199Y-29677157D01*
X21769914Y-29805518D01*
X21746261Y-29858645D01*
X21692257Y-29935200D01*
X21638932Y-30012643D01*
X21634520Y-30017048D01*
X21627451Y-30027068D01*
X21562969Y-30088474D01*
X21502227Y-30149109D01*
X21491742Y-30156302D01*
X21478191Y-30169206D01*
X21407960Y-30213776D01*
X21342942Y-30258378D01*
X21325400Y-30266170D01*
X21304165Y-30279646D01*
X21232347Y-30307503D01*
X21166410Y-30336791D01*
X21141446Y-30342761D01*
X21112002Y-30354182D01*
X21042304Y-30366471D01*
X20978543Y-30381720D01*
X20946438Y-30383375D01*
X20909022Y-30389972D01*
X20844608Y-30388623D01*
X20785641Y-30391662D01*
X20747342Y-30386586D01*
X20702955Y-30385656D01*
X20646223Y-30373183D01*
X20594152Y-30366281D01*
X20551267Y-30352306D01*
X20501652Y-30341397D01*
X20454265Y-30320694D01*
X20410498Y-30306431D01*
X20365176Y-30281772D01*
X20312779Y-30258880D01*
X20275565Y-30233016D01*
X20240825Y-30214114D01*
X20195703Y-30177510D01*
X20143530Y-30141249D01*
X20116502Y-30113260D01*
X20090814Y-30092422D01*
X20048877Y-30043233D01*
X20000353Y-29992985D01*
X19982751Y-29965672D01*
X19965495Y-29945432D01*
X19929942Y-29883728D01*
X19888701Y-29819734D01*
X19879105Y-29795498D01*
X19869060Y-29778064D01*
X19843127Y-29704628D01*
X19812826Y-29628096D01*
X19809282Y-29608785D01*
X19804739Y-29595921D01*
X19791546Y-29512152D01*
X19775619Y-29425371D01*
X19775803Y-29412188D01*
X19774689Y-29405114D01*
X19777196Y-29312460D01*
X19778497Y-29219279D01*
X19779895Y-29212703D01*
X19779913Y-29212026D01*
X19809406Y-29073863D01*
X19821350Y-29017672D01*
X19858226Y-28931635D01*
X19894315Y-28844722D01*
X19897718Y-28839492D01*
X19902546Y-28828227D01*
X19952828Y-28754791D01*
X19999658Y-28682818D01*
X20008423Y-28673598D01*
X20018992Y-28658162D01*
X20078409Y-28599977D01*
X20132745Y-28542818D01*
X20148286Y-28531547D01*
X20166253Y-28513953D01*
X20230701Y-28471780D01*
X20289118Y-28429415D01*
X20312301Y-28418382D01*
X20338720Y-28401094D01*
X20404316Y-28374591D01*
X20463532Y-28346410D01*
X20494596Y-28338116D01*
X20529823Y-28323883D01*
X20593128Y-28311807D01*
X20650159Y-28296579D01*
X20688663Y-28293582D01*
X20732284Y-28285261D01*
X20790370Y-28285667D01*
X20842735Y-28281591D01*
X20887591Y-28286345D01*
X20887591Y-28286345D01*
G37*
G36*
X20887591Y-25746345D02*
G01*
X20938391Y-25746700D01*
X20989051Y-25757099D01*
X21034828Y-25761951D01*
X21084287Y-25776648D01*
X21140293Y-25788145D01*
X21182069Y-25805706D01*
X21219981Y-25816972D01*
X21271722Y-25843392D01*
X21330300Y-25868016D01*
X21362564Y-25889779D01*
X21392015Y-25904817D01*
X21443254Y-25944205D01*
X21501174Y-25983273D01*
X21524070Y-26006330D01*
X21545158Y-26022540D01*
X21592764Y-26075504D01*
X21646407Y-26129523D01*
X21660831Y-26151233D01*
X21674284Y-26166200D01*
X21714922Y-26232646D01*
X21760468Y-26301198D01*
X21767950Y-26319350D01*
X21775065Y-26330984D01*
X21805378Y-26410158D01*
X21839011Y-26491758D01*
X21841572Y-26504693D01*
X21844132Y-26511379D01*
X21860931Y-26602461D01*
X21879045Y-26693944D01*
X21875757Y-26929363D01*
X21872234Y-26944869D01*
X21872069Y-26950973D01*
X21850745Y-27039453D01*
X21830094Y-27130352D01*
X21827358Y-27136497D01*
X21827199Y-27137157D01*
X21769914Y-27265518D01*
X21746261Y-27318645D01*
X21692257Y-27395200D01*
X21638932Y-27472643D01*
X21634520Y-27477048D01*
X21627451Y-27487068D01*
X21562969Y-27548474D01*
X21502227Y-27609109D01*
X21491742Y-27616302D01*
X21478191Y-27629206D01*
X21407960Y-27673776D01*
X21342942Y-27718378D01*
X21325400Y-27726170D01*
X21304165Y-27739646D01*
X21232347Y-27767503D01*
X21166410Y-27796791D01*
X21141446Y-27802761D01*
X21112002Y-27814182D01*
X21042304Y-27826471D01*
X20978543Y-27841720D01*
X20946438Y-27843375D01*
X20909022Y-27849972D01*
X20844608Y-27848623D01*
X20785641Y-27851662D01*
X20747342Y-27846586D01*
X20702955Y-27845656D01*
X20646223Y-27833183D01*
X20594152Y-27826281D01*
X20551267Y-27812306D01*
X20501652Y-27801397D01*
X20454265Y-27780694D01*
X20410498Y-27766431D01*
X20365176Y-27741772D01*
X20312779Y-27718880D01*
X20275565Y-27693016D01*
X20240825Y-27674114D01*
X20195703Y-27637510D01*
X20143530Y-27601249D01*
X20116502Y-27573260D01*
X20090814Y-27552422D01*
X20048877Y-27503233D01*
X20000353Y-27452985D01*
X19982751Y-27425672D01*
X19965495Y-27405432D01*
X19929942Y-27343728D01*
X19888701Y-27279734D01*
X19879105Y-27255498D01*
X19869060Y-27238064D01*
X19843127Y-27164628D01*
X19812826Y-27088096D01*
X19809282Y-27068785D01*
X19804739Y-27055921D01*
X19791546Y-26972152D01*
X19775619Y-26885371D01*
X19775803Y-26872188D01*
X19774689Y-26865114D01*
X19777196Y-26772460D01*
X19778497Y-26679279D01*
X19779895Y-26672703D01*
X19779913Y-26672026D01*
X19809406Y-26533863D01*
X19821350Y-26477672D01*
X19858226Y-26391635D01*
X19894315Y-26304722D01*
X19897718Y-26299492D01*
X19902546Y-26288227D01*
X19952828Y-26214791D01*
X19999658Y-26142818D01*
X20008423Y-26133598D01*
X20018992Y-26118162D01*
X20078409Y-26059977D01*
X20132745Y-26002818D01*
X20148286Y-25991547D01*
X20166253Y-25973953D01*
X20230701Y-25931780D01*
X20289118Y-25889415D01*
X20312301Y-25878382D01*
X20338720Y-25861094D01*
X20404316Y-25834591D01*
X20463532Y-25806410D01*
X20494596Y-25798116D01*
X20529823Y-25783883D01*
X20593128Y-25771807D01*
X20650159Y-25756579D01*
X20688663Y-25753582D01*
X20732284Y-25745261D01*
X20790370Y-25745667D01*
X20842735Y-25741591D01*
X20887591Y-25746345D01*
X20887591Y-25746345D01*
G37*
G36*
X92544381Y-26660783D02*
G01*
X92567734Y-26659314D01*
X92618992Y-26670209D01*
X92662218Y-26675670D01*
X92683974Y-26684021D01*
X92715399Y-26690701D01*
X92754154Y-26710961D01*
X92786724Y-26723464D01*
X92812993Y-26741721D01*
X92849185Y-26760642D01*
X92874727Y-26784628D01*
X92896239Y-26799579D01*
X92923135Y-26830086D01*
X92959233Y-26863985D01*
X92972865Y-26886493D01*
X92984433Y-26899615D01*
X93007289Y-26943334D01*
X93037437Y-26993114D01*
X93042164Y-27010043D01*
X93046220Y-27017802D01*
X93060047Y-27074095D01*
X93078034Y-27138518D01*
X93076333Y-27301006D01*
X93056987Y-27365082D01*
X93041997Y-27421026D01*
X93037781Y-27428695D01*
X93032699Y-27445527D01*
X93001508Y-27494676D01*
X92977747Y-27537898D01*
X92965908Y-27550772D01*
X92951808Y-27572991D01*
X92915006Y-27606128D01*
X92887478Y-27636064D01*
X92865657Y-27650562D01*
X92839620Y-27674006D01*
X92803045Y-27692162D01*
X92776394Y-27709869D01*
X92743565Y-27721688D01*
X92704399Y-27741130D01*
X92672839Y-27747150D01*
X92650916Y-27755043D01*
X92607593Y-27759597D01*
X92556108Y-27769418D01*
X92532787Y-27767460D01*
X92518284Y-27768984D01*
X92466548Y-27761897D01*
X92405673Y-27756785D01*
X92391937Y-27751677D01*
X92386150Y-27750884D01*
X92329595Y-27728492D01*
X92264177Y-27704163D01*
X92205252Y-27661352D01*
X92153441Y-27624532D01*
X92151537Y-27622326D01*
X92142044Y-27615429D01*
X92102302Y-27565287D01*
X92066300Y-27523579D01*
X92061001Y-27513179D01*
X92048272Y-27497119D01*
X92026838Y-27446129D01*
X92005754Y-27404749D01*
X92001096Y-27384892D01*
X91989771Y-27357950D01*
X91983928Y-27311696D01*
X91975299Y-27274909D01*
X91975604Y-27245808D01*
X91970850Y-27208176D01*
X91976392Y-27170647D01*
X91976697Y-27141552D01*
X91986092Y-27104961D01*
X91992904Y-27058831D01*
X92004791Y-27032132D01*
X92009864Y-27012375D01*
X92031815Y-26971436D01*
X92054307Y-26920918D01*
X92067366Y-26905132D01*
X92072883Y-26894843D01*
X92109753Y-26853895D01*
X92150535Y-26804598D01*
X92160171Y-26797901D01*
X92162122Y-26795734D01*
X92214700Y-26760002D01*
X92274500Y-26718440D01*
X92340435Y-26695479D01*
X92397424Y-26674285D01*
X92403223Y-26673614D01*
X92417067Y-26668793D01*
X92478037Y-26664957D01*
X92529909Y-26658955D01*
X92544381Y-26660783D01*
X92544381Y-26660783D01*
G37*
G36*
X94502899Y-23893959D02*
G01*
X94519769Y-23905231D01*
X94531041Y-23922101D01*
X94537448Y-23954312D01*
X94537448Y-25929688D01*
X94534999Y-25942000D01*
X94531041Y-25961899D01*
X94519769Y-25978769D01*
X94502899Y-25990041D01*
X94483000Y-25993999D01*
X94470688Y-25996448D01*
X90695312Y-25996448D01*
X90663101Y-25990041D01*
X90646231Y-25978769D01*
X90634959Y-25961899D01*
X90628552Y-25929688D01*
X90628552Y-23954312D01*
X90634959Y-23922101D01*
X90646231Y-23905231D01*
X90663101Y-23893959D01*
X90695312Y-23887552D01*
X94470688Y-23887552D01*
X94502899Y-23893959D01*
X94502899Y-23893959D01*
G37*
G36*
X92544381Y-22260783D02*
G01*
X92567734Y-22259314D01*
X92618992Y-22270209D01*
X92662218Y-22275670D01*
X92683974Y-22284021D01*
X92715399Y-22290701D01*
X92754154Y-22310961D01*
X92786724Y-22323464D01*
X92812993Y-22341721D01*
X92849185Y-22360642D01*
X92874727Y-22384628D01*
X92896239Y-22399579D01*
X92923135Y-22430086D01*
X92959233Y-22463985D01*
X92972865Y-22486493D01*
X92984433Y-22499615D01*
X93007289Y-22543334D01*
X93037437Y-22593114D01*
X93042164Y-22610043D01*
X93046220Y-22617802D01*
X93060047Y-22674095D01*
X93078034Y-22738518D01*
X93076333Y-22901006D01*
X93056987Y-22965082D01*
X93041997Y-23021026D01*
X93037781Y-23028695D01*
X93032699Y-23045527D01*
X93001508Y-23094676D01*
X92977747Y-23137898D01*
X92965908Y-23150772D01*
X92951808Y-23172991D01*
X92915006Y-23206128D01*
X92887478Y-23236064D01*
X92865657Y-23250562D01*
X92839620Y-23274006D01*
X92803045Y-23292162D01*
X92776394Y-23309869D01*
X92743565Y-23321688D01*
X92704399Y-23341130D01*
X92672839Y-23347150D01*
X92650916Y-23355043D01*
X92607593Y-23359597D01*
X92556108Y-23369418D01*
X92532787Y-23367460D01*
X92518284Y-23368984D01*
X92466548Y-23361897D01*
X92405673Y-23356785D01*
X92391937Y-23351677D01*
X92386150Y-23350884D01*
X92329595Y-23328492D01*
X92264177Y-23304163D01*
X92205252Y-23261352D01*
X92153441Y-23224532D01*
X92151537Y-23222326D01*
X92142044Y-23215429D01*
X92102302Y-23165287D01*
X92066300Y-23123579D01*
X92061001Y-23113179D01*
X92048272Y-23097119D01*
X92026838Y-23046129D01*
X92005754Y-23004749D01*
X92001096Y-22984892D01*
X91989771Y-22957950D01*
X91983928Y-22911696D01*
X91975299Y-22874909D01*
X91975604Y-22845808D01*
X91970850Y-22808176D01*
X91976392Y-22770647D01*
X91976697Y-22741552D01*
X91986092Y-22704961D01*
X91992904Y-22658831D01*
X92004791Y-22632132D01*
X92009864Y-22612375D01*
X92031815Y-22571436D01*
X92054307Y-22520918D01*
X92067366Y-22505132D01*
X92072883Y-22494843D01*
X92109753Y-22453895D01*
X92150535Y-22404598D01*
X92160171Y-22397901D01*
X92162122Y-22395734D01*
X92214700Y-22360002D01*
X92274500Y-22318440D01*
X92340435Y-22295479D01*
X92397424Y-22274285D01*
X92403223Y-22273614D01*
X92417067Y-22268793D01*
X92478037Y-22264957D01*
X92529909Y-22258955D01*
X92544381Y-22260783D01*
X92544381Y-22260783D01*
G37*
G36*
X28958976Y-20991826D02*
G01*
X29000766Y-20989782D01*
X29045056Y-20996639D01*
X29095810Y-20999476D01*
X29136163Y-21010743D01*
X29171621Y-21016232D01*
X29219204Y-21033928D01*
X29273898Y-21049199D01*
X29305622Y-21066067D01*
X29333659Y-21076494D01*
X29381757Y-21106549D01*
X29437153Y-21136004D01*
X29459968Y-21155421D01*
X29480271Y-21168108D01*
X29525641Y-21211313D01*
X29577961Y-21255841D01*
X29592463Y-21274947D01*
X29605472Y-21287335D01*
X29644616Y-21343655D01*
X29689751Y-21403118D01*
X29697302Y-21419459D01*
X29704142Y-21429301D01*
X29733508Y-21497817D01*
X29767307Y-21570965D01*
X29769885Y-21582692D01*
X29772247Y-21588202D01*
X29788429Y-21667036D01*
X29807011Y-21751551D01*
X29806345Y-21942388D01*
X29787181Y-22026738D01*
X29770443Y-22105485D01*
X29768041Y-22110982D01*
X29765381Y-22122692D01*
X29731069Y-22195609D01*
X29701227Y-22263915D01*
X29694318Y-22273709D01*
X29686655Y-22289994D01*
X29641114Y-22349130D01*
X29601570Y-22405187D01*
X29588472Y-22417487D01*
X29573840Y-22436487D01*
X29521227Y-22480635D01*
X29475544Y-22523534D01*
X29455147Y-22536082D01*
X29432199Y-22555338D01*
X29376600Y-22584405D01*
X29328293Y-22614123D01*
X29300184Y-22624354D01*
X29268341Y-22641001D01*
X29213534Y-22655892D01*
X29165831Y-22673254D01*
X29130340Y-22678495D01*
X29089911Y-22689479D01*
X29039139Y-22691962D01*
X28994803Y-22698509D01*
X28953027Y-22696174D01*
X28905233Y-22698511D01*
X28860992Y-22691028D01*
X28822189Y-22688859D01*
X28775980Y-22676650D01*
X28722923Y-22667676D01*
X28686839Y-22653097D01*
X28655035Y-22644694D01*
X28606897Y-22620799D01*
X28551488Y-22598412D01*
X28524311Y-22579804D01*
X28500182Y-22567826D01*
X28453128Y-22531063D01*
X28398926Y-22493950D01*
X28380469Y-22474295D01*
X28363950Y-22461389D01*
X28321400Y-22411393D01*
X28272354Y-22359164D01*
X28261608Y-22341138D01*
X28251896Y-22329726D01*
X28217401Y-22266981D01*
X28177678Y-22200344D01*
X28172943Y-22186111D01*
X28168610Y-22178229D01*
X28145692Y-22104192D01*
X28119314Y-22024898D01*
X28118372Y-22015934D01*
X28117486Y-22013072D01*
X28109347Y-21930068D01*
X28099987Y-21841012D01*
X28109967Y-21752044D01*
X28118687Y-21669078D01*
X28119593Y-21666220D01*
X28120598Y-21657265D01*
X28147530Y-21578153D01*
X28170963Y-21504281D01*
X28175350Y-21496432D01*
X28180184Y-21482231D01*
X28220382Y-21415857D01*
X28255304Y-21353371D01*
X28265092Y-21342031D01*
X28275967Y-21324075D01*
X28325385Y-21272181D01*
X28368273Y-21222495D01*
X28384879Y-21209707D01*
X28403477Y-21190177D01*
X28457952Y-21153433D01*
X28505250Y-21117009D01*
X28529458Y-21105202D01*
X28556765Y-21086783D01*
X28612319Y-21064787D01*
X28660633Y-21041223D01*
X28692503Y-21033040D01*
X28728679Y-21018717D01*
X28781795Y-21010114D01*
X28828088Y-20998228D01*
X28866903Y-20996330D01*
X28911199Y-20989155D01*
X28958976Y-20991826D01*
X28958976Y-20991826D01*
G37*
G36*
X21770819Y-16754773D02*
G01*
X21871973Y-16755391D01*
X21932680Y-16763114D01*
X21991731Y-16766157D01*
X22096114Y-16783906D01*
X22201022Y-16797252D01*
X22255752Y-16811050D01*
X22309247Y-16820146D01*
X22415657Y-16851363D01*
X22522660Y-16878340D01*
X22570915Y-16896912D01*
X22618300Y-16910813D01*
X22724989Y-16956209D01*
X22832226Y-16997481D01*
X22873692Y-17019483D01*
X22914666Y-17036917D01*
X23019787Y-17096999D01*
X23125237Y-17152950D01*
X23159859Y-17177058D01*
X23194292Y-17196738D01*
X23295865Y-17271760D01*
X23397448Y-17342494D01*
X23425360Y-17367406D01*
X23453365Y-17388091D01*
X23549390Y-17478107D01*
X23644917Y-17563368D01*
X23666482Y-17587872D01*
X23688341Y-17608363D01*
X23776771Y-17713191D01*
X23864058Y-17812373D01*
X23879814Y-17835342D01*
X23896013Y-17854544D01*
X23974814Y-17973826D01*
X24051697Y-18085901D01*
X24062371Y-18106362D01*
X24073539Y-18123267D01*
X24140655Y-18256424D01*
X24205117Y-18379990D01*
X24211577Y-18397131D01*
X24218511Y-18410888D01*
X24272124Y-18557789D01*
X24322094Y-18690380D01*
X24325307Y-18703510D01*
X24328931Y-18713440D01*
X24367290Y-18875079D01*
X24400935Y-19012576D01*
X24401976Y-19021245D01*
X24403297Y-19026810D01*
X24424796Y-19211210D01*
X24440497Y-19341910D01*
X24436081Y-19731185D01*
X24417812Y-19858751D01*
X24415757Y-19905814D01*
X24400416Y-19980221D01*
X24389057Y-20059536D01*
X24367642Y-20139181D01*
X24351262Y-20218626D01*
X24324952Y-20297947D01*
X24302927Y-20379861D01*
X24273860Y-20451986D01*
X24249865Y-20524327D01*
X24212391Y-20604508D01*
X24178937Y-20687517D01*
X24143702Y-20751476D01*
X24113496Y-20816107D01*
X24064323Y-20895570D01*
X24018885Y-20978050D01*
X23978977Y-21033486D01*
X23944014Y-21089985D01*
X23882833Y-21167039D01*
X23825089Y-21247250D01*
X23782023Y-21294002D01*
X23743740Y-21342217D01*
X23670455Y-21415119D01*
X23600355Y-21491219D01*
X23555587Y-21529387D01*
X23515399Y-21569365D01*
X23430188Y-21636298D01*
X23347939Y-21706422D01*
X23302858Y-21736317D01*
X23262115Y-21768321D01*
X23165383Y-21827483D01*
X23071498Y-21889742D01*
X23027410Y-21911867D01*
X22987356Y-21936365D01*
X22879739Y-21985977D01*
X22775035Y-22038523D01*
X22733091Y-22053582D01*
X22694860Y-22071207D01*
X22577261Y-22109531D01*
X22462845Y-22150610D01*
X22424051Y-22159460D01*
X22388638Y-22171000D01*
X22262204Y-22196379D01*
X22139451Y-22224381D01*
X22104621Y-22228011D01*
X22072867Y-22234385D01*
X21938973Y-22245275D01*
X21809536Y-22258765D01*
X21779280Y-22258263D01*
X21751840Y-22260495D01*
X21611956Y-22255488D01*
X21477880Y-22253265D01*
X21452653Y-22249787D01*
X21429970Y-22248975D01*
X21285667Y-22226764D01*
X21149287Y-22207961D01*
X21129276Y-22202693D01*
X21111646Y-22199979D01*
X20964559Y-22159327D01*
X20828516Y-22123510D01*
X20813725Y-22117639D01*
X20801203Y-22114178D01*
X20652237Y-22053538D01*
X20520215Y-22001133D01*
X20510450Y-21995820D01*
X20502901Y-21992747D01*
X20350868Y-21908993D01*
X20228848Y-21842604D01*
X20223695Y-21838935D01*
X20220794Y-21837337D01*
X20043526Y-21710659D01*
X19958636Y-21650220D01*
X19881596Y-21579996D01*
X19720345Y-21433526D01*
X19718174Y-21431033D01*
X19713494Y-21426767D01*
X19622775Y-21321482D01*
X19508831Y-21190635D01*
X19504231Y-21183905D01*
X19496973Y-21175481D01*
X19417852Y-21057515D01*
X19327100Y-20924726D01*
X19321069Y-20913215D01*
X19312208Y-20900003D01*
X19248486Y-20774671D01*
X19177635Y-20639434D01*
X19171254Y-20622766D01*
X19161877Y-20604324D01*
X19114671Y-20474978D01*
X19062473Y-20338642D01*
X19056888Y-20316651D01*
X19048156Y-20292725D01*
X19017653Y-20162163D01*
X18983193Y-20026474D01*
X18979574Y-19999170D01*
X18972694Y-19969721D01*
X18958532Y-19840414D01*
X18940875Y-19707193D01*
X18940395Y-19674802D01*
X18936582Y-19639991D01*
X18938010Y-19514082D01*
X18936098Y-19385153D01*
X18939893Y-19348107D01*
X18940345Y-19308311D01*
X18956318Y-19187796D01*
X18968925Y-19064749D01*
X18978074Y-19023650D01*
X18983928Y-18979485D01*
X19013157Y-18866055D01*
X19038910Y-18750373D01*
X19054390Y-18706045D01*
X19066699Y-18658277D01*
X19107702Y-18553379D01*
X19145095Y-18446302D01*
X19167774Y-18399701D01*
X19187460Y-18349338D01*
X19238612Y-18254140D01*
X19286031Y-18156701D01*
X19316612Y-18108974D01*
X19344461Y-18057145D01*
X19404033Y-17972539D01*
X19459797Y-17885511D01*
X19498832Y-17837904D01*
X19535428Y-17785930D01*
X19601619Y-17712546D01*
X19664009Y-17636456D01*
X19711848Y-17590339D01*
X19757594Y-17539622D01*
X19828612Y-17477779D01*
X19895887Y-17412925D01*
X19952673Y-17369744D01*
X20007743Y-17321788D01*
X20081803Y-17271551D01*
X20152259Y-17217975D01*
X20217904Y-17179230D01*
X20282249Y-17135583D01*
X20357649Y-17096749D01*
X20429625Y-17054268D01*
X20503823Y-17021466D01*
X20577138Y-16983706D01*
X20652254Y-16955845D01*
X20724205Y-16924036D01*
X20806412Y-16898667D01*
X20888137Y-16868355D01*
X20961468Y-16850817D01*
X21031956Y-16829065D01*
X21121405Y-16812567D01*
X21210741Y-16791202D01*
X21280960Y-16783139D01*
X21348699Y-16770646D01*
X21444399Y-16764374D01*
X21540277Y-16753365D01*
X21606217Y-16753768D01*
X21670081Y-16749582D01*
X21770819Y-16754773D01*
X21770819Y-16754773D01*
G37*
G36*
X28958976Y-17491826D02*
G01*
X29000766Y-17489782D01*
X29045056Y-17496639D01*
X29095810Y-17499476D01*
X29136163Y-17510743D01*
X29171621Y-17516232D01*
X29219204Y-17533928D01*
X29273898Y-17549199D01*
X29305622Y-17566067D01*
X29333659Y-17576494D01*
X29381757Y-17606549D01*
X29437153Y-17636004D01*
X29459968Y-17655421D01*
X29480271Y-17668108D01*
X29525641Y-17711313D01*
X29577961Y-17755841D01*
X29592463Y-17774947D01*
X29605472Y-17787335D01*
X29644616Y-17843655D01*
X29689751Y-17903118D01*
X29697302Y-17919459D01*
X29704142Y-17929301D01*
X29733508Y-17997817D01*
X29767307Y-18070965D01*
X29769885Y-18082692D01*
X29772247Y-18088202D01*
X29788429Y-18167036D01*
X29807011Y-18251551D01*
X29806345Y-18442388D01*
X29787181Y-18526738D01*
X29770443Y-18605485D01*
X29768041Y-18610982D01*
X29765381Y-18622692D01*
X29731069Y-18695609D01*
X29701227Y-18763915D01*
X29694318Y-18773709D01*
X29686655Y-18789994D01*
X29641114Y-18849130D01*
X29601570Y-18905187D01*
X29588472Y-18917487D01*
X29573840Y-18936487D01*
X29521227Y-18980635D01*
X29475544Y-19023534D01*
X29455147Y-19036082D01*
X29432199Y-19055338D01*
X29376600Y-19084405D01*
X29328293Y-19114123D01*
X29300184Y-19124354D01*
X29268341Y-19141001D01*
X29213534Y-19155892D01*
X29165831Y-19173254D01*
X29130340Y-19178495D01*
X29089911Y-19189479D01*
X29039139Y-19191962D01*
X28994803Y-19198509D01*
X28953027Y-19196174D01*
X28905233Y-19198511D01*
X28860992Y-19191028D01*
X28822189Y-19188859D01*
X28775980Y-19176650D01*
X28722923Y-19167676D01*
X28686839Y-19153097D01*
X28655035Y-19144694D01*
X28606897Y-19120799D01*
X28551488Y-19098412D01*
X28524311Y-19079804D01*
X28500182Y-19067826D01*
X28453128Y-19031063D01*
X28398926Y-18993950D01*
X28380469Y-18974295D01*
X28363950Y-18961389D01*
X28321400Y-18911393D01*
X28272354Y-18859164D01*
X28261608Y-18841138D01*
X28251896Y-18829726D01*
X28217401Y-18766981D01*
X28177678Y-18700344D01*
X28172943Y-18686111D01*
X28168610Y-18678229D01*
X28145692Y-18604192D01*
X28119314Y-18524898D01*
X28118372Y-18515934D01*
X28117486Y-18513072D01*
X28109347Y-18430068D01*
X28099987Y-18341012D01*
X28109967Y-18252044D01*
X28118687Y-18169078D01*
X28119593Y-18166220D01*
X28120598Y-18157265D01*
X28147530Y-18078153D01*
X28170963Y-18004281D01*
X28175350Y-17996432D01*
X28180184Y-17982231D01*
X28220382Y-17915857D01*
X28255304Y-17853371D01*
X28265092Y-17842031D01*
X28275967Y-17824075D01*
X28325385Y-17772181D01*
X28368273Y-17722495D01*
X28384879Y-17709707D01*
X28403477Y-17690177D01*
X28457952Y-17653433D01*
X28505250Y-17617009D01*
X28529458Y-17605202D01*
X28556765Y-17586783D01*
X28612319Y-17564787D01*
X28660633Y-17541223D01*
X28692503Y-17533040D01*
X28728679Y-17518717D01*
X28781795Y-17510114D01*
X28828088Y-17498228D01*
X28866903Y-17496330D01*
X28911199Y-17489155D01*
X28958976Y-17491826D01*
X28958976Y-17491826D01*
G37*
M02*
