G04 #@! TF.GenerationSoftware,KiCad,Pcbnew,(5.1.0)-1*
G04 #@! TF.CreationDate,2019-05-27T09:53:24+03:00*
G04 #@! TF.ProjectId,USB_RFID,5553425f-5246-4494-942e-6b696361645f,rev?*
G04 #@! TF.SameCoordinates,Original*
G04 #@! TF.FileFunction,Soldermask,Top*
G04 #@! TF.FilePolarity,Negative*
%FSLAX46Y46*%
G04 Gerber Fmt 4.6, Leading zero omitted, Abs format (unit mm)*
G04 Created by KiCad (PCBNEW (5.1.0)-1) date 2019-05-27 09:53:24*
%MOMM*%
%LPD*%
G04 APERTURE LIST*
%ADD10C,0.100000*%
G04 APERTURE END LIST*
D10*
G36*
X47619000Y-89304000D02*
G01*
X46217000Y-89304000D01*
X46217000Y-87652000D01*
X47619000Y-87652000D01*
X47619000Y-89304000D01*
X47619000Y-89304000D01*
G37*
G36*
X43119000Y-89304000D02*
G01*
X41717000Y-89304000D01*
X41717000Y-87652000D01*
X43119000Y-87652000D01*
X43119000Y-89304000D01*
X43119000Y-89304000D01*
G37*
G36*
X21861591Y-84148585D02*
G01*
X21895569Y-84158893D01*
X21926890Y-84175634D01*
X21954339Y-84198161D01*
X21976866Y-84225610D01*
X21993607Y-84256931D01*
X22003915Y-84290909D01*
X22008000Y-84332390D01*
X22008000Y-84933610D01*
X22003915Y-84975091D01*
X21993607Y-85009069D01*
X21976866Y-85040390D01*
X21954339Y-85067839D01*
X21926890Y-85090366D01*
X21895569Y-85107107D01*
X21861591Y-85117415D01*
X21820110Y-85121500D01*
X21143890Y-85121500D01*
X21102409Y-85117415D01*
X21068431Y-85107107D01*
X21037110Y-85090366D01*
X21009661Y-85067839D01*
X20987134Y-85040390D01*
X20970393Y-85009069D01*
X20960085Y-84975091D01*
X20956000Y-84933610D01*
X20956000Y-84332390D01*
X20960085Y-84290909D01*
X20970393Y-84256931D01*
X20987134Y-84225610D01*
X21009661Y-84198161D01*
X21037110Y-84175634D01*
X21068431Y-84158893D01*
X21102409Y-84148585D01*
X21143890Y-84144500D01*
X21820110Y-84144500D01*
X21861591Y-84148585D01*
X21861591Y-84148585D01*
G37*
G36*
X19461591Y-83843585D02*
G01*
X19495569Y-83853893D01*
X19526890Y-83870634D01*
X19554339Y-83893161D01*
X19576866Y-83920610D01*
X19593607Y-83951931D01*
X19603915Y-83985909D01*
X19608000Y-84027390D01*
X19608000Y-84628610D01*
X19603915Y-84670091D01*
X19593607Y-84704069D01*
X19576866Y-84735390D01*
X19554339Y-84762839D01*
X19526890Y-84785366D01*
X19495569Y-84802107D01*
X19461591Y-84812415D01*
X19420110Y-84816500D01*
X18743890Y-84816500D01*
X18702409Y-84812415D01*
X18668431Y-84802107D01*
X18637110Y-84785366D01*
X18609661Y-84762839D01*
X18587134Y-84735390D01*
X18570393Y-84704069D01*
X18560085Y-84670091D01*
X18556000Y-84628610D01*
X18556000Y-84027390D01*
X18560085Y-83985909D01*
X18570393Y-83951931D01*
X18587134Y-83920610D01*
X18609661Y-83893161D01*
X18637110Y-83870634D01*
X18668431Y-83853893D01*
X18702409Y-83843585D01*
X18743890Y-83839500D01*
X19420110Y-83839500D01*
X19461591Y-83843585D01*
X19461591Y-83843585D01*
G37*
G36*
X16127591Y-83843585D02*
G01*
X16161569Y-83853893D01*
X16192890Y-83870634D01*
X16220339Y-83893161D01*
X16242866Y-83920610D01*
X16259607Y-83951931D01*
X16269915Y-83985909D01*
X16274000Y-84027390D01*
X16274000Y-84628610D01*
X16269915Y-84670091D01*
X16259607Y-84704069D01*
X16242866Y-84735390D01*
X16220339Y-84762839D01*
X16192890Y-84785366D01*
X16161569Y-84802107D01*
X16127591Y-84812415D01*
X16086110Y-84816500D01*
X15409890Y-84816500D01*
X15368409Y-84812415D01*
X15334431Y-84802107D01*
X15303110Y-84785366D01*
X15275661Y-84762839D01*
X15253134Y-84735390D01*
X15236393Y-84704069D01*
X15226085Y-84670091D01*
X15222000Y-84628610D01*
X15222000Y-84027390D01*
X15226085Y-83985909D01*
X15236393Y-83951931D01*
X15253134Y-83920610D01*
X15275661Y-83893161D01*
X15303110Y-83870634D01*
X15334431Y-83853893D01*
X15368409Y-83843585D01*
X15409890Y-83839500D01*
X16086110Y-83839500D01*
X16127591Y-83843585D01*
X16127591Y-83843585D01*
G37*
G36*
X25793093Y-83552085D02*
G01*
X25827071Y-83562393D01*
X25858392Y-83579134D01*
X25885841Y-83601661D01*
X25908368Y-83629110D01*
X25925109Y-83660431D01*
X25935417Y-83694409D01*
X25939502Y-83735890D01*
X25939502Y-84412110D01*
X25935417Y-84453591D01*
X25925109Y-84487569D01*
X25908368Y-84518890D01*
X25885841Y-84546339D01*
X25858392Y-84568866D01*
X25827071Y-84585607D01*
X25793093Y-84595915D01*
X25751612Y-84600000D01*
X25150392Y-84600000D01*
X25108911Y-84595915D01*
X25074933Y-84585607D01*
X25043612Y-84568866D01*
X25016163Y-84546339D01*
X24993636Y-84518890D01*
X24976895Y-84487569D01*
X24966587Y-84453591D01*
X24962502Y-84412110D01*
X24962502Y-83735890D01*
X24966587Y-83694409D01*
X24976895Y-83660431D01*
X24993636Y-83629110D01*
X25016163Y-83601661D01*
X25043612Y-83579134D01*
X25074933Y-83562393D01*
X25108911Y-83552085D01*
X25150392Y-83548000D01*
X25751612Y-83548000D01*
X25793093Y-83552085D01*
X25793093Y-83552085D01*
G37*
G36*
X24218093Y-83552085D02*
G01*
X24252071Y-83562393D01*
X24283392Y-83579134D01*
X24310841Y-83601661D01*
X24333368Y-83629110D01*
X24350109Y-83660431D01*
X24360417Y-83694409D01*
X24364502Y-83735890D01*
X24364502Y-84412110D01*
X24360417Y-84453591D01*
X24350109Y-84487569D01*
X24333368Y-84518890D01*
X24310841Y-84546339D01*
X24283392Y-84568866D01*
X24252071Y-84585607D01*
X24218093Y-84595915D01*
X24176612Y-84600000D01*
X23575392Y-84600000D01*
X23533911Y-84595915D01*
X23499933Y-84585607D01*
X23468612Y-84568866D01*
X23441163Y-84546339D01*
X23418636Y-84518890D01*
X23401895Y-84487569D01*
X23391587Y-84453591D01*
X23387502Y-84412110D01*
X23387502Y-83735890D01*
X23391587Y-83694409D01*
X23401895Y-83660431D01*
X23418636Y-83629110D01*
X23441163Y-83601661D01*
X23468612Y-83579134D01*
X23499933Y-83562393D01*
X23533911Y-83552085D01*
X23575392Y-83548000D01*
X24176612Y-83548000D01*
X24218093Y-83552085D01*
X24218093Y-83552085D01*
G37*
G36*
X29095000Y-84211000D02*
G01*
X27293000Y-84211000D01*
X27293000Y-82809000D01*
X29095000Y-82809000D01*
X29095000Y-84211000D01*
X29095000Y-84211000D01*
G37*
G36*
X21861591Y-82573585D02*
G01*
X21895569Y-82583893D01*
X21926890Y-82600634D01*
X21954339Y-82623161D01*
X21976866Y-82650610D01*
X21993607Y-82681931D01*
X22003915Y-82715909D01*
X22008000Y-82757390D01*
X22008000Y-83358610D01*
X22003915Y-83400091D01*
X21993607Y-83434069D01*
X21976866Y-83465390D01*
X21954339Y-83492839D01*
X21926890Y-83515366D01*
X21895569Y-83532107D01*
X21861591Y-83542415D01*
X21820110Y-83546500D01*
X21143890Y-83546500D01*
X21102409Y-83542415D01*
X21068431Y-83532107D01*
X21037110Y-83515366D01*
X21009661Y-83492839D01*
X20987134Y-83465390D01*
X20970393Y-83434069D01*
X20960085Y-83400091D01*
X20956000Y-83358610D01*
X20956000Y-82757390D01*
X20960085Y-82715909D01*
X20970393Y-82681931D01*
X20987134Y-82650610D01*
X21009661Y-82623161D01*
X21037110Y-82600634D01*
X21068431Y-82583893D01*
X21102409Y-82573585D01*
X21143890Y-82569500D01*
X21820110Y-82569500D01*
X21861591Y-82573585D01*
X21861591Y-82573585D01*
G37*
G36*
X19461591Y-82268585D02*
G01*
X19495569Y-82278893D01*
X19526890Y-82295634D01*
X19554339Y-82318161D01*
X19576866Y-82345610D01*
X19593607Y-82376931D01*
X19603915Y-82410909D01*
X19608000Y-82452390D01*
X19608000Y-83053610D01*
X19603915Y-83095091D01*
X19593607Y-83129069D01*
X19576866Y-83160390D01*
X19554339Y-83187839D01*
X19526890Y-83210366D01*
X19495569Y-83227107D01*
X19461591Y-83237415D01*
X19420110Y-83241500D01*
X18743890Y-83241500D01*
X18702409Y-83237415D01*
X18668431Y-83227107D01*
X18637110Y-83210366D01*
X18609661Y-83187839D01*
X18587134Y-83160390D01*
X18570393Y-83129069D01*
X18560085Y-83095091D01*
X18556000Y-83053610D01*
X18556000Y-82452390D01*
X18560085Y-82410909D01*
X18570393Y-82376931D01*
X18587134Y-82345610D01*
X18609661Y-82318161D01*
X18637110Y-82295634D01*
X18668431Y-82278893D01*
X18702409Y-82268585D01*
X18743890Y-82264500D01*
X19420110Y-82264500D01*
X19461591Y-82268585D01*
X19461591Y-82268585D01*
G37*
G36*
X16127591Y-82268585D02*
G01*
X16161569Y-82278893D01*
X16192890Y-82295634D01*
X16220339Y-82318161D01*
X16242866Y-82345610D01*
X16259607Y-82376931D01*
X16269915Y-82410909D01*
X16274000Y-82452390D01*
X16274000Y-83053610D01*
X16269915Y-83095091D01*
X16259607Y-83129069D01*
X16242866Y-83160390D01*
X16220339Y-83187839D01*
X16192890Y-83210366D01*
X16161569Y-83227107D01*
X16127591Y-83237415D01*
X16086110Y-83241500D01*
X15409890Y-83241500D01*
X15368409Y-83237415D01*
X15334431Y-83227107D01*
X15303110Y-83210366D01*
X15275661Y-83187839D01*
X15253134Y-83160390D01*
X15236393Y-83129069D01*
X15226085Y-83095091D01*
X15222000Y-83053610D01*
X15222000Y-82452390D01*
X15226085Y-82410909D01*
X15236393Y-82376931D01*
X15253134Y-82345610D01*
X15275661Y-82318161D01*
X15303110Y-82295634D01*
X15334431Y-82278893D01*
X15368409Y-82268585D01*
X15409890Y-82264500D01*
X16086110Y-82264500D01*
X16127591Y-82268585D01*
X16127591Y-82268585D01*
G37*
G36*
X24208000Y-81555000D02*
G01*
X17956000Y-81555000D01*
X17956000Y-79853000D01*
X24208000Y-79853000D01*
X24208000Y-81555000D01*
X24208000Y-81555000D01*
G37*
G36*
X47619000Y-81344000D02*
G01*
X46217000Y-81344000D01*
X46217000Y-79692000D01*
X47619000Y-79692000D01*
X47619000Y-81344000D01*
X47619000Y-81344000D01*
G37*
G36*
X43119000Y-81344000D02*
G01*
X41717000Y-81344000D01*
X41717000Y-79692000D01*
X43119000Y-79692000D01*
X43119000Y-81344000D01*
X43119000Y-81344000D01*
G37*
G36*
X29095000Y-80711000D02*
G01*
X27293000Y-80711000D01*
X27293000Y-79309000D01*
X29095000Y-79309000D01*
X29095000Y-80711000D01*
X29095000Y-80711000D01*
G37*
G36*
X26183000Y-79580000D02*
G01*
X24481000Y-79580000D01*
X24481000Y-73328000D01*
X26183000Y-73328000D01*
X26183000Y-79580000D01*
X26183000Y-79580000D01*
G37*
G36*
X17683000Y-79580000D02*
G01*
X15981000Y-79580000D01*
X15981000Y-73328000D01*
X17683000Y-73328000D01*
X17683000Y-79580000D01*
X17683000Y-79580000D01*
G37*
G36*
X27723091Y-77932085D02*
G01*
X27757069Y-77942393D01*
X27788390Y-77959134D01*
X27815839Y-77981661D01*
X27838366Y-78009110D01*
X27855107Y-78040431D01*
X27865415Y-78074409D01*
X27869500Y-78115890D01*
X27869500Y-78792110D01*
X27865415Y-78833591D01*
X27855107Y-78867569D01*
X27838366Y-78898890D01*
X27815839Y-78926339D01*
X27788390Y-78948866D01*
X27757069Y-78965607D01*
X27723091Y-78975915D01*
X27681610Y-78980000D01*
X27080390Y-78980000D01*
X27038909Y-78975915D01*
X27004931Y-78965607D01*
X26973610Y-78948866D01*
X26946161Y-78926339D01*
X26923634Y-78898890D01*
X26906893Y-78867569D01*
X26896585Y-78833591D01*
X26892500Y-78792110D01*
X26892500Y-78115890D01*
X26896585Y-78074409D01*
X26906893Y-78040431D01*
X26923634Y-78009110D01*
X26946161Y-77981661D01*
X26973610Y-77959134D01*
X27004931Y-77942393D01*
X27038909Y-77932085D01*
X27080390Y-77928000D01*
X27681610Y-77928000D01*
X27723091Y-77932085D01*
X27723091Y-77932085D01*
G37*
G36*
X29298091Y-77932085D02*
G01*
X29332069Y-77942393D01*
X29363390Y-77959134D01*
X29390839Y-77981661D01*
X29413366Y-78009110D01*
X29430107Y-78040431D01*
X29440415Y-78074409D01*
X29444500Y-78115890D01*
X29444500Y-78792110D01*
X29440415Y-78833591D01*
X29430107Y-78867569D01*
X29413366Y-78898890D01*
X29390839Y-78926339D01*
X29363390Y-78948866D01*
X29332069Y-78965607D01*
X29298091Y-78975915D01*
X29256610Y-78980000D01*
X28655390Y-78980000D01*
X28613909Y-78975915D01*
X28579931Y-78965607D01*
X28548610Y-78948866D01*
X28521161Y-78926339D01*
X28498634Y-78898890D01*
X28481893Y-78867569D01*
X28471585Y-78833591D01*
X28467500Y-78792110D01*
X28467500Y-78115890D01*
X28471585Y-78074409D01*
X28481893Y-78040431D01*
X28498634Y-78009110D01*
X28521161Y-77981661D01*
X28548610Y-77959134D01*
X28579931Y-77942393D01*
X28613909Y-77932085D01*
X28655390Y-77928000D01*
X29256610Y-77928000D01*
X29298091Y-77932085D01*
X29298091Y-77932085D01*
G37*
G36*
X29857000Y-76873000D02*
G01*
X28055000Y-76873000D01*
X28055000Y-75471000D01*
X29857000Y-75471000D01*
X29857000Y-76873000D01*
X29857000Y-76873000D01*
G37*
G36*
X29857000Y-73373000D02*
G01*
X28055000Y-73373000D01*
X28055000Y-71971000D01*
X29857000Y-71971000D01*
X29857000Y-73373000D01*
X29857000Y-73373000D01*
G37*
G36*
X24208000Y-73055000D02*
G01*
X17956000Y-73055000D01*
X17956000Y-71353000D01*
X24208000Y-71353000D01*
X24208000Y-73055000D01*
X24208000Y-73055000D01*
G37*
G36*
X36262455Y-67891528D02*
G01*
X36339812Y-67914995D01*
X36411117Y-67953108D01*
X36473608Y-68004392D01*
X36524892Y-68066883D01*
X36563005Y-68138188D01*
X36586472Y-68215545D01*
X36595000Y-68302140D01*
X36595000Y-69365860D01*
X36586472Y-69452455D01*
X36563005Y-69529812D01*
X36524892Y-69601117D01*
X36473608Y-69663608D01*
X36411117Y-69714892D01*
X36339812Y-69753005D01*
X36262455Y-69776472D01*
X36175860Y-69785000D01*
X32912140Y-69785000D01*
X32825545Y-69776472D01*
X32748188Y-69753005D01*
X32676883Y-69714892D01*
X32614392Y-69663608D01*
X32563108Y-69601117D01*
X32524995Y-69529812D01*
X32501528Y-69452455D01*
X32493000Y-69365860D01*
X32493000Y-68302140D01*
X32501528Y-68215545D01*
X32524995Y-68138188D01*
X32563108Y-68066883D01*
X32614392Y-68004392D01*
X32676883Y-67953108D01*
X32748188Y-67914995D01*
X32825545Y-67891528D01*
X32912140Y-67883000D01*
X36175860Y-67883000D01*
X36262455Y-67891528D01*
X36262455Y-67891528D01*
G37*
G36*
X20938442Y-67939518D02*
G01*
X21004627Y-67946037D01*
X21174466Y-67997557D01*
X21330991Y-68081222D01*
X21346958Y-68094326D01*
X21468186Y-68193814D01*
X21527209Y-68265735D01*
X21580778Y-68331009D01*
X21664443Y-68487534D01*
X21715963Y-68657373D01*
X21733359Y-68834000D01*
X21715963Y-69010627D01*
X21664443Y-69180466D01*
X21580778Y-69336991D01*
X21557086Y-69365860D01*
X21468186Y-69474186D01*
X21366729Y-69557448D01*
X21330991Y-69586778D01*
X21174466Y-69670443D01*
X21004627Y-69721963D01*
X20938443Y-69728481D01*
X20872260Y-69735000D01*
X20783740Y-69735000D01*
X20717557Y-69728481D01*
X20651373Y-69721963D01*
X20481534Y-69670443D01*
X20325009Y-69586778D01*
X20289271Y-69557448D01*
X20187814Y-69474186D01*
X20098914Y-69365860D01*
X20075222Y-69336991D01*
X19991557Y-69180466D01*
X19940037Y-69010627D01*
X19922641Y-68834000D01*
X19940037Y-68657373D01*
X19991557Y-68487534D01*
X20075222Y-68331009D01*
X20128791Y-68265735D01*
X20187814Y-68193814D01*
X20309042Y-68094326D01*
X20325009Y-68081222D01*
X20481534Y-67997557D01*
X20651373Y-67946037D01*
X20717558Y-67939518D01*
X20783740Y-67933000D01*
X20872260Y-67933000D01*
X20938442Y-67939518D01*
X20938442Y-67939518D01*
G37*
G36*
X23478442Y-67939518D02*
G01*
X23544627Y-67946037D01*
X23714466Y-67997557D01*
X23870991Y-68081222D01*
X23886958Y-68094326D01*
X24008186Y-68193814D01*
X24067209Y-68265735D01*
X24120778Y-68331009D01*
X24204443Y-68487534D01*
X24255963Y-68657373D01*
X24273359Y-68834000D01*
X24255963Y-69010627D01*
X24204443Y-69180466D01*
X24120778Y-69336991D01*
X24097086Y-69365860D01*
X24008186Y-69474186D01*
X23906729Y-69557448D01*
X23870991Y-69586778D01*
X23714466Y-69670443D01*
X23544627Y-69721963D01*
X23478443Y-69728481D01*
X23412260Y-69735000D01*
X23323740Y-69735000D01*
X23257557Y-69728481D01*
X23191373Y-69721963D01*
X23021534Y-69670443D01*
X22865009Y-69586778D01*
X22829271Y-69557448D01*
X22727814Y-69474186D01*
X22638914Y-69365860D01*
X22615222Y-69336991D01*
X22531557Y-69180466D01*
X22480037Y-69010627D01*
X22462641Y-68834000D01*
X22480037Y-68657373D01*
X22531557Y-68487534D01*
X22615222Y-68331009D01*
X22668791Y-68265735D01*
X22727814Y-68193814D01*
X22849042Y-68094326D01*
X22865009Y-68081222D01*
X23021534Y-67997557D01*
X23191373Y-67946037D01*
X23257558Y-67939518D01*
X23323740Y-67933000D01*
X23412260Y-67933000D01*
X23478442Y-67939518D01*
X23478442Y-67939518D01*
G37*
G36*
X19189000Y-69735000D02*
G01*
X17387000Y-69735000D01*
X17387000Y-67933000D01*
X19189000Y-67933000D01*
X19189000Y-69735000D01*
X19189000Y-69735000D01*
G37*
G36*
X36262455Y-65351528D02*
G01*
X36339812Y-65374995D01*
X36411117Y-65413108D01*
X36473608Y-65464392D01*
X36524892Y-65526883D01*
X36563005Y-65598188D01*
X36586472Y-65675545D01*
X36595000Y-65762140D01*
X36595000Y-66825860D01*
X36586472Y-66912455D01*
X36563005Y-66989812D01*
X36524892Y-67061117D01*
X36473608Y-67123608D01*
X36411117Y-67174892D01*
X36339812Y-67213005D01*
X36262455Y-67236472D01*
X36175860Y-67245000D01*
X32912140Y-67245000D01*
X32825545Y-67236472D01*
X32748188Y-67213005D01*
X32676883Y-67174892D01*
X32614392Y-67123608D01*
X32563108Y-67061117D01*
X32524995Y-66989812D01*
X32501528Y-66912455D01*
X32493000Y-66825860D01*
X32493000Y-65762140D01*
X32501528Y-65675545D01*
X32524995Y-65598188D01*
X32563108Y-65526883D01*
X32614392Y-65464392D01*
X32676883Y-65413108D01*
X32748188Y-65374995D01*
X32825545Y-65351528D01*
X32912140Y-65343000D01*
X36175860Y-65343000D01*
X36262455Y-65351528D01*
X36262455Y-65351528D01*
G37*
G36*
X23478443Y-65399519D02*
G01*
X23544627Y-65406037D01*
X23714466Y-65457557D01*
X23870991Y-65541222D01*
X23886958Y-65554326D01*
X24008186Y-65653814D01*
X24067209Y-65725735D01*
X24120778Y-65791009D01*
X24204443Y-65947534D01*
X24255963Y-66117373D01*
X24273359Y-66294000D01*
X24255963Y-66470627D01*
X24204443Y-66640466D01*
X24120778Y-66796991D01*
X24097086Y-66825860D01*
X24008186Y-66934186D01*
X23906729Y-67017448D01*
X23870991Y-67046778D01*
X23714466Y-67130443D01*
X23544627Y-67181963D01*
X23478442Y-67188482D01*
X23412260Y-67195000D01*
X23323740Y-67195000D01*
X23257558Y-67188482D01*
X23191373Y-67181963D01*
X23021534Y-67130443D01*
X22865009Y-67046778D01*
X22829271Y-67017448D01*
X22727814Y-66934186D01*
X22638914Y-66825860D01*
X22615222Y-66796991D01*
X22531557Y-66640466D01*
X22480037Y-66470627D01*
X22462641Y-66294000D01*
X22480037Y-66117373D01*
X22531557Y-65947534D01*
X22615222Y-65791009D01*
X22668791Y-65725735D01*
X22727814Y-65653814D01*
X22849042Y-65554326D01*
X22865009Y-65541222D01*
X23021534Y-65457557D01*
X23191373Y-65406037D01*
X23257557Y-65399519D01*
X23323740Y-65393000D01*
X23412260Y-65393000D01*
X23478443Y-65399519D01*
X23478443Y-65399519D01*
G37*
G36*
X18398443Y-65399519D02*
G01*
X18464627Y-65406037D01*
X18634466Y-65457557D01*
X18790991Y-65541222D01*
X18806958Y-65554326D01*
X18928186Y-65653814D01*
X18987209Y-65725735D01*
X19040778Y-65791009D01*
X19124443Y-65947534D01*
X19175963Y-66117373D01*
X19193359Y-66294000D01*
X19175963Y-66470627D01*
X19124443Y-66640466D01*
X19040778Y-66796991D01*
X19017086Y-66825860D01*
X18928186Y-66934186D01*
X18826729Y-67017448D01*
X18790991Y-67046778D01*
X18634466Y-67130443D01*
X18464627Y-67181963D01*
X18398442Y-67188482D01*
X18332260Y-67195000D01*
X18243740Y-67195000D01*
X18177558Y-67188482D01*
X18111373Y-67181963D01*
X17941534Y-67130443D01*
X17785009Y-67046778D01*
X17749271Y-67017448D01*
X17647814Y-66934186D01*
X17558914Y-66825860D01*
X17535222Y-66796991D01*
X17451557Y-66640466D01*
X17400037Y-66470627D01*
X17382641Y-66294000D01*
X17400037Y-66117373D01*
X17451557Y-65947534D01*
X17535222Y-65791009D01*
X17588791Y-65725735D01*
X17647814Y-65653814D01*
X17769042Y-65554326D01*
X17785009Y-65541222D01*
X17941534Y-65457557D01*
X18111373Y-65406037D01*
X18177557Y-65399519D01*
X18243740Y-65393000D01*
X18332260Y-65393000D01*
X18398443Y-65399519D01*
X18398443Y-65399519D01*
G37*
G36*
X20938443Y-65399519D02*
G01*
X21004627Y-65406037D01*
X21174466Y-65457557D01*
X21330991Y-65541222D01*
X21346958Y-65554326D01*
X21468186Y-65653814D01*
X21527209Y-65725735D01*
X21580778Y-65791009D01*
X21664443Y-65947534D01*
X21715963Y-66117373D01*
X21733359Y-66294000D01*
X21715963Y-66470627D01*
X21664443Y-66640466D01*
X21580778Y-66796991D01*
X21557086Y-66825860D01*
X21468186Y-66934186D01*
X21366729Y-67017448D01*
X21330991Y-67046778D01*
X21174466Y-67130443D01*
X21004627Y-67181963D01*
X20938442Y-67188482D01*
X20872260Y-67195000D01*
X20783740Y-67195000D01*
X20717558Y-67188482D01*
X20651373Y-67181963D01*
X20481534Y-67130443D01*
X20325009Y-67046778D01*
X20289271Y-67017448D01*
X20187814Y-66934186D01*
X20098914Y-66825860D01*
X20075222Y-66796991D01*
X19991557Y-66640466D01*
X19940037Y-66470627D01*
X19922641Y-66294000D01*
X19940037Y-66117373D01*
X19991557Y-65947534D01*
X20075222Y-65791009D01*
X20128791Y-65725735D01*
X20187814Y-65653814D01*
X20309042Y-65554326D01*
X20325009Y-65541222D01*
X20481534Y-65457557D01*
X20651373Y-65406037D01*
X20717557Y-65399519D01*
X20783740Y-65393000D01*
X20872260Y-65393000D01*
X20938443Y-65399519D01*
X20938443Y-65399519D01*
G37*
G36*
X36262455Y-62811528D02*
G01*
X36339812Y-62834995D01*
X36411117Y-62873108D01*
X36473608Y-62924392D01*
X36524892Y-62986883D01*
X36563005Y-63058188D01*
X36586472Y-63135545D01*
X36595000Y-63222140D01*
X36595000Y-64285860D01*
X36586472Y-64372455D01*
X36563005Y-64449812D01*
X36524892Y-64521117D01*
X36473608Y-64583608D01*
X36411117Y-64634892D01*
X36339812Y-64673005D01*
X36262455Y-64696472D01*
X36175860Y-64705000D01*
X32912140Y-64705000D01*
X32825545Y-64696472D01*
X32748188Y-64673005D01*
X32676883Y-64634892D01*
X32614392Y-64583608D01*
X32563108Y-64521117D01*
X32524995Y-64449812D01*
X32501528Y-64372455D01*
X32493000Y-64285860D01*
X32493000Y-63222140D01*
X32501528Y-63135545D01*
X32524995Y-63058188D01*
X32563108Y-62986883D01*
X32614392Y-62924392D01*
X32676883Y-62873108D01*
X32748188Y-62834995D01*
X32825545Y-62811528D01*
X32912140Y-62803000D01*
X36175860Y-62803000D01*
X36262455Y-62811528D01*
X36262455Y-62811528D01*
G37*
G36*
X18618468Y-62809065D02*
G01*
X18657138Y-62820796D01*
X18692777Y-62839846D01*
X18724017Y-62865483D01*
X18749654Y-62896723D01*
X18768704Y-62932362D01*
X18780435Y-62971032D01*
X18785000Y-63017388D01*
X18785000Y-63668612D01*
X18780435Y-63714968D01*
X18768704Y-63753638D01*
X18749654Y-63789277D01*
X18724017Y-63820517D01*
X18692777Y-63846154D01*
X18657138Y-63865204D01*
X18618468Y-63876935D01*
X18572112Y-63881500D01*
X17495888Y-63881500D01*
X17449532Y-63876935D01*
X17410862Y-63865204D01*
X17375223Y-63846154D01*
X17343983Y-63820517D01*
X17318346Y-63789277D01*
X17299296Y-63753638D01*
X17287565Y-63714968D01*
X17283000Y-63668612D01*
X17283000Y-63017388D01*
X17287565Y-62971032D01*
X17299296Y-62932362D01*
X17318346Y-62896723D01*
X17343983Y-62865483D01*
X17375223Y-62839846D01*
X17410862Y-62820796D01*
X17449532Y-62809065D01*
X17495888Y-62804500D01*
X18572112Y-62804500D01*
X18618468Y-62809065D01*
X18618468Y-62809065D01*
G37*
G36*
X18618468Y-60934065D02*
G01*
X18657138Y-60945796D01*
X18692777Y-60964846D01*
X18724017Y-60990483D01*
X18749654Y-61021723D01*
X18768704Y-61057362D01*
X18780435Y-61096032D01*
X18785000Y-61142388D01*
X18785000Y-61793612D01*
X18780435Y-61839968D01*
X18768704Y-61878638D01*
X18749654Y-61914277D01*
X18724017Y-61945517D01*
X18692777Y-61971154D01*
X18657138Y-61990204D01*
X18618468Y-62001935D01*
X18572112Y-62006500D01*
X17495888Y-62006500D01*
X17449532Y-62001935D01*
X17410862Y-61990204D01*
X17375223Y-61971154D01*
X17343983Y-61945517D01*
X17318346Y-61914277D01*
X17299296Y-61878638D01*
X17287565Y-61839968D01*
X17283000Y-61793612D01*
X17283000Y-61142388D01*
X17287565Y-61096032D01*
X17299296Y-61057362D01*
X17318346Y-61021723D01*
X17343983Y-60990483D01*
X17375223Y-60964846D01*
X17410862Y-60945796D01*
X17449532Y-60934065D01*
X17495888Y-60929500D01*
X18572112Y-60929500D01*
X18618468Y-60934065D01*
X18618468Y-60934065D01*
G37*
G36*
X19085000Y-60059500D02*
G01*
X16983000Y-60059500D01*
X16983000Y-52082500D01*
X19085000Y-52082500D01*
X19085000Y-60059500D01*
X19085000Y-60059500D01*
G37*
G36*
X36262455Y-56461528D02*
G01*
X36339812Y-56484995D01*
X36411117Y-56523108D01*
X36473608Y-56574392D01*
X36524892Y-56636883D01*
X36563005Y-56708188D01*
X36586472Y-56785545D01*
X36595000Y-56872140D01*
X36595000Y-57935860D01*
X36586472Y-58022455D01*
X36563005Y-58099812D01*
X36524892Y-58171117D01*
X36473608Y-58233608D01*
X36411117Y-58284892D01*
X36339812Y-58323005D01*
X36262455Y-58346472D01*
X36175860Y-58355000D01*
X32912140Y-58355000D01*
X32825545Y-58346472D01*
X32748188Y-58323005D01*
X32676883Y-58284892D01*
X32614392Y-58233608D01*
X32563108Y-58171117D01*
X32524995Y-58099812D01*
X32501528Y-58022455D01*
X32493000Y-57935860D01*
X32493000Y-56872140D01*
X32501528Y-56785545D01*
X32524995Y-56708188D01*
X32563108Y-56636883D01*
X32614392Y-56574392D01*
X32676883Y-56523108D01*
X32748188Y-56484995D01*
X32825545Y-56461528D01*
X32912140Y-56453000D01*
X36175860Y-56453000D01*
X36262455Y-56461528D01*
X36262455Y-56461528D01*
G37*
G36*
X39255091Y-55612085D02*
G01*
X39289069Y-55622393D01*
X39320390Y-55639134D01*
X39347839Y-55661661D01*
X39370366Y-55689110D01*
X39387107Y-55720431D01*
X39397415Y-55754409D01*
X39401500Y-55795890D01*
X39401500Y-56472110D01*
X39397415Y-56513591D01*
X39387107Y-56547569D01*
X39370366Y-56578890D01*
X39347839Y-56606339D01*
X39320390Y-56628866D01*
X39289069Y-56645607D01*
X39255091Y-56655915D01*
X39213610Y-56660000D01*
X38612390Y-56660000D01*
X38570909Y-56655915D01*
X38536931Y-56645607D01*
X38505610Y-56628866D01*
X38478161Y-56606339D01*
X38455634Y-56578890D01*
X38438893Y-56547569D01*
X38428585Y-56513591D01*
X38424500Y-56472110D01*
X38424500Y-55795890D01*
X38428585Y-55754409D01*
X38438893Y-55720431D01*
X38455634Y-55689110D01*
X38478161Y-55661661D01*
X38505610Y-55639134D01*
X38536931Y-55622393D01*
X38570909Y-55612085D01*
X38612390Y-55608000D01*
X39213610Y-55608000D01*
X39255091Y-55612085D01*
X39255091Y-55612085D01*
G37*
G36*
X37680091Y-55612085D02*
G01*
X37714069Y-55622393D01*
X37745390Y-55639134D01*
X37772839Y-55661661D01*
X37795366Y-55689110D01*
X37812107Y-55720431D01*
X37822415Y-55754409D01*
X37826500Y-55795890D01*
X37826500Y-56472110D01*
X37822415Y-56513591D01*
X37812107Y-56547569D01*
X37795366Y-56578890D01*
X37772839Y-56606339D01*
X37745390Y-56628866D01*
X37714069Y-56645607D01*
X37680091Y-56655915D01*
X37638610Y-56660000D01*
X37037390Y-56660000D01*
X36995909Y-56655915D01*
X36961931Y-56645607D01*
X36930610Y-56628866D01*
X36903161Y-56606339D01*
X36880634Y-56578890D01*
X36863893Y-56547569D01*
X36853585Y-56513591D01*
X36849500Y-56472110D01*
X36849500Y-55795890D01*
X36853585Y-55754409D01*
X36863893Y-55720431D01*
X36880634Y-55689110D01*
X36903161Y-55661661D01*
X36930610Y-55639134D01*
X36961931Y-55622393D01*
X36995909Y-55612085D01*
X37037390Y-55608000D01*
X37638610Y-55608000D01*
X37680091Y-55612085D01*
X37680091Y-55612085D01*
G37*
G36*
X31306798Y-54531247D02*
G01*
X31342367Y-54542037D01*
X31375139Y-54559554D01*
X31403869Y-54583131D01*
X31427446Y-54611861D01*
X31444963Y-54644633D01*
X31455753Y-54680202D01*
X31460000Y-54723325D01*
X31460000Y-55832675D01*
X31455753Y-55875798D01*
X31444963Y-55911367D01*
X31427446Y-55944139D01*
X31403869Y-55972869D01*
X31375139Y-55996446D01*
X31342367Y-56013963D01*
X31306798Y-56024753D01*
X31263675Y-56029000D01*
X30204325Y-56029000D01*
X30161202Y-56024753D01*
X30125633Y-56013963D01*
X30092861Y-55996446D01*
X30064131Y-55972869D01*
X30040554Y-55944139D01*
X30023037Y-55911367D01*
X30012247Y-55875798D01*
X30008000Y-55832675D01*
X30008000Y-54723325D01*
X30012247Y-54680202D01*
X30023037Y-54644633D01*
X30040554Y-54611861D01*
X30064131Y-54583131D01*
X30092861Y-54559554D01*
X30125633Y-54542037D01*
X30161202Y-54531247D01*
X30204325Y-54527000D01*
X31263675Y-54527000D01*
X31306798Y-54531247D01*
X31306798Y-54531247D01*
G37*
G36*
X36262455Y-53921528D02*
G01*
X36339812Y-53944995D01*
X36411117Y-53983108D01*
X36473608Y-54034392D01*
X36524892Y-54096883D01*
X36563005Y-54168188D01*
X36586472Y-54245545D01*
X36595000Y-54332140D01*
X36595000Y-55395860D01*
X36586472Y-55482455D01*
X36563005Y-55559812D01*
X36524892Y-55631117D01*
X36473608Y-55693608D01*
X36411117Y-55744892D01*
X36339812Y-55783005D01*
X36262455Y-55806472D01*
X36175860Y-55815000D01*
X32912140Y-55815000D01*
X32825545Y-55806472D01*
X32748188Y-55783005D01*
X32676883Y-55744892D01*
X32614392Y-55693608D01*
X32563108Y-55631117D01*
X32524995Y-55559812D01*
X32501528Y-55482455D01*
X32493000Y-55395860D01*
X32493000Y-54332140D01*
X32501528Y-54245545D01*
X32524995Y-54168188D01*
X32563108Y-54096883D01*
X32614392Y-54034392D01*
X32676883Y-53983108D01*
X32748188Y-53944995D01*
X32825545Y-53921528D01*
X32912140Y-53913000D01*
X36175860Y-53913000D01*
X36262455Y-53921528D01*
X36262455Y-53921528D01*
G37*
G36*
X31306798Y-51831247D02*
G01*
X31342367Y-51842037D01*
X31375139Y-51859554D01*
X31403869Y-51883131D01*
X31427446Y-51911861D01*
X31444963Y-51944633D01*
X31455753Y-51980202D01*
X31460000Y-52023325D01*
X31460000Y-53132675D01*
X31455753Y-53175798D01*
X31444963Y-53211367D01*
X31427446Y-53244139D01*
X31403869Y-53272869D01*
X31375139Y-53296446D01*
X31342367Y-53313963D01*
X31306798Y-53324753D01*
X31263675Y-53329000D01*
X30204325Y-53329000D01*
X30161202Y-53324753D01*
X30125633Y-53313963D01*
X30092861Y-53296446D01*
X30064131Y-53272869D01*
X30040554Y-53244139D01*
X30023037Y-53211367D01*
X30012247Y-53175798D01*
X30008000Y-53132675D01*
X30008000Y-52023325D01*
X30012247Y-51980202D01*
X30023037Y-51944633D01*
X30040554Y-51911861D01*
X30064131Y-51883131D01*
X30092861Y-51859554D01*
X30125633Y-51842037D01*
X30161202Y-51831247D01*
X30204325Y-51827000D01*
X31263675Y-51827000D01*
X31306798Y-51831247D01*
X31306798Y-51831247D01*
G37*
G36*
X36262455Y-51381528D02*
G01*
X36339812Y-51404995D01*
X36411117Y-51443108D01*
X36473608Y-51494392D01*
X36524892Y-51556883D01*
X36563005Y-51628188D01*
X36586472Y-51705545D01*
X36595000Y-51792140D01*
X36595000Y-52855860D01*
X36586472Y-52942455D01*
X36563005Y-53019812D01*
X36524892Y-53091117D01*
X36473608Y-53153608D01*
X36411117Y-53204892D01*
X36339812Y-53243005D01*
X36262455Y-53266472D01*
X36175860Y-53275000D01*
X32912140Y-53275000D01*
X32825545Y-53266472D01*
X32748188Y-53243005D01*
X32676883Y-53204892D01*
X32614392Y-53153608D01*
X32563108Y-53091117D01*
X32524995Y-53019812D01*
X32501528Y-52942455D01*
X32493000Y-52855860D01*
X32493000Y-51792140D01*
X32501528Y-51705545D01*
X32524995Y-51628188D01*
X32563108Y-51556883D01*
X32614392Y-51494392D01*
X32676883Y-51443108D01*
X32748188Y-51404995D01*
X32825545Y-51381528D01*
X32912140Y-51373000D01*
X36175860Y-51373000D01*
X36262455Y-51381528D01*
X36262455Y-51381528D01*
G37*
G36*
X36262455Y-48841528D02*
G01*
X36339812Y-48864995D01*
X36411117Y-48903108D01*
X36473608Y-48954392D01*
X36524892Y-49016883D01*
X36563005Y-49088188D01*
X36586472Y-49165545D01*
X36595000Y-49252140D01*
X36595000Y-50315860D01*
X36586472Y-50402455D01*
X36563005Y-50479812D01*
X36524892Y-50551117D01*
X36473608Y-50613608D01*
X36411117Y-50664892D01*
X36339812Y-50703005D01*
X36262455Y-50726472D01*
X36175860Y-50735000D01*
X32912140Y-50735000D01*
X32825545Y-50726472D01*
X32748188Y-50703005D01*
X32676883Y-50664892D01*
X32614392Y-50613608D01*
X32563108Y-50551117D01*
X32524995Y-50479812D01*
X32501528Y-50402455D01*
X32493000Y-50315860D01*
X32493000Y-49252140D01*
X32501528Y-49165545D01*
X32524995Y-49088188D01*
X32563108Y-49016883D01*
X32614392Y-48954392D01*
X32676883Y-48903108D01*
X32748188Y-48864995D01*
X32825545Y-48841528D01*
X32912140Y-48833000D01*
X36175860Y-48833000D01*
X36262455Y-48841528D01*
X36262455Y-48841528D01*
G37*
G36*
X19085000Y-48184500D02*
G01*
X16983000Y-48184500D01*
X16983000Y-40207500D01*
X19085000Y-40207500D01*
X19085000Y-48184500D01*
X19085000Y-48184500D01*
G37*
G36*
X23915468Y-45227565D02*
G01*
X23954138Y-45239296D01*
X23989777Y-45258346D01*
X24021017Y-45283983D01*
X24046654Y-45315223D01*
X24065704Y-45350862D01*
X24077435Y-45389532D01*
X24082000Y-45435888D01*
X24082000Y-46512112D01*
X24077435Y-46558468D01*
X24065704Y-46597138D01*
X24046654Y-46632777D01*
X24021017Y-46664017D01*
X23989777Y-46689654D01*
X23954138Y-46708704D01*
X23915468Y-46720435D01*
X23869112Y-46725000D01*
X23217888Y-46725000D01*
X23171532Y-46720435D01*
X23132862Y-46708704D01*
X23097223Y-46689654D01*
X23065983Y-46664017D01*
X23040346Y-46632777D01*
X23021296Y-46597138D01*
X23009565Y-46558468D01*
X23005000Y-46512112D01*
X23005000Y-45435888D01*
X23009565Y-45389532D01*
X23021296Y-45350862D01*
X23040346Y-45315223D01*
X23065983Y-45283983D01*
X23097223Y-45258346D01*
X23132862Y-45239296D01*
X23171532Y-45227565D01*
X23217888Y-45223000D01*
X23869112Y-45223000D01*
X23915468Y-45227565D01*
X23915468Y-45227565D01*
G37*
G36*
X22040468Y-45227565D02*
G01*
X22079138Y-45239296D01*
X22114777Y-45258346D01*
X22146017Y-45283983D01*
X22171654Y-45315223D01*
X22190704Y-45350862D01*
X22202435Y-45389532D01*
X22207000Y-45435888D01*
X22207000Y-46512112D01*
X22202435Y-46558468D01*
X22190704Y-46597138D01*
X22171654Y-46632777D01*
X22146017Y-46664017D01*
X22114777Y-46689654D01*
X22079138Y-46708704D01*
X22040468Y-46720435D01*
X21994112Y-46725000D01*
X21342888Y-46725000D01*
X21296532Y-46720435D01*
X21257862Y-46708704D01*
X21222223Y-46689654D01*
X21190983Y-46664017D01*
X21165346Y-46632777D01*
X21146296Y-46597138D01*
X21134565Y-46558468D01*
X21130000Y-46512112D01*
X21130000Y-45435888D01*
X21134565Y-45389532D01*
X21146296Y-45350862D01*
X21165346Y-45315223D01*
X21190983Y-45283983D01*
X21222223Y-45258346D01*
X21257862Y-45239296D01*
X21296532Y-45227565D01*
X21342888Y-45223000D01*
X21994112Y-45223000D01*
X22040468Y-45227565D01*
X22040468Y-45227565D01*
G37*
M02*
