M48
; DRILL file {KiCad (5.1.0)-1} date 27.05.2019 9:54:15
; FORMAT={-:-/ absolute / metric / decimal}
; #@! TF.CreationDate,2019-05-27T09:54:15+03:00
; #@! TF.GenerationSoftware,Kicad,Pcbnew,(5.1.0)-1
; #@! TF.FileFunction,Plated,1,2,PTH
FMAT,2
METRIC
T1C0.400
T2C0.762
T3C1.000
%
G90
G05
T1
X17.526Y-82.55
X19.304Y-75.946
X20.32Y-84.633
X21.482Y-78.994
X22.098Y-77.654
X26.416Y-80.518
X28.956Y-52.578
X28.956Y-55.278
X30.226Y-81.28
X30.734Y-76.2
T2
X34.544Y-49.784
X34.544Y-52.324
X34.544Y-54.864
X34.544Y-57.404
X34.544Y-63.754
X34.544Y-66.294
X34.544Y-68.834
T3
X18.288Y-66.294
X18.288Y-68.834
X20.828Y-66.294
X20.828Y-68.834
X23.368Y-66.294
X23.368Y-68.834
T0
M30
