G04 #@! TF.GenerationSoftware,KiCad,Pcbnew,(5.1.0)-1*
G04 #@! TF.CreationDate,2019-05-27T09:53:24+03:00*
G04 #@! TF.ProjectId,USB_RFID,5553425f-5246-4494-942e-6b696361645f,rev?*
G04 #@! TF.SameCoordinates,Original*
G04 #@! TF.FileFunction,Legend,Top*
G04 #@! TF.FilePolarity,Positive*
%FSLAX46Y46*%
G04 Gerber Fmt 4.6, Leading zero omitted, Abs format (unit mm)*
G04 Created by KiCad (PCBNEW (5.1.0)-1) date 2019-05-27 09:53:24*
%MOMM*%
%LPD*%
G04 APERTURE LIST*
%ADD10C,0.150000*%
%ADD11C,0.100000*%
%ADD12C,0.120000*%
G04 APERTURE END LIST*
D10*
X34806095Y-47458380D02*
X34806095Y-48267904D01*
X34853714Y-48363142D01*
X34901333Y-48410761D01*
X34996571Y-48458380D01*
X35187047Y-48458380D01*
X35282285Y-48410761D01*
X35329904Y-48363142D01*
X35377523Y-48267904D01*
X35377523Y-47458380D01*
X35806095Y-48410761D02*
X35948952Y-48458380D01*
X36187047Y-48458380D01*
X36282285Y-48410761D01*
X36329904Y-48363142D01*
X36377523Y-48267904D01*
X36377523Y-48172666D01*
X36329904Y-48077428D01*
X36282285Y-48029809D01*
X36187047Y-47982190D01*
X35996571Y-47934571D01*
X35901333Y-47886952D01*
X35853714Y-47839333D01*
X35806095Y-47744095D01*
X35806095Y-47648857D01*
X35853714Y-47553619D01*
X35901333Y-47506000D01*
X35996571Y-47458380D01*
X36234666Y-47458380D01*
X36377523Y-47506000D01*
X37139428Y-47934571D02*
X37282285Y-47982190D01*
X37329904Y-48029809D01*
X37377523Y-48125047D01*
X37377523Y-48267904D01*
X37329904Y-48363142D01*
X37282285Y-48410761D01*
X37187047Y-48458380D01*
X36806095Y-48458380D01*
X36806095Y-47458380D01*
X37139428Y-47458380D01*
X37234666Y-47506000D01*
X37282285Y-47553619D01*
X37329904Y-47648857D01*
X37329904Y-47744095D01*
X37282285Y-47839333D01*
X37234666Y-47886952D01*
X37139428Y-47934571D01*
X36806095Y-47934571D01*
X34702857Y-62428380D02*
X34369523Y-61952190D01*
X34131428Y-62428380D02*
X34131428Y-61428380D01*
X34512380Y-61428380D01*
X34607619Y-61476000D01*
X34655238Y-61523619D01*
X34702857Y-61618857D01*
X34702857Y-61761714D01*
X34655238Y-61856952D01*
X34607619Y-61904571D01*
X34512380Y-61952190D01*
X34131428Y-61952190D01*
X35464761Y-61904571D02*
X35131428Y-61904571D01*
X35131428Y-62428380D02*
X35131428Y-61428380D01*
X35607619Y-61428380D01*
X35988571Y-62428380D02*
X35988571Y-61428380D01*
X36464761Y-62428380D02*
X36464761Y-61428380D01*
X36702857Y-61428380D01*
X36845714Y-61476000D01*
X36940952Y-61571238D01*
X36988571Y-61666476D01*
X37036190Y-61856952D01*
X37036190Y-61999809D01*
X36988571Y-62190285D01*
X36940952Y-62285523D01*
X36845714Y-62380761D01*
X36702857Y-62428380D01*
X36464761Y-62428380D01*
X36965047Y-55316380D02*
X36965047Y-54316380D01*
X37203142Y-54316380D01*
X37346000Y-54364000D01*
X37441238Y-54459238D01*
X37488857Y-54554476D01*
X37536476Y-54744952D01*
X37536476Y-54887809D01*
X37488857Y-55078285D01*
X37441238Y-55173523D01*
X37346000Y-55268761D01*
X37203142Y-55316380D01*
X36965047Y-55316380D01*
X37965047Y-54935428D02*
X38726952Y-54935428D01*
X38346000Y-55316380D02*
X38346000Y-54554476D01*
X36965047Y-52776380D02*
X36965047Y-51776380D01*
X37203142Y-51776380D01*
X37346000Y-51824000D01*
X37441238Y-51919238D01*
X37488857Y-52014476D01*
X37536476Y-52204952D01*
X37536476Y-52347809D01*
X37488857Y-52538285D01*
X37441238Y-52633523D01*
X37346000Y-52728761D01*
X37203142Y-52776380D01*
X36965047Y-52776380D01*
X37965047Y-52395428D02*
X38726952Y-52395428D01*
X36909523Y-57110380D02*
X37242857Y-58110380D01*
X37576190Y-57110380D01*
X38338095Y-58062761D02*
X38242857Y-58110380D01*
X38052380Y-58110380D01*
X37957142Y-58062761D01*
X37909523Y-58015142D01*
X37861904Y-57919904D01*
X37861904Y-57634190D01*
X37909523Y-57538952D01*
X37957142Y-57491333D01*
X38052380Y-57443714D01*
X38242857Y-57443714D01*
X38338095Y-57491333D01*
X39195238Y-58062761D02*
X39100000Y-58110380D01*
X38909523Y-58110380D01*
X38814285Y-58062761D01*
X38766666Y-58015142D01*
X38719047Y-57919904D01*
X38719047Y-57634190D01*
X38766666Y-57538952D01*
X38814285Y-57491333D01*
X38909523Y-57443714D01*
X39100000Y-57443714D01*
X39195238Y-57491333D01*
X37457142Y-49284000D02*
X37361904Y-49236380D01*
X37219047Y-49236380D01*
X37076190Y-49284000D01*
X36980952Y-49379238D01*
X36933333Y-49474476D01*
X36885714Y-49664952D01*
X36885714Y-49807809D01*
X36933333Y-49998285D01*
X36980952Y-50093523D01*
X37076190Y-50188761D01*
X37219047Y-50236380D01*
X37314285Y-50236380D01*
X37457142Y-50188761D01*
X37504761Y-50141142D01*
X37504761Y-49807809D01*
X37314285Y-49807809D01*
X37933333Y-49569714D02*
X37933333Y-50236380D01*
X37933333Y-49664952D02*
X37980952Y-49617333D01*
X38076190Y-49569714D01*
X38219047Y-49569714D01*
X38314285Y-49617333D01*
X38361904Y-49712571D01*
X38361904Y-50236380D01*
X39266666Y-50236380D02*
X39266666Y-49236380D01*
X39266666Y-50188761D02*
X39171428Y-50236380D01*
X38980952Y-50236380D01*
X38885714Y-50188761D01*
X38838095Y-50141142D01*
X38790476Y-50045904D01*
X38790476Y-49760190D01*
X38838095Y-49664952D01*
X38885714Y-49617333D01*
X38980952Y-49569714D01*
X39171428Y-49569714D01*
X39266666Y-49617333D01*
X37100000Y-69286380D02*
X37100000Y-68286380D01*
X37338095Y-68286380D01*
X37480952Y-68334000D01*
X37576190Y-68429238D01*
X37623809Y-68524476D01*
X37671428Y-68714952D01*
X37671428Y-68857809D01*
X37623809Y-69048285D01*
X37576190Y-69143523D01*
X37480952Y-69238761D01*
X37338095Y-69286380D01*
X37100000Y-69286380D01*
X38528571Y-69286380D02*
X38528571Y-68762571D01*
X38480952Y-68667333D01*
X38385714Y-68619714D01*
X38195238Y-68619714D01*
X38100000Y-68667333D01*
X38528571Y-69238761D02*
X38433333Y-69286380D01*
X38195238Y-69286380D01*
X38100000Y-69238761D01*
X38052380Y-69143523D01*
X38052380Y-69048285D01*
X38100000Y-68953047D01*
X38195238Y-68905428D01*
X38433333Y-68905428D01*
X38528571Y-68857809D01*
X38861904Y-68619714D02*
X39242857Y-68619714D01*
X39004761Y-68286380D02*
X39004761Y-69143523D01*
X39052380Y-69238761D01*
X39147619Y-69286380D01*
X39242857Y-69286380D01*
X37457142Y-65794000D02*
X37361904Y-65746380D01*
X37219047Y-65746380D01*
X37076190Y-65794000D01*
X36980952Y-65889238D01*
X36933333Y-65984476D01*
X36885714Y-66174952D01*
X36885714Y-66317809D01*
X36933333Y-66508285D01*
X36980952Y-66603523D01*
X37076190Y-66698761D01*
X37219047Y-66746380D01*
X37314285Y-66746380D01*
X37457142Y-66698761D01*
X37504761Y-66651142D01*
X37504761Y-66317809D01*
X37314285Y-66317809D01*
X37933333Y-66079714D02*
X37933333Y-66746380D01*
X37933333Y-66174952D02*
X37980952Y-66127333D01*
X38076190Y-66079714D01*
X38219047Y-66079714D01*
X38314285Y-66127333D01*
X38361904Y-66222571D01*
X38361904Y-66746380D01*
X39266666Y-66746380D02*
X39266666Y-65746380D01*
X39266666Y-66698761D02*
X39171428Y-66746380D01*
X38980952Y-66746380D01*
X38885714Y-66698761D01*
X38838095Y-66651142D01*
X38790476Y-66555904D01*
X38790476Y-66270190D01*
X38838095Y-66174952D01*
X38885714Y-66127333D01*
X38980952Y-66079714D01*
X39171428Y-66079714D01*
X39266666Y-66127333D01*
X36909523Y-63206380D02*
X37242857Y-64206380D01*
X37576190Y-63206380D01*
X38338095Y-64158761D02*
X38242857Y-64206380D01*
X38052380Y-64206380D01*
X37957142Y-64158761D01*
X37909523Y-64111142D01*
X37861904Y-64015904D01*
X37861904Y-63730190D01*
X37909523Y-63634952D01*
X37957142Y-63587333D01*
X38052380Y-63539714D01*
X38242857Y-63539714D01*
X38338095Y-63587333D01*
X39195238Y-64158761D02*
X39100000Y-64206380D01*
X38909523Y-64206380D01*
X38814285Y-64158761D01*
X38766666Y-64111142D01*
X38719047Y-64015904D01*
X38719047Y-63730190D01*
X38766666Y-63634952D01*
X38814285Y-63587333D01*
X38909523Y-63539714D01*
X39100000Y-63539714D01*
X39195238Y-63587333D01*
D11*
G36*
X25654000Y-80772000D02*
G01*
X25294790Y-81131212D01*
X24935580Y-80412790D01*
X25654000Y-80772000D01*
G37*
X25654000Y-80772000D02*
X25294790Y-81131212D01*
X24935580Y-80412790D01*
X25654000Y-80772000D01*
G36*
X16256000Y-68834000D02*
G01*
X15240000Y-69596000D01*
X15240000Y-68072000D01*
X16256000Y-68834000D01*
G37*
X16256000Y-68834000D02*
X15240000Y-69596000D01*
X15240000Y-68072000D01*
X16256000Y-68834000D01*
D12*
X29799000Y-52328000D02*
X29799000Y-56238000D01*
X29799000Y-56238000D02*
X31669000Y-56238000D01*
X31669000Y-56238000D02*
X31669000Y-52328000D01*
X18744000Y-62146922D02*
X18744000Y-62664078D01*
X17324000Y-62146922D02*
X17324000Y-62664078D01*
X22864578Y-45264000D02*
X22347422Y-45264000D01*
X22864578Y-46684000D02*
X22347422Y-46684000D01*
X27956000Y-72672000D02*
X27956000Y-76972000D01*
X27956000Y-76972000D02*
X29956000Y-76972000D01*
X29956000Y-76972000D02*
X29956000Y-72672000D01*
X29194000Y-84310000D02*
X29194000Y-80010000D01*
X27194000Y-84310000D02*
X29194000Y-84310000D01*
X27194000Y-80010000D02*
X27194000Y-84310000D01*
X20972000Y-84008279D02*
X20972000Y-83682721D01*
X21992000Y-84008279D02*
X21992000Y-83682721D01*
X24826281Y-84584000D02*
X24500723Y-84584000D01*
X24826281Y-83564000D02*
X24500723Y-83564000D01*
X28331279Y-77944000D02*
X28005721Y-77944000D01*
X28331279Y-78964000D02*
X28005721Y-78964000D01*
X38288279Y-55624000D02*
X37962721Y-55624000D01*
X38288279Y-56644000D02*
X37962721Y-56644000D01*
D10*
X24707000Y-80079000D02*
X24707000Y-79854000D01*
X17457000Y-80079000D02*
X17457000Y-79754000D01*
X17457000Y-72829000D02*
X17457000Y-73154000D01*
X24707000Y-72829000D02*
X24707000Y-73154000D01*
X24707000Y-80079000D02*
X24382000Y-80079000D01*
X24707000Y-72829000D02*
X24382000Y-72829000D01*
X17457000Y-72829000D02*
X17782000Y-72829000D01*
X17457000Y-80079000D02*
X17782000Y-80079000D01*
X24707000Y-79854000D02*
X26132000Y-79854000D01*
D12*
X15484000Y-44233500D02*
X15484000Y-60208500D01*
X15484000Y-60208500D02*
X20584000Y-60208500D01*
X20584000Y-60208500D02*
X20584000Y-44233500D01*
X16483000Y-84340500D02*
X16483000Y-82055500D01*
X16483000Y-82055500D02*
X15013000Y-82055500D01*
X15013000Y-82055500D02*
X15013000Y-84340500D01*
X18572000Y-83703279D02*
X18572000Y-83377721D01*
X19592000Y-83703279D02*
X19592000Y-83377721D01*
X24698000Y-70164000D02*
X24698000Y-64964000D01*
X19558000Y-70164000D02*
X24698000Y-70164000D01*
X16958000Y-64964000D02*
X24698000Y-64964000D01*
X19558000Y-70164000D02*
X19558000Y-67564000D01*
X19558000Y-67564000D02*
X16958000Y-67564000D01*
X16958000Y-67564000D02*
X16958000Y-64964000D01*
X18288000Y-70164000D02*
X16958000Y-70164000D01*
X16958000Y-70164000D02*
X16958000Y-68834000D01*
X41438000Y-81268000D02*
X41438000Y-87728000D01*
X45968000Y-81268000D02*
X43368000Y-81268000D01*
X47898000Y-81268000D02*
X47898000Y-87728000D01*
X45968000Y-87728000D02*
X43368000Y-87728000D01*
X47868000Y-81268000D02*
X47898000Y-81268000D01*
X41438000Y-81268000D02*
X41468000Y-81268000D01*
X41438000Y-87728000D02*
X41468000Y-87728000D01*
X47898000Y-87728000D02*
X47868000Y-87728000D01*
D10*
X30567333Y-51157142D02*
X30519714Y-51204761D01*
X30376857Y-51252380D01*
X30281619Y-51252380D01*
X30138761Y-51204761D01*
X30043523Y-51109523D01*
X29995904Y-51014285D01*
X29948285Y-50823809D01*
X29948285Y-50680952D01*
X29995904Y-50490476D01*
X30043523Y-50395238D01*
X30138761Y-50300000D01*
X30281619Y-50252380D01*
X30376857Y-50252380D01*
X30519714Y-50300000D01*
X30567333Y-50347619D01*
X31519714Y-51252380D02*
X30948285Y-51252380D01*
X31234000Y-51252380D02*
X31234000Y-50252380D01*
X31138761Y-50395238D01*
X31043523Y-50490476D01*
X30948285Y-50538095D01*
X19899333Y-62762642D02*
X19851714Y-62810261D01*
X19708857Y-62857880D01*
X19613619Y-62857880D01*
X19470761Y-62810261D01*
X19375523Y-62715023D01*
X19327904Y-62619785D01*
X19280285Y-62429309D01*
X19280285Y-62286452D01*
X19327904Y-62095976D01*
X19375523Y-62000738D01*
X19470761Y-61905500D01*
X19613619Y-61857880D01*
X19708857Y-61857880D01*
X19851714Y-61905500D01*
X19899333Y-61953119D01*
X20280285Y-61953119D02*
X20327904Y-61905500D01*
X20423142Y-61857880D01*
X20661238Y-61857880D01*
X20756476Y-61905500D01*
X20804095Y-61953119D01*
X20851714Y-62048357D01*
X20851714Y-62143595D01*
X20804095Y-62286452D01*
X20232666Y-62857880D01*
X20851714Y-62857880D01*
X25233333Y-46331142D02*
X25185714Y-46378761D01*
X25042857Y-46426380D01*
X24947619Y-46426380D01*
X24804761Y-46378761D01*
X24709523Y-46283523D01*
X24661904Y-46188285D01*
X24614285Y-45997809D01*
X24614285Y-45854952D01*
X24661904Y-45664476D01*
X24709523Y-45569238D01*
X24804761Y-45474000D01*
X24947619Y-45426380D01*
X25042857Y-45426380D01*
X25185714Y-45474000D01*
X25233333Y-45521619D01*
X25566666Y-45426380D02*
X26185714Y-45426380D01*
X25852380Y-45807333D01*
X25995238Y-45807333D01*
X26090476Y-45854952D01*
X26138095Y-45902571D01*
X26185714Y-45997809D01*
X26185714Y-46235904D01*
X26138095Y-46331142D01*
X26090476Y-46378761D01*
X25995238Y-46426380D01*
X25709523Y-46426380D01*
X25614285Y-46378761D01*
X25566666Y-46331142D01*
X28217904Y-71318380D02*
X28217904Y-70318380D01*
X28456000Y-70318380D01*
X28598857Y-70366000D01*
X28694095Y-70461238D01*
X28741714Y-70556476D01*
X28789333Y-70746952D01*
X28789333Y-70889809D01*
X28741714Y-71080285D01*
X28694095Y-71175523D01*
X28598857Y-71270761D01*
X28456000Y-71318380D01*
X28217904Y-71318380D01*
X29741714Y-71318380D02*
X29170285Y-71318380D01*
X29456000Y-71318380D02*
X29456000Y-70318380D01*
X29360761Y-70461238D01*
X29265523Y-70556476D01*
X29170285Y-70604095D01*
X29741904Y-79926380D02*
X29741904Y-78926380D01*
X29980000Y-78926380D01*
X30122857Y-78974000D01*
X30218095Y-79069238D01*
X30265714Y-79164476D01*
X30313333Y-79354952D01*
X30313333Y-79497809D01*
X30265714Y-79688285D01*
X30218095Y-79783523D01*
X30122857Y-79878761D01*
X29980000Y-79926380D01*
X29741904Y-79926380D01*
X30694285Y-79021619D02*
X30741904Y-78974000D01*
X30837142Y-78926380D01*
X31075238Y-78926380D01*
X31170476Y-78974000D01*
X31218095Y-79021619D01*
X31265714Y-79116857D01*
X31265714Y-79212095D01*
X31218095Y-79354952D01*
X30646666Y-79926380D01*
X31265714Y-79926380D01*
X32432666Y-61428380D02*
X32432666Y-62142666D01*
X32385047Y-62285523D01*
X32289809Y-62380761D01*
X32146952Y-62428380D01*
X32051714Y-62428380D01*
X33432666Y-62428380D02*
X32861238Y-62428380D01*
X33146952Y-62428380D02*
X33146952Y-61428380D01*
X33051714Y-61571238D01*
X32956476Y-61666476D01*
X32861238Y-61714095D01*
X32432666Y-47458380D02*
X32432666Y-48172666D01*
X32385047Y-48315523D01*
X32289809Y-48410761D01*
X32146952Y-48458380D01*
X32051714Y-48458380D01*
X32813619Y-47458380D02*
X33432666Y-47458380D01*
X33099333Y-47839333D01*
X33242190Y-47839333D01*
X33337428Y-47886952D01*
X33385047Y-47934571D01*
X33432666Y-48029809D01*
X33432666Y-48267904D01*
X33385047Y-48363142D01*
X33337428Y-48410761D01*
X33242190Y-48458380D01*
X32956476Y-48458380D01*
X32861238Y-48410761D01*
X32813619Y-48363142D01*
X22693333Y-83002380D02*
X22360000Y-82526190D01*
X22121904Y-83002380D02*
X22121904Y-82002380D01*
X22502857Y-82002380D01*
X22598095Y-82050000D01*
X22645714Y-82097619D01*
X22693333Y-82192857D01*
X22693333Y-82335714D01*
X22645714Y-82430952D01*
X22598095Y-82478571D01*
X22502857Y-82526190D01*
X22121904Y-82526190D01*
X23645714Y-83002380D02*
X23074285Y-83002380D01*
X23360000Y-83002380D02*
X23360000Y-82002380D01*
X23264761Y-82145238D01*
X23169523Y-82240476D01*
X23074285Y-82288095D01*
X24979333Y-83002380D02*
X24646000Y-82526190D01*
X24407904Y-83002380D02*
X24407904Y-82002380D01*
X24788857Y-82002380D01*
X24884095Y-82050000D01*
X24931714Y-82097619D01*
X24979333Y-82192857D01*
X24979333Y-82335714D01*
X24931714Y-82430952D01*
X24884095Y-82478571D01*
X24788857Y-82526190D01*
X24407904Y-82526190D01*
X25360285Y-82097619D02*
X25407904Y-82050000D01*
X25503142Y-82002380D01*
X25741238Y-82002380D01*
X25836476Y-82050000D01*
X25884095Y-82097619D01*
X25931714Y-82192857D01*
X25931714Y-82288095D01*
X25884095Y-82430952D01*
X25312666Y-83002380D01*
X25931714Y-83002380D01*
X30567333Y-78938380D02*
X30234000Y-78462190D01*
X29995904Y-78938380D02*
X29995904Y-77938380D01*
X30376857Y-77938380D01*
X30472095Y-77986000D01*
X30519714Y-78033619D01*
X30567333Y-78128857D01*
X30567333Y-78271714D01*
X30519714Y-78366952D01*
X30472095Y-78414571D01*
X30376857Y-78462190D01*
X29995904Y-78462190D01*
X30900666Y-77938380D02*
X31519714Y-77938380D01*
X31186380Y-78319333D01*
X31329238Y-78319333D01*
X31424476Y-78366952D01*
X31472095Y-78414571D01*
X31519714Y-78509809D01*
X31519714Y-78747904D01*
X31472095Y-78843142D01*
X31424476Y-78890761D01*
X31329238Y-78938380D01*
X31043523Y-78938380D01*
X30948285Y-78890761D01*
X30900666Y-78843142D01*
X34377333Y-59888380D02*
X34044000Y-59412190D01*
X33805904Y-59888380D02*
X33805904Y-58888380D01*
X34186857Y-58888380D01*
X34282095Y-58936000D01*
X34329714Y-58983619D01*
X34377333Y-59078857D01*
X34377333Y-59221714D01*
X34329714Y-59316952D01*
X34282095Y-59364571D01*
X34186857Y-59412190D01*
X33805904Y-59412190D01*
X35234476Y-59221714D02*
X35234476Y-59888380D01*
X34996380Y-58840761D02*
X34758285Y-59555047D01*
X35377333Y-59555047D01*
X24638095Y-71334380D02*
X24638095Y-72143904D01*
X24685714Y-72239142D01*
X24733333Y-72286761D01*
X24828571Y-72334380D01*
X25019047Y-72334380D01*
X25114285Y-72286761D01*
X25161904Y-72239142D01*
X25209523Y-72143904D01*
X25209523Y-71334380D01*
X26209523Y-72334380D02*
X25638095Y-72334380D01*
X25923809Y-72334380D02*
X25923809Y-71334380D01*
X25828571Y-71477238D01*
X25733333Y-71572476D01*
X25638095Y-71620095D01*
X20097809Y-41886190D02*
X20097809Y-42362380D01*
X19764476Y-41362380D02*
X20097809Y-41886190D01*
X20431142Y-41362380D01*
X21288285Y-42362380D02*
X20716857Y-42362380D01*
X21002571Y-42362380D02*
X21002571Y-41362380D01*
X20907333Y-41505238D01*
X20812095Y-41600476D01*
X20716857Y-41648095D01*
X15263904Y-81478380D02*
X15263904Y-80478380D01*
X15502000Y-80478380D01*
X15644857Y-80526000D01*
X15740095Y-80621238D01*
X15787714Y-80716476D01*
X15835333Y-80906952D01*
X15835333Y-81049809D01*
X15787714Y-81240285D01*
X15740095Y-81335523D01*
X15644857Y-81430761D01*
X15502000Y-81478380D01*
X15263904Y-81478380D01*
X16168666Y-80478380D02*
X16787714Y-80478380D01*
X16454380Y-80859333D01*
X16597238Y-80859333D01*
X16692476Y-80906952D01*
X16740095Y-80954571D01*
X16787714Y-81049809D01*
X16787714Y-81287904D01*
X16740095Y-81383142D01*
X16692476Y-81430761D01*
X16597238Y-81478380D01*
X16311523Y-81478380D01*
X16216285Y-81430761D01*
X16168666Y-81383142D01*
X17359333Y-84526380D02*
X17026000Y-84050190D01*
X16787904Y-84526380D02*
X16787904Y-83526380D01*
X17168857Y-83526380D01*
X17264095Y-83574000D01*
X17311714Y-83621619D01*
X17359333Y-83716857D01*
X17359333Y-83859714D01*
X17311714Y-83954952D01*
X17264095Y-84002571D01*
X17168857Y-84050190D01*
X16787904Y-84050190D01*
X18264095Y-83526380D02*
X17787904Y-83526380D01*
X17740285Y-84002571D01*
X17787904Y-83954952D01*
X17883142Y-83907333D01*
X18121238Y-83907333D01*
X18216476Y-83954952D01*
X18264095Y-84002571D01*
X18311714Y-84097809D01*
X18311714Y-84335904D01*
X18264095Y-84431142D01*
X18216476Y-84478761D01*
X18121238Y-84526380D01*
X17883142Y-84526380D01*
X17787904Y-84478761D01*
X17740285Y-84431142D01*
X15160666Y-65746380D02*
X15160666Y-66460666D01*
X15113047Y-66603523D01*
X15017809Y-66698761D01*
X14874952Y-66746380D01*
X14779714Y-66746380D01*
X15589238Y-65841619D02*
X15636857Y-65794000D01*
X15732095Y-65746380D01*
X15970190Y-65746380D01*
X16065428Y-65794000D01*
X16113047Y-65841619D01*
X16160666Y-65936857D01*
X16160666Y-66032095D01*
X16113047Y-66174952D01*
X15541619Y-66746380D01*
X16160666Y-66746380D01*
X49122761Y-85831333D02*
X49170380Y-85688476D01*
X49170380Y-85450380D01*
X49122761Y-85355142D01*
X49075142Y-85307523D01*
X48979904Y-85259904D01*
X48884666Y-85259904D01*
X48789428Y-85307523D01*
X48741809Y-85355142D01*
X48694190Y-85450380D01*
X48646571Y-85640857D01*
X48598952Y-85736095D01*
X48551333Y-85783714D01*
X48456095Y-85831333D01*
X48360857Y-85831333D01*
X48265619Y-85783714D01*
X48218000Y-85736095D01*
X48170380Y-85640857D01*
X48170380Y-85402761D01*
X48218000Y-85259904D01*
X48170380Y-84926571D02*
X49170380Y-84688476D01*
X48456095Y-84498000D01*
X49170380Y-84307523D01*
X48170380Y-84069428D01*
X49170380Y-83164666D02*
X49170380Y-83736095D01*
X49170380Y-83450380D02*
X48170380Y-83450380D01*
X48313238Y-83545619D01*
X48408476Y-83640857D01*
X48456095Y-83736095D01*
M02*
