G04 #@! TF.GenerationSoftware,KiCad,Pcbnew,(5.1.5)-3*
G04 #@! TF.CreationDate,2020-01-27T10:14:26+03:00*
G04 #@! TF.ProjectId,UBD,5542442e-6b69-4636-9164-5f7063625858,rev?*
G04 #@! TF.SameCoordinates,Original*
G04 #@! TF.FileFunction,Soldermask,Top*
G04 #@! TF.FilePolarity,Negative*
%FSLAX46Y46*%
G04 Gerber Fmt 4.6, Leading zero omitted, Abs format (unit mm)*
G04 Created by KiCad (PCBNEW (5.1.5)-3) date 2020-01-27 10:14:26*
%MOMM*%
%LPD*%
G04 APERTURE LIST*
%ADD10C,0.100000*%
G04 APERTURE END LIST*
D10*
G36*
X53813000Y-161550000D02*
G01*
X52911000Y-161550000D01*
X52911000Y-160198000D01*
X53813000Y-160198000D01*
X53813000Y-161550000D01*
G37*
G36*
X52013000Y-161550000D02*
G01*
X51111000Y-161550000D01*
X51111000Y-160198000D01*
X52013000Y-160198000D01*
X52013000Y-161550000D01*
G37*
G36*
X53813000Y-159900000D02*
G01*
X52911000Y-159900000D01*
X52911000Y-158548000D01*
X53813000Y-158548000D01*
X53813000Y-159900000D01*
G37*
G36*
X52013000Y-159900000D02*
G01*
X51111000Y-159900000D01*
X51111000Y-158548000D01*
X52013000Y-158548000D01*
X52013000Y-159900000D01*
G37*
G36*
X35559239Y-153411467D02*
G01*
X35873282Y-153473934D01*
X36464926Y-153719001D01*
X36742544Y-153904500D01*
X36997391Y-154074783D01*
X37450217Y-154527609D01*
X37508909Y-154615448D01*
X37805999Y-155060074D01*
X38051066Y-155651718D01*
X38069872Y-155746262D01*
X38176000Y-156279803D01*
X38176000Y-156920197D01*
X38148430Y-157058799D01*
X38051066Y-157548282D01*
X37805999Y-158139926D01*
X37558265Y-158510685D01*
X37450217Y-158672391D01*
X36997391Y-159125217D01*
X36891477Y-159195986D01*
X36464926Y-159480999D01*
X35873282Y-159726066D01*
X35559239Y-159788533D01*
X35245197Y-159851000D01*
X34604803Y-159851000D01*
X34290761Y-159788533D01*
X33976718Y-159726066D01*
X33385074Y-159480999D01*
X32958523Y-159195986D01*
X32852609Y-159125217D01*
X32399783Y-158672391D01*
X32291735Y-158510685D01*
X32044001Y-158139926D01*
X31798934Y-157548282D01*
X31701570Y-157058799D01*
X31674000Y-156920197D01*
X31674000Y-156279803D01*
X31780128Y-155746262D01*
X31798934Y-155651718D01*
X32044001Y-155060074D01*
X32341091Y-154615448D01*
X32399783Y-154527609D01*
X32852609Y-154074783D01*
X33107456Y-153904500D01*
X33385074Y-153719001D01*
X33976718Y-153473934D01*
X34290761Y-153411467D01*
X34604803Y-153349000D01*
X35245197Y-153349000D01*
X35559239Y-153411467D01*
G37*
G36*
X72831000Y-159800000D02*
G01*
X70929000Y-159800000D01*
X70929000Y-157898000D01*
X72831000Y-157898000D01*
X72831000Y-159800000D01*
G37*
G36*
X58697395Y-157934546D02*
G01*
X58870466Y-158006234D01*
X58947818Y-158057919D01*
X59026227Y-158110310D01*
X59158690Y-158242773D01*
X59158691Y-158242775D01*
X59262766Y-158398534D01*
X59334454Y-158571605D01*
X59371000Y-158755333D01*
X59371000Y-158942667D01*
X59334454Y-159126395D01*
X59262766Y-159299466D01*
X59262765Y-159299467D01*
X59158690Y-159455227D01*
X59026227Y-159587690D01*
X58947818Y-159640081D01*
X58870466Y-159691766D01*
X58697395Y-159763454D01*
X58513667Y-159800000D01*
X58326333Y-159800000D01*
X58142605Y-159763454D01*
X57969534Y-159691766D01*
X57892182Y-159640081D01*
X57813773Y-159587690D01*
X57681310Y-159455227D01*
X57577235Y-159299467D01*
X57577234Y-159299466D01*
X57505546Y-159126395D01*
X57469000Y-158942667D01*
X57469000Y-158755333D01*
X57505546Y-158571605D01*
X57577234Y-158398534D01*
X57681309Y-158242775D01*
X57681310Y-158242773D01*
X57813773Y-158110310D01*
X57892182Y-158057919D01*
X57969534Y-158006234D01*
X58142605Y-157934546D01*
X58326333Y-157898000D01*
X58513667Y-157898000D01*
X58697395Y-157934546D01*
G37*
G36*
X82697395Y-157934546D02*
G01*
X82870466Y-158006234D01*
X82947818Y-158057919D01*
X83026227Y-158110310D01*
X83158690Y-158242773D01*
X83158691Y-158242775D01*
X83262766Y-158398534D01*
X83334454Y-158571605D01*
X83371000Y-158755333D01*
X83371000Y-158942667D01*
X83334454Y-159126395D01*
X83262766Y-159299466D01*
X83262765Y-159299467D01*
X83158690Y-159455227D01*
X83026227Y-159587690D01*
X82947818Y-159640081D01*
X82870466Y-159691766D01*
X82697395Y-159763454D01*
X82513667Y-159800000D01*
X82326333Y-159800000D01*
X82142605Y-159763454D01*
X81969534Y-159691766D01*
X81892182Y-159640081D01*
X81813773Y-159587690D01*
X81681310Y-159455227D01*
X81577235Y-159299467D01*
X81577234Y-159299466D01*
X81505546Y-159126395D01*
X81469000Y-158942667D01*
X81469000Y-158755333D01*
X81505546Y-158571605D01*
X81577234Y-158398534D01*
X81681309Y-158242775D01*
X81681310Y-158242773D01*
X81813773Y-158110310D01*
X81892182Y-158057919D01*
X81969534Y-158006234D01*
X82142605Y-157934546D01*
X82326333Y-157898000D01*
X82513667Y-157898000D01*
X82697395Y-157934546D01*
G37*
G36*
X80831000Y-159800000D02*
G01*
X78929000Y-159800000D01*
X78929000Y-157898000D01*
X80831000Y-157898000D01*
X80831000Y-159800000D01*
G37*
G36*
X74697395Y-157934546D02*
G01*
X74870466Y-158006234D01*
X74947818Y-158057919D01*
X75026227Y-158110310D01*
X75158690Y-158242773D01*
X75158691Y-158242775D01*
X75262766Y-158398534D01*
X75334454Y-158571605D01*
X75371000Y-158755333D01*
X75371000Y-158942667D01*
X75334454Y-159126395D01*
X75262766Y-159299466D01*
X75262765Y-159299467D01*
X75158690Y-159455227D01*
X75026227Y-159587690D01*
X74947818Y-159640081D01*
X74870466Y-159691766D01*
X74697395Y-159763454D01*
X74513667Y-159800000D01*
X74326333Y-159800000D01*
X74142605Y-159763454D01*
X73969534Y-159691766D01*
X73892182Y-159640081D01*
X73813773Y-159587690D01*
X73681310Y-159455227D01*
X73577235Y-159299467D01*
X73577234Y-159299466D01*
X73505546Y-159126395D01*
X73469000Y-158942667D01*
X73469000Y-158755333D01*
X73505546Y-158571605D01*
X73577234Y-158398534D01*
X73681309Y-158242775D01*
X73681310Y-158242773D01*
X73813773Y-158110310D01*
X73892182Y-158057919D01*
X73969534Y-158006234D01*
X74142605Y-157934546D01*
X74326333Y-157898000D01*
X74513667Y-157898000D01*
X74697395Y-157934546D01*
G37*
G36*
X66697395Y-157934546D02*
G01*
X66870466Y-158006234D01*
X66947818Y-158057919D01*
X67026227Y-158110310D01*
X67158690Y-158242773D01*
X67158691Y-158242775D01*
X67262766Y-158398534D01*
X67334454Y-158571605D01*
X67371000Y-158755333D01*
X67371000Y-158942667D01*
X67334454Y-159126395D01*
X67262766Y-159299466D01*
X67262765Y-159299467D01*
X67158690Y-159455227D01*
X67026227Y-159587690D01*
X66947818Y-159640081D01*
X66870466Y-159691766D01*
X66697395Y-159763454D01*
X66513667Y-159800000D01*
X66326333Y-159800000D01*
X66142605Y-159763454D01*
X65969534Y-159691766D01*
X65892182Y-159640081D01*
X65813773Y-159587690D01*
X65681310Y-159455227D01*
X65577235Y-159299467D01*
X65577234Y-159299466D01*
X65505546Y-159126395D01*
X65469000Y-158942667D01*
X65469000Y-158755333D01*
X65505546Y-158571605D01*
X65577234Y-158398534D01*
X65681309Y-158242775D01*
X65681310Y-158242773D01*
X65813773Y-158110310D01*
X65892182Y-158057919D01*
X65969534Y-158006234D01*
X66142605Y-157934546D01*
X66326333Y-157898000D01*
X66513667Y-157898000D01*
X66697395Y-157934546D01*
G37*
G36*
X64831000Y-159800000D02*
G01*
X62929000Y-159800000D01*
X62929000Y-157898000D01*
X64831000Y-157898000D01*
X64831000Y-159800000D01*
G37*
G36*
X56831000Y-159800000D02*
G01*
X54929000Y-159800000D01*
X54929000Y-157898000D01*
X56831000Y-157898000D01*
X56831000Y-159800000D01*
G37*
G36*
X113278600Y-155312989D02*
G01*
X113311652Y-155323015D01*
X113342103Y-155339292D01*
X113368799Y-155361201D01*
X113390708Y-155387897D01*
X113406985Y-155418348D01*
X113417011Y-155451400D01*
X113421000Y-155491903D01*
X113421000Y-156928097D01*
X113417011Y-156968600D01*
X113406985Y-157001652D01*
X113390708Y-157032103D01*
X113368799Y-157058799D01*
X113342103Y-157080708D01*
X113311652Y-157096985D01*
X113278600Y-157107011D01*
X113238097Y-157111000D01*
X111551903Y-157111000D01*
X111511400Y-157107011D01*
X111478348Y-157096985D01*
X111447897Y-157080708D01*
X111421201Y-157058799D01*
X111399292Y-157032103D01*
X111383015Y-157001652D01*
X111372989Y-156968600D01*
X111369000Y-156928097D01*
X111369000Y-155491903D01*
X111372989Y-155451400D01*
X111383015Y-155418348D01*
X111399292Y-155387897D01*
X111421201Y-155361201D01*
X111447897Y-155339292D01*
X111478348Y-155323015D01*
X111511400Y-155312989D01*
X111551903Y-155309000D01*
X113238097Y-155309000D01*
X113278600Y-155312989D01*
G37*
G36*
X41066928Y-155607764D02*
G01*
X41088009Y-155614160D01*
X41107445Y-155624548D01*
X41124476Y-155638524D01*
X41138452Y-155655555D01*
X41148840Y-155674991D01*
X41155236Y-155696072D01*
X41158000Y-155724140D01*
X41158000Y-156187860D01*
X41155236Y-156215928D01*
X41148840Y-156237009D01*
X41138452Y-156256445D01*
X41124476Y-156273476D01*
X41107445Y-156287452D01*
X41088009Y-156297840D01*
X41066928Y-156304236D01*
X41038860Y-156307000D01*
X39225140Y-156307000D01*
X39197072Y-156304236D01*
X39175991Y-156297840D01*
X39156555Y-156287452D01*
X39139524Y-156273476D01*
X39125548Y-156256445D01*
X39115160Y-156237009D01*
X39108764Y-156215928D01*
X39106000Y-156187860D01*
X39106000Y-155724140D01*
X39108764Y-155696072D01*
X39115160Y-155674991D01*
X39125548Y-155655555D01*
X39139524Y-155638524D01*
X39156555Y-155624548D01*
X39175991Y-155614160D01*
X39197072Y-155607764D01*
X39225140Y-155605000D01*
X41038860Y-155605000D01*
X41066928Y-155607764D01*
G37*
G36*
X46016928Y-155607764D02*
G01*
X46038009Y-155614160D01*
X46057445Y-155624548D01*
X46074476Y-155638524D01*
X46088452Y-155655555D01*
X46098840Y-155674991D01*
X46105236Y-155696072D01*
X46108000Y-155724140D01*
X46108000Y-156187860D01*
X46105236Y-156215928D01*
X46098840Y-156237009D01*
X46088452Y-156256445D01*
X46074476Y-156273476D01*
X46057445Y-156287452D01*
X46038009Y-156297840D01*
X46016928Y-156304236D01*
X45988860Y-156307000D01*
X44175140Y-156307000D01*
X44147072Y-156304236D01*
X44125991Y-156297840D01*
X44106555Y-156287452D01*
X44089524Y-156273476D01*
X44075548Y-156256445D01*
X44065160Y-156237009D01*
X44058764Y-156215928D01*
X44056000Y-156187860D01*
X44056000Y-155724140D01*
X44058764Y-155696072D01*
X44065160Y-155674991D01*
X44075548Y-155655555D01*
X44089524Y-155638524D01*
X44106555Y-155624548D01*
X44125991Y-155614160D01*
X44147072Y-155607764D01*
X44175140Y-155605000D01*
X45988860Y-155605000D01*
X46016928Y-155607764D01*
G37*
G36*
X49401591Y-154506585D02*
G01*
X49435569Y-154516893D01*
X49466890Y-154533634D01*
X49494339Y-154556161D01*
X49516866Y-154583610D01*
X49533607Y-154614931D01*
X49543915Y-154648909D01*
X49548000Y-154690390D01*
X49548000Y-155291610D01*
X49543915Y-155333091D01*
X49533607Y-155367069D01*
X49516866Y-155398390D01*
X49494339Y-155425839D01*
X49466890Y-155448366D01*
X49435569Y-155465107D01*
X49401591Y-155475415D01*
X49360110Y-155479500D01*
X48683890Y-155479500D01*
X48642409Y-155475415D01*
X48608431Y-155465107D01*
X48577110Y-155448366D01*
X48549661Y-155425839D01*
X48527134Y-155398390D01*
X48510393Y-155367069D01*
X48500085Y-155333091D01*
X48496000Y-155291610D01*
X48496000Y-154690390D01*
X48500085Y-154648909D01*
X48510393Y-154614931D01*
X48527134Y-154583610D01*
X48549661Y-154556161D01*
X48577110Y-154533634D01*
X48608431Y-154516893D01*
X48642409Y-154506585D01*
X48683890Y-154502500D01*
X49360110Y-154502500D01*
X49401591Y-154506585D01*
G37*
G36*
X41066928Y-154337764D02*
G01*
X41088009Y-154344160D01*
X41107445Y-154354548D01*
X41124476Y-154368524D01*
X41138452Y-154385555D01*
X41148840Y-154404991D01*
X41155236Y-154426072D01*
X41158000Y-154454140D01*
X41158000Y-154917860D01*
X41155236Y-154945928D01*
X41148840Y-154967009D01*
X41138452Y-154986445D01*
X41124476Y-155003476D01*
X41107445Y-155017452D01*
X41088009Y-155027840D01*
X41066928Y-155034236D01*
X41038860Y-155037000D01*
X39225140Y-155037000D01*
X39197072Y-155034236D01*
X39175991Y-155027840D01*
X39156555Y-155017452D01*
X39139524Y-155003476D01*
X39125548Y-154986445D01*
X39115160Y-154967009D01*
X39108764Y-154945928D01*
X39106000Y-154917860D01*
X39106000Y-154454140D01*
X39108764Y-154426072D01*
X39115160Y-154404991D01*
X39125548Y-154385555D01*
X39139524Y-154368524D01*
X39156555Y-154354548D01*
X39175991Y-154344160D01*
X39197072Y-154337764D01*
X39225140Y-154335000D01*
X41038860Y-154335000D01*
X41066928Y-154337764D01*
G37*
G36*
X46016928Y-154337764D02*
G01*
X46038009Y-154344160D01*
X46057445Y-154354548D01*
X46074476Y-154368524D01*
X46088452Y-154385555D01*
X46098840Y-154404991D01*
X46105236Y-154426072D01*
X46108000Y-154454140D01*
X46108000Y-154917860D01*
X46105236Y-154945928D01*
X46098840Y-154967009D01*
X46088452Y-154986445D01*
X46074476Y-155003476D01*
X46057445Y-155017452D01*
X46038009Y-155027840D01*
X46016928Y-155034236D01*
X45988860Y-155037000D01*
X44175140Y-155037000D01*
X44147072Y-155034236D01*
X44125991Y-155027840D01*
X44106555Y-155017452D01*
X44089524Y-155003476D01*
X44075548Y-154986445D01*
X44065160Y-154967009D01*
X44058764Y-154945928D01*
X44056000Y-154917860D01*
X44056000Y-154454140D01*
X44058764Y-154426072D01*
X44065160Y-154404991D01*
X44075548Y-154385555D01*
X44089524Y-154368524D01*
X44106555Y-154354548D01*
X44125991Y-154344160D01*
X44147072Y-154337764D01*
X44175140Y-154335000D01*
X45988860Y-154335000D01*
X46016928Y-154337764D01*
G37*
G36*
X112630443Y-152815519D02*
G01*
X112696627Y-152822037D01*
X112866466Y-152873557D01*
X112866468Y-152873558D01*
X112869147Y-152874990D01*
X113022991Y-152957222D01*
X113055057Y-152983538D01*
X113160186Y-153069814D01*
X113230975Y-153156072D01*
X113272778Y-153207009D01*
X113356443Y-153363534D01*
X113407963Y-153533373D01*
X113425359Y-153710000D01*
X113407963Y-153886627D01*
X113356443Y-154056466D01*
X113272778Y-154212991D01*
X113246985Y-154244420D01*
X113160186Y-154350186D01*
X113090033Y-154407758D01*
X113022991Y-154462778D01*
X112977677Y-154486999D01*
X112878614Y-154539950D01*
X112866466Y-154546443D01*
X112696627Y-154597963D01*
X112630442Y-154604482D01*
X112564260Y-154611000D01*
X112225740Y-154611000D01*
X112159558Y-154604482D01*
X112093373Y-154597963D01*
X111923534Y-154546443D01*
X111911387Y-154539950D01*
X111812323Y-154486999D01*
X111767009Y-154462778D01*
X111699967Y-154407758D01*
X111629814Y-154350186D01*
X111543015Y-154244420D01*
X111517222Y-154212991D01*
X111433557Y-154056466D01*
X111382037Y-153886627D01*
X111364641Y-153710000D01*
X111382037Y-153533373D01*
X111433557Y-153363534D01*
X111517222Y-153207009D01*
X111559025Y-153156072D01*
X111629814Y-153069814D01*
X111734943Y-152983538D01*
X111767009Y-152957222D01*
X111920853Y-152874990D01*
X111923532Y-152873558D01*
X111923534Y-152873557D01*
X112093373Y-152822037D01*
X112159557Y-152815519D01*
X112225740Y-152809000D01*
X112564260Y-152809000D01*
X112630443Y-152815519D01*
G37*
G36*
X73747738Y-153585627D02*
G01*
X73781716Y-153595935D01*
X73813037Y-153612676D01*
X73840486Y-153635203D01*
X73863013Y-153662652D01*
X73879754Y-153693973D01*
X73890062Y-153727951D01*
X73894147Y-153769432D01*
X73894147Y-154370652D01*
X73890062Y-154412133D01*
X73879754Y-154446111D01*
X73863013Y-154477432D01*
X73840486Y-154504881D01*
X73813037Y-154527408D01*
X73781716Y-154544149D01*
X73747738Y-154554457D01*
X73706257Y-154558542D01*
X73030037Y-154558542D01*
X72988556Y-154554457D01*
X72954578Y-154544149D01*
X72923257Y-154527408D01*
X72895808Y-154504881D01*
X72873281Y-154477432D01*
X72856540Y-154446111D01*
X72846232Y-154412133D01*
X72842147Y-154370652D01*
X72842147Y-153769432D01*
X72846232Y-153727951D01*
X72856540Y-153693973D01*
X72873281Y-153662652D01*
X72895808Y-153635203D01*
X72923257Y-153612676D01*
X72954578Y-153595935D01*
X72988556Y-153585627D01*
X73030037Y-153581542D01*
X73706257Y-153581542D01*
X73747738Y-153585627D01*
G37*
G36*
X69747734Y-153585623D02*
G01*
X69781712Y-153595931D01*
X69813033Y-153612672D01*
X69840482Y-153635199D01*
X69863009Y-153662648D01*
X69879750Y-153693969D01*
X69890058Y-153727947D01*
X69894143Y-153769428D01*
X69894143Y-154370648D01*
X69890058Y-154412129D01*
X69879750Y-154446107D01*
X69863009Y-154477428D01*
X69840482Y-154504877D01*
X69813033Y-154527404D01*
X69781712Y-154544145D01*
X69747734Y-154554453D01*
X69706253Y-154558538D01*
X69030033Y-154558538D01*
X68988552Y-154554453D01*
X68954574Y-154544145D01*
X68923253Y-154527404D01*
X68895804Y-154504877D01*
X68873277Y-154477428D01*
X68856536Y-154446107D01*
X68846228Y-154412129D01*
X68842143Y-154370648D01*
X68842143Y-153769428D01*
X68846228Y-153727947D01*
X68856536Y-153693969D01*
X68873277Y-153662648D01*
X68895804Y-153635199D01*
X68923253Y-153612672D01*
X68954574Y-153595931D01*
X68988552Y-153585623D01*
X69030033Y-153581538D01*
X69706253Y-153581538D01*
X69747734Y-153585623D01*
G37*
G36*
X47623591Y-153236585D02*
G01*
X47657569Y-153246893D01*
X47688890Y-153263634D01*
X47716339Y-153286161D01*
X47738866Y-153313610D01*
X47755607Y-153344931D01*
X47765915Y-153378909D01*
X47770000Y-153420390D01*
X47770000Y-154021610D01*
X47765915Y-154063091D01*
X47755607Y-154097069D01*
X47738866Y-154128390D01*
X47716339Y-154155839D01*
X47688890Y-154178366D01*
X47657569Y-154195107D01*
X47623591Y-154205415D01*
X47582110Y-154209500D01*
X46905890Y-154209500D01*
X46864409Y-154205415D01*
X46830431Y-154195107D01*
X46799110Y-154178366D01*
X46771661Y-154155839D01*
X46749134Y-154128390D01*
X46732393Y-154097069D01*
X46722085Y-154063091D01*
X46718000Y-154021610D01*
X46718000Y-153420390D01*
X46722085Y-153378909D01*
X46732393Y-153344931D01*
X46749134Y-153313610D01*
X46771661Y-153286161D01*
X46799110Y-153263634D01*
X46830431Y-153246893D01*
X46864409Y-153236585D01*
X46905890Y-153232500D01*
X47582110Y-153232500D01*
X47623591Y-153236585D01*
G37*
G36*
X49401591Y-152931585D02*
G01*
X49435569Y-152941893D01*
X49466890Y-152958634D01*
X49494339Y-152981161D01*
X49516866Y-153008610D01*
X49533607Y-153039931D01*
X49543915Y-153073909D01*
X49548000Y-153115390D01*
X49548000Y-153716610D01*
X49543915Y-153758091D01*
X49533607Y-153792069D01*
X49516866Y-153823390D01*
X49494339Y-153850839D01*
X49466890Y-153873366D01*
X49435569Y-153890107D01*
X49401591Y-153900415D01*
X49360110Y-153904500D01*
X48683890Y-153904500D01*
X48642409Y-153900415D01*
X48608431Y-153890107D01*
X48577110Y-153873366D01*
X48549661Y-153850839D01*
X48527134Y-153823390D01*
X48510393Y-153792069D01*
X48500085Y-153758091D01*
X48496000Y-153716610D01*
X48496000Y-153115390D01*
X48500085Y-153073909D01*
X48510393Y-153039931D01*
X48527134Y-153008610D01*
X48549661Y-152981161D01*
X48577110Y-152958634D01*
X48608431Y-152941893D01*
X48642409Y-152931585D01*
X48683890Y-152927500D01*
X49360110Y-152927500D01*
X49401591Y-152931585D01*
G37*
G36*
X46016928Y-153067764D02*
G01*
X46038009Y-153074160D01*
X46057445Y-153084548D01*
X46074476Y-153098524D01*
X46088452Y-153115555D01*
X46098840Y-153134991D01*
X46105236Y-153156072D01*
X46108000Y-153184140D01*
X46108000Y-153647860D01*
X46105236Y-153675928D01*
X46098840Y-153697009D01*
X46088452Y-153716445D01*
X46074476Y-153733476D01*
X46057445Y-153747452D01*
X46038009Y-153757840D01*
X46016928Y-153764236D01*
X45988860Y-153767000D01*
X44175140Y-153767000D01*
X44147072Y-153764236D01*
X44125991Y-153757840D01*
X44106555Y-153747452D01*
X44089524Y-153733476D01*
X44075548Y-153716445D01*
X44065160Y-153697009D01*
X44058764Y-153675928D01*
X44056000Y-153647860D01*
X44056000Y-153184140D01*
X44058764Y-153156072D01*
X44065160Y-153134991D01*
X44075548Y-153115555D01*
X44089524Y-153098524D01*
X44106555Y-153084548D01*
X44125991Y-153074160D01*
X44147072Y-153067764D01*
X44175140Y-153065000D01*
X45988860Y-153065000D01*
X46016928Y-153067764D01*
G37*
G36*
X41066928Y-153067764D02*
G01*
X41088009Y-153074160D01*
X41107445Y-153084548D01*
X41124476Y-153098524D01*
X41138452Y-153115555D01*
X41148840Y-153134991D01*
X41155236Y-153156072D01*
X41158000Y-153184140D01*
X41158000Y-153647860D01*
X41155236Y-153675928D01*
X41148840Y-153697009D01*
X41138452Y-153716445D01*
X41124476Y-153733476D01*
X41107445Y-153747452D01*
X41088009Y-153757840D01*
X41066928Y-153764236D01*
X41038860Y-153767000D01*
X39225140Y-153767000D01*
X39197072Y-153764236D01*
X39175991Y-153757840D01*
X39156555Y-153747452D01*
X39139524Y-153733476D01*
X39125548Y-153716445D01*
X39115160Y-153697009D01*
X39108764Y-153675928D01*
X39106000Y-153647860D01*
X39106000Y-153184140D01*
X39108764Y-153156072D01*
X39115160Y-153134991D01*
X39125548Y-153115555D01*
X39139524Y-153098524D01*
X39156555Y-153084548D01*
X39175991Y-153074160D01*
X39197072Y-153067764D01*
X39225140Y-153065000D01*
X41038860Y-153065000D01*
X41066928Y-153067764D01*
G37*
G36*
X73747738Y-152010627D02*
G01*
X73781716Y-152020935D01*
X73813037Y-152037676D01*
X73840486Y-152060203D01*
X73863013Y-152087652D01*
X73879754Y-152118973D01*
X73890062Y-152152951D01*
X73894147Y-152194432D01*
X73894147Y-152795652D01*
X73890062Y-152837133D01*
X73879754Y-152871111D01*
X73863013Y-152902432D01*
X73840486Y-152929881D01*
X73813037Y-152952408D01*
X73781716Y-152969149D01*
X73747738Y-152979457D01*
X73706257Y-152983542D01*
X73030037Y-152983542D01*
X72988556Y-152979457D01*
X72954578Y-152969149D01*
X72923257Y-152952408D01*
X72895808Y-152929881D01*
X72873281Y-152902432D01*
X72856540Y-152871111D01*
X72846232Y-152837133D01*
X72842147Y-152795652D01*
X72842147Y-152194432D01*
X72846232Y-152152951D01*
X72856540Y-152118973D01*
X72873281Y-152087652D01*
X72895808Y-152060203D01*
X72923257Y-152037676D01*
X72954578Y-152020935D01*
X72988556Y-152010627D01*
X73030037Y-152006542D01*
X73706257Y-152006542D01*
X73747738Y-152010627D01*
G37*
G36*
X69747734Y-152010623D02*
G01*
X69781712Y-152020931D01*
X69813033Y-152037672D01*
X69840482Y-152060199D01*
X69863009Y-152087648D01*
X69879750Y-152118969D01*
X69890058Y-152152947D01*
X69894143Y-152194428D01*
X69894143Y-152795648D01*
X69890058Y-152837129D01*
X69879750Y-152871107D01*
X69863009Y-152902428D01*
X69840482Y-152929877D01*
X69813033Y-152952404D01*
X69781712Y-152969145D01*
X69747734Y-152979453D01*
X69706253Y-152983538D01*
X69030033Y-152983538D01*
X68988552Y-152979453D01*
X68954574Y-152969145D01*
X68923253Y-152952404D01*
X68895804Y-152929877D01*
X68873277Y-152902428D01*
X68856536Y-152871107D01*
X68846228Y-152837129D01*
X68842143Y-152795648D01*
X68842143Y-152194428D01*
X68846228Y-152152947D01*
X68856536Y-152118969D01*
X68873277Y-152087648D01*
X68895804Y-152060199D01*
X68923253Y-152037672D01*
X68954574Y-152020931D01*
X68988552Y-152010623D01*
X69030033Y-152006538D01*
X69706253Y-152006538D01*
X69747734Y-152010623D01*
G37*
G36*
X47623591Y-151661585D02*
G01*
X47657569Y-151671893D01*
X47688890Y-151688634D01*
X47716339Y-151711161D01*
X47738866Y-151738610D01*
X47755607Y-151769931D01*
X47765915Y-151803909D01*
X47770000Y-151845390D01*
X47770000Y-152446610D01*
X47765915Y-152488091D01*
X47755607Y-152522069D01*
X47738866Y-152553390D01*
X47716339Y-152580839D01*
X47688890Y-152603366D01*
X47657569Y-152620107D01*
X47623591Y-152630415D01*
X47582110Y-152634500D01*
X46905890Y-152634500D01*
X46864409Y-152630415D01*
X46830431Y-152620107D01*
X46799110Y-152603366D01*
X46771661Y-152580839D01*
X46749134Y-152553390D01*
X46732393Y-152522069D01*
X46722085Y-152488091D01*
X46718000Y-152446610D01*
X46718000Y-151845390D01*
X46722085Y-151803909D01*
X46732393Y-151769931D01*
X46749134Y-151738610D01*
X46771661Y-151711161D01*
X46799110Y-151688634D01*
X46830431Y-151671893D01*
X46864409Y-151661585D01*
X46905890Y-151657500D01*
X47582110Y-151657500D01*
X47623591Y-151661585D01*
G37*
G36*
X46016928Y-151797764D02*
G01*
X46038009Y-151804160D01*
X46057445Y-151814548D01*
X46074476Y-151828524D01*
X46088452Y-151845555D01*
X46098840Y-151864991D01*
X46105236Y-151886072D01*
X46108000Y-151914140D01*
X46108000Y-152377860D01*
X46105236Y-152405928D01*
X46098840Y-152427009D01*
X46088452Y-152446445D01*
X46074476Y-152463476D01*
X46057445Y-152477452D01*
X46038009Y-152487840D01*
X46016928Y-152494236D01*
X45988860Y-152497000D01*
X44175140Y-152497000D01*
X44147072Y-152494236D01*
X44125991Y-152487840D01*
X44106555Y-152477452D01*
X44089524Y-152463476D01*
X44075548Y-152446445D01*
X44065160Y-152427009D01*
X44058764Y-152405928D01*
X44056000Y-152377860D01*
X44056000Y-151914140D01*
X44058764Y-151886072D01*
X44065160Y-151864991D01*
X44075548Y-151845555D01*
X44089524Y-151828524D01*
X44106555Y-151814548D01*
X44125991Y-151804160D01*
X44147072Y-151797764D01*
X44175140Y-151795000D01*
X45988860Y-151795000D01*
X46016928Y-151797764D01*
G37*
G36*
X41066928Y-151797764D02*
G01*
X41088009Y-151804160D01*
X41107445Y-151814548D01*
X41124476Y-151828524D01*
X41138452Y-151845555D01*
X41148840Y-151864991D01*
X41155236Y-151886072D01*
X41158000Y-151914140D01*
X41158000Y-152377860D01*
X41155236Y-152405928D01*
X41148840Y-152427009D01*
X41138452Y-152446445D01*
X41124476Y-152463476D01*
X41107445Y-152477452D01*
X41088009Y-152487840D01*
X41066928Y-152494236D01*
X41038860Y-152497000D01*
X39225140Y-152497000D01*
X39197072Y-152494236D01*
X39175991Y-152487840D01*
X39156555Y-152477452D01*
X39139524Y-152463476D01*
X39125548Y-152446445D01*
X39115160Y-152427009D01*
X39108764Y-152405928D01*
X39106000Y-152377860D01*
X39106000Y-151914140D01*
X39108764Y-151886072D01*
X39115160Y-151864991D01*
X39125548Y-151845555D01*
X39139524Y-151828524D01*
X39156555Y-151814548D01*
X39175991Y-151804160D01*
X39197072Y-151797764D01*
X39225140Y-151795000D01*
X41038860Y-151795000D01*
X41066928Y-151797764D01*
G37*
G36*
X112630443Y-150315519D02*
G01*
X112696627Y-150322037D01*
X112866466Y-150373557D01*
X113022991Y-150457222D01*
X113058729Y-150486552D01*
X113160186Y-150569814D01*
X113243448Y-150671271D01*
X113272778Y-150707009D01*
X113356443Y-150863534D01*
X113407963Y-151033373D01*
X113425359Y-151210000D01*
X113407963Y-151386627D01*
X113356443Y-151556466D01*
X113272778Y-151712991D01*
X113251753Y-151738610D01*
X113160186Y-151850186D01*
X113058729Y-151933448D01*
X113022991Y-151962778D01*
X112866466Y-152046443D01*
X112696627Y-152097963D01*
X112630443Y-152104481D01*
X112564260Y-152111000D01*
X112225740Y-152111000D01*
X112159557Y-152104481D01*
X112093373Y-152097963D01*
X111923534Y-152046443D01*
X111767009Y-151962778D01*
X111731271Y-151933448D01*
X111629814Y-151850186D01*
X111538247Y-151738610D01*
X111517222Y-151712991D01*
X111433557Y-151556466D01*
X111382037Y-151386627D01*
X111364641Y-151210000D01*
X111382037Y-151033373D01*
X111433557Y-150863534D01*
X111517222Y-150707009D01*
X111546552Y-150671271D01*
X111629814Y-150569814D01*
X111731271Y-150486552D01*
X111767009Y-150457222D01*
X111923534Y-150373557D01*
X112093373Y-150322037D01*
X112159557Y-150315519D01*
X112225740Y-150309000D01*
X112564260Y-150309000D01*
X112630443Y-150315519D01*
G37*
G36*
X72019146Y-151445038D02*
G01*
X70717146Y-151445038D01*
X70717146Y-148343038D01*
X72019146Y-148343038D01*
X72019146Y-151445038D01*
G37*
G36*
X78019146Y-151445038D02*
G01*
X76717146Y-151445038D01*
X76717146Y-148343038D01*
X78019146Y-148343038D01*
X78019146Y-151445038D01*
G37*
G36*
X76019146Y-151445038D02*
G01*
X74717146Y-151445038D01*
X74717146Y-148343038D01*
X76019146Y-148343038D01*
X76019146Y-151445038D01*
G37*
G36*
X74019146Y-151445038D02*
G01*
X72717146Y-151445038D01*
X72717146Y-148343038D01*
X74019146Y-148343038D01*
X74019146Y-151445038D01*
G37*
G36*
X84019146Y-151445038D02*
G01*
X82717146Y-151445038D01*
X82717146Y-148343038D01*
X84019146Y-148343038D01*
X84019146Y-151445038D01*
G37*
G36*
X82019146Y-151445038D02*
G01*
X80717146Y-151445038D01*
X80717146Y-148343038D01*
X82019146Y-148343038D01*
X82019146Y-151445038D01*
G37*
G36*
X80019146Y-151445038D02*
G01*
X78717146Y-151445038D01*
X78717146Y-148343038D01*
X80019146Y-148343038D01*
X80019146Y-151445038D01*
G37*
G36*
X70019146Y-151445038D02*
G01*
X68717146Y-151445038D01*
X68717146Y-148343038D01*
X70019146Y-148343038D01*
X70019146Y-151445038D01*
G37*
G36*
X32620443Y-149440519D02*
G01*
X32686627Y-149447037D01*
X32856466Y-149498557D01*
X33012991Y-149582222D01*
X33032171Y-149597963D01*
X33150186Y-149694814D01*
X33233448Y-149796271D01*
X33262778Y-149832009D01*
X33346443Y-149988534D01*
X33397963Y-150158373D01*
X33415359Y-150335000D01*
X33397963Y-150511627D01*
X33346443Y-150681466D01*
X33262778Y-150837991D01*
X33241817Y-150863532D01*
X33150186Y-150975186D01*
X33071881Y-151039448D01*
X33012991Y-151087778D01*
X32856466Y-151171443D01*
X32686627Y-151222963D01*
X32620443Y-151229481D01*
X32554260Y-151236000D01*
X32215740Y-151236000D01*
X32149557Y-151229481D01*
X32083373Y-151222963D01*
X31913534Y-151171443D01*
X31757009Y-151087778D01*
X31698119Y-151039448D01*
X31619814Y-150975186D01*
X31528183Y-150863532D01*
X31507222Y-150837991D01*
X31423557Y-150681466D01*
X31372037Y-150511627D01*
X31354641Y-150335000D01*
X31372037Y-150158373D01*
X31423557Y-149988534D01*
X31507222Y-149832009D01*
X31536552Y-149796271D01*
X31619814Y-149694814D01*
X31737829Y-149597963D01*
X31757009Y-149582222D01*
X31913534Y-149498557D01*
X32083373Y-149447037D01*
X32149557Y-149440519D01*
X32215740Y-149434000D01*
X32554260Y-149434000D01*
X32620443Y-149440519D01*
G37*
G36*
X42760091Y-150100085D02*
G01*
X42794069Y-150110393D01*
X42825390Y-150127134D01*
X42852839Y-150149661D01*
X42875366Y-150177110D01*
X42892107Y-150208431D01*
X42902415Y-150242409D01*
X42906500Y-150283890D01*
X42906500Y-150960110D01*
X42902415Y-151001591D01*
X42892107Y-151035569D01*
X42875366Y-151066890D01*
X42852839Y-151094339D01*
X42825390Y-151116866D01*
X42794069Y-151133607D01*
X42760091Y-151143915D01*
X42718610Y-151148000D01*
X42117390Y-151148000D01*
X42075909Y-151143915D01*
X42041931Y-151133607D01*
X42010610Y-151116866D01*
X41983161Y-151094339D01*
X41960634Y-151066890D01*
X41943893Y-151035569D01*
X41933585Y-151001591D01*
X41929500Y-150960110D01*
X41929500Y-150283890D01*
X41933585Y-150242409D01*
X41943893Y-150208431D01*
X41960634Y-150177110D01*
X41983161Y-150149661D01*
X42010610Y-150127134D01*
X42041931Y-150110393D01*
X42075909Y-150100085D01*
X42117390Y-150096000D01*
X42718610Y-150096000D01*
X42760091Y-150100085D01*
G37*
G36*
X41185091Y-150100085D02*
G01*
X41219069Y-150110393D01*
X41250390Y-150127134D01*
X41277839Y-150149661D01*
X41300366Y-150177110D01*
X41317107Y-150208431D01*
X41327415Y-150242409D01*
X41331500Y-150283890D01*
X41331500Y-150960110D01*
X41327415Y-151001591D01*
X41317107Y-151035569D01*
X41300366Y-151066890D01*
X41277839Y-151094339D01*
X41250390Y-151116866D01*
X41219069Y-151133607D01*
X41185091Y-151143915D01*
X41143610Y-151148000D01*
X40542390Y-151148000D01*
X40500909Y-151143915D01*
X40466931Y-151133607D01*
X40435610Y-151116866D01*
X40408161Y-151094339D01*
X40385634Y-151066890D01*
X40368893Y-151035569D01*
X40358585Y-151001591D01*
X40354500Y-150960110D01*
X40354500Y-150283890D01*
X40358585Y-150242409D01*
X40368893Y-150208431D01*
X40385634Y-150177110D01*
X40408161Y-150149661D01*
X40435610Y-150127134D01*
X40466931Y-150110393D01*
X40500909Y-150100085D01*
X40542390Y-150096000D01*
X41143610Y-150096000D01*
X41185091Y-150100085D01*
G37*
G36*
X59956000Y-150761000D02*
G01*
X58154000Y-150761000D01*
X58154000Y-148959000D01*
X59956000Y-148959000D01*
X59956000Y-150761000D01*
G37*
G36*
X54152941Y-149338085D02*
G01*
X54186919Y-149348393D01*
X54218240Y-149365134D01*
X54245689Y-149387661D01*
X54268216Y-149415110D01*
X54284957Y-149446431D01*
X54295265Y-149480409D01*
X54299350Y-149521890D01*
X54299350Y-150198110D01*
X54295265Y-150239591D01*
X54284957Y-150273569D01*
X54268216Y-150304890D01*
X54245689Y-150332339D01*
X54218240Y-150354866D01*
X54186919Y-150371607D01*
X54152941Y-150381915D01*
X54111460Y-150386000D01*
X53510240Y-150386000D01*
X53468759Y-150381915D01*
X53434781Y-150371607D01*
X53403460Y-150354866D01*
X53376011Y-150332339D01*
X53353484Y-150304890D01*
X53336743Y-150273569D01*
X53326435Y-150239591D01*
X53322350Y-150198110D01*
X53322350Y-149521890D01*
X53326435Y-149480409D01*
X53336743Y-149446431D01*
X53353484Y-149415110D01*
X53376011Y-149387661D01*
X53403460Y-149365134D01*
X53434781Y-149348393D01*
X53468759Y-149338085D01*
X53510240Y-149334000D01*
X54111460Y-149334000D01*
X54152941Y-149338085D01*
G37*
G36*
X52577941Y-149338085D02*
G01*
X52611919Y-149348393D01*
X52643240Y-149365134D01*
X52670689Y-149387661D01*
X52693216Y-149415110D01*
X52709957Y-149446431D01*
X52720265Y-149480409D01*
X52724350Y-149521890D01*
X52724350Y-150198110D01*
X52720265Y-150239591D01*
X52709957Y-150273569D01*
X52693216Y-150304890D01*
X52670689Y-150332339D01*
X52643240Y-150354866D01*
X52611919Y-150371607D01*
X52577941Y-150381915D01*
X52536460Y-150386000D01*
X51935240Y-150386000D01*
X51893759Y-150381915D01*
X51859781Y-150371607D01*
X51828460Y-150354866D01*
X51801011Y-150332339D01*
X51778484Y-150304890D01*
X51761743Y-150273569D01*
X51751435Y-150239591D01*
X51747350Y-150198110D01*
X51747350Y-149521890D01*
X51751435Y-149480409D01*
X51761743Y-149446431D01*
X51778484Y-149415110D01*
X51801011Y-149387661D01*
X51828460Y-149365134D01*
X51859781Y-149348393D01*
X51893759Y-149338085D01*
X51935240Y-149334000D01*
X52536460Y-149334000D01*
X52577941Y-149338085D01*
G37*
G36*
X51004940Y-149173936D02*
G01*
X51038918Y-149184244D01*
X51070239Y-149200985D01*
X51097688Y-149223512D01*
X51120215Y-149250961D01*
X51136956Y-149282282D01*
X51147264Y-149316260D01*
X51151349Y-149357741D01*
X51151349Y-150033961D01*
X51147264Y-150075442D01*
X51136956Y-150109420D01*
X51120215Y-150140741D01*
X51097688Y-150168190D01*
X51070239Y-150190717D01*
X51038918Y-150207458D01*
X51004940Y-150217766D01*
X50963459Y-150221851D01*
X50362239Y-150221851D01*
X50320758Y-150217766D01*
X50286780Y-150207458D01*
X50255459Y-150190717D01*
X50228010Y-150168190D01*
X50205483Y-150140741D01*
X50188742Y-150109420D01*
X50178434Y-150075442D01*
X50174349Y-150033961D01*
X50174349Y-149357741D01*
X50178434Y-149316260D01*
X50188742Y-149282282D01*
X50205483Y-149250961D01*
X50228010Y-149223512D01*
X50255459Y-149200985D01*
X50286780Y-149184244D01*
X50320758Y-149173936D01*
X50362239Y-149169851D01*
X50963459Y-149169851D01*
X51004940Y-149173936D01*
G37*
G36*
X49429940Y-149173936D02*
G01*
X49463918Y-149184244D01*
X49495239Y-149200985D01*
X49522688Y-149223512D01*
X49545215Y-149250961D01*
X49561956Y-149282282D01*
X49572264Y-149316260D01*
X49576349Y-149357741D01*
X49576349Y-150033961D01*
X49572264Y-150075442D01*
X49561956Y-150109420D01*
X49545215Y-150140741D01*
X49522688Y-150168190D01*
X49495239Y-150190717D01*
X49463918Y-150207458D01*
X49429940Y-150217766D01*
X49388459Y-150221851D01*
X48787239Y-150221851D01*
X48745758Y-150217766D01*
X48711780Y-150207458D01*
X48680459Y-150190717D01*
X48653010Y-150168190D01*
X48630483Y-150140741D01*
X48613742Y-150109420D01*
X48603434Y-150075442D01*
X48599349Y-150033961D01*
X48599349Y-149357741D01*
X48603434Y-149316260D01*
X48613742Y-149282282D01*
X48630483Y-149250961D01*
X48653010Y-149223512D01*
X48680459Y-149200985D01*
X48711780Y-149184244D01*
X48745758Y-149173936D01*
X48787239Y-149169851D01*
X49388459Y-149169851D01*
X49429940Y-149173936D01*
G37*
G36*
X112630443Y-147815519D02*
G01*
X112696627Y-147822037D01*
X112866466Y-147873557D01*
X113022991Y-147957222D01*
X113058729Y-147986552D01*
X113160186Y-148069814D01*
X113243448Y-148171271D01*
X113272778Y-148207009D01*
X113356443Y-148363534D01*
X113407963Y-148533373D01*
X113425359Y-148710000D01*
X113407963Y-148886627D01*
X113356443Y-149056466D01*
X113272778Y-149212991D01*
X113249471Y-149241390D01*
X113160186Y-149350186D01*
X113058729Y-149433448D01*
X113022991Y-149462778D01*
X112866466Y-149546443D01*
X112696627Y-149597963D01*
X112630443Y-149604481D01*
X112564260Y-149611000D01*
X112225740Y-149611000D01*
X112159557Y-149604481D01*
X112093373Y-149597963D01*
X111923534Y-149546443D01*
X111767009Y-149462778D01*
X111731271Y-149433448D01*
X111629814Y-149350186D01*
X111540529Y-149241390D01*
X111517222Y-149212991D01*
X111433557Y-149056466D01*
X111382037Y-148886627D01*
X111364641Y-148710000D01*
X111382037Y-148533373D01*
X111433557Y-148363534D01*
X111517222Y-148207009D01*
X111546552Y-148171271D01*
X111629814Y-148069814D01*
X111731271Y-147986552D01*
X111767009Y-147957222D01*
X111923534Y-147873557D01*
X112093373Y-147822037D01*
X112159557Y-147815519D01*
X112225740Y-147809000D01*
X112564260Y-147809000D01*
X112630443Y-147815519D01*
G37*
G36*
X96786000Y-148856000D02*
G01*
X94984000Y-148856000D01*
X94984000Y-147054000D01*
X96786000Y-147054000D01*
X96786000Y-148856000D01*
G37*
G36*
X32620443Y-146940519D02*
G01*
X32686627Y-146947037D01*
X32856466Y-146998557D01*
X33012991Y-147082222D01*
X33029823Y-147096036D01*
X33150186Y-147194814D01*
X33233448Y-147296271D01*
X33262778Y-147332009D01*
X33346443Y-147488534D01*
X33397963Y-147658373D01*
X33415359Y-147835000D01*
X33397963Y-148011627D01*
X33346443Y-148181466D01*
X33262778Y-148337991D01*
X33241817Y-148363532D01*
X33150186Y-148475186D01*
X33048729Y-148558448D01*
X33012991Y-148587778D01*
X32856466Y-148671443D01*
X32686627Y-148722963D01*
X32620443Y-148729481D01*
X32554260Y-148736000D01*
X32215740Y-148736000D01*
X32149557Y-148729481D01*
X32083373Y-148722963D01*
X31913534Y-148671443D01*
X31757009Y-148587778D01*
X31721271Y-148558448D01*
X31619814Y-148475186D01*
X31528183Y-148363532D01*
X31507222Y-148337991D01*
X31423557Y-148181466D01*
X31372037Y-148011627D01*
X31354641Y-147835000D01*
X31372037Y-147658373D01*
X31423557Y-147488534D01*
X31507222Y-147332009D01*
X31536552Y-147296271D01*
X31619814Y-147194814D01*
X31740177Y-147096036D01*
X31757009Y-147082222D01*
X31913534Y-146998557D01*
X32083373Y-146947037D01*
X32149557Y-146940519D01*
X32215740Y-146934000D01*
X32554260Y-146934000D01*
X32620443Y-146940519D01*
G37*
G36*
X45758144Y-147073669D02*
G01*
X45765158Y-147075797D01*
X45778926Y-147083156D01*
X45801565Y-147092533D01*
X45825598Y-147097313D01*
X45850102Y-147097313D01*
X45874135Y-147092532D01*
X45896772Y-147083156D01*
X45910540Y-147075797D01*
X45917554Y-147073669D01*
X45930989Y-147072346D01*
X46244709Y-147072346D01*
X46258144Y-147073669D01*
X46265158Y-147075797D01*
X46278926Y-147083156D01*
X46301565Y-147092533D01*
X46325598Y-147097313D01*
X46350102Y-147097313D01*
X46374135Y-147092532D01*
X46396772Y-147083156D01*
X46410540Y-147075797D01*
X46417554Y-147073669D01*
X46430989Y-147072346D01*
X46744709Y-147072346D01*
X46758144Y-147073669D01*
X46765158Y-147075797D01*
X46778926Y-147083156D01*
X46801565Y-147092533D01*
X46825598Y-147097313D01*
X46850102Y-147097313D01*
X46874135Y-147092532D01*
X46896772Y-147083156D01*
X46910540Y-147075797D01*
X46917554Y-147073669D01*
X46930989Y-147072346D01*
X47244709Y-147072346D01*
X47258144Y-147073669D01*
X47265158Y-147075797D01*
X47278926Y-147083156D01*
X47301565Y-147092533D01*
X47325598Y-147097313D01*
X47350102Y-147097313D01*
X47374135Y-147092532D01*
X47396772Y-147083156D01*
X47410540Y-147075797D01*
X47417554Y-147073669D01*
X47430989Y-147072346D01*
X47744709Y-147072346D01*
X47758144Y-147073669D01*
X47765158Y-147075797D01*
X47778926Y-147083156D01*
X47801565Y-147092533D01*
X47825598Y-147097313D01*
X47850102Y-147097313D01*
X47874135Y-147092532D01*
X47896772Y-147083156D01*
X47910540Y-147075797D01*
X47917554Y-147073669D01*
X47930989Y-147072346D01*
X48244709Y-147072346D01*
X48258144Y-147073669D01*
X48265158Y-147075797D01*
X48278926Y-147083156D01*
X48301565Y-147092533D01*
X48325598Y-147097313D01*
X48350102Y-147097313D01*
X48374135Y-147092532D01*
X48396772Y-147083156D01*
X48410540Y-147075797D01*
X48417554Y-147073669D01*
X48430989Y-147072346D01*
X48744709Y-147072346D01*
X48758144Y-147073669D01*
X48765158Y-147075797D01*
X48778926Y-147083156D01*
X48801565Y-147092533D01*
X48825598Y-147097313D01*
X48850102Y-147097313D01*
X48874135Y-147092532D01*
X48896772Y-147083156D01*
X48910540Y-147075797D01*
X48917554Y-147073669D01*
X48930989Y-147072346D01*
X49244709Y-147072346D01*
X49258144Y-147073669D01*
X49265158Y-147075797D01*
X49278926Y-147083156D01*
X49301565Y-147092533D01*
X49325598Y-147097313D01*
X49350102Y-147097313D01*
X49374135Y-147092532D01*
X49396772Y-147083156D01*
X49410540Y-147075797D01*
X49417554Y-147073669D01*
X49430989Y-147072346D01*
X49744709Y-147072346D01*
X49758144Y-147073669D01*
X49765158Y-147075797D01*
X49778926Y-147083156D01*
X49801565Y-147092533D01*
X49825598Y-147097313D01*
X49850102Y-147097313D01*
X49874135Y-147092532D01*
X49896772Y-147083156D01*
X49910540Y-147075797D01*
X49917554Y-147073669D01*
X49930989Y-147072346D01*
X50244709Y-147072346D01*
X50258144Y-147073669D01*
X50265158Y-147075797D01*
X50278926Y-147083156D01*
X50301565Y-147092533D01*
X50325598Y-147097313D01*
X50350102Y-147097313D01*
X50374135Y-147092532D01*
X50396772Y-147083156D01*
X50410540Y-147075797D01*
X50417554Y-147073669D01*
X50430989Y-147072346D01*
X50744709Y-147072346D01*
X50758144Y-147073669D01*
X50765158Y-147075797D01*
X50778926Y-147083156D01*
X50801565Y-147092533D01*
X50825598Y-147097313D01*
X50850102Y-147097313D01*
X50874135Y-147092532D01*
X50896772Y-147083156D01*
X50910540Y-147075797D01*
X50917554Y-147073669D01*
X50930989Y-147072346D01*
X51244709Y-147072346D01*
X51258144Y-147073669D01*
X51265159Y-147075797D01*
X51271625Y-147079254D01*
X51277291Y-147083904D01*
X51281941Y-147089570D01*
X51285398Y-147096036D01*
X51287526Y-147103051D01*
X51288849Y-147116486D01*
X51288849Y-148605206D01*
X51287526Y-148618641D01*
X51285398Y-148625656D01*
X51281941Y-148632122D01*
X51277291Y-148637788D01*
X51271625Y-148642438D01*
X51265159Y-148645895D01*
X51258144Y-148648023D01*
X51244709Y-148649346D01*
X50930989Y-148649346D01*
X50917554Y-148648023D01*
X50910540Y-148645895D01*
X50896772Y-148638536D01*
X50874133Y-148629159D01*
X50850100Y-148624379D01*
X50825596Y-148624379D01*
X50801563Y-148629160D01*
X50778926Y-148638536D01*
X50765158Y-148645895D01*
X50758144Y-148648023D01*
X50744709Y-148649346D01*
X50430989Y-148649346D01*
X50417554Y-148648023D01*
X50410540Y-148645895D01*
X50396772Y-148638536D01*
X50374133Y-148629159D01*
X50350100Y-148624379D01*
X50325596Y-148624379D01*
X50301563Y-148629160D01*
X50278926Y-148638536D01*
X50265158Y-148645895D01*
X50258144Y-148648023D01*
X50244709Y-148649346D01*
X49930989Y-148649346D01*
X49917554Y-148648023D01*
X49910540Y-148645895D01*
X49896772Y-148638536D01*
X49874133Y-148629159D01*
X49850100Y-148624379D01*
X49825596Y-148624379D01*
X49801563Y-148629160D01*
X49778926Y-148638536D01*
X49765158Y-148645895D01*
X49758144Y-148648023D01*
X49744709Y-148649346D01*
X49430989Y-148649346D01*
X49417554Y-148648023D01*
X49410540Y-148645895D01*
X49396772Y-148638536D01*
X49374133Y-148629159D01*
X49350100Y-148624379D01*
X49325596Y-148624379D01*
X49301563Y-148629160D01*
X49278926Y-148638536D01*
X49265158Y-148645895D01*
X49258144Y-148648023D01*
X49244709Y-148649346D01*
X48930989Y-148649346D01*
X48917554Y-148648023D01*
X48910540Y-148645895D01*
X48896772Y-148638536D01*
X48874133Y-148629159D01*
X48850100Y-148624379D01*
X48825596Y-148624379D01*
X48801563Y-148629160D01*
X48778926Y-148638536D01*
X48765158Y-148645895D01*
X48758144Y-148648023D01*
X48744709Y-148649346D01*
X48430989Y-148649346D01*
X48417554Y-148648023D01*
X48410540Y-148645895D01*
X48396772Y-148638536D01*
X48374133Y-148629159D01*
X48350100Y-148624379D01*
X48325596Y-148624379D01*
X48301563Y-148629160D01*
X48278926Y-148638536D01*
X48265158Y-148645895D01*
X48258144Y-148648023D01*
X48244709Y-148649346D01*
X47930989Y-148649346D01*
X47917554Y-148648023D01*
X47910540Y-148645895D01*
X47896772Y-148638536D01*
X47874133Y-148629159D01*
X47850100Y-148624379D01*
X47825596Y-148624379D01*
X47801563Y-148629160D01*
X47778926Y-148638536D01*
X47765158Y-148645895D01*
X47758144Y-148648023D01*
X47744709Y-148649346D01*
X47430989Y-148649346D01*
X47417554Y-148648023D01*
X47410540Y-148645895D01*
X47396772Y-148638536D01*
X47374133Y-148629159D01*
X47350100Y-148624379D01*
X47325596Y-148624379D01*
X47301563Y-148629160D01*
X47278926Y-148638536D01*
X47265158Y-148645895D01*
X47258144Y-148648023D01*
X47244709Y-148649346D01*
X46930989Y-148649346D01*
X46917554Y-148648023D01*
X46910540Y-148645895D01*
X46896772Y-148638536D01*
X46874133Y-148629159D01*
X46850100Y-148624379D01*
X46825596Y-148624379D01*
X46801563Y-148629160D01*
X46778926Y-148638536D01*
X46765158Y-148645895D01*
X46758144Y-148648023D01*
X46744709Y-148649346D01*
X46430989Y-148649346D01*
X46417554Y-148648023D01*
X46410540Y-148645895D01*
X46396772Y-148638536D01*
X46374133Y-148629159D01*
X46350100Y-148624379D01*
X46325596Y-148624379D01*
X46301563Y-148629160D01*
X46278926Y-148638536D01*
X46265158Y-148645895D01*
X46258144Y-148648023D01*
X46244709Y-148649346D01*
X45930989Y-148649346D01*
X45917554Y-148648023D01*
X45910540Y-148645895D01*
X45896772Y-148638536D01*
X45874133Y-148629159D01*
X45850100Y-148624379D01*
X45825596Y-148624379D01*
X45801563Y-148629160D01*
X45778926Y-148638536D01*
X45765158Y-148645895D01*
X45758144Y-148648023D01*
X45744709Y-148649346D01*
X45430989Y-148649346D01*
X45417554Y-148648023D01*
X45410539Y-148645895D01*
X45404073Y-148642438D01*
X45398407Y-148637788D01*
X45393757Y-148632122D01*
X45390300Y-148625656D01*
X45388172Y-148618641D01*
X45386849Y-148605206D01*
X45386849Y-147116486D01*
X45388172Y-147103051D01*
X45390300Y-147096036D01*
X45393757Y-147089570D01*
X45398407Y-147083904D01*
X45404073Y-147079254D01*
X45410539Y-147075797D01*
X45417554Y-147073669D01*
X45430989Y-147072346D01*
X45744709Y-147072346D01*
X45758144Y-147073669D01*
G37*
G36*
X85869146Y-148445038D02*
G01*
X84767146Y-148445038D01*
X84767146Y-147343038D01*
X85869146Y-147343038D01*
X85869146Y-148445038D01*
G37*
G36*
X55460438Y-146849430D02*
G01*
X55494416Y-146859738D01*
X55525737Y-146876479D01*
X55553186Y-146899006D01*
X55575713Y-146926455D01*
X55592454Y-146957776D01*
X55602762Y-146991754D01*
X55606847Y-147033235D01*
X55606847Y-147634455D01*
X55602762Y-147675936D01*
X55592454Y-147709914D01*
X55575713Y-147741235D01*
X55553186Y-147768684D01*
X55525737Y-147791211D01*
X55494416Y-147807952D01*
X55460438Y-147818260D01*
X55418957Y-147822345D01*
X54742737Y-147822345D01*
X54701256Y-147818260D01*
X54667278Y-147807952D01*
X54635957Y-147791211D01*
X54608508Y-147768684D01*
X54585981Y-147741235D01*
X54569240Y-147709914D01*
X54558932Y-147675936D01*
X54554847Y-147634455D01*
X54554847Y-147033235D01*
X54558932Y-146991754D01*
X54569240Y-146957776D01*
X54585981Y-146926455D01*
X54608508Y-146899006D01*
X54635957Y-146876479D01*
X54667278Y-146859738D01*
X54701256Y-146849430D01*
X54742737Y-146845345D01*
X55418957Y-146845345D01*
X55460438Y-146849430D01*
G37*
G36*
X60306850Y-146859848D02*
G01*
X56204850Y-146859848D01*
X56204850Y-144657848D01*
X60306850Y-144657848D01*
X60306850Y-146859848D01*
G37*
G36*
X53258144Y-140748669D02*
G01*
X53265159Y-140750797D01*
X53271625Y-140754254D01*
X53277291Y-140758904D01*
X53281941Y-140764570D01*
X53285398Y-140771036D01*
X53287526Y-140778051D01*
X53288849Y-140791486D01*
X53288849Y-141105206D01*
X53287526Y-141118641D01*
X53285398Y-141125655D01*
X53278039Y-141139423D01*
X53268662Y-141162062D01*
X53263882Y-141186095D01*
X53263882Y-141210599D01*
X53268663Y-141234632D01*
X53278039Y-141257269D01*
X53285398Y-141271037D01*
X53287526Y-141278051D01*
X53288849Y-141291486D01*
X53288849Y-141605206D01*
X53287526Y-141618641D01*
X53285398Y-141625655D01*
X53278039Y-141639423D01*
X53268662Y-141662062D01*
X53263882Y-141686095D01*
X53263882Y-141710599D01*
X53268663Y-141734632D01*
X53278039Y-141757269D01*
X53285398Y-141771037D01*
X53287526Y-141778051D01*
X53288849Y-141791486D01*
X53288849Y-142105206D01*
X53287526Y-142118641D01*
X53285398Y-142125655D01*
X53278039Y-142139423D01*
X53268662Y-142162062D01*
X53263882Y-142186095D01*
X53263882Y-142210599D01*
X53268663Y-142234632D01*
X53278039Y-142257269D01*
X53285398Y-142271037D01*
X53287526Y-142278051D01*
X53288849Y-142291486D01*
X53288849Y-142605206D01*
X53287526Y-142618641D01*
X53285398Y-142625655D01*
X53278039Y-142639423D01*
X53268662Y-142662062D01*
X53263882Y-142686095D01*
X53263882Y-142710599D01*
X53268663Y-142734632D01*
X53278039Y-142757269D01*
X53285398Y-142771037D01*
X53287526Y-142778051D01*
X53288849Y-142791486D01*
X53288849Y-143105206D01*
X53287526Y-143118641D01*
X53285398Y-143125655D01*
X53278039Y-143139423D01*
X53268662Y-143162062D01*
X53263882Y-143186095D01*
X53263882Y-143210599D01*
X53268663Y-143234632D01*
X53278039Y-143257269D01*
X53285398Y-143271037D01*
X53287526Y-143278051D01*
X53288849Y-143291486D01*
X53288849Y-143605206D01*
X53287526Y-143618641D01*
X53285398Y-143625655D01*
X53278039Y-143639423D01*
X53268662Y-143662062D01*
X53263882Y-143686095D01*
X53263882Y-143710599D01*
X53268663Y-143734632D01*
X53278039Y-143757269D01*
X53285398Y-143771037D01*
X53287526Y-143778051D01*
X53288849Y-143791486D01*
X53288849Y-144105206D01*
X53287526Y-144118641D01*
X53285398Y-144125655D01*
X53278039Y-144139423D01*
X53268662Y-144162062D01*
X53263882Y-144186095D01*
X53263882Y-144210599D01*
X53268663Y-144234632D01*
X53278039Y-144257269D01*
X53285398Y-144271037D01*
X53287526Y-144278051D01*
X53288849Y-144291486D01*
X53288849Y-144605206D01*
X53287526Y-144618641D01*
X53285398Y-144625655D01*
X53278039Y-144639423D01*
X53268662Y-144662062D01*
X53263882Y-144686095D01*
X53263882Y-144710599D01*
X53268663Y-144734632D01*
X53278039Y-144757269D01*
X53285398Y-144771037D01*
X53287526Y-144778051D01*
X53288849Y-144791486D01*
X53288849Y-145105206D01*
X53287526Y-145118641D01*
X53285398Y-145125655D01*
X53278039Y-145139423D01*
X53268662Y-145162062D01*
X53263882Y-145186095D01*
X53263882Y-145210599D01*
X53268663Y-145234632D01*
X53278039Y-145257269D01*
X53285398Y-145271037D01*
X53287526Y-145278051D01*
X53288849Y-145291486D01*
X53288849Y-145605206D01*
X53287526Y-145618641D01*
X53285398Y-145625655D01*
X53278039Y-145639423D01*
X53268662Y-145662062D01*
X53263882Y-145686095D01*
X53263882Y-145710599D01*
X53268663Y-145734632D01*
X53278039Y-145757269D01*
X53285398Y-145771037D01*
X53287526Y-145778051D01*
X53288849Y-145791486D01*
X53288849Y-146105206D01*
X53287526Y-146118641D01*
X53285398Y-146125655D01*
X53278039Y-146139423D01*
X53268662Y-146162062D01*
X53263882Y-146186095D01*
X53263882Y-146210599D01*
X53268663Y-146234632D01*
X53278039Y-146257269D01*
X53285398Y-146271037D01*
X53287526Y-146278051D01*
X53288849Y-146291486D01*
X53288849Y-146605206D01*
X53287526Y-146618641D01*
X53285398Y-146625656D01*
X53281941Y-146632122D01*
X53277291Y-146637788D01*
X53271625Y-146642438D01*
X53265159Y-146645895D01*
X53258144Y-146648023D01*
X53244709Y-146649346D01*
X51755989Y-146649346D01*
X51742554Y-146648023D01*
X51735539Y-146645895D01*
X51729073Y-146642438D01*
X51723407Y-146637788D01*
X51718757Y-146632122D01*
X51715300Y-146625656D01*
X51713172Y-146618641D01*
X51711849Y-146605206D01*
X51711849Y-146291486D01*
X51713172Y-146278051D01*
X51715300Y-146271037D01*
X51722659Y-146257269D01*
X51732036Y-146234630D01*
X51736816Y-146210597D01*
X51736816Y-146186093D01*
X51732035Y-146162060D01*
X51722659Y-146139423D01*
X51715300Y-146125655D01*
X51713172Y-146118641D01*
X51711849Y-146105206D01*
X51711849Y-145791486D01*
X51713172Y-145778051D01*
X51715300Y-145771037D01*
X51722659Y-145757269D01*
X51732036Y-145734630D01*
X51736816Y-145710597D01*
X51736816Y-145686093D01*
X51732035Y-145662060D01*
X51722659Y-145639423D01*
X51715300Y-145625655D01*
X51713172Y-145618641D01*
X51711849Y-145605206D01*
X51711849Y-145291486D01*
X51713172Y-145278051D01*
X51715300Y-145271037D01*
X51722659Y-145257269D01*
X51732036Y-145234630D01*
X51736816Y-145210597D01*
X51736816Y-145186093D01*
X51732035Y-145162060D01*
X51722659Y-145139423D01*
X51715300Y-145125655D01*
X51713172Y-145118641D01*
X51711849Y-145105206D01*
X51711849Y-144791486D01*
X51713172Y-144778051D01*
X51715300Y-144771037D01*
X51722659Y-144757269D01*
X51732036Y-144734630D01*
X51736816Y-144710597D01*
X51736816Y-144686093D01*
X51732035Y-144662060D01*
X51722659Y-144639423D01*
X51715300Y-144625655D01*
X51713172Y-144618641D01*
X51711849Y-144605206D01*
X51711849Y-144291486D01*
X51713172Y-144278051D01*
X51715300Y-144271037D01*
X51722659Y-144257269D01*
X51732036Y-144234630D01*
X51736816Y-144210597D01*
X51736816Y-144186093D01*
X51732035Y-144162060D01*
X51722659Y-144139423D01*
X51715300Y-144125655D01*
X51713172Y-144118641D01*
X51711849Y-144105206D01*
X51711849Y-143791486D01*
X51713172Y-143778051D01*
X51715300Y-143771037D01*
X51722659Y-143757269D01*
X51732036Y-143734630D01*
X51736816Y-143710597D01*
X51736816Y-143686093D01*
X51732035Y-143662060D01*
X51722659Y-143639423D01*
X51715300Y-143625655D01*
X51713172Y-143618641D01*
X51711849Y-143605206D01*
X51711849Y-143291486D01*
X51713172Y-143278051D01*
X51715300Y-143271037D01*
X51722659Y-143257269D01*
X51732036Y-143234630D01*
X51736816Y-143210597D01*
X51736816Y-143186093D01*
X51732035Y-143162060D01*
X51722659Y-143139423D01*
X51715300Y-143125655D01*
X51713172Y-143118641D01*
X51711849Y-143105206D01*
X51711849Y-142791486D01*
X51713172Y-142778051D01*
X51715300Y-142771037D01*
X51722659Y-142757269D01*
X51732036Y-142734630D01*
X51736816Y-142710597D01*
X51736816Y-142686093D01*
X51732035Y-142662060D01*
X51722659Y-142639423D01*
X51715300Y-142625655D01*
X51713172Y-142618641D01*
X51711849Y-142605206D01*
X51711849Y-142291486D01*
X51713172Y-142278051D01*
X51715300Y-142271037D01*
X51722659Y-142257269D01*
X51732036Y-142234630D01*
X51736816Y-142210597D01*
X51736816Y-142186093D01*
X51732035Y-142162060D01*
X51722659Y-142139423D01*
X51715300Y-142125655D01*
X51713172Y-142118641D01*
X51711849Y-142105206D01*
X51711849Y-141791486D01*
X51713172Y-141778051D01*
X51715300Y-141771037D01*
X51722659Y-141757269D01*
X51732036Y-141734630D01*
X51736816Y-141710597D01*
X51736816Y-141686093D01*
X51732035Y-141662060D01*
X51722659Y-141639423D01*
X51715300Y-141625655D01*
X51713172Y-141618641D01*
X51711849Y-141605206D01*
X51711849Y-141291486D01*
X51713172Y-141278051D01*
X51715300Y-141271037D01*
X51722659Y-141257269D01*
X51732036Y-141234630D01*
X51736816Y-141210597D01*
X51736816Y-141186093D01*
X51732035Y-141162060D01*
X51722659Y-141139423D01*
X51715300Y-141125655D01*
X51713172Y-141118641D01*
X51711849Y-141105206D01*
X51711849Y-140791486D01*
X51713172Y-140778051D01*
X51715300Y-140771036D01*
X51718757Y-140764570D01*
X51723407Y-140758904D01*
X51729073Y-140754254D01*
X51735539Y-140750797D01*
X51742554Y-140748669D01*
X51755989Y-140747346D01*
X53244709Y-140747346D01*
X53258144Y-140748669D01*
G37*
G36*
X44933144Y-140748669D02*
G01*
X44940159Y-140750797D01*
X44946625Y-140754254D01*
X44952291Y-140758904D01*
X44956941Y-140764570D01*
X44960398Y-140771036D01*
X44962526Y-140778051D01*
X44963849Y-140791486D01*
X44963849Y-141105206D01*
X44962526Y-141118641D01*
X44960398Y-141125655D01*
X44953039Y-141139423D01*
X44943662Y-141162062D01*
X44938882Y-141186095D01*
X44938882Y-141210599D01*
X44943663Y-141234632D01*
X44953039Y-141257269D01*
X44960398Y-141271037D01*
X44962526Y-141278051D01*
X44963849Y-141291486D01*
X44963849Y-141605206D01*
X44962526Y-141618641D01*
X44960398Y-141625655D01*
X44953039Y-141639423D01*
X44943662Y-141662062D01*
X44938882Y-141686095D01*
X44938882Y-141710599D01*
X44943663Y-141734632D01*
X44953039Y-141757269D01*
X44960398Y-141771037D01*
X44962526Y-141778051D01*
X44963849Y-141791486D01*
X44963849Y-142105206D01*
X44962526Y-142118641D01*
X44960398Y-142125655D01*
X44953039Y-142139423D01*
X44943662Y-142162062D01*
X44938882Y-142186095D01*
X44938882Y-142210599D01*
X44943663Y-142234632D01*
X44953039Y-142257269D01*
X44960398Y-142271037D01*
X44962526Y-142278051D01*
X44963849Y-142291486D01*
X44963849Y-142605206D01*
X44962526Y-142618641D01*
X44960398Y-142625655D01*
X44953039Y-142639423D01*
X44943662Y-142662062D01*
X44938882Y-142686095D01*
X44938882Y-142710599D01*
X44943663Y-142734632D01*
X44953039Y-142757269D01*
X44960398Y-142771037D01*
X44962526Y-142778051D01*
X44963849Y-142791486D01*
X44963849Y-143105206D01*
X44962526Y-143118641D01*
X44960398Y-143125655D01*
X44953039Y-143139423D01*
X44943662Y-143162062D01*
X44938882Y-143186095D01*
X44938882Y-143210599D01*
X44943663Y-143234632D01*
X44953039Y-143257269D01*
X44960398Y-143271037D01*
X44962526Y-143278051D01*
X44963849Y-143291486D01*
X44963849Y-143605206D01*
X44962526Y-143618641D01*
X44960398Y-143625655D01*
X44953039Y-143639423D01*
X44943662Y-143662062D01*
X44938882Y-143686095D01*
X44938882Y-143710599D01*
X44943663Y-143734632D01*
X44953039Y-143757269D01*
X44960398Y-143771037D01*
X44962526Y-143778051D01*
X44963849Y-143791486D01*
X44963849Y-144105206D01*
X44962526Y-144118641D01*
X44960398Y-144125655D01*
X44953039Y-144139423D01*
X44943662Y-144162062D01*
X44938882Y-144186095D01*
X44938882Y-144210599D01*
X44943663Y-144234632D01*
X44953039Y-144257269D01*
X44960398Y-144271037D01*
X44962526Y-144278051D01*
X44963849Y-144291486D01*
X44963849Y-144605206D01*
X44962526Y-144618641D01*
X44960398Y-144625655D01*
X44953039Y-144639423D01*
X44943662Y-144662062D01*
X44938882Y-144686095D01*
X44938882Y-144710599D01*
X44943663Y-144734632D01*
X44953039Y-144757269D01*
X44960398Y-144771037D01*
X44962526Y-144778051D01*
X44963849Y-144791486D01*
X44963849Y-145105206D01*
X44962526Y-145118641D01*
X44960398Y-145125655D01*
X44953039Y-145139423D01*
X44943662Y-145162062D01*
X44938882Y-145186095D01*
X44938882Y-145210599D01*
X44943663Y-145234632D01*
X44953039Y-145257269D01*
X44960398Y-145271037D01*
X44962526Y-145278051D01*
X44963849Y-145291486D01*
X44963849Y-145605206D01*
X44962526Y-145618641D01*
X44960398Y-145625655D01*
X44953039Y-145639423D01*
X44943662Y-145662062D01*
X44938882Y-145686095D01*
X44938882Y-145710599D01*
X44943663Y-145734632D01*
X44953039Y-145757269D01*
X44960398Y-145771037D01*
X44962526Y-145778051D01*
X44963849Y-145791486D01*
X44963849Y-146105206D01*
X44962526Y-146118641D01*
X44960398Y-146125655D01*
X44953039Y-146139423D01*
X44943662Y-146162062D01*
X44938882Y-146186095D01*
X44938882Y-146210599D01*
X44943663Y-146234632D01*
X44953039Y-146257269D01*
X44960398Y-146271037D01*
X44962526Y-146278051D01*
X44963849Y-146291486D01*
X44963849Y-146605206D01*
X44962526Y-146618641D01*
X44960398Y-146625656D01*
X44956941Y-146632122D01*
X44952291Y-146637788D01*
X44946625Y-146642438D01*
X44940159Y-146645895D01*
X44933144Y-146648023D01*
X44919709Y-146649346D01*
X43430989Y-146649346D01*
X43417554Y-146648023D01*
X43410539Y-146645895D01*
X43404073Y-146642438D01*
X43398407Y-146637788D01*
X43393757Y-146632122D01*
X43390300Y-146625656D01*
X43388172Y-146618641D01*
X43386849Y-146605206D01*
X43386849Y-146291486D01*
X43388172Y-146278051D01*
X43390300Y-146271037D01*
X43397659Y-146257269D01*
X43407036Y-146234630D01*
X43411816Y-146210597D01*
X43411816Y-146186093D01*
X43407035Y-146162060D01*
X43397659Y-146139423D01*
X43390300Y-146125655D01*
X43388172Y-146118641D01*
X43386849Y-146105206D01*
X43386849Y-145791486D01*
X43388172Y-145778051D01*
X43390300Y-145771037D01*
X43397659Y-145757269D01*
X43407036Y-145734630D01*
X43411816Y-145710597D01*
X43411816Y-145686093D01*
X43407035Y-145662060D01*
X43397659Y-145639423D01*
X43390300Y-145625655D01*
X43388172Y-145618641D01*
X43386849Y-145605206D01*
X43386849Y-145291486D01*
X43388172Y-145278051D01*
X43390300Y-145271037D01*
X43397659Y-145257269D01*
X43407036Y-145234630D01*
X43411816Y-145210597D01*
X43411816Y-145186093D01*
X43407035Y-145162060D01*
X43397659Y-145139423D01*
X43390300Y-145125655D01*
X43388172Y-145118641D01*
X43386849Y-145105206D01*
X43386849Y-144791486D01*
X43388172Y-144778051D01*
X43390300Y-144771037D01*
X43397659Y-144757269D01*
X43407036Y-144734630D01*
X43411816Y-144710597D01*
X43411816Y-144686093D01*
X43407035Y-144662060D01*
X43397659Y-144639423D01*
X43390300Y-144625655D01*
X43388172Y-144618641D01*
X43386849Y-144605206D01*
X43386849Y-144291486D01*
X43388172Y-144278051D01*
X43390300Y-144271037D01*
X43397659Y-144257269D01*
X43407036Y-144234630D01*
X43411816Y-144210597D01*
X43411816Y-144186093D01*
X43407035Y-144162060D01*
X43397659Y-144139423D01*
X43390300Y-144125655D01*
X43388172Y-144118641D01*
X43386849Y-144105206D01*
X43386849Y-143791486D01*
X43388172Y-143778051D01*
X43390300Y-143771037D01*
X43397659Y-143757269D01*
X43407036Y-143734630D01*
X43411816Y-143710597D01*
X43411816Y-143686093D01*
X43407035Y-143662060D01*
X43397659Y-143639423D01*
X43390300Y-143625655D01*
X43388172Y-143618641D01*
X43386849Y-143605206D01*
X43386849Y-143291486D01*
X43388172Y-143278051D01*
X43390300Y-143271037D01*
X43397659Y-143257269D01*
X43407036Y-143234630D01*
X43411816Y-143210597D01*
X43411816Y-143186093D01*
X43407035Y-143162060D01*
X43397659Y-143139423D01*
X43390300Y-143125655D01*
X43388172Y-143118641D01*
X43386849Y-143105206D01*
X43386849Y-142791486D01*
X43388172Y-142778051D01*
X43390300Y-142771037D01*
X43397659Y-142757269D01*
X43407036Y-142734630D01*
X43411816Y-142710597D01*
X43411816Y-142686093D01*
X43407035Y-142662060D01*
X43397659Y-142639423D01*
X43390300Y-142625655D01*
X43388172Y-142618641D01*
X43386849Y-142605206D01*
X43386849Y-142291486D01*
X43388172Y-142278051D01*
X43390300Y-142271037D01*
X43397659Y-142257269D01*
X43407036Y-142234630D01*
X43411816Y-142210597D01*
X43411816Y-142186093D01*
X43407035Y-142162060D01*
X43397659Y-142139423D01*
X43390300Y-142125655D01*
X43388172Y-142118641D01*
X43386849Y-142105206D01*
X43386849Y-141791486D01*
X43388172Y-141778051D01*
X43390300Y-141771037D01*
X43397659Y-141757269D01*
X43407036Y-141734630D01*
X43411816Y-141710597D01*
X43411816Y-141686093D01*
X43407035Y-141662060D01*
X43397659Y-141639423D01*
X43390300Y-141625655D01*
X43388172Y-141618641D01*
X43386849Y-141605206D01*
X43386849Y-141291486D01*
X43388172Y-141278051D01*
X43390300Y-141271037D01*
X43397659Y-141257269D01*
X43407036Y-141234630D01*
X43411816Y-141210597D01*
X43411816Y-141186093D01*
X43407035Y-141162060D01*
X43397659Y-141139423D01*
X43390300Y-141125655D01*
X43388172Y-141118641D01*
X43386849Y-141105206D01*
X43386849Y-140791486D01*
X43388172Y-140778051D01*
X43390300Y-140771036D01*
X43393757Y-140764570D01*
X43398407Y-140758904D01*
X43404073Y-140754254D01*
X43410539Y-140750797D01*
X43417554Y-140748669D01*
X43430989Y-140747346D01*
X44919709Y-140747346D01*
X44933144Y-140748669D01*
G37*
G36*
X85869146Y-146445038D02*
G01*
X84767146Y-146445038D01*
X84767146Y-145343038D01*
X85869146Y-145343038D01*
X85869146Y-146445038D01*
G37*
G36*
X55460438Y-145274430D02*
G01*
X55494416Y-145284738D01*
X55525737Y-145301479D01*
X55553186Y-145324006D01*
X55575713Y-145351455D01*
X55592454Y-145382776D01*
X55602762Y-145416754D01*
X55606847Y-145458235D01*
X55606847Y-146059455D01*
X55602762Y-146100936D01*
X55592454Y-146134914D01*
X55575713Y-146166235D01*
X55553186Y-146193684D01*
X55525737Y-146216211D01*
X55494416Y-146232952D01*
X55460438Y-146243260D01*
X55418957Y-146247345D01*
X54742737Y-146247345D01*
X54701256Y-146243260D01*
X54667278Y-146232952D01*
X54635957Y-146216211D01*
X54608508Y-146193684D01*
X54585981Y-146166235D01*
X54569240Y-146134914D01*
X54558932Y-146100936D01*
X54554847Y-146059455D01*
X54554847Y-145458235D01*
X54558932Y-145416754D01*
X54569240Y-145382776D01*
X54585981Y-145351455D01*
X54608508Y-145324006D01*
X54635957Y-145301479D01*
X54667278Y-145284738D01*
X54701256Y-145274430D01*
X54742737Y-145270345D01*
X55418957Y-145270345D01*
X55460438Y-145274430D01*
G37*
G36*
X32620443Y-144440519D02*
G01*
X32686627Y-144447037D01*
X32856466Y-144498557D01*
X33012991Y-144582222D01*
X33040357Y-144604681D01*
X33150186Y-144694814D01*
X33217454Y-144776782D01*
X33262778Y-144832009D01*
X33346443Y-144988534D01*
X33397963Y-145158373D01*
X33415359Y-145335000D01*
X33397963Y-145511627D01*
X33346443Y-145681466D01*
X33262778Y-145837991D01*
X33254690Y-145847846D01*
X33150186Y-145975186D01*
X33048729Y-146058448D01*
X33012991Y-146087778D01*
X33012989Y-146087779D01*
X32866210Y-146166235D01*
X32856466Y-146171443D01*
X32686627Y-146222963D01*
X32627839Y-146228753D01*
X32554260Y-146236000D01*
X32215740Y-146236000D01*
X32142161Y-146228753D01*
X32083373Y-146222963D01*
X31913534Y-146171443D01*
X31903791Y-146166235D01*
X31757011Y-146087779D01*
X31757009Y-146087778D01*
X31721271Y-146058448D01*
X31619814Y-145975186D01*
X31515310Y-145847846D01*
X31507222Y-145837991D01*
X31423557Y-145681466D01*
X31372037Y-145511627D01*
X31354641Y-145335000D01*
X31372037Y-145158373D01*
X31423557Y-144988534D01*
X31507222Y-144832009D01*
X31552546Y-144776782D01*
X31619814Y-144694814D01*
X31729643Y-144604681D01*
X31757009Y-144582222D01*
X31913534Y-144498557D01*
X32083373Y-144447037D01*
X32149557Y-144440519D01*
X32215740Y-144434000D01*
X32554260Y-144434000D01*
X32620443Y-144440519D01*
G37*
G36*
X117603000Y-146222000D02*
G01*
X115801000Y-146222000D01*
X115801000Y-144120000D01*
X117603000Y-144120000D01*
X117603000Y-146222000D01*
G37*
G36*
X112153000Y-146222000D02*
G01*
X110351000Y-146222000D01*
X110351000Y-144120000D01*
X112153000Y-144120000D01*
X112153000Y-146222000D01*
G37*
G36*
X107003368Y-144811000D02*
G01*
X105501368Y-144811000D01*
X105501368Y-143709000D01*
X107003368Y-143709000D01*
X107003368Y-144811000D01*
G37*
G36*
X109203368Y-144731000D02*
G01*
X107701368Y-144731000D01*
X107701368Y-143429000D01*
X109203368Y-143429000D01*
X109203368Y-144731000D01*
G37*
G36*
X85869146Y-144445038D02*
G01*
X84767146Y-144445038D01*
X84767146Y-143343038D01*
X85869146Y-143343038D01*
X85869146Y-144445038D01*
G37*
G36*
X32620442Y-141940518D02*
G01*
X32686627Y-141947037D01*
X32856466Y-141998557D01*
X33012991Y-142082222D01*
X33040357Y-142104681D01*
X33150186Y-142194814D01*
X33217454Y-142276782D01*
X33262778Y-142332009D01*
X33346443Y-142488534D01*
X33397963Y-142658373D01*
X33415359Y-142835000D01*
X33397963Y-143011627D01*
X33346443Y-143181466D01*
X33262778Y-143337991D01*
X33254690Y-143347846D01*
X33150186Y-143475186D01*
X33048729Y-143558448D01*
X33012991Y-143587778D01*
X33012989Y-143587779D01*
X32874017Y-143662062D01*
X32856466Y-143671443D01*
X32686627Y-143722963D01*
X32620443Y-143729481D01*
X32554260Y-143736000D01*
X32215740Y-143736000D01*
X32149557Y-143729481D01*
X32083373Y-143722963D01*
X31913534Y-143671443D01*
X31895984Y-143662062D01*
X31757011Y-143587779D01*
X31757009Y-143587778D01*
X31721271Y-143558448D01*
X31619814Y-143475186D01*
X31515310Y-143347846D01*
X31507222Y-143337991D01*
X31423557Y-143181466D01*
X31372037Y-143011627D01*
X31354641Y-142835000D01*
X31372037Y-142658373D01*
X31423557Y-142488534D01*
X31507222Y-142332009D01*
X31552546Y-142276782D01*
X31619814Y-142194814D01*
X31729643Y-142104681D01*
X31757009Y-142082222D01*
X31913534Y-141998557D01*
X32083373Y-141947037D01*
X32149558Y-141940518D01*
X32215740Y-141934000D01*
X32554260Y-141934000D01*
X32620442Y-141940518D01*
G37*
G36*
X60306850Y-143684848D02*
G01*
X56204850Y-143684848D01*
X56204850Y-141482848D01*
X60306850Y-141482848D01*
X60306850Y-143684848D01*
G37*
G36*
X114012721Y-142391174D02*
G01*
X114112995Y-142432709D01*
X114157812Y-142462655D01*
X114203242Y-142493010D01*
X114279990Y-142569758D01*
X114279991Y-142569760D01*
X114340291Y-142660005D01*
X114381826Y-142760279D01*
X114403000Y-142866730D01*
X114403000Y-142975270D01*
X114381826Y-143081721D01*
X114340291Y-143181995D01*
X114337551Y-143186095D01*
X114279990Y-143272242D01*
X114203242Y-143348990D01*
X114157812Y-143379345D01*
X114112995Y-143409291D01*
X114012721Y-143450826D01*
X113906270Y-143472000D01*
X113797730Y-143472000D01*
X113691279Y-143450826D01*
X113591005Y-143409291D01*
X113546188Y-143379345D01*
X113500758Y-143348990D01*
X113424010Y-143272242D01*
X113366449Y-143186095D01*
X113363709Y-143181995D01*
X113322174Y-143081721D01*
X113301000Y-142975270D01*
X113301000Y-142866730D01*
X113322174Y-142760279D01*
X113363709Y-142660005D01*
X113424009Y-142569760D01*
X113424010Y-142569758D01*
X113500758Y-142493010D01*
X113546188Y-142462655D01*
X113591005Y-142432709D01*
X113691279Y-142391174D01*
X113797730Y-142370000D01*
X113906270Y-142370000D01*
X114012721Y-142391174D01*
G37*
G36*
X55460441Y-142099434D02*
G01*
X55494419Y-142109742D01*
X55525740Y-142126483D01*
X55553189Y-142149010D01*
X55575716Y-142176459D01*
X55592457Y-142207780D01*
X55602765Y-142241758D01*
X55606850Y-142283239D01*
X55606850Y-142884459D01*
X55602765Y-142925940D01*
X55592457Y-142959918D01*
X55575716Y-142991239D01*
X55553189Y-143018688D01*
X55525740Y-143041215D01*
X55494419Y-143057956D01*
X55460441Y-143068264D01*
X55418960Y-143072349D01*
X54742740Y-143072349D01*
X54701259Y-143068264D01*
X54667281Y-143057956D01*
X54635960Y-143041215D01*
X54608511Y-143018688D01*
X54585984Y-142991239D01*
X54569243Y-142959918D01*
X54558935Y-142925940D01*
X54554850Y-142884459D01*
X54554850Y-142283239D01*
X54558935Y-142241758D01*
X54569243Y-142207780D01*
X54585984Y-142176459D01*
X54608511Y-142149010D01*
X54635960Y-142126483D01*
X54667281Y-142109742D01*
X54701259Y-142099434D01*
X54742740Y-142095349D01*
X55418960Y-142095349D01*
X55460441Y-142099434D01*
G37*
G36*
X109203368Y-142911000D02*
G01*
X107701368Y-142911000D01*
X107701368Y-141809000D01*
X109203368Y-141809000D01*
X109203368Y-142911000D01*
G37*
G36*
X107003368Y-142911000D02*
G01*
X105501368Y-142911000D01*
X105501368Y-141809000D01*
X107003368Y-141809000D01*
X107003368Y-142911000D01*
G37*
G36*
X112203000Y-142622000D02*
G01*
X110101000Y-142622000D01*
X110101000Y-138820000D01*
X112203000Y-138820000D01*
X112203000Y-142622000D01*
G37*
G36*
X85869146Y-142445038D02*
G01*
X84767146Y-142445038D01*
X84767146Y-141343038D01*
X85869146Y-141343038D01*
X85869146Y-142445038D01*
G37*
G36*
X100740358Y-140834082D02*
G01*
X100745032Y-140835500D01*
X100749333Y-140837799D01*
X100755705Y-140843028D01*
X100776079Y-140856642D01*
X100798718Y-140866019D01*
X100822752Y-140870799D01*
X100847256Y-140870799D01*
X100871289Y-140866018D01*
X100893928Y-140856641D01*
X100914301Y-140843028D01*
X100920673Y-140837799D01*
X100924974Y-140835500D01*
X100929648Y-140834082D01*
X100940644Y-140832999D01*
X101229362Y-140832999D01*
X101240358Y-140834082D01*
X101245032Y-140835500D01*
X101249333Y-140837799D01*
X101255705Y-140843028D01*
X101276079Y-140856642D01*
X101298718Y-140866019D01*
X101322752Y-140870799D01*
X101347256Y-140870799D01*
X101371289Y-140866018D01*
X101393928Y-140856641D01*
X101414301Y-140843028D01*
X101420673Y-140837799D01*
X101424974Y-140835500D01*
X101429648Y-140834082D01*
X101440644Y-140832999D01*
X101729362Y-140832999D01*
X101740358Y-140834082D01*
X101745032Y-140835500D01*
X101749333Y-140837799D01*
X101755705Y-140843028D01*
X101776079Y-140856642D01*
X101798718Y-140866019D01*
X101822752Y-140870799D01*
X101847256Y-140870799D01*
X101871289Y-140866018D01*
X101893928Y-140856641D01*
X101914301Y-140843028D01*
X101920673Y-140837799D01*
X101924974Y-140835500D01*
X101929648Y-140834082D01*
X101940644Y-140832999D01*
X102229362Y-140832999D01*
X102240358Y-140834082D01*
X102245032Y-140835500D01*
X102249333Y-140837799D01*
X102255705Y-140843028D01*
X102276079Y-140856642D01*
X102298718Y-140866019D01*
X102322752Y-140870799D01*
X102347256Y-140870799D01*
X102371289Y-140866018D01*
X102393928Y-140856641D01*
X102414301Y-140843028D01*
X102420673Y-140837799D01*
X102424974Y-140835500D01*
X102429648Y-140834082D01*
X102440644Y-140832999D01*
X102729362Y-140832999D01*
X102740358Y-140834082D01*
X102745032Y-140835500D01*
X102749333Y-140837799D01*
X102755705Y-140843028D01*
X102776079Y-140856642D01*
X102798718Y-140866019D01*
X102822752Y-140870799D01*
X102847256Y-140870799D01*
X102871289Y-140866018D01*
X102893928Y-140856641D01*
X102914301Y-140843028D01*
X102920673Y-140837799D01*
X102924974Y-140835500D01*
X102929648Y-140834082D01*
X102940644Y-140832999D01*
X103229362Y-140832999D01*
X103240358Y-140834082D01*
X103245032Y-140835500D01*
X103249333Y-140837799D01*
X103255705Y-140843028D01*
X103276079Y-140856642D01*
X103298718Y-140866019D01*
X103322752Y-140870799D01*
X103347256Y-140870799D01*
X103371289Y-140866018D01*
X103393928Y-140856641D01*
X103414301Y-140843028D01*
X103420673Y-140837799D01*
X103424974Y-140835500D01*
X103429648Y-140834082D01*
X103440644Y-140832999D01*
X103729362Y-140832999D01*
X103740358Y-140834082D01*
X103745032Y-140835500D01*
X103749334Y-140837799D01*
X103753107Y-140840895D01*
X103756203Y-140844668D01*
X103758502Y-140848970D01*
X103759920Y-140853644D01*
X103761003Y-140864640D01*
X103761003Y-141703358D01*
X103759920Y-141714354D01*
X103758502Y-141719028D01*
X103756203Y-141723330D01*
X103753107Y-141727103D01*
X103749334Y-141730199D01*
X103745032Y-141732498D01*
X103740358Y-141733916D01*
X103729362Y-141734999D01*
X103440644Y-141734999D01*
X103429648Y-141733916D01*
X103424974Y-141732498D01*
X103420673Y-141730199D01*
X103414301Y-141724970D01*
X103393927Y-141711356D01*
X103371288Y-141701979D01*
X103347254Y-141697199D01*
X103322750Y-141697199D01*
X103298717Y-141701980D01*
X103276078Y-141711357D01*
X103255705Y-141724970D01*
X103249333Y-141730199D01*
X103245032Y-141732498D01*
X103240358Y-141733916D01*
X103229362Y-141734999D01*
X102940644Y-141734999D01*
X102929648Y-141733916D01*
X102924974Y-141732498D01*
X102920673Y-141730199D01*
X102914301Y-141724970D01*
X102893927Y-141711356D01*
X102871288Y-141701979D01*
X102847254Y-141697199D01*
X102822750Y-141697199D01*
X102798717Y-141701980D01*
X102776078Y-141711357D01*
X102755705Y-141724970D01*
X102749333Y-141730199D01*
X102745032Y-141732498D01*
X102740358Y-141733916D01*
X102729362Y-141734999D01*
X102440644Y-141734999D01*
X102429648Y-141733916D01*
X102424974Y-141732498D01*
X102420673Y-141730199D01*
X102414301Y-141724970D01*
X102393927Y-141711356D01*
X102371288Y-141701979D01*
X102347254Y-141697199D01*
X102322750Y-141697199D01*
X102298717Y-141701980D01*
X102276078Y-141711357D01*
X102255705Y-141724970D01*
X102249333Y-141730199D01*
X102245032Y-141732498D01*
X102240358Y-141733916D01*
X102229362Y-141734999D01*
X101940644Y-141734999D01*
X101929648Y-141733916D01*
X101924974Y-141732498D01*
X101920673Y-141730199D01*
X101914301Y-141724970D01*
X101893927Y-141711356D01*
X101871288Y-141701979D01*
X101847254Y-141697199D01*
X101822750Y-141697199D01*
X101798717Y-141701980D01*
X101776078Y-141711357D01*
X101755705Y-141724970D01*
X101749333Y-141730199D01*
X101745032Y-141732498D01*
X101740358Y-141733916D01*
X101729362Y-141734999D01*
X101440644Y-141734999D01*
X101429648Y-141733916D01*
X101424974Y-141732498D01*
X101420673Y-141730199D01*
X101414301Y-141724970D01*
X101393927Y-141711356D01*
X101371288Y-141701979D01*
X101347254Y-141697199D01*
X101322750Y-141697199D01*
X101298717Y-141701980D01*
X101276078Y-141711357D01*
X101255705Y-141724970D01*
X101249333Y-141730199D01*
X101245032Y-141732498D01*
X101240358Y-141733916D01*
X101229362Y-141734999D01*
X100940644Y-141734999D01*
X100929648Y-141733916D01*
X100924974Y-141732498D01*
X100920673Y-141730199D01*
X100914301Y-141724970D01*
X100893927Y-141711356D01*
X100871288Y-141701979D01*
X100847254Y-141697199D01*
X100822750Y-141697199D01*
X100798717Y-141701980D01*
X100776078Y-141711357D01*
X100755705Y-141724970D01*
X100749333Y-141730199D01*
X100745032Y-141732498D01*
X100740358Y-141733916D01*
X100729362Y-141734999D01*
X100440644Y-141734999D01*
X100429648Y-141733916D01*
X100424974Y-141732498D01*
X100420672Y-141730199D01*
X100416899Y-141727103D01*
X100413803Y-141723330D01*
X100411504Y-141719028D01*
X100410086Y-141714354D01*
X100409003Y-141703358D01*
X100409003Y-140864640D01*
X100410086Y-140853644D01*
X100411504Y-140848970D01*
X100413803Y-140844668D01*
X100416899Y-140840895D01*
X100420672Y-140837799D01*
X100424974Y-140835500D01*
X100429648Y-140834082D01*
X100440644Y-140832999D01*
X100729362Y-140832999D01*
X100740358Y-140834082D01*
G37*
G36*
X55460441Y-140524434D02*
G01*
X55494419Y-140534742D01*
X55525740Y-140551483D01*
X55553189Y-140574010D01*
X55575716Y-140601459D01*
X55592457Y-140632780D01*
X55602765Y-140666758D01*
X55606850Y-140708239D01*
X55606850Y-141309459D01*
X55602765Y-141350940D01*
X55592457Y-141384918D01*
X55575716Y-141416239D01*
X55553189Y-141443688D01*
X55525740Y-141466215D01*
X55494419Y-141482956D01*
X55460441Y-141493264D01*
X55418960Y-141497349D01*
X54742740Y-141497349D01*
X54701259Y-141493264D01*
X54667281Y-141482956D01*
X54635960Y-141466215D01*
X54608511Y-141443688D01*
X54585984Y-141416239D01*
X54569243Y-141384918D01*
X54558935Y-141350940D01*
X54554850Y-141309459D01*
X54554850Y-140708239D01*
X54558935Y-140666758D01*
X54569243Y-140632780D01*
X54585984Y-140601459D01*
X54608511Y-140574010D01*
X54635960Y-140551483D01*
X54667281Y-140534742D01*
X54701259Y-140524434D01*
X54742740Y-140520349D01*
X55418960Y-140520349D01*
X55460441Y-140524434D01*
G37*
G36*
X33268600Y-139437989D02*
G01*
X33301652Y-139448015D01*
X33332103Y-139464292D01*
X33358799Y-139486201D01*
X33380708Y-139512897D01*
X33396985Y-139543348D01*
X33407011Y-139576400D01*
X33411000Y-139616903D01*
X33411000Y-141053097D01*
X33407011Y-141093600D01*
X33396985Y-141126652D01*
X33380708Y-141157103D01*
X33358799Y-141183799D01*
X33332103Y-141205708D01*
X33301652Y-141221985D01*
X33268600Y-141232011D01*
X33228097Y-141236000D01*
X31541903Y-141236000D01*
X31501400Y-141232011D01*
X31468348Y-141221985D01*
X31437897Y-141205708D01*
X31411201Y-141183799D01*
X31389292Y-141157103D01*
X31373015Y-141126652D01*
X31362989Y-141093600D01*
X31359000Y-141053097D01*
X31359000Y-139616903D01*
X31362989Y-139576400D01*
X31373015Y-139543348D01*
X31389292Y-139512897D01*
X31411201Y-139486201D01*
X31437897Y-139464292D01*
X31468348Y-139448015D01*
X31501400Y-139437989D01*
X31541903Y-139434000D01*
X33228097Y-139434000D01*
X33268600Y-139437989D01*
G37*
G36*
X103689127Y-137111498D02*
G01*
X103717390Y-137120072D01*
X103743437Y-137133995D01*
X103766270Y-137152732D01*
X103785007Y-137175565D01*
X103798930Y-137201612D01*
X103807504Y-137229875D01*
X103811003Y-137265407D01*
X103811003Y-140402591D01*
X103807504Y-140438123D01*
X103798930Y-140466386D01*
X103785007Y-140492433D01*
X103766270Y-140515266D01*
X103743437Y-140534003D01*
X103717390Y-140547926D01*
X103689127Y-140556500D01*
X103653595Y-140559999D01*
X100516411Y-140559999D01*
X100480879Y-140556500D01*
X100452616Y-140547926D01*
X100426569Y-140534003D01*
X100403736Y-140515266D01*
X100384999Y-140492433D01*
X100371076Y-140466386D01*
X100362502Y-140438123D01*
X100359003Y-140402591D01*
X100359003Y-137265407D01*
X100362502Y-137229875D01*
X100371076Y-137201612D01*
X100384999Y-137175565D01*
X100403736Y-137152732D01*
X100426569Y-137133995D01*
X100452616Y-137120072D01*
X100480879Y-137111498D01*
X100516411Y-137107999D01*
X103653595Y-137107999D01*
X103689127Y-137111498D01*
G37*
G36*
X100065358Y-137159082D02*
G01*
X100070032Y-137160500D01*
X100074334Y-137162799D01*
X100078107Y-137165895D01*
X100081203Y-137169668D01*
X100083502Y-137173970D01*
X100084920Y-137178644D01*
X100086003Y-137189640D01*
X100086003Y-137478358D01*
X100084920Y-137489354D01*
X100083502Y-137494028D01*
X100081203Y-137498329D01*
X100075974Y-137504701D01*
X100062360Y-137525075D01*
X100052983Y-137547714D01*
X100048203Y-137571748D01*
X100048203Y-137596252D01*
X100052984Y-137620285D01*
X100062361Y-137642924D01*
X100075974Y-137663297D01*
X100081203Y-137669669D01*
X100083502Y-137673970D01*
X100084920Y-137678644D01*
X100086003Y-137689640D01*
X100086003Y-137978358D01*
X100084920Y-137989354D01*
X100083502Y-137994028D01*
X100081203Y-137998329D01*
X100075974Y-138004701D01*
X100062360Y-138025075D01*
X100052983Y-138047714D01*
X100048203Y-138071748D01*
X100048203Y-138096252D01*
X100052984Y-138120285D01*
X100062361Y-138142924D01*
X100075974Y-138163297D01*
X100081203Y-138169669D01*
X100083502Y-138173970D01*
X100084920Y-138178644D01*
X100086003Y-138189640D01*
X100086003Y-138478358D01*
X100084920Y-138489354D01*
X100083502Y-138494028D01*
X100081203Y-138498329D01*
X100075974Y-138504701D01*
X100062360Y-138525075D01*
X100052983Y-138547714D01*
X100048203Y-138571748D01*
X100048203Y-138596252D01*
X100052984Y-138620285D01*
X100062361Y-138642924D01*
X100075974Y-138663297D01*
X100081203Y-138669669D01*
X100083502Y-138673970D01*
X100084920Y-138678644D01*
X100086003Y-138689640D01*
X100086003Y-138978358D01*
X100084920Y-138989354D01*
X100083502Y-138994028D01*
X100081203Y-138998329D01*
X100075974Y-139004701D01*
X100062360Y-139025075D01*
X100052983Y-139047714D01*
X100048203Y-139071748D01*
X100048203Y-139096252D01*
X100052984Y-139120285D01*
X100062361Y-139142924D01*
X100075974Y-139163297D01*
X100081203Y-139169669D01*
X100083502Y-139173970D01*
X100084920Y-139178644D01*
X100086003Y-139189640D01*
X100086003Y-139478358D01*
X100084920Y-139489354D01*
X100083502Y-139494028D01*
X100081203Y-139498329D01*
X100075974Y-139504701D01*
X100062360Y-139525075D01*
X100052983Y-139547714D01*
X100048203Y-139571748D01*
X100048203Y-139596252D01*
X100052984Y-139620285D01*
X100062361Y-139642924D01*
X100075974Y-139663297D01*
X100081203Y-139669669D01*
X100083502Y-139673970D01*
X100084920Y-139678644D01*
X100086003Y-139689640D01*
X100086003Y-139978358D01*
X100084920Y-139989354D01*
X100083502Y-139994028D01*
X100081203Y-139998329D01*
X100075974Y-140004701D01*
X100062360Y-140025075D01*
X100052983Y-140047714D01*
X100048203Y-140071748D01*
X100048203Y-140096252D01*
X100052984Y-140120285D01*
X100062361Y-140142924D01*
X100075974Y-140163297D01*
X100081203Y-140169669D01*
X100083502Y-140173970D01*
X100084920Y-140178644D01*
X100086003Y-140189640D01*
X100086003Y-140478358D01*
X100084920Y-140489354D01*
X100083502Y-140494028D01*
X100081203Y-140498330D01*
X100078107Y-140502103D01*
X100074334Y-140505199D01*
X100070032Y-140507498D01*
X100065358Y-140508916D01*
X100054362Y-140509999D01*
X99215644Y-140509999D01*
X99204648Y-140508916D01*
X99199974Y-140507498D01*
X99195672Y-140505199D01*
X99191899Y-140502103D01*
X99188803Y-140498330D01*
X99186504Y-140494028D01*
X99185086Y-140489354D01*
X99184003Y-140478358D01*
X99184003Y-140189640D01*
X99185086Y-140178644D01*
X99186504Y-140173970D01*
X99188803Y-140169669D01*
X99194032Y-140163297D01*
X99207646Y-140142923D01*
X99217023Y-140120284D01*
X99221803Y-140096250D01*
X99221803Y-140071746D01*
X99217022Y-140047713D01*
X99207645Y-140025074D01*
X99194032Y-140004701D01*
X99188803Y-139998329D01*
X99186504Y-139994028D01*
X99185086Y-139989354D01*
X99184003Y-139978358D01*
X99184003Y-139689640D01*
X99185086Y-139678644D01*
X99186504Y-139673970D01*
X99188803Y-139669669D01*
X99194032Y-139663297D01*
X99207646Y-139642923D01*
X99217023Y-139620284D01*
X99221803Y-139596250D01*
X99221803Y-139571746D01*
X99217022Y-139547713D01*
X99207645Y-139525074D01*
X99194032Y-139504701D01*
X99188803Y-139498329D01*
X99186504Y-139494028D01*
X99185086Y-139489354D01*
X99184003Y-139478358D01*
X99184003Y-139189640D01*
X99185086Y-139178644D01*
X99186504Y-139173970D01*
X99188803Y-139169669D01*
X99194032Y-139163297D01*
X99207646Y-139142923D01*
X99217023Y-139120284D01*
X99221803Y-139096250D01*
X99221803Y-139071746D01*
X99217022Y-139047713D01*
X99207645Y-139025074D01*
X99194032Y-139004701D01*
X99188803Y-138998329D01*
X99186504Y-138994028D01*
X99185086Y-138989354D01*
X99184003Y-138978358D01*
X99184003Y-138689640D01*
X99185086Y-138678644D01*
X99186504Y-138673970D01*
X99188803Y-138669669D01*
X99194032Y-138663297D01*
X99207646Y-138642923D01*
X99217023Y-138620284D01*
X99221803Y-138596250D01*
X99221803Y-138571746D01*
X99217022Y-138547713D01*
X99207645Y-138525074D01*
X99194032Y-138504701D01*
X99188803Y-138498329D01*
X99186504Y-138494028D01*
X99185086Y-138489354D01*
X99184003Y-138478358D01*
X99184003Y-138189640D01*
X99185086Y-138178644D01*
X99186504Y-138173970D01*
X99188803Y-138169669D01*
X99194032Y-138163297D01*
X99207646Y-138142923D01*
X99217023Y-138120284D01*
X99221803Y-138096250D01*
X99221803Y-138071746D01*
X99217022Y-138047713D01*
X99207645Y-138025074D01*
X99194032Y-138004701D01*
X99188803Y-137998329D01*
X99186504Y-137994028D01*
X99185086Y-137989354D01*
X99184003Y-137978358D01*
X99184003Y-137689640D01*
X99185086Y-137678644D01*
X99186504Y-137673970D01*
X99188803Y-137669669D01*
X99194032Y-137663297D01*
X99207646Y-137642923D01*
X99217023Y-137620284D01*
X99221803Y-137596250D01*
X99221803Y-137571746D01*
X99217022Y-137547713D01*
X99207645Y-137525074D01*
X99194032Y-137504701D01*
X99188803Y-137498329D01*
X99186504Y-137494028D01*
X99185086Y-137489354D01*
X99184003Y-137478358D01*
X99184003Y-137189640D01*
X99185086Y-137178644D01*
X99186504Y-137173970D01*
X99188803Y-137169668D01*
X99191899Y-137165895D01*
X99195672Y-137162799D01*
X99199974Y-137160500D01*
X99204648Y-137159082D01*
X99215644Y-137157999D01*
X100054362Y-137157999D01*
X100065358Y-137159082D01*
G37*
G36*
X104965358Y-137159082D02*
G01*
X104970032Y-137160500D01*
X104974334Y-137162799D01*
X104978107Y-137165895D01*
X104981203Y-137169668D01*
X104983502Y-137173970D01*
X104984920Y-137178644D01*
X104986003Y-137189640D01*
X104986003Y-137478358D01*
X104984920Y-137489354D01*
X104983502Y-137494028D01*
X104981203Y-137498329D01*
X104975974Y-137504701D01*
X104962360Y-137525075D01*
X104952983Y-137547714D01*
X104948203Y-137571748D01*
X104948203Y-137596252D01*
X104952984Y-137620285D01*
X104962361Y-137642924D01*
X104975974Y-137663297D01*
X104981203Y-137669669D01*
X104983502Y-137673970D01*
X104984920Y-137678644D01*
X104986003Y-137689640D01*
X104986003Y-137978358D01*
X104984920Y-137989354D01*
X104983502Y-137994028D01*
X104981203Y-137998329D01*
X104975974Y-138004701D01*
X104962360Y-138025075D01*
X104952983Y-138047714D01*
X104948203Y-138071748D01*
X104948203Y-138096252D01*
X104952984Y-138120285D01*
X104962361Y-138142924D01*
X104975974Y-138163297D01*
X104981203Y-138169669D01*
X104983502Y-138173970D01*
X104984920Y-138178644D01*
X104986003Y-138189640D01*
X104986003Y-138478358D01*
X104984920Y-138489354D01*
X104983502Y-138494028D01*
X104981203Y-138498329D01*
X104975974Y-138504701D01*
X104962360Y-138525075D01*
X104952983Y-138547714D01*
X104948203Y-138571748D01*
X104948203Y-138596252D01*
X104952984Y-138620285D01*
X104962361Y-138642924D01*
X104975974Y-138663297D01*
X104981203Y-138669669D01*
X104983502Y-138673970D01*
X104984920Y-138678644D01*
X104986003Y-138689640D01*
X104986003Y-138978358D01*
X104984920Y-138989354D01*
X104983502Y-138994028D01*
X104981203Y-138998329D01*
X104975974Y-139004701D01*
X104962360Y-139025075D01*
X104952983Y-139047714D01*
X104948203Y-139071748D01*
X104948203Y-139096252D01*
X104952984Y-139120285D01*
X104962361Y-139142924D01*
X104975974Y-139163297D01*
X104981203Y-139169669D01*
X104983502Y-139173970D01*
X104984920Y-139178644D01*
X104986003Y-139189640D01*
X104986003Y-139478358D01*
X104984920Y-139489354D01*
X104983502Y-139494028D01*
X104981203Y-139498329D01*
X104975974Y-139504701D01*
X104962360Y-139525075D01*
X104952983Y-139547714D01*
X104948203Y-139571748D01*
X104948203Y-139596252D01*
X104952984Y-139620285D01*
X104962361Y-139642924D01*
X104975974Y-139663297D01*
X104981203Y-139669669D01*
X104983502Y-139673970D01*
X104984920Y-139678644D01*
X104986003Y-139689640D01*
X104986003Y-139978358D01*
X104984920Y-139989354D01*
X104983502Y-139994028D01*
X104981203Y-139998329D01*
X104975974Y-140004701D01*
X104962360Y-140025075D01*
X104952983Y-140047714D01*
X104948203Y-140071748D01*
X104948203Y-140096252D01*
X104952984Y-140120285D01*
X104962361Y-140142924D01*
X104975974Y-140163297D01*
X104981203Y-140169669D01*
X104983502Y-140173970D01*
X104984920Y-140178644D01*
X104986003Y-140189640D01*
X104986003Y-140478358D01*
X104984920Y-140489354D01*
X104983502Y-140494028D01*
X104981203Y-140498330D01*
X104978107Y-140502103D01*
X104974334Y-140505199D01*
X104970032Y-140507498D01*
X104965358Y-140508916D01*
X104954362Y-140509999D01*
X104115644Y-140509999D01*
X104104648Y-140508916D01*
X104099974Y-140507498D01*
X104095672Y-140505199D01*
X104091899Y-140502103D01*
X104088803Y-140498330D01*
X104086504Y-140494028D01*
X104085086Y-140489354D01*
X104084003Y-140478358D01*
X104084003Y-140189640D01*
X104085086Y-140178644D01*
X104086504Y-140173970D01*
X104088803Y-140169669D01*
X104094032Y-140163297D01*
X104107646Y-140142923D01*
X104117023Y-140120284D01*
X104121803Y-140096250D01*
X104121803Y-140071746D01*
X104117022Y-140047713D01*
X104107645Y-140025074D01*
X104094032Y-140004701D01*
X104088803Y-139998329D01*
X104086504Y-139994028D01*
X104085086Y-139989354D01*
X104084003Y-139978358D01*
X104084003Y-139689640D01*
X104085086Y-139678644D01*
X104086504Y-139673970D01*
X104088803Y-139669669D01*
X104094032Y-139663297D01*
X104107646Y-139642923D01*
X104117023Y-139620284D01*
X104121803Y-139596250D01*
X104121803Y-139571746D01*
X104117022Y-139547713D01*
X104107645Y-139525074D01*
X104094032Y-139504701D01*
X104088803Y-139498329D01*
X104086504Y-139494028D01*
X104085086Y-139489354D01*
X104084003Y-139478358D01*
X104084003Y-139189640D01*
X104085086Y-139178644D01*
X104086504Y-139173970D01*
X104088803Y-139169669D01*
X104094032Y-139163297D01*
X104107646Y-139142923D01*
X104117023Y-139120284D01*
X104121803Y-139096250D01*
X104121803Y-139071746D01*
X104117022Y-139047713D01*
X104107645Y-139025074D01*
X104094032Y-139004701D01*
X104088803Y-138998329D01*
X104086504Y-138994028D01*
X104085086Y-138989354D01*
X104084003Y-138978358D01*
X104084003Y-138689640D01*
X104085086Y-138678644D01*
X104086504Y-138673970D01*
X104088803Y-138669669D01*
X104094032Y-138663297D01*
X104107646Y-138642923D01*
X104117023Y-138620284D01*
X104121803Y-138596250D01*
X104121803Y-138571746D01*
X104117022Y-138547713D01*
X104107645Y-138525074D01*
X104094032Y-138504701D01*
X104088803Y-138498329D01*
X104086504Y-138494028D01*
X104085086Y-138489354D01*
X104084003Y-138478358D01*
X104084003Y-138189640D01*
X104085086Y-138178644D01*
X104086504Y-138173970D01*
X104088803Y-138169669D01*
X104094032Y-138163297D01*
X104107646Y-138142923D01*
X104117023Y-138120284D01*
X104121803Y-138096250D01*
X104121803Y-138071746D01*
X104117022Y-138047713D01*
X104107645Y-138025074D01*
X104094032Y-138004701D01*
X104088803Y-137998329D01*
X104086504Y-137994028D01*
X104085086Y-137989354D01*
X104084003Y-137978358D01*
X104084003Y-137689640D01*
X104085086Y-137678644D01*
X104086504Y-137673970D01*
X104088803Y-137669669D01*
X104094032Y-137663297D01*
X104107646Y-137642923D01*
X104117023Y-137620284D01*
X104121803Y-137596250D01*
X104121803Y-137571746D01*
X104117022Y-137547713D01*
X104107645Y-137525074D01*
X104094032Y-137504701D01*
X104088803Y-137498329D01*
X104086504Y-137494028D01*
X104085086Y-137489354D01*
X104084003Y-137478358D01*
X104084003Y-137189640D01*
X104085086Y-137178644D01*
X104086504Y-137173970D01*
X104088803Y-137169668D01*
X104091899Y-137165895D01*
X104095672Y-137162799D01*
X104099974Y-137160500D01*
X104104648Y-137159082D01*
X104115644Y-137157999D01*
X104954362Y-137157999D01*
X104965358Y-137159082D01*
G37*
G36*
X85869146Y-140445038D02*
G01*
X84767146Y-140445038D01*
X84767146Y-139343038D01*
X85869146Y-139343038D01*
X85869146Y-140445038D01*
G37*
G36*
X45758144Y-138748669D02*
G01*
X45765158Y-138750797D01*
X45778926Y-138758156D01*
X45801565Y-138767533D01*
X45825598Y-138772313D01*
X45850102Y-138772313D01*
X45874135Y-138767532D01*
X45896772Y-138758156D01*
X45910540Y-138750797D01*
X45917554Y-138748669D01*
X45930989Y-138747346D01*
X46244709Y-138747346D01*
X46258144Y-138748669D01*
X46265158Y-138750797D01*
X46278926Y-138758156D01*
X46301565Y-138767533D01*
X46325598Y-138772313D01*
X46350102Y-138772313D01*
X46374135Y-138767532D01*
X46396772Y-138758156D01*
X46410540Y-138750797D01*
X46417554Y-138748669D01*
X46430989Y-138747346D01*
X46744709Y-138747346D01*
X46758144Y-138748669D01*
X46765158Y-138750797D01*
X46778926Y-138758156D01*
X46801565Y-138767533D01*
X46825598Y-138772313D01*
X46850102Y-138772313D01*
X46874135Y-138767532D01*
X46896772Y-138758156D01*
X46910540Y-138750797D01*
X46917554Y-138748669D01*
X46930989Y-138747346D01*
X47244709Y-138747346D01*
X47258144Y-138748669D01*
X47265158Y-138750797D01*
X47278926Y-138758156D01*
X47301565Y-138767533D01*
X47325598Y-138772313D01*
X47350102Y-138772313D01*
X47374135Y-138767532D01*
X47396772Y-138758156D01*
X47410540Y-138750797D01*
X47417554Y-138748669D01*
X47430989Y-138747346D01*
X47744709Y-138747346D01*
X47758144Y-138748669D01*
X47765158Y-138750797D01*
X47778926Y-138758156D01*
X47801565Y-138767533D01*
X47825598Y-138772313D01*
X47850102Y-138772313D01*
X47874135Y-138767532D01*
X47896772Y-138758156D01*
X47910540Y-138750797D01*
X47917554Y-138748669D01*
X47930989Y-138747346D01*
X48244709Y-138747346D01*
X48258144Y-138748669D01*
X48265158Y-138750797D01*
X48278926Y-138758156D01*
X48301565Y-138767533D01*
X48325598Y-138772313D01*
X48350102Y-138772313D01*
X48374135Y-138767532D01*
X48396772Y-138758156D01*
X48410540Y-138750797D01*
X48417554Y-138748669D01*
X48430989Y-138747346D01*
X48744709Y-138747346D01*
X48758144Y-138748669D01*
X48765158Y-138750797D01*
X48778926Y-138758156D01*
X48801565Y-138767533D01*
X48825598Y-138772313D01*
X48850102Y-138772313D01*
X48874135Y-138767532D01*
X48896772Y-138758156D01*
X48910540Y-138750797D01*
X48917554Y-138748669D01*
X48930989Y-138747346D01*
X49244709Y-138747346D01*
X49258144Y-138748669D01*
X49265158Y-138750797D01*
X49278926Y-138758156D01*
X49301565Y-138767533D01*
X49325598Y-138772313D01*
X49350102Y-138772313D01*
X49374135Y-138767532D01*
X49396772Y-138758156D01*
X49410540Y-138750797D01*
X49417554Y-138748669D01*
X49430989Y-138747346D01*
X49744709Y-138747346D01*
X49758144Y-138748669D01*
X49765158Y-138750797D01*
X49778926Y-138758156D01*
X49801565Y-138767533D01*
X49825598Y-138772313D01*
X49850102Y-138772313D01*
X49874135Y-138767532D01*
X49896772Y-138758156D01*
X49910540Y-138750797D01*
X49917554Y-138748669D01*
X49930989Y-138747346D01*
X50244709Y-138747346D01*
X50258144Y-138748669D01*
X50265158Y-138750797D01*
X50278926Y-138758156D01*
X50301565Y-138767533D01*
X50325598Y-138772313D01*
X50350102Y-138772313D01*
X50374135Y-138767532D01*
X50396772Y-138758156D01*
X50410540Y-138750797D01*
X50417554Y-138748669D01*
X50430989Y-138747346D01*
X50744709Y-138747346D01*
X50758144Y-138748669D01*
X50765158Y-138750797D01*
X50778926Y-138758156D01*
X50801565Y-138767533D01*
X50825598Y-138772313D01*
X50850102Y-138772313D01*
X50874135Y-138767532D01*
X50896772Y-138758156D01*
X50910540Y-138750797D01*
X50917554Y-138748669D01*
X50930989Y-138747346D01*
X51244709Y-138747346D01*
X51258144Y-138748669D01*
X51265159Y-138750797D01*
X51271625Y-138754254D01*
X51277291Y-138758904D01*
X51281941Y-138764570D01*
X51285398Y-138771036D01*
X51287526Y-138778051D01*
X51288849Y-138791486D01*
X51288849Y-140280206D01*
X51287526Y-140293641D01*
X51285398Y-140300656D01*
X51281941Y-140307122D01*
X51277291Y-140312788D01*
X51271625Y-140317438D01*
X51265159Y-140320895D01*
X51258144Y-140323023D01*
X51244709Y-140324346D01*
X50930989Y-140324346D01*
X50917554Y-140323023D01*
X50910540Y-140320895D01*
X50896772Y-140313536D01*
X50874133Y-140304159D01*
X50850100Y-140299379D01*
X50825596Y-140299379D01*
X50801563Y-140304160D01*
X50778926Y-140313536D01*
X50765158Y-140320895D01*
X50758144Y-140323023D01*
X50744709Y-140324346D01*
X50430989Y-140324346D01*
X50417554Y-140323023D01*
X50410540Y-140320895D01*
X50396772Y-140313536D01*
X50374133Y-140304159D01*
X50350100Y-140299379D01*
X50325596Y-140299379D01*
X50301563Y-140304160D01*
X50278926Y-140313536D01*
X50265158Y-140320895D01*
X50258144Y-140323023D01*
X50244709Y-140324346D01*
X49930989Y-140324346D01*
X49917554Y-140323023D01*
X49910540Y-140320895D01*
X49896772Y-140313536D01*
X49874133Y-140304159D01*
X49850100Y-140299379D01*
X49825596Y-140299379D01*
X49801563Y-140304160D01*
X49778926Y-140313536D01*
X49765158Y-140320895D01*
X49758144Y-140323023D01*
X49744709Y-140324346D01*
X49430989Y-140324346D01*
X49417554Y-140323023D01*
X49410540Y-140320895D01*
X49396772Y-140313536D01*
X49374133Y-140304159D01*
X49350100Y-140299379D01*
X49325596Y-140299379D01*
X49301563Y-140304160D01*
X49278926Y-140313536D01*
X49265158Y-140320895D01*
X49258144Y-140323023D01*
X49244709Y-140324346D01*
X48930989Y-140324346D01*
X48917554Y-140323023D01*
X48910540Y-140320895D01*
X48896772Y-140313536D01*
X48874133Y-140304159D01*
X48850100Y-140299379D01*
X48825596Y-140299379D01*
X48801563Y-140304160D01*
X48778926Y-140313536D01*
X48765158Y-140320895D01*
X48758144Y-140323023D01*
X48744709Y-140324346D01*
X48430989Y-140324346D01*
X48417554Y-140323023D01*
X48410540Y-140320895D01*
X48396772Y-140313536D01*
X48374133Y-140304159D01*
X48350100Y-140299379D01*
X48325596Y-140299379D01*
X48301563Y-140304160D01*
X48278926Y-140313536D01*
X48265158Y-140320895D01*
X48258144Y-140323023D01*
X48244709Y-140324346D01*
X47930989Y-140324346D01*
X47917554Y-140323023D01*
X47910540Y-140320895D01*
X47896772Y-140313536D01*
X47874133Y-140304159D01*
X47850100Y-140299379D01*
X47825596Y-140299379D01*
X47801563Y-140304160D01*
X47778926Y-140313536D01*
X47765158Y-140320895D01*
X47758144Y-140323023D01*
X47744709Y-140324346D01*
X47430989Y-140324346D01*
X47417554Y-140323023D01*
X47410540Y-140320895D01*
X47396772Y-140313536D01*
X47374133Y-140304159D01*
X47350100Y-140299379D01*
X47325596Y-140299379D01*
X47301563Y-140304160D01*
X47278926Y-140313536D01*
X47265158Y-140320895D01*
X47258144Y-140323023D01*
X47244709Y-140324346D01*
X46930989Y-140324346D01*
X46917554Y-140323023D01*
X46910540Y-140320895D01*
X46896772Y-140313536D01*
X46874133Y-140304159D01*
X46850100Y-140299379D01*
X46825596Y-140299379D01*
X46801563Y-140304160D01*
X46778926Y-140313536D01*
X46765158Y-140320895D01*
X46758144Y-140323023D01*
X46744709Y-140324346D01*
X46430989Y-140324346D01*
X46417554Y-140323023D01*
X46410540Y-140320895D01*
X46396772Y-140313536D01*
X46374133Y-140304159D01*
X46350100Y-140299379D01*
X46325596Y-140299379D01*
X46301563Y-140304160D01*
X46278926Y-140313536D01*
X46265158Y-140320895D01*
X46258144Y-140323023D01*
X46244709Y-140324346D01*
X45930989Y-140324346D01*
X45917554Y-140323023D01*
X45910540Y-140320895D01*
X45896772Y-140313536D01*
X45874133Y-140304159D01*
X45850100Y-140299379D01*
X45825596Y-140299379D01*
X45801563Y-140304160D01*
X45778926Y-140313536D01*
X45765158Y-140320895D01*
X45758144Y-140323023D01*
X45744709Y-140324346D01*
X45430989Y-140324346D01*
X45417554Y-140323023D01*
X45410539Y-140320895D01*
X45404073Y-140317438D01*
X45398407Y-140312788D01*
X45393757Y-140307122D01*
X45390300Y-140300656D01*
X45388172Y-140293641D01*
X45386849Y-140280206D01*
X45386849Y-138791486D01*
X45388172Y-138778051D01*
X45390300Y-138771036D01*
X45393757Y-138764570D01*
X45398407Y-138758904D01*
X45404073Y-138754254D01*
X45410539Y-138750797D01*
X45417554Y-138748669D01*
X45430989Y-138747346D01*
X45744709Y-138747346D01*
X45758144Y-138748669D01*
G37*
G36*
X109155000Y-139731000D02*
G01*
X107253000Y-139731000D01*
X107253000Y-137129000D01*
X109155000Y-137129000D01*
X109155000Y-139731000D01*
G37*
G36*
X53847942Y-138632935D02*
G01*
X53881920Y-138643243D01*
X53913241Y-138659984D01*
X53940690Y-138682511D01*
X53963217Y-138709960D01*
X53979958Y-138741281D01*
X53990266Y-138775259D01*
X53994351Y-138816740D01*
X53994351Y-139492960D01*
X53990266Y-139534441D01*
X53979958Y-139568419D01*
X53963217Y-139599740D01*
X53940690Y-139627189D01*
X53913241Y-139649716D01*
X53881920Y-139666457D01*
X53847942Y-139676765D01*
X53806461Y-139680850D01*
X53205241Y-139680850D01*
X53163760Y-139676765D01*
X53129782Y-139666457D01*
X53098461Y-139649716D01*
X53071012Y-139627189D01*
X53048485Y-139599740D01*
X53031744Y-139568419D01*
X53021436Y-139534441D01*
X53017351Y-139492960D01*
X53017351Y-138816740D01*
X53021436Y-138775259D01*
X53031744Y-138741281D01*
X53048485Y-138709960D01*
X53071012Y-138682511D01*
X53098461Y-138659984D01*
X53129782Y-138643243D01*
X53163760Y-138632935D01*
X53205241Y-138628850D01*
X53806461Y-138628850D01*
X53847942Y-138632935D01*
G37*
G36*
X55422942Y-138632935D02*
G01*
X55456920Y-138643243D01*
X55488241Y-138659984D01*
X55515690Y-138682511D01*
X55538217Y-138709960D01*
X55554958Y-138741281D01*
X55565266Y-138775259D01*
X55569351Y-138816740D01*
X55569351Y-139492960D01*
X55565266Y-139534441D01*
X55554958Y-139568419D01*
X55538217Y-139599740D01*
X55515690Y-139627189D01*
X55488241Y-139649716D01*
X55456920Y-139666457D01*
X55422942Y-139676765D01*
X55381461Y-139680850D01*
X54780241Y-139680850D01*
X54738760Y-139676765D01*
X54704782Y-139666457D01*
X54673461Y-139649716D01*
X54646012Y-139627189D01*
X54623485Y-139599740D01*
X54606744Y-139568419D01*
X54596436Y-139534441D01*
X54592351Y-139492960D01*
X54592351Y-138816740D01*
X54596436Y-138775259D01*
X54606744Y-138741281D01*
X54623485Y-138709960D01*
X54646012Y-138682511D01*
X54673461Y-138659984D01*
X54704782Y-138643243D01*
X54738760Y-138632935D01*
X54780241Y-138628850D01*
X55381461Y-138628850D01*
X55422942Y-138632935D01*
G37*
G36*
X114012721Y-137991174D02*
G01*
X114112995Y-138032709D01*
X114112996Y-138032710D01*
X114203242Y-138093010D01*
X114279990Y-138169758D01*
X114298265Y-138197109D01*
X114340291Y-138260005D01*
X114381826Y-138360279D01*
X114403000Y-138466730D01*
X114403000Y-138575270D01*
X114381826Y-138681721D01*
X114340291Y-138781995D01*
X114340290Y-138781996D01*
X114279990Y-138872242D01*
X114203242Y-138948990D01*
X114159289Y-138978358D01*
X114112995Y-139009291D01*
X114012721Y-139050826D01*
X113906270Y-139072000D01*
X113797730Y-139072000D01*
X113691279Y-139050826D01*
X113591005Y-139009291D01*
X113544711Y-138978358D01*
X113500758Y-138948990D01*
X113424010Y-138872242D01*
X113363710Y-138781996D01*
X113363709Y-138781995D01*
X113322174Y-138681721D01*
X113301000Y-138575270D01*
X113301000Y-138466730D01*
X113322174Y-138360279D01*
X113363709Y-138260005D01*
X113405735Y-138197109D01*
X113424010Y-138169758D01*
X113500758Y-138093010D01*
X113591004Y-138032710D01*
X113591005Y-138032709D01*
X113691279Y-137991174D01*
X113797730Y-137970000D01*
X113906270Y-137970000D01*
X114012721Y-137991174D01*
G37*
G36*
X85869146Y-138445038D02*
G01*
X84767146Y-138445038D01*
X84767146Y-137343038D01*
X85869146Y-137343038D01*
X85869146Y-138445038D01*
G37*
G36*
X80019146Y-137445038D02*
G01*
X78717146Y-137445038D01*
X78717146Y-134343038D01*
X80019146Y-134343038D01*
X80019146Y-137445038D01*
G37*
G36*
X82019146Y-137445038D02*
G01*
X80717146Y-137445038D01*
X80717146Y-134343038D01*
X82019146Y-134343038D01*
X82019146Y-137445038D01*
G37*
G36*
X78019146Y-137445038D02*
G01*
X76717146Y-137445038D01*
X76717146Y-134343038D01*
X78019146Y-134343038D01*
X78019146Y-137445038D01*
G37*
G36*
X76019146Y-137445038D02*
G01*
X74717146Y-137445038D01*
X74717146Y-134343038D01*
X76019146Y-134343038D01*
X76019146Y-137445038D01*
G37*
G36*
X74019146Y-137445038D02*
G01*
X72717146Y-137445038D01*
X72717146Y-134343038D01*
X74019146Y-134343038D01*
X74019146Y-137445038D01*
G37*
G36*
X84019146Y-137445038D02*
G01*
X82717146Y-137445038D01*
X82717146Y-134343038D01*
X84019146Y-134343038D01*
X84019146Y-137445038D01*
G37*
G36*
X70019146Y-137445038D02*
G01*
X68717146Y-137445038D01*
X68717146Y-134343038D01*
X70019146Y-134343038D01*
X70019146Y-137445038D01*
G37*
G36*
X72019146Y-137445038D02*
G01*
X70717146Y-137445038D01*
X70717146Y-134343038D01*
X72019146Y-134343038D01*
X72019146Y-137445038D01*
G37*
G36*
X47496591Y-136449492D02*
G01*
X47530569Y-136459800D01*
X47561890Y-136476541D01*
X47589339Y-136499068D01*
X47611866Y-136526517D01*
X47628607Y-136557838D01*
X47638915Y-136591816D01*
X47643000Y-136633297D01*
X47643000Y-137234517D01*
X47638915Y-137275998D01*
X47628607Y-137309976D01*
X47611866Y-137341297D01*
X47589339Y-137368746D01*
X47561890Y-137391273D01*
X47530569Y-137408014D01*
X47496591Y-137418322D01*
X47455110Y-137422407D01*
X46778890Y-137422407D01*
X46737409Y-137418322D01*
X46703431Y-137408014D01*
X46672110Y-137391273D01*
X46644661Y-137368746D01*
X46622134Y-137341297D01*
X46605393Y-137309976D01*
X46595085Y-137275998D01*
X46591000Y-137234517D01*
X46591000Y-136633297D01*
X46595085Y-136591816D01*
X46605393Y-136557838D01*
X46622134Y-136526517D01*
X46644661Y-136499068D01*
X46672110Y-136476541D01*
X46703431Y-136459800D01*
X46737409Y-136449492D01*
X46778890Y-136445407D01*
X47455110Y-136445407D01*
X47496591Y-136449492D01*
G37*
G36*
X112153000Y-137322000D02*
G01*
X110351000Y-137322000D01*
X110351000Y-135220000D01*
X112153000Y-135220000D01*
X112153000Y-137322000D01*
G37*
G36*
X117603000Y-137322000D02*
G01*
X115801000Y-137322000D01*
X115801000Y-135220000D01*
X117603000Y-135220000D01*
X117603000Y-137322000D01*
G37*
G36*
X100740358Y-135934082D02*
G01*
X100745032Y-135935500D01*
X100749333Y-135937799D01*
X100755705Y-135943028D01*
X100776079Y-135956642D01*
X100798718Y-135966019D01*
X100822752Y-135970799D01*
X100847256Y-135970799D01*
X100871289Y-135966018D01*
X100893928Y-135956641D01*
X100914301Y-135943028D01*
X100920673Y-135937799D01*
X100924974Y-135935500D01*
X100929648Y-135934082D01*
X100940644Y-135932999D01*
X101229362Y-135932999D01*
X101240358Y-135934082D01*
X101245032Y-135935500D01*
X101249333Y-135937799D01*
X101255705Y-135943028D01*
X101276079Y-135956642D01*
X101298718Y-135966019D01*
X101322752Y-135970799D01*
X101347256Y-135970799D01*
X101371289Y-135966018D01*
X101393928Y-135956641D01*
X101414301Y-135943028D01*
X101420673Y-135937799D01*
X101424974Y-135935500D01*
X101429648Y-135934082D01*
X101440644Y-135932999D01*
X101729362Y-135932999D01*
X101740358Y-135934082D01*
X101745032Y-135935500D01*
X101749333Y-135937799D01*
X101755705Y-135943028D01*
X101776079Y-135956642D01*
X101798718Y-135966019D01*
X101822752Y-135970799D01*
X101847256Y-135970799D01*
X101871289Y-135966018D01*
X101893928Y-135956641D01*
X101914301Y-135943028D01*
X101920673Y-135937799D01*
X101924974Y-135935500D01*
X101929648Y-135934082D01*
X101940644Y-135932999D01*
X102229362Y-135932999D01*
X102240358Y-135934082D01*
X102245032Y-135935500D01*
X102249333Y-135937799D01*
X102255705Y-135943028D01*
X102276079Y-135956642D01*
X102298718Y-135966019D01*
X102322752Y-135970799D01*
X102347256Y-135970799D01*
X102371289Y-135966018D01*
X102393928Y-135956641D01*
X102414301Y-135943028D01*
X102420673Y-135937799D01*
X102424974Y-135935500D01*
X102429648Y-135934082D01*
X102440644Y-135932999D01*
X102729362Y-135932999D01*
X102740358Y-135934082D01*
X102745032Y-135935500D01*
X102749333Y-135937799D01*
X102755705Y-135943028D01*
X102776079Y-135956642D01*
X102798718Y-135966019D01*
X102822752Y-135970799D01*
X102847256Y-135970799D01*
X102871289Y-135966018D01*
X102893928Y-135956641D01*
X102914301Y-135943028D01*
X102920673Y-135937799D01*
X102924974Y-135935500D01*
X102929648Y-135934082D01*
X102940644Y-135932999D01*
X103229362Y-135932999D01*
X103240358Y-135934082D01*
X103245032Y-135935500D01*
X103249333Y-135937799D01*
X103255705Y-135943028D01*
X103276079Y-135956642D01*
X103298718Y-135966019D01*
X103322752Y-135970799D01*
X103347256Y-135970799D01*
X103371289Y-135966018D01*
X103393928Y-135956641D01*
X103414301Y-135943028D01*
X103420673Y-135937799D01*
X103424974Y-135935500D01*
X103429648Y-135934082D01*
X103440644Y-135932999D01*
X103729362Y-135932999D01*
X103740358Y-135934082D01*
X103745032Y-135935500D01*
X103749334Y-135937799D01*
X103753107Y-135940895D01*
X103756203Y-135944668D01*
X103758502Y-135948970D01*
X103759920Y-135953644D01*
X103761003Y-135964640D01*
X103761003Y-136803358D01*
X103759920Y-136814354D01*
X103758502Y-136819028D01*
X103756203Y-136823330D01*
X103753107Y-136827103D01*
X103749334Y-136830199D01*
X103745032Y-136832498D01*
X103740358Y-136833916D01*
X103729362Y-136834999D01*
X103440644Y-136834999D01*
X103429648Y-136833916D01*
X103424974Y-136832498D01*
X103420673Y-136830199D01*
X103414301Y-136824970D01*
X103393927Y-136811356D01*
X103371288Y-136801979D01*
X103347254Y-136797199D01*
X103322750Y-136797199D01*
X103298717Y-136801980D01*
X103276078Y-136811357D01*
X103255705Y-136824970D01*
X103249333Y-136830199D01*
X103245032Y-136832498D01*
X103240358Y-136833916D01*
X103229362Y-136834999D01*
X102940644Y-136834999D01*
X102929648Y-136833916D01*
X102924974Y-136832498D01*
X102920673Y-136830199D01*
X102914301Y-136824970D01*
X102893927Y-136811356D01*
X102871288Y-136801979D01*
X102847254Y-136797199D01*
X102822750Y-136797199D01*
X102798717Y-136801980D01*
X102776078Y-136811357D01*
X102755705Y-136824970D01*
X102749333Y-136830199D01*
X102745032Y-136832498D01*
X102740358Y-136833916D01*
X102729362Y-136834999D01*
X102440644Y-136834999D01*
X102429648Y-136833916D01*
X102424974Y-136832498D01*
X102420673Y-136830199D01*
X102414301Y-136824970D01*
X102393927Y-136811356D01*
X102371288Y-136801979D01*
X102347254Y-136797199D01*
X102322750Y-136797199D01*
X102298717Y-136801980D01*
X102276078Y-136811357D01*
X102255705Y-136824970D01*
X102249333Y-136830199D01*
X102245032Y-136832498D01*
X102240358Y-136833916D01*
X102229362Y-136834999D01*
X101940644Y-136834999D01*
X101929648Y-136833916D01*
X101924974Y-136832498D01*
X101920673Y-136830199D01*
X101914301Y-136824970D01*
X101893927Y-136811356D01*
X101871288Y-136801979D01*
X101847254Y-136797199D01*
X101822750Y-136797199D01*
X101798717Y-136801980D01*
X101776078Y-136811357D01*
X101755705Y-136824970D01*
X101749333Y-136830199D01*
X101745032Y-136832498D01*
X101740358Y-136833916D01*
X101729362Y-136834999D01*
X101440644Y-136834999D01*
X101429648Y-136833916D01*
X101424974Y-136832498D01*
X101420673Y-136830199D01*
X101414301Y-136824970D01*
X101393927Y-136811356D01*
X101371288Y-136801979D01*
X101347254Y-136797199D01*
X101322750Y-136797199D01*
X101298717Y-136801980D01*
X101276078Y-136811357D01*
X101255705Y-136824970D01*
X101249333Y-136830199D01*
X101245032Y-136832498D01*
X101240358Y-136833916D01*
X101229362Y-136834999D01*
X100940644Y-136834999D01*
X100929648Y-136833916D01*
X100924974Y-136832498D01*
X100920673Y-136830199D01*
X100914301Y-136824970D01*
X100893927Y-136811356D01*
X100871288Y-136801979D01*
X100847254Y-136797199D01*
X100822750Y-136797199D01*
X100798717Y-136801980D01*
X100776078Y-136811357D01*
X100755705Y-136824970D01*
X100749333Y-136830199D01*
X100745032Y-136832498D01*
X100740358Y-136833916D01*
X100729362Y-136834999D01*
X100440644Y-136834999D01*
X100429648Y-136833916D01*
X100424974Y-136832498D01*
X100420672Y-136830199D01*
X100416899Y-136827103D01*
X100413803Y-136823330D01*
X100411504Y-136819028D01*
X100410086Y-136814354D01*
X100409003Y-136803358D01*
X100409003Y-135964640D01*
X100410086Y-135953644D01*
X100411504Y-135948970D01*
X100413803Y-135944668D01*
X100416899Y-135940895D01*
X100420672Y-135937799D01*
X100424974Y-135935500D01*
X100429648Y-135934082D01*
X100440644Y-135932999D01*
X100729362Y-135932999D01*
X100740358Y-135934082D01*
G37*
G36*
X35728000Y-136321000D02*
G01*
X34376000Y-136321000D01*
X34376000Y-135459000D01*
X35728000Y-135459000D01*
X35728000Y-136321000D01*
G37*
G36*
X41878000Y-136321000D02*
G01*
X40526000Y-136321000D01*
X40526000Y-135459000D01*
X41878000Y-135459000D01*
X41878000Y-136321000D01*
G37*
G36*
X47496591Y-134874492D02*
G01*
X47530569Y-134884800D01*
X47561890Y-134901541D01*
X47589339Y-134924068D01*
X47611866Y-134951517D01*
X47628607Y-134982838D01*
X47638915Y-135016816D01*
X47643000Y-135058297D01*
X47643000Y-135659517D01*
X47638915Y-135700998D01*
X47628607Y-135734976D01*
X47611866Y-135766297D01*
X47589339Y-135793746D01*
X47561890Y-135816273D01*
X47530569Y-135833014D01*
X47496591Y-135843322D01*
X47455110Y-135847407D01*
X46778890Y-135847407D01*
X46737409Y-135843322D01*
X46703431Y-135833014D01*
X46672110Y-135816273D01*
X46644661Y-135793746D01*
X46622134Y-135766297D01*
X46605393Y-135734976D01*
X46595085Y-135700998D01*
X46591000Y-135659517D01*
X46591000Y-135058297D01*
X46595085Y-135016816D01*
X46605393Y-134982838D01*
X46622134Y-134951517D01*
X46644661Y-134924068D01*
X46672110Y-134901541D01*
X46703431Y-134884800D01*
X46737409Y-134874492D01*
X46778890Y-134870407D01*
X47455110Y-134870407D01*
X47496591Y-134874492D01*
G37*
G36*
X109155000Y-135731000D02*
G01*
X107253000Y-135731000D01*
X107253000Y-133129000D01*
X109155000Y-133129000D01*
X109155000Y-135731000D01*
G37*
G36*
X103427091Y-134352086D02*
G01*
X103461069Y-134362394D01*
X103492390Y-134379135D01*
X103519839Y-134401662D01*
X103542366Y-134429111D01*
X103559107Y-134460432D01*
X103569415Y-134494410D01*
X103573500Y-134535891D01*
X103573500Y-135212111D01*
X103569415Y-135253592D01*
X103559107Y-135287570D01*
X103542366Y-135318891D01*
X103519839Y-135346340D01*
X103492390Y-135368867D01*
X103461069Y-135385608D01*
X103427091Y-135395916D01*
X103385610Y-135400001D01*
X102784390Y-135400001D01*
X102742909Y-135395916D01*
X102708931Y-135385608D01*
X102677610Y-135368867D01*
X102650161Y-135346340D01*
X102627634Y-135318891D01*
X102610893Y-135287570D01*
X102600585Y-135253592D01*
X102596500Y-135212111D01*
X102596500Y-134535891D01*
X102600585Y-134494410D01*
X102610893Y-134460432D01*
X102627634Y-134429111D01*
X102650161Y-134401662D01*
X102677610Y-134379135D01*
X102708931Y-134362394D01*
X102742909Y-134352086D01*
X102784390Y-134348001D01*
X103385610Y-134348001D01*
X103427091Y-134352086D01*
G37*
G36*
X105002091Y-134352086D02*
G01*
X105036069Y-134362394D01*
X105067390Y-134379135D01*
X105094839Y-134401662D01*
X105117366Y-134429111D01*
X105134107Y-134460432D01*
X105144415Y-134494410D01*
X105148500Y-134535891D01*
X105148500Y-135212111D01*
X105144415Y-135253592D01*
X105134107Y-135287570D01*
X105117366Y-135318891D01*
X105094839Y-135346340D01*
X105067390Y-135368867D01*
X105036069Y-135385608D01*
X105002091Y-135395916D01*
X104960610Y-135400001D01*
X104359390Y-135400001D01*
X104317909Y-135395916D01*
X104283931Y-135385608D01*
X104252610Y-135368867D01*
X104225161Y-135346340D01*
X104202634Y-135318891D01*
X104185893Y-135287570D01*
X104175585Y-135253592D01*
X104171500Y-135212111D01*
X104171500Y-134535891D01*
X104175585Y-134494410D01*
X104185893Y-134460432D01*
X104202634Y-134429111D01*
X104225161Y-134401662D01*
X104252610Y-134379135D01*
X104283931Y-134362394D01*
X104317909Y-134352086D01*
X104359390Y-134348001D01*
X104960610Y-134348001D01*
X105002091Y-134352086D01*
G37*
G36*
X41878000Y-135051000D02*
G01*
X40526000Y-135051000D01*
X40526000Y-134189000D01*
X41878000Y-134189000D01*
X41878000Y-135051000D01*
G37*
G36*
X35728000Y-135051000D02*
G01*
X34376000Y-135051000D01*
X34376000Y-134189000D01*
X35728000Y-134189000D01*
X35728000Y-135051000D01*
G37*
G36*
X35728000Y-133781000D02*
G01*
X34376000Y-133781000D01*
X34376000Y-132919000D01*
X35728000Y-132919000D01*
X35728000Y-133781000D01*
G37*
G36*
X41878000Y-133781000D02*
G01*
X40526000Y-133781000D01*
X40526000Y-132919000D01*
X41878000Y-132919000D01*
X41878000Y-133781000D01*
G37*
G36*
X35728000Y-132511000D02*
G01*
X34376000Y-132511000D01*
X34376000Y-131649000D01*
X35728000Y-131649000D01*
X35728000Y-132511000D01*
G37*
G36*
X41878000Y-132511000D02*
G01*
X40526000Y-132511000D01*
X40526000Y-131649000D01*
X41878000Y-131649000D01*
X41878000Y-132511000D01*
G37*
G36*
X41878000Y-131241000D02*
G01*
X40526000Y-131241000D01*
X40526000Y-130379000D01*
X41878000Y-130379000D01*
X41878000Y-131241000D01*
G37*
G36*
X35728000Y-131241000D02*
G01*
X34376000Y-131241000D01*
X34376000Y-130379000D01*
X35728000Y-130379000D01*
X35728000Y-131241000D01*
G37*
G36*
X41878000Y-129971000D02*
G01*
X40526000Y-129971000D01*
X40526000Y-129109000D01*
X41878000Y-129109000D01*
X41878000Y-129971000D01*
G37*
G36*
X35728000Y-129971000D02*
G01*
X34376000Y-129971000D01*
X34376000Y-129109000D01*
X35728000Y-129109000D01*
X35728000Y-129971000D01*
G37*
G36*
X35728000Y-128701000D02*
G01*
X34376000Y-128701000D01*
X34376000Y-127839000D01*
X35728000Y-127839000D01*
X35728000Y-128701000D01*
G37*
G36*
X41878000Y-128701000D02*
G01*
X40526000Y-128701000D01*
X40526000Y-127839000D01*
X41878000Y-127839000D01*
X41878000Y-128701000D01*
G37*
G36*
X72479934Y-125448671D02*
G01*
X72509877Y-125457754D01*
X72537465Y-125472500D01*
X72561651Y-125492349D01*
X72581500Y-125516535D01*
X72596246Y-125544123D01*
X72605329Y-125574066D01*
X72609000Y-125611340D01*
X72609000Y-127880660D01*
X72605329Y-127917934D01*
X72596246Y-127947877D01*
X72581500Y-127975465D01*
X72561651Y-127999651D01*
X72537465Y-128019500D01*
X72509877Y-128034246D01*
X72479934Y-128043329D01*
X72442660Y-128047000D01*
X68273340Y-128047000D01*
X68236066Y-128043329D01*
X68206123Y-128034246D01*
X68178535Y-128019500D01*
X68154349Y-127999651D01*
X68134500Y-127975465D01*
X68119754Y-127947877D01*
X68110671Y-127917934D01*
X68107000Y-127880660D01*
X68107000Y-125611340D01*
X68110671Y-125574066D01*
X68119754Y-125544123D01*
X68134500Y-125516535D01*
X68154349Y-125492349D01*
X68178535Y-125472500D01*
X68206123Y-125457754D01*
X68236066Y-125448671D01*
X68273340Y-125445000D01*
X72442660Y-125445000D01*
X72479934Y-125448671D01*
G37*
G36*
X65079934Y-125448671D02*
G01*
X65109877Y-125457754D01*
X65137465Y-125472500D01*
X65161651Y-125492349D01*
X65181500Y-125516535D01*
X65196246Y-125544123D01*
X65205329Y-125574066D01*
X65209000Y-125611340D01*
X65209000Y-127880660D01*
X65205329Y-127917934D01*
X65196246Y-127947877D01*
X65181500Y-127975465D01*
X65161651Y-127999651D01*
X65137465Y-128019500D01*
X65109877Y-128034246D01*
X65079934Y-128043329D01*
X65042660Y-128047000D01*
X60873340Y-128047000D01*
X60836066Y-128043329D01*
X60806123Y-128034246D01*
X60778535Y-128019500D01*
X60754349Y-127999651D01*
X60734500Y-127975465D01*
X60719754Y-127947877D01*
X60710671Y-127917934D01*
X60707000Y-127880660D01*
X60707000Y-125611340D01*
X60710671Y-125574066D01*
X60719754Y-125544123D01*
X60734500Y-125516535D01*
X60754349Y-125492349D01*
X60778535Y-125472500D01*
X60806123Y-125457754D01*
X60836066Y-125448671D01*
X60873340Y-125445000D01*
X65042660Y-125445000D01*
X65079934Y-125448671D01*
G37*
G36*
X35728000Y-127431000D02*
G01*
X34376000Y-127431000D01*
X34376000Y-126569000D01*
X35728000Y-126569000D01*
X35728000Y-127431000D01*
G37*
G36*
X41878000Y-127431000D02*
G01*
X40526000Y-127431000D01*
X40526000Y-126569000D01*
X41878000Y-126569000D01*
X41878000Y-127431000D01*
G37*
G36*
X35728000Y-126161000D02*
G01*
X34376000Y-126161000D01*
X34376000Y-125299000D01*
X35728000Y-125299000D01*
X35728000Y-126161000D01*
G37*
G36*
X41878000Y-126161000D02*
G01*
X40526000Y-126161000D01*
X40526000Y-125299000D01*
X41878000Y-125299000D01*
X41878000Y-126161000D01*
G37*
G36*
X104519487Y-122413996D02*
G01*
X104729921Y-122501161D01*
X104756255Y-122512069D01*
X104878737Y-122593909D01*
X104969339Y-122654447D01*
X105150553Y-122835661D01*
X105292932Y-123048747D01*
X105391004Y-123285513D01*
X105441000Y-123536861D01*
X105441000Y-123793139D01*
X105391004Y-124044487D01*
X105292932Y-124281253D01*
X105292931Y-124281255D01*
X105150553Y-124494339D01*
X104969339Y-124675553D01*
X104756255Y-124817931D01*
X104756254Y-124817932D01*
X104756253Y-124817932D01*
X104519487Y-124916004D01*
X104268139Y-124966000D01*
X104011861Y-124966000D01*
X103760513Y-124916004D01*
X103523747Y-124817932D01*
X103523746Y-124817932D01*
X103523745Y-124817931D01*
X103310661Y-124675553D01*
X103129447Y-124494339D01*
X102987069Y-124281255D01*
X102987068Y-124281253D01*
X102888996Y-124044487D01*
X102839000Y-123793139D01*
X102839000Y-123536861D01*
X102888996Y-123285513D01*
X102987068Y-123048747D01*
X103129447Y-122835661D01*
X103310661Y-122654447D01*
X103401263Y-122593909D01*
X103523745Y-122512069D01*
X103550079Y-122501161D01*
X103760513Y-122413996D01*
X104011861Y-122364000D01*
X104268139Y-122364000D01*
X104519487Y-122413996D01*
G37*
G36*
X94319487Y-122413996D02*
G01*
X94529921Y-122501161D01*
X94556255Y-122512069D01*
X94678737Y-122593909D01*
X94769339Y-122654447D01*
X94950553Y-122835661D01*
X95092932Y-123048747D01*
X95191004Y-123285513D01*
X95241000Y-123536861D01*
X95241000Y-123793139D01*
X95191004Y-124044487D01*
X95092932Y-124281253D01*
X95092931Y-124281255D01*
X94950553Y-124494339D01*
X94769339Y-124675553D01*
X94556255Y-124817931D01*
X94556254Y-124817932D01*
X94556253Y-124817932D01*
X94319487Y-124916004D01*
X94068139Y-124966000D01*
X93811861Y-124966000D01*
X93560513Y-124916004D01*
X93323747Y-124817932D01*
X93323746Y-124817932D01*
X93323745Y-124817931D01*
X93110661Y-124675553D01*
X92929447Y-124494339D01*
X92787069Y-124281255D01*
X92787068Y-124281253D01*
X92688996Y-124044487D01*
X92639000Y-123793139D01*
X92639000Y-123536861D01*
X92688996Y-123285513D01*
X92787068Y-123048747D01*
X92929447Y-122835661D01*
X93110661Y-122654447D01*
X93201263Y-122593909D01*
X93323745Y-122512069D01*
X93350079Y-122501161D01*
X93560513Y-122413996D01*
X93811861Y-122364000D01*
X94068139Y-122364000D01*
X94319487Y-122413996D01*
G37*
G36*
X35728000Y-124891000D02*
G01*
X34376000Y-124891000D01*
X34376000Y-124029000D01*
X35728000Y-124029000D01*
X35728000Y-124891000D01*
G37*
G36*
X41878000Y-124891000D02*
G01*
X40526000Y-124891000D01*
X40526000Y-124029000D01*
X41878000Y-124029000D01*
X41878000Y-124891000D01*
G37*
G36*
X83183591Y-122451585D02*
G01*
X83217569Y-122461893D01*
X83248890Y-122478634D01*
X83276339Y-122501161D01*
X83298866Y-122528610D01*
X83315607Y-122559931D01*
X83325915Y-122593909D01*
X83330000Y-122635390D01*
X83330000Y-123236610D01*
X83325915Y-123278091D01*
X83315607Y-123312069D01*
X83298866Y-123343390D01*
X83276339Y-123370839D01*
X83248890Y-123393366D01*
X83217569Y-123410107D01*
X83183591Y-123420415D01*
X83142110Y-123424500D01*
X82465890Y-123424500D01*
X82424409Y-123420415D01*
X82390431Y-123410107D01*
X82359110Y-123393366D01*
X82331661Y-123370839D01*
X82309134Y-123343390D01*
X82292393Y-123312069D01*
X82282085Y-123278091D01*
X82278000Y-123236610D01*
X82278000Y-122635390D01*
X82282085Y-122593909D01*
X82292393Y-122559931D01*
X82309134Y-122528610D01*
X82331661Y-122501161D01*
X82359110Y-122478634D01*
X82390431Y-122461893D01*
X82424409Y-122451585D01*
X82465890Y-122447500D01*
X83142110Y-122447500D01*
X83183591Y-122451585D01*
G37*
G36*
X39966091Y-121398085D02*
G01*
X40000069Y-121408393D01*
X40031390Y-121425134D01*
X40058839Y-121447661D01*
X40081366Y-121475110D01*
X40098107Y-121506431D01*
X40108415Y-121540409D01*
X40112500Y-121581890D01*
X40112500Y-122258110D01*
X40108415Y-122299591D01*
X40098107Y-122333569D01*
X40081366Y-122364890D01*
X40058839Y-122392339D01*
X40031390Y-122414866D01*
X40000069Y-122431607D01*
X39966091Y-122441915D01*
X39924610Y-122446000D01*
X39323390Y-122446000D01*
X39281909Y-122441915D01*
X39247931Y-122431607D01*
X39216610Y-122414866D01*
X39189161Y-122392339D01*
X39166634Y-122364890D01*
X39149893Y-122333569D01*
X39139585Y-122299591D01*
X39135500Y-122258110D01*
X39135500Y-121581890D01*
X39139585Y-121540409D01*
X39149893Y-121506431D01*
X39166634Y-121475110D01*
X39189161Y-121447661D01*
X39216610Y-121425134D01*
X39247931Y-121408393D01*
X39281909Y-121398085D01*
X39323390Y-121394000D01*
X39924610Y-121394000D01*
X39966091Y-121398085D01*
G37*
G36*
X38391091Y-121398085D02*
G01*
X38425069Y-121408393D01*
X38456390Y-121425134D01*
X38483839Y-121447661D01*
X38506366Y-121475110D01*
X38523107Y-121506431D01*
X38533415Y-121540409D01*
X38537500Y-121581890D01*
X38537500Y-122258110D01*
X38533415Y-122299591D01*
X38523107Y-122333569D01*
X38506366Y-122364890D01*
X38483839Y-122392339D01*
X38456390Y-122414866D01*
X38425069Y-122431607D01*
X38391091Y-122441915D01*
X38349610Y-122446000D01*
X37748390Y-122446000D01*
X37706909Y-122441915D01*
X37672931Y-122431607D01*
X37641610Y-122414866D01*
X37614161Y-122392339D01*
X37591634Y-122364890D01*
X37574893Y-122333569D01*
X37564585Y-122299591D01*
X37560500Y-122258110D01*
X37560500Y-121581890D01*
X37564585Y-121540409D01*
X37574893Y-121506431D01*
X37591634Y-121475110D01*
X37614161Y-121447661D01*
X37641610Y-121425134D01*
X37672931Y-121408393D01*
X37706909Y-121398085D01*
X37748390Y-121394000D01*
X38349610Y-121394000D01*
X38391091Y-121398085D01*
G37*
G36*
X83183591Y-120876585D02*
G01*
X83217569Y-120886893D01*
X83248890Y-120903634D01*
X83276339Y-120926161D01*
X83298866Y-120953610D01*
X83315607Y-120984931D01*
X83325915Y-121018909D01*
X83330000Y-121060390D01*
X83330000Y-121661610D01*
X83325915Y-121703091D01*
X83315607Y-121737069D01*
X83298866Y-121768390D01*
X83276339Y-121795839D01*
X83248890Y-121818366D01*
X83217569Y-121835107D01*
X83183591Y-121845415D01*
X83142110Y-121849500D01*
X82465890Y-121849500D01*
X82424409Y-121845415D01*
X82390431Y-121835107D01*
X82359110Y-121818366D01*
X82331661Y-121795839D01*
X82309134Y-121768390D01*
X82292393Y-121737069D01*
X82282085Y-121703091D01*
X82278000Y-121661610D01*
X82278000Y-121060390D01*
X82282085Y-121018909D01*
X82292393Y-120984931D01*
X82309134Y-120953610D01*
X82331661Y-120926161D01*
X82359110Y-120903634D01*
X82390431Y-120886893D01*
X82424409Y-120876585D01*
X82465890Y-120872500D01*
X83142110Y-120872500D01*
X83183591Y-120876585D01*
G37*
G36*
X66331091Y-120636085D02*
G01*
X66365069Y-120646393D01*
X66396390Y-120663134D01*
X66423839Y-120685661D01*
X66446366Y-120713110D01*
X66463107Y-120744431D01*
X66473415Y-120778409D01*
X66477500Y-120819890D01*
X66477500Y-121496110D01*
X66473415Y-121537591D01*
X66463107Y-121571569D01*
X66446366Y-121602890D01*
X66423839Y-121630339D01*
X66396390Y-121652866D01*
X66365069Y-121669607D01*
X66331091Y-121679915D01*
X66289610Y-121684000D01*
X65688390Y-121684000D01*
X65646909Y-121679915D01*
X65612931Y-121669607D01*
X65581610Y-121652866D01*
X65554161Y-121630339D01*
X65531634Y-121602890D01*
X65514893Y-121571569D01*
X65504585Y-121537591D01*
X65500500Y-121496110D01*
X65500500Y-120819890D01*
X65504585Y-120778409D01*
X65514893Y-120744431D01*
X65531634Y-120713110D01*
X65554161Y-120685661D01*
X65581610Y-120663134D01*
X65612931Y-120646393D01*
X65646909Y-120636085D01*
X65688390Y-120632000D01*
X66289610Y-120632000D01*
X66331091Y-120636085D01*
G37*
G36*
X67906091Y-120636085D02*
G01*
X67940069Y-120646393D01*
X67971390Y-120663134D01*
X67998839Y-120685661D01*
X68021366Y-120713110D01*
X68038107Y-120744431D01*
X68048415Y-120778409D01*
X68052500Y-120819890D01*
X68052500Y-121496110D01*
X68048415Y-121537591D01*
X68038107Y-121571569D01*
X68021366Y-121602890D01*
X67998839Y-121630339D01*
X67971390Y-121652866D01*
X67940069Y-121669607D01*
X67906091Y-121679915D01*
X67864610Y-121684000D01*
X67263390Y-121684000D01*
X67221909Y-121679915D01*
X67187931Y-121669607D01*
X67156610Y-121652866D01*
X67129161Y-121630339D01*
X67106634Y-121602890D01*
X67089893Y-121571569D01*
X67079585Y-121537591D01*
X67075500Y-121496110D01*
X67075500Y-120819890D01*
X67079585Y-120778409D01*
X67089893Y-120744431D01*
X67106634Y-120713110D01*
X67129161Y-120685661D01*
X67156610Y-120663134D01*
X67187931Y-120646393D01*
X67221909Y-120636085D01*
X67263390Y-120632000D01*
X67864610Y-120632000D01*
X67906091Y-120636085D01*
G37*
G36*
X32620442Y-119715519D02*
G01*
X32686626Y-119722037D01*
X32856465Y-119773557D01*
X33012990Y-119857222D01*
X33048728Y-119886552D01*
X33150185Y-119969814D01*
X33229122Y-120066000D01*
X33262777Y-120107009D01*
X33346442Y-120263534D01*
X33397962Y-120433373D01*
X33415358Y-120610000D01*
X33397962Y-120786627D01*
X33346442Y-120956466D01*
X33262777Y-121112991D01*
X33233447Y-121148729D01*
X33150185Y-121250186D01*
X33048728Y-121333448D01*
X33012990Y-121362778D01*
X32856465Y-121446443D01*
X32686626Y-121497963D01*
X32640032Y-121502552D01*
X32554259Y-121511000D01*
X32215739Y-121511000D01*
X32129966Y-121502552D01*
X32083372Y-121497963D01*
X31913533Y-121446443D01*
X31757008Y-121362778D01*
X31721270Y-121333448D01*
X31619813Y-121250186D01*
X31536551Y-121148729D01*
X31507221Y-121112991D01*
X31423556Y-120956466D01*
X31372036Y-120786627D01*
X31354640Y-120610000D01*
X31372036Y-120433373D01*
X31423556Y-120263534D01*
X31507221Y-120107009D01*
X31540876Y-120066000D01*
X31619813Y-119969814D01*
X31721270Y-119886552D01*
X31757008Y-119857222D01*
X31913533Y-119773557D01*
X32083372Y-119722037D01*
X32149556Y-119715519D01*
X32215739Y-119709000D01*
X32554259Y-119709000D01*
X32620442Y-119715519D01*
G37*
G36*
X85155000Y-120166000D02*
G01*
X84253000Y-120166000D01*
X84253000Y-119164000D01*
X85155000Y-119164000D01*
X85155000Y-120166000D01*
G37*
G36*
X83255000Y-120166000D02*
G01*
X82353000Y-120166000D01*
X82353000Y-119164000D01*
X83255000Y-119164000D01*
X83255000Y-120166000D01*
G37*
G36*
X91819487Y-117513996D02*
G01*
X92044044Y-117607011D01*
X92056255Y-117612069D01*
X92269339Y-117754447D01*
X92450553Y-117935661D01*
X92592932Y-118148747D01*
X92691004Y-118385513D01*
X92741000Y-118636861D01*
X92741000Y-118893139D01*
X92691004Y-119144487D01*
X92682921Y-119164000D01*
X92592931Y-119381255D01*
X92450553Y-119594339D01*
X92269339Y-119775553D01*
X92056255Y-119917931D01*
X92056254Y-119917932D01*
X92056253Y-119917932D01*
X91819487Y-120016004D01*
X91568139Y-120066000D01*
X91311861Y-120066000D01*
X91060513Y-120016004D01*
X90823747Y-119917932D01*
X90823746Y-119917932D01*
X90823745Y-119917931D01*
X90610661Y-119775553D01*
X90429447Y-119594339D01*
X90287069Y-119381255D01*
X90197079Y-119164000D01*
X90188996Y-119144487D01*
X90139000Y-118893139D01*
X90139000Y-118636861D01*
X90188996Y-118385513D01*
X90287068Y-118148747D01*
X90429447Y-117935661D01*
X90610661Y-117754447D01*
X90823745Y-117612069D01*
X90835956Y-117607011D01*
X91060513Y-117513996D01*
X91311861Y-117464000D01*
X91568139Y-117464000D01*
X91819487Y-117513996D01*
G37*
G36*
X113303600Y-117212989D02*
G01*
X113336652Y-117223015D01*
X113367103Y-117239292D01*
X113393799Y-117261201D01*
X113415708Y-117287897D01*
X113431985Y-117318348D01*
X113442011Y-117351400D01*
X113446000Y-117391903D01*
X113446000Y-118828097D01*
X113442011Y-118868600D01*
X113431985Y-118901652D01*
X113415708Y-118932103D01*
X113393799Y-118958799D01*
X113367103Y-118980708D01*
X113336652Y-118996985D01*
X113303600Y-119007011D01*
X113263097Y-119011000D01*
X111526903Y-119011000D01*
X111486400Y-119007011D01*
X111453348Y-118996985D01*
X111422897Y-118980708D01*
X111396201Y-118958799D01*
X111374292Y-118932103D01*
X111358015Y-118901652D01*
X111347989Y-118868600D01*
X111344000Y-118828097D01*
X111344000Y-117391903D01*
X111347989Y-117351400D01*
X111358015Y-117318348D01*
X111374292Y-117287897D01*
X111396201Y-117261201D01*
X111422897Y-117239292D01*
X111453348Y-117223015D01*
X111486400Y-117212989D01*
X111526903Y-117209000D01*
X113263097Y-117209000D01*
X113303600Y-117212989D01*
G37*
G36*
X32594759Y-117212989D02*
G01*
X32686626Y-117222037D01*
X32856465Y-117273557D01*
X33012990Y-117357222D01*
X33048728Y-117386552D01*
X33150185Y-117469814D01*
X33233447Y-117571271D01*
X33262777Y-117607009D01*
X33346442Y-117763534D01*
X33397962Y-117933373D01*
X33415358Y-118110000D01*
X33397962Y-118286627D01*
X33346442Y-118456466D01*
X33262777Y-118612991D01*
X33233447Y-118648729D01*
X33150185Y-118750186D01*
X33055249Y-118828097D01*
X33012990Y-118862778D01*
X32856465Y-118946443D01*
X32686626Y-118997963D01*
X32620442Y-119004481D01*
X32554259Y-119011000D01*
X32215739Y-119011000D01*
X32149556Y-119004481D01*
X32083372Y-118997963D01*
X31913533Y-118946443D01*
X31757008Y-118862778D01*
X31714749Y-118828097D01*
X31619813Y-118750186D01*
X31536551Y-118648729D01*
X31507221Y-118612991D01*
X31423556Y-118456466D01*
X31372036Y-118286627D01*
X31354640Y-118110000D01*
X31372036Y-117933373D01*
X31423556Y-117763534D01*
X31507221Y-117607009D01*
X31536551Y-117571271D01*
X31619813Y-117469814D01*
X31721270Y-117386552D01*
X31757008Y-117357222D01*
X31913533Y-117273557D01*
X32083372Y-117222037D01*
X32175239Y-117212989D01*
X32215739Y-117209000D01*
X32554259Y-117209000D01*
X32594759Y-117212989D01*
G37*
G36*
X88327000Y-118966000D02*
G01*
X86425000Y-118966000D01*
X86425000Y-116364000D01*
X88327000Y-116364000D01*
X88327000Y-118966000D01*
G37*
G36*
X84205000Y-118166000D02*
G01*
X83303000Y-118166000D01*
X83303000Y-117164000D01*
X84205000Y-117164000D01*
X84205000Y-118166000D01*
G37*
G36*
X112629760Y-114712989D02*
G01*
X112721627Y-114722037D01*
X112891466Y-114773557D01*
X113047991Y-114857222D01*
X113083729Y-114886552D01*
X113185186Y-114969814D01*
X113268448Y-115071271D01*
X113297778Y-115107009D01*
X113381443Y-115263534D01*
X113432963Y-115433373D01*
X113450359Y-115610000D01*
X113432963Y-115786627D01*
X113381443Y-115956466D01*
X113297778Y-116112991D01*
X113268448Y-116148729D01*
X113185186Y-116250186D01*
X113114376Y-116308297D01*
X113047991Y-116362778D01*
X112891466Y-116446443D01*
X112721627Y-116497963D01*
X112655443Y-116504481D01*
X112589260Y-116511000D01*
X112200740Y-116511000D01*
X112134557Y-116504481D01*
X112068373Y-116497963D01*
X111898534Y-116446443D01*
X111742009Y-116362778D01*
X111675624Y-116308297D01*
X111604814Y-116250186D01*
X111521552Y-116148729D01*
X111492222Y-116112991D01*
X111408557Y-115956466D01*
X111357037Y-115786627D01*
X111339641Y-115610000D01*
X111357037Y-115433373D01*
X111408557Y-115263534D01*
X111492222Y-115107009D01*
X111521552Y-115071271D01*
X111604814Y-114969814D01*
X111706271Y-114886552D01*
X111742009Y-114857222D01*
X111898534Y-114773557D01*
X112068373Y-114722037D01*
X112160240Y-114712989D01*
X112200740Y-114709000D01*
X112589260Y-114709000D01*
X112629760Y-114712989D01*
G37*
G36*
X33268599Y-114712989D02*
G01*
X33301651Y-114723015D01*
X33332102Y-114739292D01*
X33358798Y-114761201D01*
X33380707Y-114787897D01*
X33396984Y-114818348D01*
X33407010Y-114851400D01*
X33410999Y-114891903D01*
X33410999Y-116328097D01*
X33407010Y-116368600D01*
X33396984Y-116401652D01*
X33380707Y-116432103D01*
X33358798Y-116458799D01*
X33332102Y-116480708D01*
X33301651Y-116496985D01*
X33268599Y-116507011D01*
X33228096Y-116511000D01*
X31541902Y-116511000D01*
X31501399Y-116507011D01*
X31468347Y-116496985D01*
X31437896Y-116480708D01*
X31411200Y-116458799D01*
X31389291Y-116432103D01*
X31373014Y-116401652D01*
X31362988Y-116368600D01*
X31358999Y-116328097D01*
X31358999Y-114891903D01*
X31362988Y-114851400D01*
X31373014Y-114818348D01*
X31389291Y-114787897D01*
X31411200Y-114761201D01*
X31437896Y-114739292D01*
X31468347Y-114723015D01*
X31501399Y-114712989D01*
X31541902Y-114709000D01*
X33228096Y-114709000D01*
X33268599Y-114712989D01*
G37*
G36*
X41904228Y-114671703D02*
G01*
X42059100Y-114735853D01*
X42198481Y-114828985D01*
X42317015Y-114947519D01*
X42410147Y-115086900D01*
X42474297Y-115241772D01*
X42507000Y-115406184D01*
X42507000Y-115573816D01*
X42474297Y-115738228D01*
X42410147Y-115893100D01*
X42317015Y-116032481D01*
X42198481Y-116151015D01*
X42059100Y-116244147D01*
X41904228Y-116308297D01*
X41739816Y-116341000D01*
X41572184Y-116341000D01*
X41407772Y-116308297D01*
X41252900Y-116244147D01*
X41113519Y-116151015D01*
X40994985Y-116032481D01*
X40901853Y-115893100D01*
X40837703Y-115738228D01*
X40805000Y-115573816D01*
X40805000Y-115406184D01*
X40837703Y-115241772D01*
X40901853Y-115086900D01*
X40994985Y-114947519D01*
X41113519Y-114828985D01*
X41252900Y-114735853D01*
X41407772Y-114671703D01*
X41572184Y-114639000D01*
X41739816Y-114639000D01*
X41904228Y-114671703D01*
G37*
G36*
X50141000Y-115526000D02*
G01*
X48939000Y-115526000D01*
X48939000Y-110824000D01*
X50141000Y-110824000D01*
X50141000Y-115526000D01*
G37*
G36*
X51841000Y-115526000D02*
G01*
X50639000Y-115526000D01*
X50639000Y-110824000D01*
X51841000Y-110824000D01*
X51841000Y-115526000D01*
G37*
G36*
X53541000Y-115526000D02*
G01*
X52339000Y-115526000D01*
X52339000Y-110824000D01*
X53541000Y-110824000D01*
X53541000Y-115526000D01*
G37*
G36*
X55241000Y-115526000D02*
G01*
X54039000Y-115526000D01*
X54039000Y-110824000D01*
X55241000Y-110824000D01*
X55241000Y-115526000D01*
G37*
G36*
X56941000Y-115526000D02*
G01*
X55739000Y-115526000D01*
X55739000Y-110824000D01*
X56941000Y-110824000D01*
X56941000Y-115526000D01*
G37*
G36*
X94319487Y-112413996D02*
G01*
X94556253Y-112512068D01*
X94556255Y-112512069D01*
X94769339Y-112654447D01*
X94950553Y-112835661D01*
X95092932Y-113048747D01*
X95191004Y-113285513D01*
X95241000Y-113536861D01*
X95241000Y-113793139D01*
X95191004Y-114044487D01*
X95092932Y-114281253D01*
X95092931Y-114281255D01*
X94950553Y-114494339D01*
X94769339Y-114675553D01*
X94556255Y-114817931D01*
X94556254Y-114817932D01*
X94556253Y-114817932D01*
X94319487Y-114916004D01*
X94068139Y-114966000D01*
X93811861Y-114966000D01*
X93560513Y-114916004D01*
X93323747Y-114817932D01*
X93323746Y-114817932D01*
X93323745Y-114817931D01*
X93110661Y-114675553D01*
X92929447Y-114494339D01*
X92787069Y-114281255D01*
X92787068Y-114281253D01*
X92688996Y-114044487D01*
X92639000Y-113793139D01*
X92639000Y-113536861D01*
X92688996Y-113285513D01*
X92787068Y-113048747D01*
X92929447Y-112835661D01*
X93110661Y-112654447D01*
X93323745Y-112512069D01*
X93323747Y-112512068D01*
X93560513Y-112413996D01*
X93811861Y-112364000D01*
X94068139Y-112364000D01*
X94319487Y-112413996D01*
G37*
G36*
X104519487Y-112413996D02*
G01*
X104756253Y-112512068D01*
X104756255Y-112512069D01*
X104969339Y-112654447D01*
X105150553Y-112835661D01*
X105292932Y-113048747D01*
X105391004Y-113285513D01*
X105441000Y-113536861D01*
X105441000Y-113793139D01*
X105391004Y-114044487D01*
X105292932Y-114281253D01*
X105292931Y-114281255D01*
X105150553Y-114494339D01*
X104969339Y-114675553D01*
X104756255Y-114817931D01*
X104756254Y-114817932D01*
X104756253Y-114817932D01*
X104519487Y-114916004D01*
X104268139Y-114966000D01*
X104011861Y-114966000D01*
X103760513Y-114916004D01*
X103523747Y-114817932D01*
X103523746Y-114817932D01*
X103523745Y-114817931D01*
X103310661Y-114675553D01*
X103129447Y-114494339D01*
X102987069Y-114281255D01*
X102987068Y-114281253D01*
X102888996Y-114044487D01*
X102839000Y-113793139D01*
X102839000Y-113536861D01*
X102888996Y-113285513D01*
X102987068Y-113048747D01*
X103129447Y-112835661D01*
X103310661Y-112654447D01*
X103523745Y-112512069D01*
X103523747Y-112512068D01*
X103760513Y-112413996D01*
X104011861Y-112364000D01*
X104268139Y-112364000D01*
X104519487Y-112413996D01*
G37*
G36*
X88327000Y-114966000D02*
G01*
X86425000Y-114966000D01*
X86425000Y-112364000D01*
X88327000Y-112364000D01*
X88327000Y-114966000D01*
G37*
G36*
X64036934Y-107387671D02*
G01*
X64066877Y-107396754D01*
X64094465Y-107411500D01*
X64118651Y-107431349D01*
X64138500Y-107455535D01*
X64153246Y-107483123D01*
X64162329Y-107513066D01*
X64166000Y-107550340D01*
X64166000Y-111719660D01*
X64162329Y-111756934D01*
X64153246Y-111786877D01*
X64138500Y-111814465D01*
X64118651Y-111838651D01*
X64094465Y-111858500D01*
X64066877Y-111873246D01*
X64036934Y-111882329D01*
X63999660Y-111886000D01*
X61730340Y-111886000D01*
X61693066Y-111882329D01*
X61663123Y-111873246D01*
X61635535Y-111858500D01*
X61611349Y-111838651D01*
X61591500Y-111814465D01*
X61576754Y-111786877D01*
X61567671Y-111756934D01*
X61564000Y-111719660D01*
X61564000Y-107550340D01*
X61567671Y-107513066D01*
X61576754Y-107483123D01*
X61591500Y-107455535D01*
X61611349Y-107431349D01*
X61635535Y-107411500D01*
X61663123Y-107396754D01*
X61693066Y-107387671D01*
X61730340Y-107384000D01*
X63999660Y-107384000D01*
X64036934Y-107387671D01*
G37*
G36*
X94319487Y-109078996D02*
G01*
X94556253Y-109177068D01*
X94556255Y-109177069D01*
X94769339Y-109319447D01*
X94950553Y-109500661D01*
X95044459Y-109641201D01*
X95092932Y-109713747D01*
X95191004Y-109950513D01*
X95241000Y-110201861D01*
X95241000Y-110458139D01*
X95191004Y-110709487D01*
X95092932Y-110946253D01*
X95092931Y-110946255D01*
X94950553Y-111159339D01*
X94769339Y-111340553D01*
X94556255Y-111482931D01*
X94556254Y-111482932D01*
X94556253Y-111482932D01*
X94319487Y-111581004D01*
X94068139Y-111631000D01*
X93811861Y-111631000D01*
X93560513Y-111581004D01*
X93323747Y-111482932D01*
X93323746Y-111482932D01*
X93323745Y-111482931D01*
X93110661Y-111340553D01*
X92929447Y-111159339D01*
X92787069Y-110946255D01*
X92787068Y-110946253D01*
X92688996Y-110709487D01*
X92639000Y-110458139D01*
X92639000Y-110201861D01*
X92688996Y-109950513D01*
X92787068Y-109713747D01*
X92835542Y-109641201D01*
X92929447Y-109500661D01*
X93110661Y-109319447D01*
X93323745Y-109177069D01*
X93323747Y-109177068D01*
X93560513Y-109078996D01*
X93811861Y-109029000D01*
X94068139Y-109029000D01*
X94319487Y-109078996D01*
G37*
G36*
X104519487Y-109078996D02*
G01*
X104756253Y-109177068D01*
X104756255Y-109177069D01*
X104969339Y-109319447D01*
X105150553Y-109500661D01*
X105244459Y-109641201D01*
X105292932Y-109713747D01*
X105391004Y-109950513D01*
X105441000Y-110201861D01*
X105441000Y-110458139D01*
X105391004Y-110709487D01*
X105292932Y-110946253D01*
X105292931Y-110946255D01*
X105150553Y-111159339D01*
X104969339Y-111340553D01*
X104756255Y-111482931D01*
X104756254Y-111482932D01*
X104756253Y-111482932D01*
X104519487Y-111581004D01*
X104268139Y-111631000D01*
X104011861Y-111631000D01*
X103760513Y-111581004D01*
X103523747Y-111482932D01*
X103523746Y-111482932D01*
X103523745Y-111482931D01*
X103310661Y-111340553D01*
X103129447Y-111159339D01*
X102987069Y-110946255D01*
X102987068Y-110946253D01*
X102888996Y-110709487D01*
X102839000Y-110458139D01*
X102839000Y-110201861D01*
X102888996Y-109950513D01*
X102987068Y-109713747D01*
X103035542Y-109641201D01*
X103129447Y-109500661D01*
X103310661Y-109319447D01*
X103523745Y-109177069D01*
X103523747Y-109177068D01*
X103760513Y-109078996D01*
X104011861Y-109029000D01*
X104268139Y-109029000D01*
X104519487Y-109078996D01*
G37*
G36*
X113303600Y-109592989D02*
G01*
X113336652Y-109603015D01*
X113367103Y-109619292D01*
X113393799Y-109641201D01*
X113415708Y-109667897D01*
X113431985Y-109698348D01*
X113442011Y-109731400D01*
X113446000Y-109771903D01*
X113446000Y-111208097D01*
X113442011Y-111248600D01*
X113431985Y-111281652D01*
X113415708Y-111312103D01*
X113393799Y-111338799D01*
X113367103Y-111360708D01*
X113336652Y-111376985D01*
X113303600Y-111387011D01*
X113263097Y-111391000D01*
X111526903Y-111391000D01*
X111486400Y-111387011D01*
X111453348Y-111376985D01*
X111422897Y-111360708D01*
X111396201Y-111338799D01*
X111374292Y-111312103D01*
X111358015Y-111281652D01*
X111347989Y-111248600D01*
X111344000Y-111208097D01*
X111344000Y-109771903D01*
X111347989Y-109731400D01*
X111358015Y-109698348D01*
X111374292Y-109667897D01*
X111396201Y-109641201D01*
X111422897Y-109619292D01*
X111453348Y-109603015D01*
X111486400Y-109592989D01*
X111526903Y-109589000D01*
X113263097Y-109589000D01*
X113303600Y-109592989D01*
G37*
G36*
X41904228Y-109671703D02*
G01*
X42059100Y-109735853D01*
X42198481Y-109828985D01*
X42317015Y-109947519D01*
X42410147Y-110086900D01*
X42474297Y-110241772D01*
X42507000Y-110406184D01*
X42507000Y-110573816D01*
X42474297Y-110738228D01*
X42410147Y-110893100D01*
X42317015Y-111032481D01*
X42198481Y-111151015D01*
X42059100Y-111244147D01*
X41904228Y-111308297D01*
X41739816Y-111341000D01*
X41572184Y-111341000D01*
X41407772Y-111308297D01*
X41252900Y-111244147D01*
X41113519Y-111151015D01*
X40994985Y-111032481D01*
X40901853Y-110893100D01*
X40837703Y-110738228D01*
X40805000Y-110573816D01*
X40805000Y-110406184D01*
X40837703Y-110241772D01*
X40901853Y-110086900D01*
X40994985Y-109947519D01*
X41113519Y-109828985D01*
X41252900Y-109735853D01*
X41407772Y-109671703D01*
X41572184Y-109639000D01*
X41739816Y-109639000D01*
X41904228Y-109671703D01*
G37*
G36*
X32645443Y-108920519D02*
G01*
X32711627Y-108927037D01*
X32881466Y-108978557D01*
X33037991Y-109062222D01*
X33058430Y-109078996D01*
X33175186Y-109174814D01*
X33240083Y-109253893D01*
X33287778Y-109312009D01*
X33371443Y-109468534D01*
X33422963Y-109638373D01*
X33440359Y-109815000D01*
X33422963Y-109991627D01*
X33371443Y-110161466D01*
X33371442Y-110161468D01*
X33329611Y-110239728D01*
X33287778Y-110317991D01*
X33258448Y-110353729D01*
X33175186Y-110455186D01*
X33073729Y-110538448D01*
X33037991Y-110567778D01*
X32881466Y-110651443D01*
X32711627Y-110702963D01*
X32645443Y-110709481D01*
X32579260Y-110716000D01*
X32190740Y-110716000D01*
X32124557Y-110709481D01*
X32058373Y-110702963D01*
X31888534Y-110651443D01*
X31732009Y-110567778D01*
X31696271Y-110538448D01*
X31594814Y-110455186D01*
X31511552Y-110353729D01*
X31482222Y-110317991D01*
X31440389Y-110239728D01*
X31398558Y-110161468D01*
X31398557Y-110161466D01*
X31347037Y-109991627D01*
X31329641Y-109815000D01*
X31347037Y-109638373D01*
X31398557Y-109468534D01*
X31482222Y-109312009D01*
X31529917Y-109253893D01*
X31594814Y-109174814D01*
X31711570Y-109078996D01*
X31732009Y-109062222D01*
X31888534Y-108978557D01*
X32058373Y-108927037D01*
X32124557Y-108920519D01*
X32190740Y-108914000D01*
X32579260Y-108914000D01*
X32645443Y-108920519D01*
G37*
G36*
X83249591Y-109243585D02*
G01*
X83283569Y-109253893D01*
X83314890Y-109270634D01*
X83342339Y-109293161D01*
X83364866Y-109320610D01*
X83381607Y-109351931D01*
X83391915Y-109385909D01*
X83396000Y-109427390D01*
X83396000Y-110028610D01*
X83391915Y-110070091D01*
X83381607Y-110104069D01*
X83364866Y-110135390D01*
X83342339Y-110162839D01*
X83314890Y-110185366D01*
X83283569Y-110202107D01*
X83249591Y-110212415D01*
X83208110Y-110216500D01*
X82531890Y-110216500D01*
X82490409Y-110212415D01*
X82456431Y-110202107D01*
X82425110Y-110185366D01*
X82397661Y-110162839D01*
X82375134Y-110135390D01*
X82358393Y-110104069D01*
X82348085Y-110070091D01*
X82344000Y-110028610D01*
X82344000Y-109427390D01*
X82348085Y-109385909D01*
X82358393Y-109351931D01*
X82375134Y-109320610D01*
X82397661Y-109293161D01*
X82425110Y-109270634D01*
X82456431Y-109253893D01*
X82490409Y-109243585D01*
X82531890Y-109239500D01*
X83208110Y-109239500D01*
X83249591Y-109243585D01*
G37*
G36*
X112655443Y-107095519D02*
G01*
X112721627Y-107102037D01*
X112891466Y-107153557D01*
X113047991Y-107237222D01*
X113083729Y-107266552D01*
X113185186Y-107349814D01*
X113249229Y-107427852D01*
X113297778Y-107487009D01*
X113381443Y-107643534D01*
X113432963Y-107813373D01*
X113450359Y-107990000D01*
X113432963Y-108166627D01*
X113381443Y-108336466D01*
X113297778Y-108492991D01*
X113268448Y-108528729D01*
X113185186Y-108630186D01*
X113083729Y-108713448D01*
X113047991Y-108742778D01*
X112891466Y-108826443D01*
X112721627Y-108877963D01*
X112655443Y-108884481D01*
X112589260Y-108891000D01*
X112200740Y-108891000D01*
X112134557Y-108884481D01*
X112068373Y-108877963D01*
X111898534Y-108826443D01*
X111742009Y-108742778D01*
X111706271Y-108713448D01*
X111604814Y-108630186D01*
X111521552Y-108528729D01*
X111492222Y-108492991D01*
X111408557Y-108336466D01*
X111357037Y-108166627D01*
X111339641Y-107990000D01*
X111357037Y-107813373D01*
X111408557Y-107643534D01*
X111492222Y-107487009D01*
X111540771Y-107427852D01*
X111604814Y-107349814D01*
X111706271Y-107266552D01*
X111742009Y-107237222D01*
X111898534Y-107153557D01*
X112068373Y-107102037D01*
X112134557Y-107095519D01*
X112200740Y-107089000D01*
X112589260Y-107089000D01*
X112655443Y-107095519D01*
G37*
G36*
X77101000Y-108851000D02*
G01*
X75299000Y-108851000D01*
X75299000Y-107049000D01*
X77101000Y-107049000D01*
X77101000Y-108851000D01*
G37*
G36*
X58391000Y-108776000D02*
G01*
X47489000Y-108776000D01*
X47489000Y-99274000D01*
X58391000Y-99274000D01*
X58391000Y-108776000D01*
G37*
G36*
X83249591Y-107668585D02*
G01*
X83283569Y-107678893D01*
X83314890Y-107695634D01*
X83342339Y-107718161D01*
X83364866Y-107745610D01*
X83381607Y-107776931D01*
X83391915Y-107810909D01*
X83396000Y-107852390D01*
X83396000Y-108453610D01*
X83391915Y-108495091D01*
X83381607Y-108529069D01*
X83364866Y-108560390D01*
X83342339Y-108587839D01*
X83314890Y-108610366D01*
X83283569Y-108627107D01*
X83249591Y-108637415D01*
X83208110Y-108641500D01*
X82531890Y-108641500D01*
X82490409Y-108637415D01*
X82456431Y-108627107D01*
X82425110Y-108610366D01*
X82397661Y-108587839D01*
X82375134Y-108560390D01*
X82358393Y-108529069D01*
X82348085Y-108495091D01*
X82344000Y-108453610D01*
X82344000Y-107852390D01*
X82348085Y-107810909D01*
X82358393Y-107776931D01*
X82375134Y-107745610D01*
X82397661Y-107718161D01*
X82425110Y-107695634D01*
X82456431Y-107678893D01*
X82490409Y-107668585D01*
X82531890Y-107664500D01*
X83208110Y-107664500D01*
X83249591Y-107668585D01*
G37*
G36*
X33293600Y-106417989D02*
G01*
X33326652Y-106428015D01*
X33357103Y-106444292D01*
X33383799Y-106466201D01*
X33405708Y-106492897D01*
X33421985Y-106523348D01*
X33432011Y-106556400D01*
X33436000Y-106596903D01*
X33436000Y-108033097D01*
X33432011Y-108073600D01*
X33421985Y-108106652D01*
X33405708Y-108137103D01*
X33383799Y-108163799D01*
X33357103Y-108185708D01*
X33326652Y-108201985D01*
X33293600Y-108212011D01*
X33253097Y-108216000D01*
X31516903Y-108216000D01*
X31476400Y-108212011D01*
X31443348Y-108201985D01*
X31412897Y-108185708D01*
X31386201Y-108163799D01*
X31364292Y-108137103D01*
X31348015Y-108106652D01*
X31337989Y-108073600D01*
X31334000Y-108033097D01*
X31334000Y-106596903D01*
X31337989Y-106556400D01*
X31348015Y-106523348D01*
X31364292Y-106492897D01*
X31386201Y-106466201D01*
X31412897Y-106444292D01*
X31443348Y-106428015D01*
X31476400Y-106417989D01*
X31516903Y-106414000D01*
X33253097Y-106414000D01*
X33293600Y-106417989D01*
G37*
G36*
X85221000Y-106831000D02*
G01*
X84319000Y-106831000D01*
X84319000Y-105829000D01*
X85221000Y-105829000D01*
X85221000Y-106831000D01*
G37*
G36*
X83321000Y-106831000D02*
G01*
X82419000Y-106831000D01*
X82419000Y-105829000D01*
X83321000Y-105829000D01*
X83321000Y-106831000D01*
G37*
G36*
X91819487Y-104178996D02*
G01*
X92056253Y-104277068D01*
X92056255Y-104277069D01*
X92269339Y-104419447D01*
X92450553Y-104600661D01*
X92572864Y-104783712D01*
X92592932Y-104813747D01*
X92691004Y-105050513D01*
X92741000Y-105301861D01*
X92741000Y-105558139D01*
X92691004Y-105809487D01*
X92682921Y-105829000D01*
X92592931Y-106046255D01*
X92450553Y-106259339D01*
X92269339Y-106440553D01*
X92056255Y-106582931D01*
X92056254Y-106582932D01*
X92056253Y-106582932D01*
X91819487Y-106681004D01*
X91568139Y-106731000D01*
X91311861Y-106731000D01*
X91060513Y-106681004D01*
X90823747Y-106582932D01*
X90823746Y-106582932D01*
X90823745Y-106582931D01*
X90610661Y-106440553D01*
X90429447Y-106259339D01*
X90287069Y-106046255D01*
X90197079Y-105829000D01*
X90188996Y-105809487D01*
X90139000Y-105558139D01*
X90139000Y-105301861D01*
X90188996Y-105050513D01*
X90287068Y-104813747D01*
X90307137Y-104783712D01*
X90429447Y-104600661D01*
X90610661Y-104419447D01*
X90823745Y-104277069D01*
X90823747Y-104277068D01*
X91060513Y-104178996D01*
X91311861Y-104129000D01*
X91568139Y-104129000D01*
X91819487Y-104178996D01*
G37*
G36*
X81102468Y-104622065D02*
G01*
X81141138Y-104633796D01*
X81176777Y-104652846D01*
X81208017Y-104678483D01*
X81233654Y-104709723D01*
X81252704Y-104745362D01*
X81264435Y-104784032D01*
X81269000Y-104830388D01*
X81269000Y-105481612D01*
X81264435Y-105527968D01*
X81252704Y-105566638D01*
X81233654Y-105602277D01*
X81208017Y-105633517D01*
X81176777Y-105659154D01*
X81141138Y-105678204D01*
X81102468Y-105689935D01*
X81056112Y-105694500D01*
X79979888Y-105694500D01*
X79933532Y-105689935D01*
X79894862Y-105678204D01*
X79859223Y-105659154D01*
X79827983Y-105633517D01*
X79802346Y-105602277D01*
X79783296Y-105566638D01*
X79771565Y-105527968D01*
X79767000Y-105481612D01*
X79767000Y-104830388D01*
X79771565Y-104784032D01*
X79783296Y-104745362D01*
X79802346Y-104709723D01*
X79827983Y-104678483D01*
X79859223Y-104652846D01*
X79894862Y-104633796D01*
X79933532Y-104622065D01*
X79979888Y-104617500D01*
X81056112Y-104617500D01*
X81102468Y-104622065D01*
G37*
G36*
X88327000Y-105631000D02*
G01*
X86425000Y-105631000D01*
X86425000Y-103029000D01*
X88327000Y-103029000D01*
X88327000Y-105631000D01*
G37*
G36*
X110559238Y-98411467D02*
G01*
X110873281Y-98473934D01*
X111464925Y-98719001D01*
X111836653Y-98967382D01*
X111968425Y-99055429D01*
X111997391Y-99074784D01*
X112450215Y-99527608D01*
X112805998Y-100060074D01*
X113051065Y-100651718D01*
X113073926Y-100766648D01*
X113175999Y-101279803D01*
X113175999Y-101920197D01*
X113132502Y-102138872D01*
X113051065Y-102548282D01*
X112805998Y-103139926D01*
X112558264Y-103510685D01*
X112450216Y-103672391D01*
X111997390Y-104125217D01*
X111948645Y-104157787D01*
X111464925Y-104480999D01*
X110873281Y-104726066D01*
X110776273Y-104745362D01*
X110245196Y-104851000D01*
X109604802Y-104851000D01*
X109073725Y-104745362D01*
X108976717Y-104726066D01*
X108385073Y-104480999D01*
X107901353Y-104157787D01*
X107852608Y-104125217D01*
X107399782Y-103672391D01*
X107291734Y-103510685D01*
X107044000Y-103139926D01*
X106798933Y-102548282D01*
X106717496Y-102138872D01*
X106673999Y-101920197D01*
X106673999Y-101279803D01*
X106776072Y-100766648D01*
X106798933Y-100651718D01*
X107044000Y-100060074D01*
X107399783Y-99527608D01*
X107852607Y-99074784D01*
X107881574Y-99055429D01*
X108013345Y-98967382D01*
X108385073Y-98719001D01*
X108976717Y-98473934D01*
X109290760Y-98411467D01*
X109604802Y-98349000D01*
X110245196Y-98349000D01*
X110559238Y-98411467D01*
G37*
G36*
X35559239Y-98411467D02*
G01*
X35873282Y-98473934D01*
X36464926Y-98719001D01*
X36836654Y-98967382D01*
X36968426Y-99055429D01*
X36997392Y-99074784D01*
X37450216Y-99527608D01*
X37805999Y-100060074D01*
X38051066Y-100651718D01*
X38073927Y-100766648D01*
X38176000Y-101279803D01*
X38176000Y-101920197D01*
X38132503Y-102138872D01*
X38051066Y-102548282D01*
X37805999Y-103139926D01*
X37558265Y-103510685D01*
X37450217Y-103672391D01*
X36997391Y-104125217D01*
X36948646Y-104157787D01*
X36464926Y-104480999D01*
X35873282Y-104726066D01*
X35776274Y-104745362D01*
X35245197Y-104851000D01*
X34604803Y-104851000D01*
X34073726Y-104745362D01*
X33976718Y-104726066D01*
X33385074Y-104480999D01*
X32901354Y-104157787D01*
X32852609Y-104125217D01*
X32399783Y-103672391D01*
X32291735Y-103510685D01*
X32044001Y-103139926D01*
X31798934Y-102548282D01*
X31717497Y-102138872D01*
X31674000Y-101920197D01*
X31674000Y-101279803D01*
X31776073Y-100766648D01*
X31798934Y-100651718D01*
X32044001Y-100060074D01*
X32399784Y-99527608D01*
X32852608Y-99074784D01*
X32881575Y-99055429D01*
X33013346Y-98967382D01*
X33385074Y-98719001D01*
X33976718Y-98473934D01*
X34290761Y-98411467D01*
X34604803Y-98349000D01*
X35245197Y-98349000D01*
X35559239Y-98411467D01*
G37*
G36*
X84271000Y-104831000D02*
G01*
X83369000Y-104831000D01*
X83369000Y-103829000D01*
X84271000Y-103829000D01*
X84271000Y-104831000D01*
G37*
G36*
X64036934Y-99987671D02*
G01*
X64066877Y-99996754D01*
X64094465Y-100011500D01*
X64118651Y-100031349D01*
X64138500Y-100055535D01*
X64153246Y-100083123D01*
X64162329Y-100113066D01*
X64166000Y-100150340D01*
X64166000Y-104319660D01*
X64162329Y-104356934D01*
X64153246Y-104386877D01*
X64138500Y-104414465D01*
X64118651Y-104438651D01*
X64094465Y-104458500D01*
X64066877Y-104473246D01*
X64036934Y-104482329D01*
X63999660Y-104486000D01*
X61730340Y-104486000D01*
X61693066Y-104482329D01*
X61663123Y-104473246D01*
X61635535Y-104458500D01*
X61611349Y-104438651D01*
X61591500Y-104414465D01*
X61576754Y-104386877D01*
X61567671Y-104356934D01*
X61564000Y-104319660D01*
X61564000Y-100150340D01*
X61567671Y-100113066D01*
X61576754Y-100083123D01*
X61591500Y-100055535D01*
X61611349Y-100031349D01*
X61635535Y-100011500D01*
X61663123Y-99996754D01*
X61693066Y-99987671D01*
X61730340Y-99984000D01*
X63999660Y-99984000D01*
X64036934Y-99987671D01*
G37*
G36*
X28129000Y-104425000D02*
G01*
X26227000Y-104425000D01*
X26227000Y-101823000D01*
X28129000Y-101823000D01*
X28129000Y-104425000D01*
G37*
G36*
X72413781Y-103114565D02*
G01*
X72447759Y-103124873D01*
X72479080Y-103141614D01*
X72506529Y-103164141D01*
X72529056Y-103191590D01*
X72545797Y-103222911D01*
X72556105Y-103256889D01*
X72560190Y-103298370D01*
X72560190Y-103974590D01*
X72556105Y-104016071D01*
X72545797Y-104050049D01*
X72529056Y-104081370D01*
X72506529Y-104108819D01*
X72479080Y-104131346D01*
X72447759Y-104148087D01*
X72413781Y-104158395D01*
X72372300Y-104162480D01*
X71771080Y-104162480D01*
X71729599Y-104158395D01*
X71695621Y-104148087D01*
X71664300Y-104131346D01*
X71636851Y-104108819D01*
X71614324Y-104081370D01*
X71597583Y-104050049D01*
X71587275Y-104016071D01*
X71583190Y-103974590D01*
X71583190Y-103298370D01*
X71587275Y-103256889D01*
X71597583Y-103222911D01*
X71614324Y-103191590D01*
X71636851Y-103164141D01*
X71664300Y-103141614D01*
X71695621Y-103124873D01*
X71729599Y-103114565D01*
X71771080Y-103110480D01*
X72372300Y-103110480D01*
X72413781Y-103114565D01*
G37*
G36*
X70838781Y-103114565D02*
G01*
X70872759Y-103124873D01*
X70904080Y-103141614D01*
X70931529Y-103164141D01*
X70954056Y-103191590D01*
X70970797Y-103222911D01*
X70981105Y-103256889D01*
X70985190Y-103298370D01*
X70985190Y-103974590D01*
X70981105Y-104016071D01*
X70970797Y-104050049D01*
X70954056Y-104081370D01*
X70931529Y-104108819D01*
X70904080Y-104131346D01*
X70872759Y-104148087D01*
X70838781Y-104158395D01*
X70797300Y-104162480D01*
X70196080Y-104162480D01*
X70154599Y-104158395D01*
X70120621Y-104148087D01*
X70089300Y-104131346D01*
X70061851Y-104108819D01*
X70039324Y-104081370D01*
X70022583Y-104050049D01*
X70012275Y-104016071D01*
X70008190Y-103974590D01*
X70008190Y-103298370D01*
X70012275Y-103256889D01*
X70022583Y-103222911D01*
X70039324Y-103191590D01*
X70061851Y-103164141D01*
X70089300Y-103141614D01*
X70120621Y-103124873D01*
X70154599Y-103114565D01*
X70196080Y-103110480D01*
X70797300Y-103110480D01*
X70838781Y-103114565D01*
G37*
G36*
X81102468Y-102747065D02*
G01*
X81141138Y-102758796D01*
X81176777Y-102777846D01*
X81208017Y-102803483D01*
X81233654Y-102834723D01*
X81252704Y-102870362D01*
X81264435Y-102909032D01*
X81269000Y-102955388D01*
X81269000Y-103606612D01*
X81264435Y-103652968D01*
X81252704Y-103691638D01*
X81233654Y-103727277D01*
X81208017Y-103758517D01*
X81176777Y-103784154D01*
X81141138Y-103803204D01*
X81102468Y-103814935D01*
X81056112Y-103819500D01*
X79979888Y-103819500D01*
X79933532Y-103814935D01*
X79894862Y-103803204D01*
X79859223Y-103784154D01*
X79827983Y-103758517D01*
X79802346Y-103727277D01*
X79783296Y-103691638D01*
X79771565Y-103652968D01*
X79767000Y-103606612D01*
X79767000Y-102955388D01*
X79771565Y-102909032D01*
X79783296Y-102870362D01*
X79802346Y-102834723D01*
X79827983Y-102803483D01*
X79859223Y-102777846D01*
X79894862Y-102758796D01*
X79933532Y-102747065D01*
X79979888Y-102742500D01*
X81056112Y-102742500D01*
X81102468Y-102747065D01*
G37*
G36*
X70112690Y-102422480D02*
G01*
X68790690Y-102422480D01*
X68790690Y-99770480D01*
X70112690Y-99770480D01*
X70112690Y-102422480D01*
G37*
G36*
X72732690Y-102422480D02*
G01*
X71410690Y-102422480D01*
X71410690Y-99770480D01*
X72732690Y-99770480D01*
X72732690Y-102422480D01*
G37*
G36*
X80897591Y-101247067D02*
G01*
X80931569Y-101257375D01*
X80962890Y-101274116D01*
X80990339Y-101296643D01*
X81012866Y-101324092D01*
X81029607Y-101355413D01*
X81039915Y-101389391D01*
X81044000Y-101430872D01*
X81044000Y-102032092D01*
X81039915Y-102073573D01*
X81029607Y-102107551D01*
X81012866Y-102138872D01*
X80990339Y-102166321D01*
X80962890Y-102188848D01*
X80931569Y-102205589D01*
X80897591Y-102215897D01*
X80856110Y-102219982D01*
X80179890Y-102219982D01*
X80138409Y-102215897D01*
X80104431Y-102205589D01*
X80073110Y-102188848D01*
X80045661Y-102166321D01*
X80023134Y-102138872D01*
X80006393Y-102107551D01*
X79996085Y-102073573D01*
X79992000Y-102032092D01*
X79992000Y-101430872D01*
X79996085Y-101389391D01*
X80006393Y-101355413D01*
X80023134Y-101324092D01*
X80045661Y-101296643D01*
X80073110Y-101274116D01*
X80104431Y-101257375D01*
X80138409Y-101247067D01*
X80179890Y-101242982D01*
X80856110Y-101242982D01*
X80897591Y-101247067D01*
G37*
G36*
X79356281Y-101247063D02*
G01*
X79390259Y-101257371D01*
X79421580Y-101274112D01*
X79449029Y-101296639D01*
X79471556Y-101324088D01*
X79488297Y-101355409D01*
X79498605Y-101389387D01*
X79502690Y-101430868D01*
X79502690Y-102032088D01*
X79498605Y-102073569D01*
X79488297Y-102107547D01*
X79471556Y-102138868D01*
X79449029Y-102166317D01*
X79421580Y-102188844D01*
X79390259Y-102205585D01*
X79356281Y-102215893D01*
X79314800Y-102219978D01*
X78638580Y-102219978D01*
X78597099Y-102215893D01*
X78563121Y-102205585D01*
X78531800Y-102188844D01*
X78504351Y-102166317D01*
X78481824Y-102138868D01*
X78465083Y-102107547D01*
X78454775Y-102073569D01*
X78450690Y-102032088D01*
X78450690Y-101430868D01*
X78454775Y-101389387D01*
X78465083Y-101355409D01*
X78481824Y-101324088D01*
X78504351Y-101296639D01*
X78531800Y-101274112D01*
X78563121Y-101257371D01*
X78597099Y-101247063D01*
X78638580Y-101242978D01*
X79314800Y-101242978D01*
X79356281Y-101247063D01*
G37*
G36*
X76308280Y-101237067D02*
G01*
X76342258Y-101247375D01*
X76373579Y-101264116D01*
X76401028Y-101286643D01*
X76423555Y-101314092D01*
X76440296Y-101345413D01*
X76450604Y-101379391D01*
X76454689Y-101420872D01*
X76454689Y-102022092D01*
X76450604Y-102063573D01*
X76440296Y-102097551D01*
X76423555Y-102128872D01*
X76401028Y-102156321D01*
X76373579Y-102178848D01*
X76342258Y-102195589D01*
X76308280Y-102205897D01*
X76266799Y-102209982D01*
X75590579Y-102209982D01*
X75549098Y-102205897D01*
X75515120Y-102195589D01*
X75483799Y-102178848D01*
X75456350Y-102156321D01*
X75433823Y-102128872D01*
X75417082Y-102097551D01*
X75406774Y-102063573D01*
X75402689Y-102022092D01*
X75402689Y-101420872D01*
X75406774Y-101379391D01*
X75417082Y-101345413D01*
X75433823Y-101314092D01*
X75456350Y-101286643D01*
X75483799Y-101264116D01*
X75515120Y-101247375D01*
X75549098Y-101237067D01*
X75590579Y-101232982D01*
X76266799Y-101232982D01*
X76308280Y-101237067D01*
G37*
G36*
X74784281Y-101237065D02*
G01*
X74818259Y-101247373D01*
X74849580Y-101264114D01*
X74877029Y-101286641D01*
X74899556Y-101314090D01*
X74916297Y-101345411D01*
X74926605Y-101379389D01*
X74930690Y-101420870D01*
X74930690Y-102022090D01*
X74926605Y-102063571D01*
X74916297Y-102097549D01*
X74899556Y-102128870D01*
X74877029Y-102156319D01*
X74849580Y-102178846D01*
X74818259Y-102195587D01*
X74784281Y-102205895D01*
X74742800Y-102209980D01*
X74066580Y-102209980D01*
X74025099Y-102205895D01*
X73991121Y-102195587D01*
X73959800Y-102178846D01*
X73932351Y-102156319D01*
X73909824Y-102128870D01*
X73893083Y-102097549D01*
X73882775Y-102063571D01*
X73878690Y-102022090D01*
X73878690Y-101420870D01*
X73882775Y-101379389D01*
X73893083Y-101345411D01*
X73909824Y-101314090D01*
X73932351Y-101286641D01*
X73959800Y-101264114D01*
X73991121Y-101247373D01*
X74025099Y-101237065D01*
X74066580Y-101232980D01*
X74742800Y-101232980D01*
X74784281Y-101237065D01*
G37*
G36*
X77832281Y-101237065D02*
G01*
X77866259Y-101247373D01*
X77897580Y-101264114D01*
X77925029Y-101286641D01*
X77947556Y-101314090D01*
X77964297Y-101345411D01*
X77974605Y-101379389D01*
X77978690Y-101420870D01*
X77978690Y-102022090D01*
X77974605Y-102063571D01*
X77964297Y-102097549D01*
X77947556Y-102128870D01*
X77925029Y-102156319D01*
X77897580Y-102178846D01*
X77866259Y-102195587D01*
X77832281Y-102205895D01*
X77790800Y-102209980D01*
X77114580Y-102209980D01*
X77073099Y-102205895D01*
X77039121Y-102195587D01*
X77007800Y-102178846D01*
X76980351Y-102156319D01*
X76957824Y-102128870D01*
X76941083Y-102097549D01*
X76930775Y-102063571D01*
X76926690Y-102022090D01*
X76926690Y-101420870D01*
X76930775Y-101379389D01*
X76941083Y-101345411D01*
X76957824Y-101314090D01*
X76980351Y-101286641D01*
X77007800Y-101264114D01*
X77039121Y-101247373D01*
X77073099Y-101237065D01*
X77114580Y-101232980D01*
X77790800Y-101232980D01*
X77832281Y-101237065D01*
G37*
G36*
X31121604Y-100553347D02*
G01*
X31158144Y-100564432D01*
X31191821Y-100582433D01*
X31221341Y-100606659D01*
X31245567Y-100636179D01*
X31263568Y-100669856D01*
X31274653Y-100706396D01*
X31279000Y-100750538D01*
X31279000Y-101699462D01*
X31274653Y-101743604D01*
X31263568Y-101780144D01*
X31245567Y-101813821D01*
X31221341Y-101843341D01*
X31191821Y-101867567D01*
X31158144Y-101885568D01*
X31121604Y-101896653D01*
X31077462Y-101901000D01*
X29628538Y-101901000D01*
X29584396Y-101896653D01*
X29547856Y-101885568D01*
X29514179Y-101867567D01*
X29484659Y-101843341D01*
X29460433Y-101813821D01*
X29442432Y-101780144D01*
X29431347Y-101743604D01*
X29427000Y-101699462D01*
X29427000Y-100750538D01*
X29431347Y-100706396D01*
X29442432Y-100669856D01*
X29460433Y-100636179D01*
X29484659Y-100606659D01*
X29514179Y-100582433D01*
X29547856Y-100564432D01*
X29584396Y-100553347D01*
X29628538Y-100549000D01*
X31077462Y-100549000D01*
X31121604Y-100553347D01*
G37*
G36*
X104519487Y-99078996D02*
G01*
X104756253Y-99177068D01*
X104756255Y-99177069D01*
X104969339Y-99319447D01*
X105150553Y-99500661D01*
X105283154Y-99699112D01*
X105292932Y-99713747D01*
X105391004Y-99950513D01*
X105441000Y-100201861D01*
X105441000Y-100458139D01*
X105391004Y-100709487D01*
X105345476Y-100819400D01*
X105292931Y-100946255D01*
X105150553Y-101159339D01*
X104969339Y-101340553D01*
X104756255Y-101482931D01*
X104756254Y-101482932D01*
X104756253Y-101482932D01*
X104519487Y-101581004D01*
X104268139Y-101631000D01*
X104011861Y-101631000D01*
X103760513Y-101581004D01*
X103523747Y-101482932D01*
X103523746Y-101482932D01*
X103523745Y-101482931D01*
X103310661Y-101340553D01*
X103129447Y-101159339D01*
X102987069Y-100946255D01*
X102934524Y-100819400D01*
X102888996Y-100709487D01*
X102839000Y-100458139D01*
X102839000Y-100201861D01*
X102888996Y-99950513D01*
X102987068Y-99713747D01*
X102996847Y-99699112D01*
X103129447Y-99500661D01*
X103310661Y-99319447D01*
X103523745Y-99177069D01*
X103523747Y-99177068D01*
X103760513Y-99078996D01*
X104011861Y-99029000D01*
X104268139Y-99029000D01*
X104519487Y-99078996D01*
G37*
G36*
X94319487Y-99078996D02*
G01*
X94556253Y-99177068D01*
X94556255Y-99177069D01*
X94769339Y-99319447D01*
X94950553Y-99500661D01*
X95083154Y-99699112D01*
X95092932Y-99713747D01*
X95191004Y-99950513D01*
X95241000Y-100201861D01*
X95241000Y-100458139D01*
X95191004Y-100709487D01*
X95145476Y-100819400D01*
X95092931Y-100946255D01*
X94950553Y-101159339D01*
X94769339Y-101340553D01*
X94556255Y-101482931D01*
X94556254Y-101482932D01*
X94556253Y-101482932D01*
X94319487Y-101581004D01*
X94068139Y-101631000D01*
X93811861Y-101631000D01*
X93560513Y-101581004D01*
X93323747Y-101482932D01*
X93323746Y-101482932D01*
X93323745Y-101482931D01*
X93110661Y-101340553D01*
X92929447Y-101159339D01*
X92787069Y-100946255D01*
X92734524Y-100819400D01*
X92688996Y-100709487D01*
X92639000Y-100458139D01*
X92639000Y-100201861D01*
X92688996Y-99950513D01*
X92787068Y-99713747D01*
X92796847Y-99699112D01*
X92929447Y-99500661D01*
X93110661Y-99319447D01*
X93323745Y-99177069D01*
X93323747Y-99177068D01*
X93560513Y-99078996D01*
X93811861Y-99029000D01*
X94068139Y-99029000D01*
X94319487Y-99078996D01*
G37*
G36*
X88327000Y-101631000D02*
G01*
X86425000Y-101631000D01*
X86425000Y-99029000D01*
X88327000Y-99029000D01*
X88327000Y-101631000D01*
G37*
G36*
X65823091Y-99808085D02*
G01*
X65857069Y-99818393D01*
X65888390Y-99835134D01*
X65915839Y-99857661D01*
X65938366Y-99885110D01*
X65955107Y-99916431D01*
X65965415Y-99950409D01*
X65969500Y-99991890D01*
X65969500Y-100668110D01*
X65965415Y-100709591D01*
X65955107Y-100743569D01*
X65938366Y-100774890D01*
X65915839Y-100802339D01*
X65888390Y-100824866D01*
X65857069Y-100841607D01*
X65823091Y-100851915D01*
X65781610Y-100856000D01*
X65180390Y-100856000D01*
X65138909Y-100851915D01*
X65104931Y-100841607D01*
X65073610Y-100824866D01*
X65046161Y-100802339D01*
X65023634Y-100774890D01*
X65006893Y-100743569D01*
X64996585Y-100709591D01*
X64992500Y-100668110D01*
X64992500Y-99991890D01*
X64996585Y-99950409D01*
X65006893Y-99916431D01*
X65023634Y-99885110D01*
X65046161Y-99857661D01*
X65073610Y-99835134D01*
X65104931Y-99818393D01*
X65138909Y-99808085D01*
X65180390Y-99804000D01*
X65781610Y-99804000D01*
X65823091Y-99808085D01*
G37*
G36*
X67398091Y-99808085D02*
G01*
X67432069Y-99818393D01*
X67463390Y-99835134D01*
X67490839Y-99857661D01*
X67513366Y-99885110D01*
X67530107Y-99916431D01*
X67540415Y-99950409D01*
X67544500Y-99991890D01*
X67544500Y-100668110D01*
X67540415Y-100709591D01*
X67530107Y-100743569D01*
X67513366Y-100774890D01*
X67490839Y-100802339D01*
X67463390Y-100824866D01*
X67432069Y-100841607D01*
X67398091Y-100851915D01*
X67356610Y-100856000D01*
X66755390Y-100856000D01*
X66713909Y-100851915D01*
X66679931Y-100841607D01*
X66648610Y-100824866D01*
X66621161Y-100802339D01*
X66598634Y-100774890D01*
X66581893Y-100743569D01*
X66571585Y-100709591D01*
X66567500Y-100668110D01*
X66567500Y-99991890D01*
X66571585Y-99950409D01*
X66581893Y-99916431D01*
X66598634Y-99885110D01*
X66621161Y-99857661D01*
X66648610Y-99835134D01*
X66679931Y-99818393D01*
X66713909Y-99808085D01*
X66755390Y-99804000D01*
X67356610Y-99804000D01*
X67398091Y-99808085D01*
G37*
G36*
X80897591Y-99672067D02*
G01*
X80931569Y-99682375D01*
X80962890Y-99699116D01*
X80990339Y-99721643D01*
X81012866Y-99749092D01*
X81029607Y-99780413D01*
X81039915Y-99814391D01*
X81044000Y-99855872D01*
X81044000Y-100457092D01*
X81039915Y-100498573D01*
X81029607Y-100532551D01*
X81012866Y-100563872D01*
X80990339Y-100591321D01*
X80962890Y-100613848D01*
X80931569Y-100630589D01*
X80897591Y-100640897D01*
X80856110Y-100644982D01*
X80179890Y-100644982D01*
X80138409Y-100640897D01*
X80104431Y-100630589D01*
X80073110Y-100613848D01*
X80045661Y-100591321D01*
X80023134Y-100563872D01*
X80006393Y-100532551D01*
X79996085Y-100498573D01*
X79992000Y-100457092D01*
X79992000Y-99855872D01*
X79996085Y-99814391D01*
X80006393Y-99780413D01*
X80023134Y-99749092D01*
X80045661Y-99721643D01*
X80073110Y-99699116D01*
X80104431Y-99682375D01*
X80138409Y-99672067D01*
X80179890Y-99667982D01*
X80856110Y-99667982D01*
X80897591Y-99672067D01*
G37*
G36*
X79356281Y-99672063D02*
G01*
X79390259Y-99682371D01*
X79421580Y-99699112D01*
X79449029Y-99721639D01*
X79471556Y-99749088D01*
X79488297Y-99780409D01*
X79498605Y-99814387D01*
X79502690Y-99855868D01*
X79502690Y-100457088D01*
X79498605Y-100498569D01*
X79488297Y-100532547D01*
X79471556Y-100563868D01*
X79449029Y-100591317D01*
X79421580Y-100613844D01*
X79390259Y-100630585D01*
X79356281Y-100640893D01*
X79314800Y-100644978D01*
X78638580Y-100644978D01*
X78597099Y-100640893D01*
X78563121Y-100630585D01*
X78531800Y-100613844D01*
X78504351Y-100591317D01*
X78481824Y-100563868D01*
X78465083Y-100532547D01*
X78454775Y-100498569D01*
X78450690Y-100457088D01*
X78450690Y-99855868D01*
X78454775Y-99814387D01*
X78465083Y-99780409D01*
X78481824Y-99749088D01*
X78504351Y-99721639D01*
X78531800Y-99699112D01*
X78563121Y-99682371D01*
X78597099Y-99672063D01*
X78638580Y-99667978D01*
X79314800Y-99667978D01*
X79356281Y-99672063D01*
G37*
G36*
X76308280Y-99662067D02*
G01*
X76342258Y-99672375D01*
X76373579Y-99689116D01*
X76401028Y-99711643D01*
X76423555Y-99739092D01*
X76440296Y-99770413D01*
X76450604Y-99804391D01*
X76454689Y-99845872D01*
X76454689Y-100447092D01*
X76450604Y-100488573D01*
X76440296Y-100522551D01*
X76423555Y-100553872D01*
X76401028Y-100581321D01*
X76373579Y-100603848D01*
X76342258Y-100620589D01*
X76308280Y-100630897D01*
X76266799Y-100634982D01*
X75590579Y-100634982D01*
X75549098Y-100630897D01*
X75515120Y-100620589D01*
X75483799Y-100603848D01*
X75456350Y-100581321D01*
X75433823Y-100553872D01*
X75417082Y-100522551D01*
X75406774Y-100488573D01*
X75402689Y-100447092D01*
X75402689Y-99845872D01*
X75406774Y-99804391D01*
X75417082Y-99770413D01*
X75433823Y-99739092D01*
X75456350Y-99711643D01*
X75483799Y-99689116D01*
X75515120Y-99672375D01*
X75549098Y-99662067D01*
X75590579Y-99657982D01*
X76266799Y-99657982D01*
X76308280Y-99662067D01*
G37*
G36*
X77832281Y-99662065D02*
G01*
X77866259Y-99672373D01*
X77897580Y-99689114D01*
X77925029Y-99711641D01*
X77947556Y-99739090D01*
X77964297Y-99770411D01*
X77974605Y-99804389D01*
X77978690Y-99845870D01*
X77978690Y-100447090D01*
X77974605Y-100488571D01*
X77964297Y-100522549D01*
X77947556Y-100553870D01*
X77925029Y-100581319D01*
X77897580Y-100603846D01*
X77866259Y-100620587D01*
X77832281Y-100630895D01*
X77790800Y-100634980D01*
X77114580Y-100634980D01*
X77073099Y-100630895D01*
X77039121Y-100620587D01*
X77007800Y-100603846D01*
X76980351Y-100581319D01*
X76957824Y-100553870D01*
X76941083Y-100522549D01*
X76930775Y-100488571D01*
X76926690Y-100447090D01*
X76926690Y-99845870D01*
X76930775Y-99804389D01*
X76941083Y-99770411D01*
X76957824Y-99739090D01*
X76980351Y-99711641D01*
X77007800Y-99689114D01*
X77039121Y-99672373D01*
X77073099Y-99662065D01*
X77114580Y-99657980D01*
X77790800Y-99657980D01*
X77832281Y-99662065D01*
G37*
G36*
X74784281Y-99662065D02*
G01*
X74818259Y-99672373D01*
X74849580Y-99689114D01*
X74877029Y-99711641D01*
X74899556Y-99739090D01*
X74916297Y-99770411D01*
X74926605Y-99804389D01*
X74930690Y-99845870D01*
X74930690Y-100447090D01*
X74926605Y-100488571D01*
X74916297Y-100522549D01*
X74899556Y-100553870D01*
X74877029Y-100581319D01*
X74849580Y-100603846D01*
X74818259Y-100620587D01*
X74784281Y-100630895D01*
X74742800Y-100634980D01*
X74066580Y-100634980D01*
X74025099Y-100630895D01*
X73991121Y-100620587D01*
X73959800Y-100603846D01*
X73932351Y-100581319D01*
X73909824Y-100553870D01*
X73893083Y-100522549D01*
X73882775Y-100488571D01*
X73878690Y-100447090D01*
X73878690Y-99845870D01*
X73882775Y-99804389D01*
X73893083Y-99770411D01*
X73909824Y-99739090D01*
X73932351Y-99711641D01*
X73959800Y-99689114D01*
X73991121Y-99672373D01*
X74025099Y-99662065D01*
X74066580Y-99657980D01*
X74742800Y-99657980D01*
X74784281Y-99662065D01*
G37*
G36*
X28129000Y-100425000D02*
G01*
X26227000Y-100425000D01*
X26227000Y-97823000D01*
X28129000Y-97823000D01*
X28129000Y-100425000D01*
G37*
G36*
X67418283Y-98245585D02*
G01*
X67452261Y-98255893D01*
X67483582Y-98272634D01*
X67511031Y-98295161D01*
X67533558Y-98322610D01*
X67550299Y-98353931D01*
X67560607Y-98387909D01*
X67564692Y-98429390D01*
X67564692Y-99030610D01*
X67560607Y-99072091D01*
X67550299Y-99106069D01*
X67533558Y-99137390D01*
X67511031Y-99164839D01*
X67483582Y-99187366D01*
X67452261Y-99204107D01*
X67418283Y-99214415D01*
X67376802Y-99218500D01*
X66700582Y-99218500D01*
X66659101Y-99214415D01*
X66625123Y-99204107D01*
X66593802Y-99187366D01*
X66566353Y-99164839D01*
X66543826Y-99137390D01*
X66527085Y-99106069D01*
X66516777Y-99072091D01*
X66512692Y-99030610D01*
X66512692Y-98429390D01*
X66516777Y-98387909D01*
X66527085Y-98353931D01*
X66543826Y-98322610D01*
X66566353Y-98295161D01*
X66593802Y-98272634D01*
X66625123Y-98255893D01*
X66659101Y-98245585D01*
X66700582Y-98241500D01*
X67376802Y-98241500D01*
X67418283Y-98245585D01*
G37*
G36*
X31121604Y-97753347D02*
G01*
X31158144Y-97764432D01*
X31191821Y-97782433D01*
X31221341Y-97806659D01*
X31245567Y-97836179D01*
X31263568Y-97869856D01*
X31274653Y-97906396D01*
X31279000Y-97950538D01*
X31279000Y-98899462D01*
X31274653Y-98943604D01*
X31263568Y-98980144D01*
X31245567Y-99013821D01*
X31221341Y-99043341D01*
X31191821Y-99067567D01*
X31158144Y-99085568D01*
X31121604Y-99096653D01*
X31077462Y-99101000D01*
X29628538Y-99101000D01*
X29584396Y-99096653D01*
X29547856Y-99085568D01*
X29514179Y-99067567D01*
X29484659Y-99043341D01*
X29460433Y-99013821D01*
X29442432Y-98980144D01*
X29431347Y-98943604D01*
X29427000Y-98899462D01*
X29427000Y-97950538D01*
X29431347Y-97906396D01*
X29442432Y-97869856D01*
X29460433Y-97836179D01*
X29484659Y-97806659D01*
X29514179Y-97782433D01*
X29547856Y-97764432D01*
X29584396Y-97753347D01*
X29628538Y-97749000D01*
X31077462Y-97749000D01*
X31121604Y-97753347D01*
G37*
G36*
X72670655Y-98031898D02*
G01*
X72704633Y-98042206D01*
X72735954Y-98058947D01*
X72763403Y-98081474D01*
X72785930Y-98108923D01*
X72802671Y-98140244D01*
X72812979Y-98174222D01*
X72817064Y-98215703D01*
X72817064Y-98891923D01*
X72812979Y-98933404D01*
X72802671Y-98967382D01*
X72785930Y-98998703D01*
X72763403Y-99026152D01*
X72735954Y-99048679D01*
X72704633Y-99065420D01*
X72670655Y-99075728D01*
X72629174Y-99079813D01*
X72027954Y-99079813D01*
X71986473Y-99075728D01*
X71952495Y-99065420D01*
X71921174Y-99048679D01*
X71893725Y-99026152D01*
X71871198Y-98998703D01*
X71854457Y-98967382D01*
X71844149Y-98933404D01*
X71840064Y-98891923D01*
X71840064Y-98215703D01*
X71844149Y-98174222D01*
X71854457Y-98140244D01*
X71871198Y-98108923D01*
X71893725Y-98081474D01*
X71921174Y-98058947D01*
X71952495Y-98042206D01*
X71986473Y-98031898D01*
X72027954Y-98027813D01*
X72629174Y-98027813D01*
X72670655Y-98031898D01*
G37*
G36*
X71095655Y-98031898D02*
G01*
X71129633Y-98042206D01*
X71160954Y-98058947D01*
X71188403Y-98081474D01*
X71210930Y-98108923D01*
X71227671Y-98140244D01*
X71237979Y-98174222D01*
X71242064Y-98215703D01*
X71242064Y-98891923D01*
X71237979Y-98933404D01*
X71227671Y-98967382D01*
X71210930Y-98998703D01*
X71188403Y-99026152D01*
X71160954Y-99048679D01*
X71129633Y-99065420D01*
X71095655Y-99075728D01*
X71054174Y-99079813D01*
X70452954Y-99079813D01*
X70411473Y-99075728D01*
X70377495Y-99065420D01*
X70346174Y-99048679D01*
X70318725Y-99026152D01*
X70296198Y-98998703D01*
X70279457Y-98967382D01*
X70269149Y-98933404D01*
X70265064Y-98891923D01*
X70265064Y-98215703D01*
X70269149Y-98174222D01*
X70279457Y-98140244D01*
X70296198Y-98108923D01*
X70318725Y-98081474D01*
X70346174Y-98058947D01*
X70377495Y-98042206D01*
X70411473Y-98031898D01*
X70452954Y-98027813D01*
X71054174Y-98027813D01*
X71095655Y-98031898D01*
G37*
G36*
X67418283Y-96670585D02*
G01*
X67452261Y-96680893D01*
X67483582Y-96697634D01*
X67511031Y-96720161D01*
X67533558Y-96747610D01*
X67550299Y-96778931D01*
X67560607Y-96812909D01*
X67564692Y-96854390D01*
X67564692Y-97455610D01*
X67560607Y-97497091D01*
X67550299Y-97531069D01*
X67533558Y-97562390D01*
X67511031Y-97589839D01*
X67483582Y-97612366D01*
X67452261Y-97629107D01*
X67418283Y-97639415D01*
X67376802Y-97643500D01*
X66700582Y-97643500D01*
X66659101Y-97639415D01*
X66625123Y-97629107D01*
X66593802Y-97612366D01*
X66566353Y-97589839D01*
X66543826Y-97562390D01*
X66527085Y-97531069D01*
X66516777Y-97497091D01*
X66512692Y-97455610D01*
X66512692Y-96854390D01*
X66516777Y-96812909D01*
X66527085Y-96778931D01*
X66543826Y-96747610D01*
X66566353Y-96720161D01*
X66593802Y-96697634D01*
X66625123Y-96680893D01*
X66659101Y-96670585D01*
X66700582Y-96666500D01*
X67376802Y-96666500D01*
X67418283Y-96670585D01*
G37*
M02*
