G04 #@! TF.GenerationSoftware,KiCad,Pcbnew,(5.1.5)-3*
G04 #@! TF.CreationDate,2020-01-27T10:14:26+03:00*
G04 #@! TF.ProjectId,UBD,5542442e-6b69-4636-9164-5f7063625858,rev?*
G04 #@! TF.SameCoordinates,Original*
G04 #@! TF.FileFunction,Soldermask,Bot*
G04 #@! TF.FilePolarity,Negative*
%FSLAX46Y46*%
G04 Gerber Fmt 4.6, Leading zero omitted, Abs format (unit mm)*
G04 Created by KiCad (PCBNEW (5.1.5)-3) date 2020-01-27 10:14:26*
%MOMM*%
%LPD*%
G04 APERTURE LIST*
%ADD10C,0.100000*%
G04 APERTURE END LIST*
D10*
G36*
X35559239Y-153411467D02*
G01*
X35873282Y-153473934D01*
X36464926Y-153719001D01*
X36754523Y-153912504D01*
X36997391Y-154074783D01*
X37450217Y-154527609D01*
X37462801Y-154546443D01*
X37805999Y-155060074D01*
X38018874Y-155574000D01*
X38051066Y-155651719D01*
X38176000Y-156279803D01*
X38176000Y-156920197D01*
X38148430Y-157058799D01*
X38051066Y-157548282D01*
X37805999Y-158139926D01*
X37450216Y-158672392D01*
X36997392Y-159125216D01*
X36464926Y-159480999D01*
X35873282Y-159726066D01*
X35559239Y-159788533D01*
X35245197Y-159851000D01*
X34604803Y-159851000D01*
X34290761Y-159788533D01*
X33976718Y-159726066D01*
X33385074Y-159480999D01*
X32852608Y-159125216D01*
X32399784Y-158672392D01*
X32044001Y-158139926D01*
X31798934Y-157548282D01*
X31701570Y-157058799D01*
X31674000Y-156920197D01*
X31674000Y-156279803D01*
X31798934Y-155651719D01*
X31831126Y-155574000D01*
X32044001Y-155060074D01*
X32387199Y-154546443D01*
X32399783Y-154527609D01*
X32852609Y-154074783D01*
X33095477Y-153912504D01*
X33385074Y-153719001D01*
X33976718Y-153473934D01*
X34290761Y-153411467D01*
X34604803Y-153349000D01*
X35245197Y-153349000D01*
X35559239Y-153411467D01*
G37*
G36*
X82697395Y-157934546D02*
G01*
X82870466Y-158006234D01*
X82947818Y-158057919D01*
X83026227Y-158110310D01*
X83158690Y-158242773D01*
X83158691Y-158242775D01*
X83262766Y-158398534D01*
X83334454Y-158571605D01*
X83371000Y-158755333D01*
X83371000Y-158942667D01*
X83334454Y-159126395D01*
X83262766Y-159299466D01*
X83262765Y-159299467D01*
X83158690Y-159455227D01*
X83026227Y-159587690D01*
X82947818Y-159640081D01*
X82870466Y-159691766D01*
X82697395Y-159763454D01*
X82513667Y-159800000D01*
X82326333Y-159800000D01*
X82142605Y-159763454D01*
X81969534Y-159691766D01*
X81892182Y-159640081D01*
X81813773Y-159587690D01*
X81681310Y-159455227D01*
X81577235Y-159299467D01*
X81577234Y-159299466D01*
X81505546Y-159126395D01*
X81469000Y-158942667D01*
X81469000Y-158755333D01*
X81505546Y-158571605D01*
X81577234Y-158398534D01*
X81681309Y-158242775D01*
X81681310Y-158242773D01*
X81813773Y-158110310D01*
X81892182Y-158057919D01*
X81969534Y-158006234D01*
X82142605Y-157934546D01*
X82326333Y-157898000D01*
X82513667Y-157898000D01*
X82697395Y-157934546D01*
G37*
G36*
X80831000Y-159800000D02*
G01*
X78929000Y-159800000D01*
X78929000Y-157898000D01*
X80831000Y-157898000D01*
X80831000Y-159800000D01*
G37*
G36*
X72831000Y-159800000D02*
G01*
X70929000Y-159800000D01*
X70929000Y-157898000D01*
X72831000Y-157898000D01*
X72831000Y-159800000D01*
G37*
G36*
X74697395Y-157934546D02*
G01*
X74870466Y-158006234D01*
X74947818Y-158057919D01*
X75026227Y-158110310D01*
X75158690Y-158242773D01*
X75158691Y-158242775D01*
X75262766Y-158398534D01*
X75334454Y-158571605D01*
X75371000Y-158755333D01*
X75371000Y-158942667D01*
X75334454Y-159126395D01*
X75262766Y-159299466D01*
X75262765Y-159299467D01*
X75158690Y-159455227D01*
X75026227Y-159587690D01*
X74947818Y-159640081D01*
X74870466Y-159691766D01*
X74697395Y-159763454D01*
X74513667Y-159800000D01*
X74326333Y-159800000D01*
X74142605Y-159763454D01*
X73969534Y-159691766D01*
X73892182Y-159640081D01*
X73813773Y-159587690D01*
X73681310Y-159455227D01*
X73577235Y-159299467D01*
X73577234Y-159299466D01*
X73505546Y-159126395D01*
X73469000Y-158942667D01*
X73469000Y-158755333D01*
X73505546Y-158571605D01*
X73577234Y-158398534D01*
X73681309Y-158242775D01*
X73681310Y-158242773D01*
X73813773Y-158110310D01*
X73892182Y-158057919D01*
X73969534Y-158006234D01*
X74142605Y-157934546D01*
X74326333Y-157898000D01*
X74513667Y-157898000D01*
X74697395Y-157934546D01*
G37*
G36*
X64831000Y-159800000D02*
G01*
X62929000Y-159800000D01*
X62929000Y-157898000D01*
X64831000Y-157898000D01*
X64831000Y-159800000D01*
G37*
G36*
X66697395Y-157934546D02*
G01*
X66870466Y-158006234D01*
X66947818Y-158057919D01*
X67026227Y-158110310D01*
X67158690Y-158242773D01*
X67158691Y-158242775D01*
X67262766Y-158398534D01*
X67334454Y-158571605D01*
X67371000Y-158755333D01*
X67371000Y-158942667D01*
X67334454Y-159126395D01*
X67262766Y-159299466D01*
X67262765Y-159299467D01*
X67158690Y-159455227D01*
X67026227Y-159587690D01*
X66947818Y-159640081D01*
X66870466Y-159691766D01*
X66697395Y-159763454D01*
X66513667Y-159800000D01*
X66326333Y-159800000D01*
X66142605Y-159763454D01*
X65969534Y-159691766D01*
X65892182Y-159640081D01*
X65813773Y-159587690D01*
X65681310Y-159455227D01*
X65577235Y-159299467D01*
X65577234Y-159299466D01*
X65505546Y-159126395D01*
X65469000Y-158942667D01*
X65469000Y-158755333D01*
X65505546Y-158571605D01*
X65577234Y-158398534D01*
X65681309Y-158242775D01*
X65681310Y-158242773D01*
X65813773Y-158110310D01*
X65892182Y-158057919D01*
X65969534Y-158006234D01*
X66142605Y-157934546D01*
X66326333Y-157898000D01*
X66513667Y-157898000D01*
X66697395Y-157934546D01*
G37*
G36*
X56831000Y-159800000D02*
G01*
X54929000Y-159800000D01*
X54929000Y-157898000D01*
X56831000Y-157898000D01*
X56831000Y-159800000D01*
G37*
G36*
X58697395Y-157934546D02*
G01*
X58870466Y-158006234D01*
X58947818Y-158057919D01*
X59026227Y-158110310D01*
X59158690Y-158242773D01*
X59158691Y-158242775D01*
X59262766Y-158398534D01*
X59334454Y-158571605D01*
X59371000Y-158755333D01*
X59371000Y-158942667D01*
X59334454Y-159126395D01*
X59262766Y-159299466D01*
X59262765Y-159299467D01*
X59158690Y-159455227D01*
X59026227Y-159587690D01*
X58947818Y-159640081D01*
X58870466Y-159691766D01*
X58697395Y-159763454D01*
X58513667Y-159800000D01*
X58326333Y-159800000D01*
X58142605Y-159763454D01*
X57969534Y-159691766D01*
X57892182Y-159640081D01*
X57813773Y-159587690D01*
X57681310Y-159455227D01*
X57577235Y-159299467D01*
X57577234Y-159299466D01*
X57505546Y-159126395D01*
X57469000Y-158942667D01*
X57469000Y-158755333D01*
X57505546Y-158571605D01*
X57577234Y-158398534D01*
X57681309Y-158242775D01*
X57681310Y-158242773D01*
X57813773Y-158110310D01*
X57892182Y-158057919D01*
X57969534Y-158006234D01*
X58142605Y-157934546D01*
X58326333Y-157898000D01*
X58513667Y-157898000D01*
X58697395Y-157934546D01*
G37*
G36*
X113278600Y-155312989D02*
G01*
X113311652Y-155323015D01*
X113342103Y-155339292D01*
X113368799Y-155361201D01*
X113390708Y-155387897D01*
X113406985Y-155418348D01*
X113417011Y-155451400D01*
X113421000Y-155491903D01*
X113421000Y-156928097D01*
X113417011Y-156968600D01*
X113406985Y-157001652D01*
X113390708Y-157032103D01*
X113368799Y-157058799D01*
X113342103Y-157080708D01*
X113311652Y-157096985D01*
X113278600Y-157107011D01*
X113238097Y-157111000D01*
X111551903Y-157111000D01*
X111511400Y-157107011D01*
X111478348Y-157096985D01*
X111447897Y-157080708D01*
X111421201Y-157058799D01*
X111399292Y-157032103D01*
X111383015Y-157001652D01*
X111372989Y-156968600D01*
X111369000Y-156928097D01*
X111369000Y-155491903D01*
X111372989Y-155451400D01*
X111383015Y-155418348D01*
X111399292Y-155387897D01*
X111421201Y-155361201D01*
X111447897Y-155339292D01*
X111478348Y-155323015D01*
X111511400Y-155312989D01*
X111551903Y-155309000D01*
X113238097Y-155309000D01*
X113278600Y-155312989D01*
G37*
G36*
X112630443Y-152815519D02*
G01*
X112696627Y-152822037D01*
X112866466Y-152873557D01*
X113022991Y-152957222D01*
X113058729Y-152986552D01*
X113160186Y-153069814D01*
X113243448Y-153171271D01*
X113272778Y-153207009D01*
X113356443Y-153363534D01*
X113407963Y-153533373D01*
X113425359Y-153710000D01*
X113407963Y-153886627D01*
X113356443Y-154056466D01*
X113272778Y-154212991D01*
X113246985Y-154244420D01*
X113160186Y-154350186D01*
X113082879Y-154413629D01*
X113022991Y-154462778D01*
X112866466Y-154546443D01*
X112696627Y-154597963D01*
X112630442Y-154604482D01*
X112564260Y-154611000D01*
X112225740Y-154611000D01*
X112159558Y-154604482D01*
X112093373Y-154597963D01*
X111923534Y-154546443D01*
X111767009Y-154462778D01*
X111707121Y-154413629D01*
X111629814Y-154350186D01*
X111543015Y-154244420D01*
X111517222Y-154212991D01*
X111433557Y-154056466D01*
X111382037Y-153886627D01*
X111364641Y-153710000D01*
X111382037Y-153533373D01*
X111433557Y-153363534D01*
X111517222Y-153207009D01*
X111546552Y-153171271D01*
X111629814Y-153069814D01*
X111731271Y-152986552D01*
X111767009Y-152957222D01*
X111923534Y-152873557D01*
X112093373Y-152822037D01*
X112159557Y-152815519D01*
X112225740Y-152809000D01*
X112564260Y-152809000D01*
X112630443Y-152815519D01*
G37*
G36*
X112630443Y-150315519D02*
G01*
X112696627Y-150322037D01*
X112866466Y-150373557D01*
X113022991Y-150457222D01*
X113058729Y-150486552D01*
X113160186Y-150569814D01*
X113243448Y-150671271D01*
X113272778Y-150707009D01*
X113356443Y-150863534D01*
X113407963Y-151033373D01*
X113425359Y-151210000D01*
X113407963Y-151386627D01*
X113356443Y-151556466D01*
X113272778Y-151712991D01*
X113243448Y-151748729D01*
X113160186Y-151850186D01*
X113058729Y-151933448D01*
X113022991Y-151962778D01*
X112866466Y-152046443D01*
X112696627Y-152097963D01*
X112630443Y-152104481D01*
X112564260Y-152111000D01*
X112225740Y-152111000D01*
X112159557Y-152104481D01*
X112093373Y-152097963D01*
X111923534Y-152046443D01*
X111767009Y-151962778D01*
X111731271Y-151933448D01*
X111629814Y-151850186D01*
X111546552Y-151748729D01*
X111517222Y-151712991D01*
X111433557Y-151556466D01*
X111382037Y-151386627D01*
X111364641Y-151210000D01*
X111382037Y-151033373D01*
X111433557Y-150863534D01*
X111517222Y-150707009D01*
X111546552Y-150671271D01*
X111629814Y-150569814D01*
X111731271Y-150486552D01*
X111767009Y-150457222D01*
X111923534Y-150373557D01*
X112093373Y-150322037D01*
X112159557Y-150315519D01*
X112225740Y-150309000D01*
X112564260Y-150309000D01*
X112630443Y-150315519D01*
G37*
G36*
X72019146Y-151445038D02*
G01*
X70717146Y-151445038D01*
X70717146Y-148343038D01*
X72019146Y-148343038D01*
X72019146Y-151445038D01*
G37*
G36*
X70019146Y-151445038D02*
G01*
X68717146Y-151445038D01*
X68717146Y-148343038D01*
X70019146Y-148343038D01*
X70019146Y-151445038D01*
G37*
G36*
X74019146Y-151445038D02*
G01*
X72717146Y-151445038D01*
X72717146Y-148343038D01*
X74019146Y-148343038D01*
X74019146Y-151445038D01*
G37*
G36*
X76019146Y-151445038D02*
G01*
X74717146Y-151445038D01*
X74717146Y-148343038D01*
X76019146Y-148343038D01*
X76019146Y-151445038D01*
G37*
G36*
X80019146Y-151445038D02*
G01*
X78717146Y-151445038D01*
X78717146Y-148343038D01*
X80019146Y-148343038D01*
X80019146Y-151445038D01*
G37*
G36*
X84019146Y-151445038D02*
G01*
X82717146Y-151445038D01*
X82717146Y-148343038D01*
X84019146Y-148343038D01*
X84019146Y-151445038D01*
G37*
G36*
X82019146Y-151445038D02*
G01*
X80717146Y-151445038D01*
X80717146Y-148343038D01*
X82019146Y-148343038D01*
X82019146Y-151445038D01*
G37*
G36*
X78019146Y-151445038D02*
G01*
X76717146Y-151445038D01*
X76717146Y-148343038D01*
X78019146Y-148343038D01*
X78019146Y-151445038D01*
G37*
G36*
X32620443Y-149440519D02*
G01*
X32686627Y-149447037D01*
X32856466Y-149498557D01*
X33012991Y-149582222D01*
X33032171Y-149597963D01*
X33150186Y-149694814D01*
X33233448Y-149796271D01*
X33262778Y-149832009D01*
X33346443Y-149988534D01*
X33397963Y-150158373D01*
X33415359Y-150335000D01*
X33397963Y-150511627D01*
X33346443Y-150681466D01*
X33262778Y-150837991D01*
X33241817Y-150863532D01*
X33150186Y-150975186D01*
X33079281Y-151033375D01*
X33012991Y-151087778D01*
X32856466Y-151171443D01*
X32686627Y-151222963D01*
X32620443Y-151229481D01*
X32554260Y-151236000D01*
X32215740Y-151236000D01*
X32149557Y-151229481D01*
X32083373Y-151222963D01*
X31913534Y-151171443D01*
X31757009Y-151087778D01*
X31690719Y-151033375D01*
X31619814Y-150975186D01*
X31528183Y-150863532D01*
X31507222Y-150837991D01*
X31423557Y-150681466D01*
X31372037Y-150511627D01*
X31354641Y-150335000D01*
X31372037Y-150158373D01*
X31423557Y-149988534D01*
X31507222Y-149832009D01*
X31536552Y-149796271D01*
X31619814Y-149694814D01*
X31737829Y-149597963D01*
X31757009Y-149582222D01*
X31913534Y-149498557D01*
X32083373Y-149447037D01*
X32149557Y-149440519D01*
X32215740Y-149434000D01*
X32554260Y-149434000D01*
X32620443Y-149440519D01*
G37*
G36*
X59956000Y-150761000D02*
G01*
X58154000Y-150761000D01*
X58154000Y-148959000D01*
X59956000Y-148959000D01*
X59956000Y-150761000D01*
G37*
G36*
X112630443Y-147815519D02*
G01*
X112696627Y-147822037D01*
X112866466Y-147873557D01*
X113022991Y-147957222D01*
X113058729Y-147986552D01*
X113160186Y-148069814D01*
X113243448Y-148171271D01*
X113272778Y-148207009D01*
X113356443Y-148363534D01*
X113407963Y-148533373D01*
X113425359Y-148710000D01*
X113407963Y-148886627D01*
X113356443Y-149056466D01*
X113272778Y-149212991D01*
X113243448Y-149248729D01*
X113160186Y-149350186D01*
X113058729Y-149433448D01*
X113022991Y-149462778D01*
X112866466Y-149546443D01*
X112696627Y-149597963D01*
X112630443Y-149604481D01*
X112564260Y-149611000D01*
X112225740Y-149611000D01*
X112159557Y-149604481D01*
X112093373Y-149597963D01*
X111923534Y-149546443D01*
X111767009Y-149462778D01*
X111731271Y-149433448D01*
X111629814Y-149350186D01*
X111546552Y-149248729D01*
X111517222Y-149212991D01*
X111433557Y-149056466D01*
X111382037Y-148886627D01*
X111364641Y-148710000D01*
X111382037Y-148533373D01*
X111433557Y-148363534D01*
X111517222Y-148207009D01*
X111546552Y-148171271D01*
X111629814Y-148069814D01*
X111731271Y-147986552D01*
X111767009Y-147957222D01*
X111923534Y-147873557D01*
X112093373Y-147822037D01*
X112159557Y-147815519D01*
X112225740Y-147809000D01*
X112564260Y-147809000D01*
X112630443Y-147815519D01*
G37*
G36*
X96786000Y-148856000D02*
G01*
X94984000Y-148856000D01*
X94984000Y-147054000D01*
X96786000Y-147054000D01*
X96786000Y-148856000D01*
G37*
G36*
X32620443Y-146940519D02*
G01*
X32686627Y-146947037D01*
X32856466Y-146998557D01*
X33012991Y-147082222D01*
X33048729Y-147111552D01*
X33150186Y-147194814D01*
X33233448Y-147296271D01*
X33262778Y-147332009D01*
X33346443Y-147488534D01*
X33397963Y-147658373D01*
X33415359Y-147835000D01*
X33397963Y-148011627D01*
X33346443Y-148181466D01*
X33262778Y-148337991D01*
X33241817Y-148363532D01*
X33150186Y-148475186D01*
X33079281Y-148533375D01*
X33012991Y-148587778D01*
X32856466Y-148671443D01*
X32686627Y-148722963D01*
X32620443Y-148729481D01*
X32554260Y-148736000D01*
X32215740Y-148736000D01*
X32149557Y-148729481D01*
X32083373Y-148722963D01*
X31913534Y-148671443D01*
X31757009Y-148587778D01*
X31690719Y-148533375D01*
X31619814Y-148475186D01*
X31528183Y-148363532D01*
X31507222Y-148337991D01*
X31423557Y-148181466D01*
X31372037Y-148011627D01*
X31354641Y-147835000D01*
X31372037Y-147658373D01*
X31423557Y-147488534D01*
X31507222Y-147332009D01*
X31536552Y-147296271D01*
X31619814Y-147194814D01*
X31721271Y-147111552D01*
X31757009Y-147082222D01*
X31913534Y-146998557D01*
X32083373Y-146947037D01*
X32149557Y-146940519D01*
X32215740Y-146934000D01*
X32554260Y-146934000D01*
X32620443Y-146940519D01*
G37*
G36*
X32620443Y-144440519D02*
G01*
X32686627Y-144447037D01*
X32856466Y-144498557D01*
X33012991Y-144582222D01*
X33048729Y-144611552D01*
X33150186Y-144694814D01*
X33233448Y-144796271D01*
X33262778Y-144832009D01*
X33346443Y-144988534D01*
X33397963Y-145158373D01*
X33415359Y-145335000D01*
X33397963Y-145511627D01*
X33346443Y-145681466D01*
X33262778Y-145837991D01*
X33233448Y-145873729D01*
X33150186Y-145975186D01*
X33048729Y-146058448D01*
X33012991Y-146087778D01*
X32856466Y-146171443D01*
X32686627Y-146222963D01*
X32620443Y-146229481D01*
X32554260Y-146236000D01*
X32215740Y-146236000D01*
X32149557Y-146229481D01*
X32083373Y-146222963D01*
X31913534Y-146171443D01*
X31757009Y-146087778D01*
X31721271Y-146058448D01*
X31619814Y-145975186D01*
X31536552Y-145873729D01*
X31507222Y-145837991D01*
X31423557Y-145681466D01*
X31372037Y-145511627D01*
X31354641Y-145335000D01*
X31372037Y-145158373D01*
X31423557Y-144988534D01*
X31507222Y-144832009D01*
X31536552Y-144796271D01*
X31619814Y-144694814D01*
X31721271Y-144611552D01*
X31757009Y-144582222D01*
X31913534Y-144498557D01*
X32083373Y-144447037D01*
X32149557Y-144440519D01*
X32215740Y-144434000D01*
X32554260Y-144434000D01*
X32620443Y-144440519D01*
G37*
G36*
X46861591Y-143305085D02*
G01*
X46895569Y-143315393D01*
X46926890Y-143332134D01*
X46954339Y-143354661D01*
X46976866Y-143382110D01*
X46993607Y-143413431D01*
X47003915Y-143447409D01*
X47008000Y-143488890D01*
X47008000Y-144090110D01*
X47003915Y-144131591D01*
X46993607Y-144165569D01*
X46976866Y-144196890D01*
X46954339Y-144224339D01*
X46926890Y-144246866D01*
X46895569Y-144263607D01*
X46861591Y-144273915D01*
X46820110Y-144278000D01*
X46143890Y-144278000D01*
X46102409Y-144273915D01*
X46068431Y-144263607D01*
X46037110Y-144246866D01*
X46009661Y-144224339D01*
X45987134Y-144196890D01*
X45970393Y-144165569D01*
X45960085Y-144131591D01*
X45956000Y-144090110D01*
X45956000Y-143488890D01*
X45960085Y-143447409D01*
X45970393Y-143413431D01*
X45987134Y-143382110D01*
X46009661Y-143354661D01*
X46037110Y-143332134D01*
X46068431Y-143315393D01*
X46102409Y-143305085D01*
X46143890Y-143301000D01*
X46820110Y-143301000D01*
X46861591Y-143305085D01*
G37*
G36*
X32620442Y-141940518D02*
G01*
X32686627Y-141947037D01*
X32856466Y-141998557D01*
X33012991Y-142082222D01*
X33048729Y-142111552D01*
X33150186Y-142194814D01*
X33233448Y-142296271D01*
X33262778Y-142332009D01*
X33346443Y-142488534D01*
X33397963Y-142658373D01*
X33415359Y-142835000D01*
X33397963Y-143011627D01*
X33346443Y-143181466D01*
X33262778Y-143337991D01*
X33259353Y-143342164D01*
X33150186Y-143475186D01*
X33048729Y-143558448D01*
X33012991Y-143587778D01*
X32856466Y-143671443D01*
X32686627Y-143722963D01*
X32620443Y-143729481D01*
X32554260Y-143736000D01*
X32215740Y-143736000D01*
X32149557Y-143729481D01*
X32083373Y-143722963D01*
X31913534Y-143671443D01*
X31757009Y-143587778D01*
X31721271Y-143558448D01*
X31619814Y-143475186D01*
X31510647Y-143342164D01*
X31507222Y-143337991D01*
X31423557Y-143181466D01*
X31372037Y-143011627D01*
X31354641Y-142835000D01*
X31372037Y-142658373D01*
X31423557Y-142488534D01*
X31507222Y-142332009D01*
X31536552Y-142296271D01*
X31619814Y-142194814D01*
X31721271Y-142111552D01*
X31757009Y-142082222D01*
X31913534Y-141998557D01*
X32083373Y-141947037D01*
X32149558Y-141940518D01*
X32215740Y-141934000D01*
X32554260Y-141934000D01*
X32620442Y-141940518D01*
G37*
G36*
X114012721Y-142391174D02*
G01*
X114112995Y-142432709D01*
X114112996Y-142432710D01*
X114203242Y-142493010D01*
X114279990Y-142569758D01*
X114279991Y-142569760D01*
X114340291Y-142660005D01*
X114381826Y-142760279D01*
X114403000Y-142866730D01*
X114403000Y-142975270D01*
X114381826Y-143081721D01*
X114340291Y-143181995D01*
X114340290Y-143181996D01*
X114279990Y-143272242D01*
X114203242Y-143348990D01*
X114167998Y-143372539D01*
X114112995Y-143409291D01*
X114012721Y-143450826D01*
X113906270Y-143472000D01*
X113797730Y-143472000D01*
X113691279Y-143450826D01*
X113591005Y-143409291D01*
X113536002Y-143372539D01*
X113500758Y-143348990D01*
X113424010Y-143272242D01*
X113363710Y-143181996D01*
X113363709Y-143181995D01*
X113322174Y-143081721D01*
X113301000Y-142975270D01*
X113301000Y-142866730D01*
X113322174Y-142760279D01*
X113363709Y-142660005D01*
X113424009Y-142569760D01*
X113424010Y-142569758D01*
X113500758Y-142493010D01*
X113591004Y-142432710D01*
X113591005Y-142432709D01*
X113691279Y-142391174D01*
X113797730Y-142370000D01*
X113906270Y-142370000D01*
X114012721Y-142391174D01*
G37*
G36*
X46861591Y-141730085D02*
G01*
X46895569Y-141740393D01*
X46926890Y-141757134D01*
X46954339Y-141779661D01*
X46976866Y-141807110D01*
X46993607Y-141838431D01*
X47003915Y-141872409D01*
X47008000Y-141913890D01*
X47008000Y-142515110D01*
X47003915Y-142556591D01*
X46993607Y-142590569D01*
X46976866Y-142621890D01*
X46954339Y-142649339D01*
X46926890Y-142671866D01*
X46895569Y-142688607D01*
X46861591Y-142698915D01*
X46820110Y-142703000D01*
X46143890Y-142703000D01*
X46102409Y-142698915D01*
X46068431Y-142688607D01*
X46037110Y-142671866D01*
X46009661Y-142649339D01*
X45987134Y-142621890D01*
X45970393Y-142590569D01*
X45960085Y-142556591D01*
X45956000Y-142515110D01*
X45956000Y-141913890D01*
X45960085Y-141872409D01*
X45970393Y-141838431D01*
X45987134Y-141807110D01*
X46009661Y-141779661D01*
X46037110Y-141757134D01*
X46068431Y-141740393D01*
X46102409Y-141730085D01*
X46143890Y-141726000D01*
X46820110Y-141726000D01*
X46861591Y-141730085D01*
G37*
G36*
X33268600Y-139437989D02*
G01*
X33301652Y-139448015D01*
X33332103Y-139464292D01*
X33358799Y-139486201D01*
X33380708Y-139512897D01*
X33396985Y-139543348D01*
X33407011Y-139576400D01*
X33411000Y-139616903D01*
X33411000Y-141053097D01*
X33407011Y-141093600D01*
X33396985Y-141126652D01*
X33380708Y-141157103D01*
X33358799Y-141183799D01*
X33332103Y-141205708D01*
X33301652Y-141221985D01*
X33268600Y-141232011D01*
X33228097Y-141236000D01*
X31541903Y-141236000D01*
X31501400Y-141232011D01*
X31468348Y-141221985D01*
X31437897Y-141205708D01*
X31411201Y-141183799D01*
X31389292Y-141157103D01*
X31373015Y-141126652D01*
X31362989Y-141093600D01*
X31359000Y-141053097D01*
X31359000Y-139616903D01*
X31362989Y-139576400D01*
X31373015Y-139543348D01*
X31389292Y-139512897D01*
X31411201Y-139486201D01*
X31437897Y-139464292D01*
X31468348Y-139448015D01*
X31501400Y-139437989D01*
X31541903Y-139434000D01*
X33228097Y-139434000D01*
X33268600Y-139437989D01*
G37*
G36*
X114012721Y-137991174D02*
G01*
X114112995Y-138032709D01*
X114112996Y-138032710D01*
X114203242Y-138093010D01*
X114279990Y-138169758D01*
X114279991Y-138169760D01*
X114340291Y-138260005D01*
X114381826Y-138360279D01*
X114403000Y-138466730D01*
X114403000Y-138575270D01*
X114381826Y-138681721D01*
X114340291Y-138781995D01*
X114340290Y-138781996D01*
X114279990Y-138872242D01*
X114203242Y-138948990D01*
X114157812Y-138979345D01*
X114112995Y-139009291D01*
X114012721Y-139050826D01*
X113906270Y-139072000D01*
X113797730Y-139072000D01*
X113691279Y-139050826D01*
X113591005Y-139009291D01*
X113546188Y-138979345D01*
X113500758Y-138948990D01*
X113424010Y-138872242D01*
X113363710Y-138781996D01*
X113363709Y-138781995D01*
X113322174Y-138681721D01*
X113301000Y-138575270D01*
X113301000Y-138466730D01*
X113322174Y-138360279D01*
X113363709Y-138260005D01*
X113424009Y-138169760D01*
X113424010Y-138169758D01*
X113500758Y-138093010D01*
X113591004Y-138032710D01*
X113591005Y-138032709D01*
X113691279Y-137991174D01*
X113797730Y-137970000D01*
X113906270Y-137970000D01*
X114012721Y-137991174D01*
G37*
G36*
X70019146Y-137445038D02*
G01*
X68717146Y-137445038D01*
X68717146Y-134343038D01*
X70019146Y-134343038D01*
X70019146Y-137445038D01*
G37*
G36*
X72019146Y-137445038D02*
G01*
X70717146Y-137445038D01*
X70717146Y-134343038D01*
X72019146Y-134343038D01*
X72019146Y-137445038D01*
G37*
G36*
X74019146Y-137445038D02*
G01*
X72717146Y-137445038D01*
X72717146Y-134343038D01*
X74019146Y-134343038D01*
X74019146Y-137445038D01*
G37*
G36*
X76019146Y-137445038D02*
G01*
X74717146Y-137445038D01*
X74717146Y-134343038D01*
X76019146Y-134343038D01*
X76019146Y-137445038D01*
G37*
G36*
X80019146Y-137445038D02*
G01*
X78717146Y-137445038D01*
X78717146Y-134343038D01*
X80019146Y-134343038D01*
X80019146Y-137445038D01*
G37*
G36*
X78019146Y-137445038D02*
G01*
X76717146Y-137445038D01*
X76717146Y-134343038D01*
X78019146Y-134343038D01*
X78019146Y-137445038D01*
G37*
G36*
X84019146Y-137445038D02*
G01*
X82717146Y-137445038D01*
X82717146Y-134343038D01*
X84019146Y-134343038D01*
X84019146Y-137445038D01*
G37*
G36*
X82019146Y-137445038D02*
G01*
X80717146Y-137445038D01*
X80717146Y-134343038D01*
X82019146Y-134343038D01*
X82019146Y-137445038D01*
G37*
G36*
X94319487Y-122413996D02*
G01*
X94556253Y-122512068D01*
X94556255Y-122512069D01*
X94769339Y-122654447D01*
X94950553Y-122835661D01*
X95092932Y-123048747D01*
X95191004Y-123285513D01*
X95241000Y-123536861D01*
X95241000Y-123793139D01*
X95191004Y-124044487D01*
X95092932Y-124281253D01*
X95092931Y-124281255D01*
X94950553Y-124494339D01*
X94769339Y-124675553D01*
X94556255Y-124817931D01*
X94556254Y-124817932D01*
X94556253Y-124817932D01*
X94319487Y-124916004D01*
X94068139Y-124966000D01*
X93811861Y-124966000D01*
X93560513Y-124916004D01*
X93323747Y-124817932D01*
X93323746Y-124817932D01*
X93323745Y-124817931D01*
X93110661Y-124675553D01*
X92929447Y-124494339D01*
X92787069Y-124281255D01*
X92787068Y-124281253D01*
X92688996Y-124044487D01*
X92639000Y-123793139D01*
X92639000Y-123536861D01*
X92688996Y-123285513D01*
X92787068Y-123048747D01*
X92929447Y-122835661D01*
X93110661Y-122654447D01*
X93323745Y-122512069D01*
X93323747Y-122512068D01*
X93560513Y-122413996D01*
X93811861Y-122364000D01*
X94068139Y-122364000D01*
X94319487Y-122413996D01*
G37*
G36*
X104519487Y-122413996D02*
G01*
X104756253Y-122512068D01*
X104756255Y-122512069D01*
X104969339Y-122654447D01*
X105150553Y-122835661D01*
X105292932Y-123048747D01*
X105391004Y-123285513D01*
X105441000Y-123536861D01*
X105441000Y-123793139D01*
X105391004Y-124044487D01*
X105292932Y-124281253D01*
X105292931Y-124281255D01*
X105150553Y-124494339D01*
X104969339Y-124675553D01*
X104756255Y-124817931D01*
X104756254Y-124817932D01*
X104756253Y-124817932D01*
X104519487Y-124916004D01*
X104268139Y-124966000D01*
X104011861Y-124966000D01*
X103760513Y-124916004D01*
X103523747Y-124817932D01*
X103523746Y-124817932D01*
X103523745Y-124817931D01*
X103310661Y-124675553D01*
X103129447Y-124494339D01*
X102987069Y-124281255D01*
X102987068Y-124281253D01*
X102888996Y-124044487D01*
X102839000Y-123793139D01*
X102839000Y-123536861D01*
X102888996Y-123285513D01*
X102987068Y-123048747D01*
X103129447Y-122835661D01*
X103310661Y-122654447D01*
X103523745Y-122512069D01*
X103523747Y-122512068D01*
X103760513Y-122413996D01*
X104011861Y-122364000D01*
X104268139Y-122364000D01*
X104519487Y-122413996D01*
G37*
G36*
X32620442Y-119715519D02*
G01*
X32686626Y-119722037D01*
X32856465Y-119773557D01*
X33012990Y-119857222D01*
X33048728Y-119886552D01*
X33150185Y-119969814D01*
X33229122Y-120066000D01*
X33262777Y-120107009D01*
X33346442Y-120263534D01*
X33397962Y-120433373D01*
X33415358Y-120610000D01*
X33397962Y-120786627D01*
X33346442Y-120956466D01*
X33262777Y-121112991D01*
X33233447Y-121148729D01*
X33150185Y-121250186D01*
X33048728Y-121333448D01*
X33012990Y-121362778D01*
X32856465Y-121446443D01*
X32686626Y-121497963D01*
X32620441Y-121504482D01*
X32554259Y-121511000D01*
X32215739Y-121511000D01*
X32149557Y-121504482D01*
X32083372Y-121497963D01*
X31913533Y-121446443D01*
X31757008Y-121362778D01*
X31721270Y-121333448D01*
X31619813Y-121250186D01*
X31536551Y-121148729D01*
X31507221Y-121112991D01*
X31423556Y-120956466D01*
X31372036Y-120786627D01*
X31354640Y-120610000D01*
X31372036Y-120433373D01*
X31423556Y-120263534D01*
X31507221Y-120107009D01*
X31540876Y-120066000D01*
X31619813Y-119969814D01*
X31721270Y-119886552D01*
X31757008Y-119857222D01*
X31913533Y-119773557D01*
X32083372Y-119722037D01*
X32149556Y-119715519D01*
X32215739Y-119709000D01*
X32554259Y-119709000D01*
X32620442Y-119715519D01*
G37*
G36*
X91819487Y-117513996D02*
G01*
X92044044Y-117607011D01*
X92056255Y-117612069D01*
X92269339Y-117754447D01*
X92450553Y-117935661D01*
X92592932Y-118148747D01*
X92691004Y-118385513D01*
X92741000Y-118636861D01*
X92741000Y-118893139D01*
X92691004Y-119144487D01*
X92592932Y-119381253D01*
X92592931Y-119381255D01*
X92450553Y-119594339D01*
X92269339Y-119775553D01*
X92056255Y-119917931D01*
X92056254Y-119917932D01*
X92056253Y-119917932D01*
X91819487Y-120016004D01*
X91568139Y-120066000D01*
X91311861Y-120066000D01*
X91060513Y-120016004D01*
X90823747Y-119917932D01*
X90823746Y-119917932D01*
X90823745Y-119917931D01*
X90610661Y-119775553D01*
X90429447Y-119594339D01*
X90287069Y-119381255D01*
X90287068Y-119381253D01*
X90188996Y-119144487D01*
X90139000Y-118893139D01*
X90139000Y-118636861D01*
X90188996Y-118385513D01*
X90287068Y-118148747D01*
X90429447Y-117935661D01*
X90610661Y-117754447D01*
X90823745Y-117612069D01*
X90835956Y-117607011D01*
X91060513Y-117513996D01*
X91311861Y-117464000D01*
X91568139Y-117464000D01*
X91819487Y-117513996D01*
G37*
G36*
X113303600Y-117212989D02*
G01*
X113336652Y-117223015D01*
X113367103Y-117239292D01*
X113393799Y-117261201D01*
X113415708Y-117287897D01*
X113431985Y-117318348D01*
X113442011Y-117351400D01*
X113446000Y-117391903D01*
X113446000Y-118828097D01*
X113442011Y-118868600D01*
X113431985Y-118901652D01*
X113415708Y-118932103D01*
X113393799Y-118958799D01*
X113367103Y-118980708D01*
X113336652Y-118996985D01*
X113303600Y-119007011D01*
X113263097Y-119011000D01*
X111526903Y-119011000D01*
X111486400Y-119007011D01*
X111453348Y-118996985D01*
X111422897Y-118980708D01*
X111396201Y-118958799D01*
X111374292Y-118932103D01*
X111358015Y-118901652D01*
X111347989Y-118868600D01*
X111344000Y-118828097D01*
X111344000Y-117391903D01*
X111347989Y-117351400D01*
X111358015Y-117318348D01*
X111374292Y-117287897D01*
X111396201Y-117261201D01*
X111422897Y-117239292D01*
X111453348Y-117223015D01*
X111486400Y-117212989D01*
X111526903Y-117209000D01*
X113263097Y-117209000D01*
X113303600Y-117212989D01*
G37*
G36*
X32594759Y-117212989D02*
G01*
X32686626Y-117222037D01*
X32856465Y-117273557D01*
X33012990Y-117357222D01*
X33048728Y-117386552D01*
X33150185Y-117469814D01*
X33233447Y-117571271D01*
X33262777Y-117607009D01*
X33346442Y-117763534D01*
X33397962Y-117933373D01*
X33415358Y-118110000D01*
X33397962Y-118286627D01*
X33346442Y-118456466D01*
X33262777Y-118612991D01*
X33233447Y-118648729D01*
X33150185Y-118750186D01*
X33055249Y-118828097D01*
X33012990Y-118862778D01*
X32856465Y-118946443D01*
X32686626Y-118997963D01*
X32620442Y-119004481D01*
X32554259Y-119011000D01*
X32215739Y-119011000D01*
X32149556Y-119004481D01*
X32083372Y-118997963D01*
X31913533Y-118946443D01*
X31757008Y-118862778D01*
X31714749Y-118828097D01*
X31619813Y-118750186D01*
X31536551Y-118648729D01*
X31507221Y-118612991D01*
X31423556Y-118456466D01*
X31372036Y-118286627D01*
X31354640Y-118110000D01*
X31372036Y-117933373D01*
X31423556Y-117763534D01*
X31507221Y-117607009D01*
X31536551Y-117571271D01*
X31619813Y-117469814D01*
X31721270Y-117386552D01*
X31757008Y-117357222D01*
X31913533Y-117273557D01*
X32083372Y-117222037D01*
X32175239Y-117212989D01*
X32215739Y-117209000D01*
X32554259Y-117209000D01*
X32594759Y-117212989D01*
G37*
G36*
X33268599Y-114712989D02*
G01*
X33301651Y-114723015D01*
X33332102Y-114739292D01*
X33358798Y-114761201D01*
X33380707Y-114787897D01*
X33396984Y-114818348D01*
X33407010Y-114851400D01*
X33410999Y-114891903D01*
X33410999Y-116328097D01*
X33407010Y-116368600D01*
X33396984Y-116401652D01*
X33380707Y-116432103D01*
X33358798Y-116458799D01*
X33332102Y-116480708D01*
X33301651Y-116496985D01*
X33268599Y-116507011D01*
X33228096Y-116511000D01*
X31541902Y-116511000D01*
X31501399Y-116507011D01*
X31468347Y-116496985D01*
X31437896Y-116480708D01*
X31411200Y-116458799D01*
X31389291Y-116432103D01*
X31373014Y-116401652D01*
X31362988Y-116368600D01*
X31358999Y-116328097D01*
X31358999Y-114891903D01*
X31362988Y-114851400D01*
X31373014Y-114818348D01*
X31389291Y-114787897D01*
X31411200Y-114761201D01*
X31437896Y-114739292D01*
X31468347Y-114723015D01*
X31501399Y-114712989D01*
X31541902Y-114709000D01*
X33228096Y-114709000D01*
X33268599Y-114712989D01*
G37*
G36*
X112629760Y-114712989D02*
G01*
X112721627Y-114722037D01*
X112891466Y-114773557D01*
X113047991Y-114857222D01*
X113083729Y-114886552D01*
X113185186Y-114969814D01*
X113268448Y-115071271D01*
X113297778Y-115107009D01*
X113381443Y-115263534D01*
X113432963Y-115433373D01*
X113450359Y-115610000D01*
X113432963Y-115786627D01*
X113381443Y-115956466D01*
X113297778Y-116112991D01*
X113268448Y-116148729D01*
X113185186Y-116250186D01*
X113114376Y-116308297D01*
X113047991Y-116362778D01*
X112891466Y-116446443D01*
X112721627Y-116497963D01*
X112655443Y-116504481D01*
X112589260Y-116511000D01*
X112200740Y-116511000D01*
X112134557Y-116504481D01*
X112068373Y-116497963D01*
X111898534Y-116446443D01*
X111742009Y-116362778D01*
X111675624Y-116308297D01*
X111604814Y-116250186D01*
X111521552Y-116148729D01*
X111492222Y-116112991D01*
X111408557Y-115956466D01*
X111357037Y-115786627D01*
X111339641Y-115610000D01*
X111357037Y-115433373D01*
X111408557Y-115263534D01*
X111492222Y-115107009D01*
X111521552Y-115071271D01*
X111604814Y-114969814D01*
X111706271Y-114886552D01*
X111742009Y-114857222D01*
X111898534Y-114773557D01*
X112068373Y-114722037D01*
X112160240Y-114712989D01*
X112200740Y-114709000D01*
X112589260Y-114709000D01*
X112629760Y-114712989D01*
G37*
G36*
X41904228Y-114671703D02*
G01*
X42059100Y-114735853D01*
X42198481Y-114828985D01*
X42317015Y-114947519D01*
X42410147Y-115086900D01*
X42474297Y-115241772D01*
X42507000Y-115406184D01*
X42507000Y-115573816D01*
X42474297Y-115738228D01*
X42410147Y-115893100D01*
X42317015Y-116032481D01*
X42198481Y-116151015D01*
X42059100Y-116244147D01*
X41904228Y-116308297D01*
X41739816Y-116341000D01*
X41572184Y-116341000D01*
X41407772Y-116308297D01*
X41252900Y-116244147D01*
X41113519Y-116151015D01*
X40994985Y-116032481D01*
X40901853Y-115893100D01*
X40837703Y-115738228D01*
X40805000Y-115573816D01*
X40805000Y-115406184D01*
X40837703Y-115241772D01*
X40901853Y-115086900D01*
X40994985Y-114947519D01*
X41113519Y-114828985D01*
X41252900Y-114735853D01*
X41407772Y-114671703D01*
X41572184Y-114639000D01*
X41739816Y-114639000D01*
X41904228Y-114671703D01*
G37*
G36*
X59161000Y-115769000D02*
G01*
X50059000Y-115769000D01*
X50059000Y-112667000D01*
X59161000Y-112667000D01*
X59161000Y-115769000D01*
G37*
G36*
X104519487Y-112413996D02*
G01*
X104756253Y-112512068D01*
X104756255Y-112512069D01*
X104969339Y-112654447D01*
X105150553Y-112835661D01*
X105292932Y-113048747D01*
X105391004Y-113285513D01*
X105441000Y-113536861D01*
X105441000Y-113793139D01*
X105391004Y-114044487D01*
X105292932Y-114281253D01*
X105292931Y-114281255D01*
X105150553Y-114494339D01*
X104969339Y-114675553D01*
X104756255Y-114817931D01*
X104756254Y-114817932D01*
X104756253Y-114817932D01*
X104519487Y-114916004D01*
X104268139Y-114966000D01*
X104011861Y-114966000D01*
X103760513Y-114916004D01*
X103523747Y-114817932D01*
X103523746Y-114817932D01*
X103523745Y-114817931D01*
X103310661Y-114675553D01*
X103129447Y-114494339D01*
X102987069Y-114281255D01*
X102987068Y-114281253D01*
X102888996Y-114044487D01*
X102839000Y-113793139D01*
X102839000Y-113536861D01*
X102888996Y-113285513D01*
X102987068Y-113048747D01*
X103129447Y-112835661D01*
X103310661Y-112654447D01*
X103523745Y-112512069D01*
X103523747Y-112512068D01*
X103760513Y-112413996D01*
X104011861Y-112364000D01*
X104268139Y-112364000D01*
X104519487Y-112413996D01*
G37*
G36*
X94319487Y-112413996D02*
G01*
X94556253Y-112512068D01*
X94556255Y-112512069D01*
X94769339Y-112654447D01*
X94950553Y-112835661D01*
X95092932Y-113048747D01*
X95191004Y-113285513D01*
X95241000Y-113536861D01*
X95241000Y-113793139D01*
X95191004Y-114044487D01*
X95092932Y-114281253D01*
X95092931Y-114281255D01*
X94950553Y-114494339D01*
X94769339Y-114675553D01*
X94556255Y-114817931D01*
X94556254Y-114817932D01*
X94556253Y-114817932D01*
X94319487Y-114916004D01*
X94068139Y-114966000D01*
X93811861Y-114966000D01*
X93560513Y-114916004D01*
X93323747Y-114817932D01*
X93323746Y-114817932D01*
X93323745Y-114817931D01*
X93110661Y-114675553D01*
X92929447Y-114494339D01*
X92787069Y-114281255D01*
X92787068Y-114281253D01*
X92688996Y-114044487D01*
X92639000Y-113793139D01*
X92639000Y-113536861D01*
X92688996Y-113285513D01*
X92787068Y-113048747D01*
X92929447Y-112835661D01*
X93110661Y-112654447D01*
X93323745Y-112512069D01*
X93323747Y-112512068D01*
X93560513Y-112413996D01*
X93811861Y-112364000D01*
X94068139Y-112364000D01*
X94319487Y-112413996D01*
G37*
G36*
X94319487Y-109078996D02*
G01*
X94556253Y-109177068D01*
X94556255Y-109177069D01*
X94769339Y-109319447D01*
X94950553Y-109500661D01*
X95044459Y-109641201D01*
X95092932Y-109713747D01*
X95191004Y-109950513D01*
X95241000Y-110201861D01*
X95241000Y-110458139D01*
X95191004Y-110709487D01*
X95092932Y-110946253D01*
X95092931Y-110946255D01*
X94950553Y-111159339D01*
X94769339Y-111340553D01*
X94556255Y-111482931D01*
X94556254Y-111482932D01*
X94556253Y-111482932D01*
X94319487Y-111581004D01*
X94068139Y-111631000D01*
X93811861Y-111631000D01*
X93560513Y-111581004D01*
X93323747Y-111482932D01*
X93323746Y-111482932D01*
X93323745Y-111482931D01*
X93110661Y-111340553D01*
X92929447Y-111159339D01*
X92787069Y-110946255D01*
X92787068Y-110946253D01*
X92688996Y-110709487D01*
X92639000Y-110458139D01*
X92639000Y-110201861D01*
X92688996Y-109950513D01*
X92787068Y-109713747D01*
X92835542Y-109641201D01*
X92929447Y-109500661D01*
X93110661Y-109319447D01*
X93323745Y-109177069D01*
X93323747Y-109177068D01*
X93560513Y-109078996D01*
X93811861Y-109029000D01*
X94068139Y-109029000D01*
X94319487Y-109078996D01*
G37*
G36*
X104519487Y-109078996D02*
G01*
X104756253Y-109177068D01*
X104756255Y-109177069D01*
X104969339Y-109319447D01*
X105150553Y-109500661D01*
X105244459Y-109641201D01*
X105292932Y-109713747D01*
X105391004Y-109950513D01*
X105441000Y-110201861D01*
X105441000Y-110458139D01*
X105391004Y-110709487D01*
X105292932Y-110946253D01*
X105292931Y-110946255D01*
X105150553Y-111159339D01*
X104969339Y-111340553D01*
X104756255Y-111482931D01*
X104756254Y-111482932D01*
X104756253Y-111482932D01*
X104519487Y-111581004D01*
X104268139Y-111631000D01*
X104011861Y-111631000D01*
X103760513Y-111581004D01*
X103523747Y-111482932D01*
X103523746Y-111482932D01*
X103523745Y-111482931D01*
X103310661Y-111340553D01*
X103129447Y-111159339D01*
X102987069Y-110946255D01*
X102987068Y-110946253D01*
X102888996Y-110709487D01*
X102839000Y-110458139D01*
X102839000Y-110201861D01*
X102888996Y-109950513D01*
X102987068Y-109713747D01*
X103035542Y-109641201D01*
X103129447Y-109500661D01*
X103310661Y-109319447D01*
X103523745Y-109177069D01*
X103523747Y-109177068D01*
X103760513Y-109078996D01*
X104011861Y-109029000D01*
X104268139Y-109029000D01*
X104519487Y-109078996D01*
G37*
G36*
X113303600Y-109592989D02*
G01*
X113336652Y-109603015D01*
X113367103Y-109619292D01*
X113393799Y-109641201D01*
X113415708Y-109667897D01*
X113431985Y-109698348D01*
X113442011Y-109731400D01*
X113446000Y-109771903D01*
X113446000Y-111208097D01*
X113442011Y-111248600D01*
X113431985Y-111281652D01*
X113415708Y-111312103D01*
X113393799Y-111338799D01*
X113367103Y-111360708D01*
X113336652Y-111376985D01*
X113303600Y-111387011D01*
X113263097Y-111391000D01*
X111526903Y-111391000D01*
X111486400Y-111387011D01*
X111453348Y-111376985D01*
X111422897Y-111360708D01*
X111396201Y-111338799D01*
X111374292Y-111312103D01*
X111358015Y-111281652D01*
X111347989Y-111248600D01*
X111344000Y-111208097D01*
X111344000Y-109771903D01*
X111347989Y-109731400D01*
X111358015Y-109698348D01*
X111374292Y-109667897D01*
X111396201Y-109641201D01*
X111422897Y-109619292D01*
X111453348Y-109603015D01*
X111486400Y-109592989D01*
X111526903Y-109589000D01*
X113263097Y-109589000D01*
X113303600Y-109592989D01*
G37*
G36*
X41904228Y-109671703D02*
G01*
X42059100Y-109735853D01*
X42198481Y-109828985D01*
X42317015Y-109947519D01*
X42410147Y-110086900D01*
X42474297Y-110241772D01*
X42507000Y-110406184D01*
X42507000Y-110573816D01*
X42474297Y-110738228D01*
X42410147Y-110893100D01*
X42317015Y-111032481D01*
X42198481Y-111151015D01*
X42059100Y-111244147D01*
X41904228Y-111308297D01*
X41739816Y-111341000D01*
X41572184Y-111341000D01*
X41407772Y-111308297D01*
X41252900Y-111244147D01*
X41113519Y-111151015D01*
X40994985Y-111032481D01*
X40901853Y-110893100D01*
X40837703Y-110738228D01*
X40805000Y-110573816D01*
X40805000Y-110406184D01*
X40837703Y-110241772D01*
X40901853Y-110086900D01*
X40994985Y-109947519D01*
X41113519Y-109828985D01*
X41252900Y-109735853D01*
X41407772Y-109671703D01*
X41572184Y-109639000D01*
X41739816Y-109639000D01*
X41904228Y-109671703D01*
G37*
G36*
X32645443Y-108920519D02*
G01*
X32711627Y-108927037D01*
X32881466Y-108978557D01*
X33037991Y-109062222D01*
X33058430Y-109078996D01*
X33175186Y-109174814D01*
X33258448Y-109276271D01*
X33287778Y-109312009D01*
X33371443Y-109468534D01*
X33422963Y-109638373D01*
X33440359Y-109815000D01*
X33422963Y-109991627D01*
X33371443Y-110161466D01*
X33287778Y-110317991D01*
X33258448Y-110353729D01*
X33175186Y-110455186D01*
X33073729Y-110538448D01*
X33037991Y-110567778D01*
X32881466Y-110651443D01*
X32711627Y-110702963D01*
X32645443Y-110709481D01*
X32579260Y-110716000D01*
X32190740Y-110716000D01*
X32124557Y-110709481D01*
X32058373Y-110702963D01*
X31888534Y-110651443D01*
X31732009Y-110567778D01*
X31696271Y-110538448D01*
X31594814Y-110455186D01*
X31511552Y-110353729D01*
X31482222Y-110317991D01*
X31398557Y-110161466D01*
X31347037Y-109991627D01*
X31329641Y-109815000D01*
X31347037Y-109638373D01*
X31398557Y-109468534D01*
X31482222Y-109312009D01*
X31511552Y-109276271D01*
X31594814Y-109174814D01*
X31711570Y-109078996D01*
X31732009Y-109062222D01*
X31888534Y-108978557D01*
X32058373Y-108927037D01*
X32124557Y-108920519D01*
X32190740Y-108914000D01*
X32579260Y-108914000D01*
X32645443Y-108920519D01*
G37*
G36*
X112655443Y-107095519D02*
G01*
X112721627Y-107102037D01*
X112891466Y-107153557D01*
X113047991Y-107237222D01*
X113083729Y-107266552D01*
X113185186Y-107349814D01*
X113268448Y-107451271D01*
X113297778Y-107487009D01*
X113381443Y-107643534D01*
X113432963Y-107813373D01*
X113450359Y-107990000D01*
X113432963Y-108166627D01*
X113381443Y-108336466D01*
X113297778Y-108492991D01*
X113268448Y-108528729D01*
X113185186Y-108630186D01*
X113083729Y-108713448D01*
X113047991Y-108742778D01*
X112891466Y-108826443D01*
X112721627Y-108877963D01*
X112655443Y-108884481D01*
X112589260Y-108891000D01*
X112200740Y-108891000D01*
X112134557Y-108884481D01*
X112068373Y-108877963D01*
X111898534Y-108826443D01*
X111742009Y-108742778D01*
X111706271Y-108713448D01*
X111604814Y-108630186D01*
X111521552Y-108528729D01*
X111492222Y-108492991D01*
X111408557Y-108336466D01*
X111357037Y-108166627D01*
X111339641Y-107990000D01*
X111357037Y-107813373D01*
X111408557Y-107643534D01*
X111492222Y-107487009D01*
X111521552Y-107451271D01*
X111604814Y-107349814D01*
X111706271Y-107266552D01*
X111742009Y-107237222D01*
X111898534Y-107153557D01*
X112068373Y-107102037D01*
X112134557Y-107095519D01*
X112200740Y-107089000D01*
X112589260Y-107089000D01*
X112655443Y-107095519D01*
G37*
G36*
X77101000Y-108851000D02*
G01*
X75299000Y-108851000D01*
X75299000Y-107049000D01*
X77101000Y-107049000D01*
X77101000Y-108851000D01*
G37*
G36*
X33293600Y-106417989D02*
G01*
X33326652Y-106428015D01*
X33357103Y-106444292D01*
X33383799Y-106466201D01*
X33405708Y-106492897D01*
X33421985Y-106523348D01*
X33432011Y-106556400D01*
X33436000Y-106596903D01*
X33436000Y-108033097D01*
X33432011Y-108073600D01*
X33421985Y-108106652D01*
X33405708Y-108137103D01*
X33383799Y-108163799D01*
X33357103Y-108185708D01*
X33326652Y-108201985D01*
X33293600Y-108212011D01*
X33253097Y-108216000D01*
X31516903Y-108216000D01*
X31476400Y-108212011D01*
X31443348Y-108201985D01*
X31412897Y-108185708D01*
X31386201Y-108163799D01*
X31364292Y-108137103D01*
X31348015Y-108106652D01*
X31337989Y-108073600D01*
X31334000Y-108033097D01*
X31334000Y-106596903D01*
X31337989Y-106556400D01*
X31348015Y-106523348D01*
X31364292Y-106492897D01*
X31386201Y-106466201D01*
X31412897Y-106444292D01*
X31443348Y-106428015D01*
X31476400Y-106417989D01*
X31516903Y-106414000D01*
X33253097Y-106414000D01*
X33293600Y-106417989D01*
G37*
G36*
X59161000Y-107469000D02*
G01*
X50059000Y-107469000D01*
X50059000Y-104367000D01*
X59161000Y-104367000D01*
X59161000Y-107469000D01*
G37*
G36*
X91819487Y-104178996D02*
G01*
X92056253Y-104277068D01*
X92056255Y-104277069D01*
X92071860Y-104287496D01*
X92269339Y-104419447D01*
X92450553Y-104600661D01*
X92592932Y-104813747D01*
X92691004Y-105050513D01*
X92741000Y-105301861D01*
X92741000Y-105558139D01*
X92691004Y-105809487D01*
X92592932Y-106046253D01*
X92592931Y-106046255D01*
X92450553Y-106259339D01*
X92269339Y-106440553D01*
X92056255Y-106582931D01*
X92056254Y-106582932D01*
X92056253Y-106582932D01*
X91819487Y-106681004D01*
X91568139Y-106731000D01*
X91311861Y-106731000D01*
X91060513Y-106681004D01*
X90823747Y-106582932D01*
X90823746Y-106582932D01*
X90823745Y-106582931D01*
X90610661Y-106440553D01*
X90429447Y-106259339D01*
X90287069Y-106046255D01*
X90287068Y-106046253D01*
X90188996Y-105809487D01*
X90139000Y-105558139D01*
X90139000Y-105301861D01*
X90188996Y-105050513D01*
X90287068Y-104813747D01*
X90429447Y-104600661D01*
X90610661Y-104419447D01*
X90808140Y-104287496D01*
X90823745Y-104277069D01*
X90823747Y-104277068D01*
X91060513Y-104178996D01*
X91311861Y-104129000D01*
X91568139Y-104129000D01*
X91819487Y-104178996D01*
G37*
G36*
X72614191Y-105020982D02*
G01*
X69083191Y-105020982D01*
X69083191Y-102505982D01*
X72614191Y-102505982D01*
X72614191Y-105020982D01*
G37*
G36*
X110559238Y-98411467D02*
G01*
X110873281Y-98473934D01*
X111464925Y-98719001D01*
X111997391Y-99074784D01*
X112450215Y-99527608D01*
X112805998Y-100060074D01*
X113036270Y-100616000D01*
X113051065Y-100651719D01*
X113175999Y-101279803D01*
X113175999Y-101920197D01*
X113132779Y-102137480D01*
X113051065Y-102548282D01*
X112805998Y-103139926D01*
X112450215Y-103672392D01*
X111997391Y-104125216D01*
X111464925Y-104480999D01*
X110873281Y-104726066D01*
X110559238Y-104788533D01*
X110245196Y-104851000D01*
X109604802Y-104851000D01*
X109290760Y-104788533D01*
X108976717Y-104726066D01*
X108385073Y-104480999D01*
X107852607Y-104125216D01*
X107399783Y-103672392D01*
X107044000Y-103139926D01*
X106798933Y-102548282D01*
X106717219Y-102137480D01*
X106673999Y-101920197D01*
X106673999Y-101279803D01*
X106798933Y-100651719D01*
X106813728Y-100616000D01*
X107044000Y-100060074D01*
X107399783Y-99527608D01*
X107852607Y-99074784D01*
X108385073Y-98719001D01*
X108976717Y-98473934D01*
X109290760Y-98411467D01*
X109604802Y-98349000D01*
X110245196Y-98349000D01*
X110559238Y-98411467D01*
G37*
G36*
X35559239Y-98411467D02*
G01*
X35873282Y-98473934D01*
X36464926Y-98719001D01*
X36997392Y-99074784D01*
X37450216Y-99527608D01*
X37805999Y-100060074D01*
X38036271Y-100616000D01*
X38051066Y-100651719D01*
X38176000Y-101279803D01*
X38176000Y-101920197D01*
X38132780Y-102137480D01*
X38051066Y-102548282D01*
X37805999Y-103139926D01*
X37450216Y-103672392D01*
X36997392Y-104125216D01*
X36464926Y-104480999D01*
X35873282Y-104726066D01*
X35559239Y-104788533D01*
X35245197Y-104851000D01*
X34604803Y-104851000D01*
X34290761Y-104788533D01*
X33976718Y-104726066D01*
X33385074Y-104480999D01*
X32852608Y-104125216D01*
X32399784Y-103672392D01*
X32044001Y-103139926D01*
X31798934Y-102548282D01*
X31717220Y-102137480D01*
X31674000Y-101920197D01*
X31674000Y-101279803D01*
X31798934Y-100651719D01*
X31813729Y-100616000D01*
X32044001Y-100060074D01*
X32399784Y-99527608D01*
X32852608Y-99074784D01*
X33385074Y-98719001D01*
X33976718Y-98473934D01*
X34290761Y-98411467D01*
X34604803Y-98349000D01*
X35245197Y-98349000D01*
X35559239Y-98411467D01*
G37*
G36*
X76379690Y-104137480D02*
G01*
X75477690Y-104137480D01*
X75477690Y-103135480D01*
X76379690Y-103135480D01*
X76379690Y-104137480D01*
G37*
G36*
X55561000Y-103218000D02*
G01*
X53659000Y-103218000D01*
X53659000Y-100616000D01*
X55561000Y-100616000D01*
X55561000Y-103218000D01*
G37*
G36*
X75429690Y-102137480D02*
G01*
X74527690Y-102137480D01*
X74527690Y-101135480D01*
X75429690Y-101135480D01*
X75429690Y-102137480D01*
G37*
G36*
X77329690Y-102137480D02*
G01*
X76427690Y-102137480D01*
X76427690Y-101135480D01*
X77329690Y-101135480D01*
X77329690Y-102137480D01*
G37*
G36*
X104519487Y-99078996D02*
G01*
X104756253Y-99177068D01*
X104756255Y-99177069D01*
X104969339Y-99319447D01*
X105150553Y-99500661D01*
X105268031Y-99676479D01*
X105292932Y-99713747D01*
X105391004Y-99950513D01*
X105441000Y-100201861D01*
X105441000Y-100458139D01*
X105391004Y-100709487D01*
X105292932Y-100946253D01*
X105292931Y-100946255D01*
X105150553Y-101159339D01*
X104969339Y-101340553D01*
X104756255Y-101482931D01*
X104756254Y-101482932D01*
X104756253Y-101482932D01*
X104519487Y-101581004D01*
X104268139Y-101631000D01*
X104011861Y-101631000D01*
X103760513Y-101581004D01*
X103523747Y-101482932D01*
X103523746Y-101482932D01*
X103523745Y-101482931D01*
X103310661Y-101340553D01*
X103129447Y-101159339D01*
X102987069Y-100946255D01*
X102987068Y-100946253D01*
X102888996Y-100709487D01*
X102839000Y-100458139D01*
X102839000Y-100201861D01*
X102888996Y-99950513D01*
X102987068Y-99713747D01*
X103011970Y-99676479D01*
X103129447Y-99500661D01*
X103310661Y-99319447D01*
X103523745Y-99177069D01*
X103523747Y-99177068D01*
X103760513Y-99078996D01*
X104011861Y-99029000D01*
X104268139Y-99029000D01*
X104519487Y-99078996D01*
G37*
G36*
X94319487Y-99078996D02*
G01*
X94556253Y-99177068D01*
X94556255Y-99177069D01*
X94769339Y-99319447D01*
X94950553Y-99500661D01*
X95068031Y-99676479D01*
X95092932Y-99713747D01*
X95191004Y-99950513D01*
X95241000Y-100201861D01*
X95241000Y-100458139D01*
X95191004Y-100709487D01*
X95092932Y-100946253D01*
X95092931Y-100946255D01*
X94950553Y-101159339D01*
X94769339Y-101340553D01*
X94556255Y-101482931D01*
X94556254Y-101482932D01*
X94556253Y-101482932D01*
X94319487Y-101581004D01*
X94068139Y-101631000D01*
X93811861Y-101631000D01*
X93560513Y-101581004D01*
X93323747Y-101482932D01*
X93323746Y-101482932D01*
X93323745Y-101482931D01*
X93110661Y-101340553D01*
X92929447Y-101159339D01*
X92787069Y-100946255D01*
X92787068Y-100946253D01*
X92688996Y-100709487D01*
X92639000Y-100458139D01*
X92639000Y-100201861D01*
X92688996Y-99950513D01*
X92787068Y-99713747D01*
X92811970Y-99676479D01*
X92929447Y-99500661D01*
X93110661Y-99319447D01*
X93323745Y-99177069D01*
X93323747Y-99177068D01*
X93560513Y-99078996D01*
X93811861Y-99029000D01*
X94068139Y-99029000D01*
X94319487Y-99078996D01*
G37*
G36*
X76379690Y-99676479D02*
G01*
X75477690Y-99676479D01*
X75477690Y-98674479D01*
X76379690Y-98674479D01*
X76379690Y-99676479D01*
G37*
G36*
X55561000Y-99218000D02*
G01*
X53659000Y-99218000D01*
X53659000Y-96616000D01*
X55561000Y-96616000D01*
X55561000Y-99218000D01*
G37*
G36*
X72614191Y-99178982D02*
G01*
X69083191Y-99178982D01*
X69083191Y-96663982D01*
X72614191Y-96663982D01*
X72614191Y-99178982D01*
G37*
G36*
X75429690Y-97676479D02*
G01*
X74527690Y-97676479D01*
X74527690Y-96674479D01*
X75429690Y-96674479D01*
X75429690Y-97676479D01*
G37*
G36*
X77329690Y-97676479D02*
G01*
X76427690Y-97676479D01*
X76427690Y-96674479D01*
X77329690Y-96674479D01*
X77329690Y-97676479D01*
G37*
M02*
