G04 #@! TF.GenerationSoftware,KiCad,Pcbnew,(5.1.5)-3*
G04 #@! TF.CreationDate,2020-01-27T10:14:26+03:00*
G04 #@! TF.ProjectId,UBD,5542442e-6b69-4636-9164-5f7063625858,rev?*
G04 #@! TF.SameCoordinates,Original*
G04 #@! TF.FileFunction,Legend,Bot*
G04 #@! TF.FilePolarity,Positive*
%FSLAX46Y46*%
G04 Gerber Fmt 4.6, Leading zero omitted, Abs format (unit mm)*
G04 Created by KiCad (PCBNEW (5.1.5)-3) date 2020-01-27 10:14:26*
%MOMM*%
%LPD*%
G04 APERTURE LIST*
%ADD10C,0.200000*%
%ADD11C,0.150000*%
%ADD12C,1.702000*%
%ADD13R,1.902000X2.602000*%
%ADD14R,1.302000X3.102000*%
%ADD15R,1.802000X1.802000*%
%ADD16C,0.100000*%
%ADD17R,9.102000X3.102000*%
%ADD18O,2.052000X1.802000*%
%ADD19O,2.102000X1.802000*%
%ADD20R,3.531000X2.515000*%
%ADD21C,2.602000*%
%ADD22C,1.102000*%
%ADD23R,0.902000X1.002000*%
%ADD24R,1.902000X1.902000*%
%ADD25C,1.902000*%
%ADD26C,0.902000*%
%ADD27C,6.502000*%
G04 APERTURE END LIST*
D10*
X52960000Y-96517000D02*
X56260000Y-96517000D01*
X56260000Y-96517000D02*
X56260000Y-101917000D01*
X52960000Y-96517000D02*
X52960000Y-101917000D01*
X45972000Y-143164779D02*
X45972000Y-142839221D01*
X46992000Y-143164779D02*
X46992000Y-142839221D01*
X59510000Y-110068000D02*
G75*
G03X59510000Y-110068000I-4900000J0D01*
G01*
X72863191Y-104117482D02*
X74123691Y-104117482D01*
X74123691Y-104117482D02*
X74123691Y-97567482D01*
X74123691Y-97567482D02*
X72863191Y-97567482D01*
X68834191Y-104117482D02*
X67573691Y-104117482D01*
X67573691Y-104117482D02*
X67573691Y-97567482D01*
X67573691Y-97567482D02*
X68834191Y-97567482D01*
X77508690Y-98935479D02*
X77508690Y-97475479D01*
X74348690Y-98935479D02*
X74348690Y-96775479D01*
X74348690Y-98935479D02*
X75278690Y-98935479D01*
X77508690Y-98935479D02*
X76578690Y-98935479D01*
X77508690Y-103396480D02*
X77508690Y-101936480D01*
X74348690Y-103396480D02*
X74348690Y-101236480D01*
X74348690Y-103396480D02*
X75278690Y-103396480D01*
X77508690Y-103396480D02*
X76578690Y-103396480D01*
D11*
X52300095Y-102433380D02*
X52300095Y-101433380D01*
X52062000Y-101433380D01*
X51919142Y-101481000D01*
X51823904Y-101576238D01*
X51776285Y-101671476D01*
X51728666Y-101861952D01*
X51728666Y-102004809D01*
X51776285Y-102195285D01*
X51823904Y-102290523D01*
X51919142Y-102385761D01*
X52062000Y-102433380D01*
X52300095Y-102433380D01*
X51395333Y-101433380D02*
X50776285Y-101433380D01*
X51109619Y-101814333D01*
X50966761Y-101814333D01*
X50871523Y-101861952D01*
X50823904Y-101909571D01*
X50776285Y-102004809D01*
X50776285Y-102242904D01*
X50823904Y-102338142D01*
X50871523Y-102385761D01*
X50966761Y-102433380D01*
X51252476Y-102433380D01*
X51347714Y-102385761D01*
X51395333Y-102338142D01*
X48269142Y-142359142D02*
X48316761Y-142311523D01*
X48364380Y-142168666D01*
X48364380Y-142073428D01*
X48316761Y-141930571D01*
X48221523Y-141835333D01*
X48126285Y-141787714D01*
X47935809Y-141740095D01*
X47792952Y-141740095D01*
X47602476Y-141787714D01*
X47507238Y-141835333D01*
X47412000Y-141930571D01*
X47364380Y-142073428D01*
X47364380Y-142168666D01*
X47412000Y-142311523D01*
X47459619Y-142359142D01*
X48364380Y-143311523D02*
X48364380Y-142740095D01*
X48364380Y-143025809D02*
X47364380Y-143025809D01*
X47507238Y-142930571D01*
X47602476Y-142835333D01*
X47650095Y-142740095D01*
X47459619Y-143692476D02*
X47412000Y-143740095D01*
X47364380Y-143835333D01*
X47364380Y-144073428D01*
X47412000Y-144168666D01*
X47459619Y-144216285D01*
X47554857Y-144263904D01*
X47650095Y-144263904D01*
X47792952Y-144216285D01*
X48364380Y-143644857D01*
X48364380Y-144263904D01*
X48712380Y-109901333D02*
X48712380Y-109425142D01*
X47712380Y-109425142D01*
X47807619Y-110187047D02*
X47760000Y-110234666D01*
X47712380Y-110329904D01*
X47712380Y-110568000D01*
X47760000Y-110663238D01*
X47807619Y-110710857D01*
X47902857Y-110758476D01*
X47998095Y-110758476D01*
X48140952Y-110710857D01*
X48712380Y-110139428D01*
X48712380Y-110758476D01*
X74063356Y-105485863D02*
X74539547Y-105485863D01*
X74539547Y-104485863D01*
X73825261Y-104485863D02*
X73206213Y-104485863D01*
X73539547Y-104866816D01*
X73396690Y-104866816D01*
X73301451Y-104914435D01*
X73253832Y-104962054D01*
X73206213Y-105057292D01*
X73206213Y-105295387D01*
X73253832Y-105390625D01*
X73301451Y-105438244D01*
X73396690Y-105485863D01*
X73682404Y-105485863D01*
X73777642Y-105438244D01*
X73825261Y-105390625D01*
X80129976Y-99373859D02*
X80129976Y-98373859D01*
X79891881Y-98373859D01*
X79749024Y-98421479D01*
X79653786Y-98516717D01*
X79606167Y-98611955D01*
X79558548Y-98802431D01*
X79558548Y-98945288D01*
X79606167Y-99135764D01*
X79653786Y-99231002D01*
X79749024Y-99326240D01*
X79891881Y-99373859D01*
X80129976Y-99373859D01*
X78606167Y-99373859D02*
X79177595Y-99373859D01*
X78891881Y-99373859D02*
X78891881Y-98373859D01*
X78987119Y-98516717D01*
X79082357Y-98611955D01*
X79177595Y-98659574D01*
X77749024Y-98373859D02*
X77939500Y-98373859D01*
X78034738Y-98421479D01*
X78082357Y-98469098D01*
X78177595Y-98611955D01*
X78225214Y-98802431D01*
X78225214Y-99183383D01*
X78177595Y-99278621D01*
X78129976Y-99326240D01*
X78034738Y-99373859D01*
X77844262Y-99373859D01*
X77749024Y-99326240D01*
X77701405Y-99278621D01*
X77653786Y-99183383D01*
X77653786Y-98945288D01*
X77701405Y-98850050D01*
X77749024Y-98802431D01*
X77844262Y-98754812D01*
X78034738Y-98754812D01*
X78129976Y-98802431D01*
X78177595Y-98850050D01*
X78225214Y-98945288D01*
X74094975Y-102183860D02*
X74094975Y-101183860D01*
X73856880Y-101183860D01*
X73714023Y-101231480D01*
X73618785Y-101326718D01*
X73571166Y-101421956D01*
X73523547Y-101612432D01*
X73523547Y-101755289D01*
X73571166Y-101945765D01*
X73618785Y-102041003D01*
X73714023Y-102136241D01*
X73856880Y-102183860D01*
X74094975Y-102183860D01*
X72571166Y-102183860D02*
X73142594Y-102183860D01*
X72856880Y-102183860D02*
X72856880Y-101183860D01*
X72952118Y-101326718D01*
X73047356Y-101421956D01*
X73142594Y-101469575D01*
X71666404Y-101183860D02*
X72142594Y-101183860D01*
X72190213Y-101660051D01*
X72142594Y-101612432D01*
X72047356Y-101564813D01*
X71809261Y-101564813D01*
X71714023Y-101612432D01*
X71666404Y-101660051D01*
X71618785Y-101755289D01*
X71618785Y-101993384D01*
X71666404Y-102088622D01*
X71714023Y-102136241D01*
X71809261Y-102183860D01*
X72047356Y-102183860D01*
X72142594Y-102136241D01*
X72190213Y-102088622D01*
%LPC*%
D12*
X41656000Y-110490000D03*
X41656000Y-115490000D03*
D13*
X54610000Y-97917000D03*
X54610000Y-101917000D03*
D14*
X69368146Y-149894038D03*
X71368146Y-149894038D03*
X73368146Y-149894038D03*
X75368146Y-149894038D03*
X77368146Y-149894038D03*
X79368146Y-149894038D03*
X81368146Y-149894038D03*
X83368146Y-149894038D03*
X83368146Y-135894038D03*
X81368146Y-135894038D03*
X79368146Y-135894038D03*
X77368146Y-135894038D03*
X75368146Y-135894038D03*
X73368146Y-135894038D03*
X71368146Y-135894038D03*
X69368146Y-135894038D03*
D15*
X59055000Y-149860000D03*
X95885000Y-147955000D03*
X76200000Y-107950000D03*
D16*
G36*
X46787691Y-141727176D02*
G01*
X46811401Y-141730693D01*
X46834652Y-141736517D01*
X46857220Y-141744592D01*
X46878889Y-141754841D01*
X46899448Y-141767164D01*
X46918701Y-141781442D01*
X46936461Y-141797539D01*
X46952558Y-141815299D01*
X46966836Y-141834552D01*
X46979159Y-141855111D01*
X46989408Y-141876780D01*
X46997483Y-141899348D01*
X47003307Y-141922599D01*
X47006824Y-141946309D01*
X47008000Y-141970250D01*
X47008000Y-142458750D01*
X47006824Y-142482691D01*
X47003307Y-142506401D01*
X46997483Y-142529652D01*
X46989408Y-142552220D01*
X46979159Y-142573889D01*
X46966836Y-142594448D01*
X46952558Y-142613701D01*
X46936461Y-142631461D01*
X46918701Y-142647558D01*
X46899448Y-142661836D01*
X46878889Y-142674159D01*
X46857220Y-142684408D01*
X46834652Y-142692483D01*
X46811401Y-142698307D01*
X46787691Y-142701824D01*
X46763750Y-142703000D01*
X46200250Y-142703000D01*
X46176309Y-142701824D01*
X46152599Y-142698307D01*
X46129348Y-142692483D01*
X46106780Y-142684408D01*
X46085111Y-142674159D01*
X46064552Y-142661836D01*
X46045299Y-142647558D01*
X46027539Y-142631461D01*
X46011442Y-142613701D01*
X45997164Y-142594448D01*
X45984841Y-142573889D01*
X45974592Y-142552220D01*
X45966517Y-142529652D01*
X45960693Y-142506401D01*
X45957176Y-142482691D01*
X45956000Y-142458750D01*
X45956000Y-141970250D01*
X45957176Y-141946309D01*
X45960693Y-141922599D01*
X45966517Y-141899348D01*
X45974592Y-141876780D01*
X45984841Y-141855111D01*
X45997164Y-141834552D01*
X46011442Y-141815299D01*
X46027539Y-141797539D01*
X46045299Y-141781442D01*
X46064552Y-141767164D01*
X46085111Y-141754841D01*
X46106780Y-141744592D01*
X46129348Y-141736517D01*
X46152599Y-141730693D01*
X46176309Y-141727176D01*
X46200250Y-141726000D01*
X46763750Y-141726000D01*
X46787691Y-141727176D01*
G37*
G36*
X46787691Y-143302176D02*
G01*
X46811401Y-143305693D01*
X46834652Y-143311517D01*
X46857220Y-143319592D01*
X46878889Y-143329841D01*
X46899448Y-143342164D01*
X46918701Y-143356442D01*
X46936461Y-143372539D01*
X46952558Y-143390299D01*
X46966836Y-143409552D01*
X46979159Y-143430111D01*
X46989408Y-143451780D01*
X46997483Y-143474348D01*
X47003307Y-143497599D01*
X47006824Y-143521309D01*
X47008000Y-143545250D01*
X47008000Y-144033750D01*
X47006824Y-144057691D01*
X47003307Y-144081401D01*
X46997483Y-144104652D01*
X46989408Y-144127220D01*
X46979159Y-144148889D01*
X46966836Y-144169448D01*
X46952558Y-144188701D01*
X46936461Y-144206461D01*
X46918701Y-144222558D01*
X46899448Y-144236836D01*
X46878889Y-144249159D01*
X46857220Y-144259408D01*
X46834652Y-144267483D01*
X46811401Y-144273307D01*
X46787691Y-144276824D01*
X46763750Y-144278000D01*
X46200250Y-144278000D01*
X46176309Y-144276824D01*
X46152599Y-144273307D01*
X46129348Y-144267483D01*
X46106780Y-144259408D01*
X46085111Y-144249159D01*
X46064552Y-144236836D01*
X46045299Y-144222558D01*
X46027539Y-144206461D01*
X46011442Y-144188701D01*
X45997164Y-144169448D01*
X45984841Y-144148889D01*
X45974592Y-144127220D01*
X45966517Y-144104652D01*
X45960693Y-144081401D01*
X45957176Y-144057691D01*
X45956000Y-144033750D01*
X45956000Y-143545250D01*
X45957176Y-143521309D01*
X45960693Y-143497599D01*
X45966517Y-143474348D01*
X45974592Y-143451780D01*
X45984841Y-143430111D01*
X45997164Y-143409552D01*
X46011442Y-143390299D01*
X46027539Y-143372539D01*
X46045299Y-143356442D01*
X46064552Y-143342164D01*
X46085111Y-143329841D01*
X46106780Y-143319592D01*
X46129348Y-143311517D01*
X46152599Y-143305693D01*
X46176309Y-143302176D01*
X46200250Y-143301000D01*
X46763750Y-143301000D01*
X46787691Y-143302176D01*
G37*
D17*
X54610000Y-105918000D03*
X54610000Y-114218000D03*
D18*
X112395000Y-148710000D03*
X112395000Y-151210000D03*
X112395000Y-153710000D03*
D16*
G36*
X113181975Y-155310276D02*
G01*
X113207699Y-155314092D01*
X113232925Y-155320411D01*
X113257411Y-155329172D01*
X113280920Y-155340291D01*
X113303226Y-155353661D01*
X113324114Y-155369152D01*
X113343383Y-155386617D01*
X113360848Y-155405886D01*
X113376339Y-155426774D01*
X113389709Y-155449080D01*
X113400828Y-155472589D01*
X113409589Y-155497075D01*
X113415908Y-155522301D01*
X113419724Y-155548025D01*
X113421000Y-155574000D01*
X113421000Y-156846000D01*
X113419724Y-156871975D01*
X113415908Y-156897699D01*
X113409589Y-156922925D01*
X113400828Y-156947411D01*
X113389709Y-156970920D01*
X113376339Y-156993226D01*
X113360848Y-157014114D01*
X113343383Y-157033383D01*
X113324114Y-157050848D01*
X113303226Y-157066339D01*
X113280920Y-157079709D01*
X113257411Y-157090828D01*
X113232925Y-157099589D01*
X113207699Y-157105908D01*
X113181975Y-157109724D01*
X113156000Y-157111000D01*
X111634000Y-157111000D01*
X111608025Y-157109724D01*
X111582301Y-157105908D01*
X111557075Y-157099589D01*
X111532589Y-157090828D01*
X111509080Y-157079709D01*
X111486774Y-157066339D01*
X111465886Y-157050848D01*
X111446617Y-157033383D01*
X111429152Y-157014114D01*
X111413661Y-156993226D01*
X111400291Y-156970920D01*
X111389172Y-156947411D01*
X111380411Y-156922925D01*
X111374092Y-156897699D01*
X111370276Y-156871975D01*
X111369000Y-156846000D01*
X111369000Y-155574000D01*
X111370276Y-155548025D01*
X111374092Y-155522301D01*
X111380411Y-155497075D01*
X111389172Y-155472589D01*
X111400291Y-155449080D01*
X111413661Y-155426774D01*
X111429152Y-155405886D01*
X111446617Y-155386617D01*
X111465886Y-155369152D01*
X111486774Y-155353661D01*
X111509080Y-155340291D01*
X111532589Y-155329172D01*
X111557075Y-155320411D01*
X111582301Y-155314092D01*
X111608025Y-155310276D01*
X111634000Y-155309000D01*
X113156000Y-155309000D01*
X113181975Y-155310276D01*
G37*
D19*
X112395000Y-115610000D03*
D16*
G36*
X113206975Y-117210276D02*
G01*
X113232699Y-117214092D01*
X113257925Y-117220411D01*
X113282411Y-117229172D01*
X113305920Y-117240291D01*
X113328226Y-117253661D01*
X113349114Y-117269152D01*
X113368383Y-117286617D01*
X113385848Y-117305886D01*
X113401339Y-117326774D01*
X113414709Y-117349080D01*
X113425828Y-117372589D01*
X113434589Y-117397075D01*
X113440908Y-117422301D01*
X113444724Y-117448025D01*
X113446000Y-117474000D01*
X113446000Y-118746000D01*
X113444724Y-118771975D01*
X113440908Y-118797699D01*
X113434589Y-118822925D01*
X113425828Y-118847411D01*
X113414709Y-118870920D01*
X113401339Y-118893226D01*
X113385848Y-118914114D01*
X113368383Y-118933383D01*
X113349114Y-118950848D01*
X113328226Y-118966339D01*
X113305920Y-118979709D01*
X113282411Y-118990828D01*
X113257925Y-118999589D01*
X113232699Y-119005908D01*
X113206975Y-119009724D01*
X113181000Y-119011000D01*
X111609000Y-119011000D01*
X111583025Y-119009724D01*
X111557301Y-119005908D01*
X111532075Y-118999589D01*
X111507589Y-118990828D01*
X111484080Y-118979709D01*
X111461774Y-118966339D01*
X111440886Y-118950848D01*
X111421617Y-118933383D01*
X111404152Y-118914114D01*
X111388661Y-118893226D01*
X111375291Y-118870920D01*
X111364172Y-118847411D01*
X111355411Y-118822925D01*
X111349092Y-118797699D01*
X111345276Y-118771975D01*
X111344000Y-118746000D01*
X111344000Y-117474000D01*
X111345276Y-117448025D01*
X111349092Y-117422301D01*
X111355411Y-117397075D01*
X111364172Y-117372589D01*
X111375291Y-117349080D01*
X111388661Y-117326774D01*
X111404152Y-117305886D01*
X111421617Y-117286617D01*
X111440886Y-117269152D01*
X111461774Y-117253661D01*
X111484080Y-117240291D01*
X111507589Y-117229172D01*
X111532075Y-117220411D01*
X111557301Y-117214092D01*
X111583025Y-117210276D01*
X111609000Y-117209000D01*
X113181000Y-117209000D01*
X113206975Y-117210276D01*
G37*
D19*
X112395000Y-107990000D03*
D16*
G36*
X113206975Y-109590276D02*
G01*
X113232699Y-109594092D01*
X113257925Y-109600411D01*
X113282411Y-109609172D01*
X113305920Y-109620291D01*
X113328226Y-109633661D01*
X113349114Y-109649152D01*
X113368383Y-109666617D01*
X113385848Y-109685886D01*
X113401339Y-109706774D01*
X113414709Y-109729080D01*
X113425828Y-109752589D01*
X113434589Y-109777075D01*
X113440908Y-109802301D01*
X113444724Y-109828025D01*
X113446000Y-109854000D01*
X113446000Y-111126000D01*
X113444724Y-111151975D01*
X113440908Y-111177699D01*
X113434589Y-111202925D01*
X113425828Y-111227411D01*
X113414709Y-111250920D01*
X113401339Y-111273226D01*
X113385848Y-111294114D01*
X113368383Y-111313383D01*
X113349114Y-111330848D01*
X113328226Y-111346339D01*
X113305920Y-111359709D01*
X113282411Y-111370828D01*
X113257925Y-111379589D01*
X113232699Y-111385908D01*
X113206975Y-111389724D01*
X113181000Y-111391000D01*
X111609000Y-111391000D01*
X111583025Y-111389724D01*
X111557301Y-111385908D01*
X111532075Y-111379589D01*
X111507589Y-111370828D01*
X111484080Y-111359709D01*
X111461774Y-111346339D01*
X111440886Y-111330848D01*
X111421617Y-111313383D01*
X111404152Y-111294114D01*
X111388661Y-111273226D01*
X111375291Y-111250920D01*
X111364172Y-111227411D01*
X111355411Y-111202925D01*
X111349092Y-111177699D01*
X111345276Y-111151975D01*
X111344000Y-111126000D01*
X111344000Y-109854000D01*
X111345276Y-109828025D01*
X111349092Y-109802301D01*
X111355411Y-109777075D01*
X111364172Y-109752589D01*
X111375291Y-109729080D01*
X111388661Y-109706774D01*
X111404152Y-109685886D01*
X111421617Y-109666617D01*
X111440886Y-109649152D01*
X111461774Y-109633661D01*
X111484080Y-109620291D01*
X111507589Y-109609172D01*
X111532075Y-109600411D01*
X111557301Y-109594092D01*
X111583025Y-109590276D01*
X111609000Y-109589000D01*
X113181000Y-109589000D01*
X113206975Y-109590276D01*
G37*
D19*
X32385000Y-109815000D03*
D16*
G36*
X33196975Y-106415276D02*
G01*
X33222699Y-106419092D01*
X33247925Y-106425411D01*
X33272411Y-106434172D01*
X33295920Y-106445291D01*
X33318226Y-106458661D01*
X33339114Y-106474152D01*
X33358383Y-106491617D01*
X33375848Y-106510886D01*
X33391339Y-106531774D01*
X33404709Y-106554080D01*
X33415828Y-106577589D01*
X33424589Y-106602075D01*
X33430908Y-106627301D01*
X33434724Y-106653025D01*
X33436000Y-106679000D01*
X33436000Y-107951000D01*
X33434724Y-107976975D01*
X33430908Y-108002699D01*
X33424589Y-108027925D01*
X33415828Y-108052411D01*
X33404709Y-108075920D01*
X33391339Y-108098226D01*
X33375848Y-108119114D01*
X33358383Y-108138383D01*
X33339114Y-108155848D01*
X33318226Y-108171339D01*
X33295920Y-108184709D01*
X33272411Y-108195828D01*
X33247925Y-108204589D01*
X33222699Y-108210908D01*
X33196975Y-108214724D01*
X33171000Y-108216000D01*
X31599000Y-108216000D01*
X31573025Y-108214724D01*
X31547301Y-108210908D01*
X31522075Y-108204589D01*
X31497589Y-108195828D01*
X31474080Y-108184709D01*
X31451774Y-108171339D01*
X31430886Y-108155848D01*
X31411617Y-108138383D01*
X31394152Y-108119114D01*
X31378661Y-108098226D01*
X31365291Y-108075920D01*
X31354172Y-108052411D01*
X31345411Y-108027925D01*
X31339092Y-108002699D01*
X31335276Y-107976975D01*
X31334000Y-107951000D01*
X31334000Y-106679000D01*
X31335276Y-106653025D01*
X31339092Y-106627301D01*
X31345411Y-106602075D01*
X31354172Y-106577589D01*
X31365291Y-106554080D01*
X31378661Y-106531774D01*
X31394152Y-106510886D01*
X31411617Y-106491617D01*
X31430886Y-106474152D01*
X31451774Y-106458661D01*
X31474080Y-106445291D01*
X31497589Y-106434172D01*
X31522075Y-106425411D01*
X31547301Y-106419092D01*
X31573025Y-106415276D01*
X31599000Y-106414000D01*
X33171000Y-106414000D01*
X33196975Y-106415276D01*
G37*
D18*
X32384999Y-120610000D03*
X32384999Y-118110000D03*
D16*
G36*
X33171974Y-114710276D02*
G01*
X33197698Y-114714092D01*
X33222924Y-114720411D01*
X33247410Y-114729172D01*
X33270919Y-114740291D01*
X33293225Y-114753661D01*
X33314113Y-114769152D01*
X33333382Y-114786617D01*
X33350847Y-114805886D01*
X33366338Y-114826774D01*
X33379708Y-114849080D01*
X33390827Y-114872589D01*
X33399588Y-114897075D01*
X33405907Y-114922301D01*
X33409723Y-114948025D01*
X33410999Y-114974000D01*
X33410999Y-116246000D01*
X33409723Y-116271975D01*
X33405907Y-116297699D01*
X33399588Y-116322925D01*
X33390827Y-116347411D01*
X33379708Y-116370920D01*
X33366338Y-116393226D01*
X33350847Y-116414114D01*
X33333382Y-116433383D01*
X33314113Y-116450848D01*
X33293225Y-116466339D01*
X33270919Y-116479709D01*
X33247410Y-116490828D01*
X33222924Y-116499589D01*
X33197698Y-116505908D01*
X33171974Y-116509724D01*
X33145999Y-116511000D01*
X31623999Y-116511000D01*
X31598024Y-116509724D01*
X31572300Y-116505908D01*
X31547074Y-116499589D01*
X31522588Y-116490828D01*
X31499079Y-116479709D01*
X31476773Y-116466339D01*
X31455885Y-116450848D01*
X31436616Y-116433383D01*
X31419151Y-116414114D01*
X31403660Y-116393226D01*
X31390290Y-116370920D01*
X31379171Y-116347411D01*
X31370410Y-116322925D01*
X31364091Y-116297699D01*
X31360275Y-116271975D01*
X31358999Y-116246000D01*
X31358999Y-114974000D01*
X31360275Y-114948025D01*
X31364091Y-114922301D01*
X31370410Y-114897075D01*
X31379171Y-114872589D01*
X31390290Y-114849080D01*
X31403660Y-114826774D01*
X31419151Y-114805886D01*
X31436616Y-114786617D01*
X31455885Y-114769152D01*
X31476773Y-114753661D01*
X31499079Y-114740291D01*
X31522588Y-114729172D01*
X31547074Y-114720411D01*
X31572300Y-114714092D01*
X31598024Y-114710276D01*
X31623999Y-114709000D01*
X33145999Y-114709000D01*
X33171974Y-114710276D01*
G37*
D18*
X32385000Y-150335000D03*
X32385000Y-147835000D03*
X32385000Y-145335000D03*
X32385000Y-142835000D03*
D16*
G36*
X33171975Y-139435276D02*
G01*
X33197699Y-139439092D01*
X33222925Y-139445411D01*
X33247411Y-139454172D01*
X33270920Y-139465291D01*
X33293226Y-139478661D01*
X33314114Y-139494152D01*
X33333383Y-139511617D01*
X33350848Y-139530886D01*
X33366339Y-139551774D01*
X33379709Y-139574080D01*
X33390828Y-139597589D01*
X33399589Y-139622075D01*
X33405908Y-139647301D01*
X33409724Y-139673025D01*
X33411000Y-139699000D01*
X33411000Y-140971000D01*
X33409724Y-140996975D01*
X33405908Y-141022699D01*
X33399589Y-141047925D01*
X33390828Y-141072411D01*
X33379709Y-141095920D01*
X33366339Y-141118226D01*
X33350848Y-141139114D01*
X33333383Y-141158383D01*
X33314114Y-141175848D01*
X33293226Y-141191339D01*
X33270920Y-141204709D01*
X33247411Y-141215828D01*
X33222925Y-141224589D01*
X33197699Y-141230908D01*
X33171975Y-141234724D01*
X33146000Y-141236000D01*
X31624000Y-141236000D01*
X31598025Y-141234724D01*
X31572301Y-141230908D01*
X31547075Y-141224589D01*
X31522589Y-141215828D01*
X31499080Y-141204709D01*
X31476774Y-141191339D01*
X31455886Y-141175848D01*
X31436617Y-141158383D01*
X31419152Y-141139114D01*
X31403661Y-141118226D01*
X31390291Y-141095920D01*
X31379172Y-141072411D01*
X31370411Y-141047925D01*
X31364092Y-141022699D01*
X31360276Y-140996975D01*
X31359000Y-140971000D01*
X31359000Y-139699000D01*
X31360276Y-139673025D01*
X31364092Y-139647301D01*
X31370411Y-139622075D01*
X31379172Y-139597589D01*
X31390291Y-139574080D01*
X31403661Y-139551774D01*
X31419152Y-139530886D01*
X31436617Y-139511617D01*
X31455886Y-139494152D01*
X31476774Y-139478661D01*
X31499080Y-139465291D01*
X31522589Y-139454172D01*
X31547075Y-139445411D01*
X31572301Y-139439092D01*
X31598025Y-139435276D01*
X31624000Y-139434000D01*
X33146000Y-139434000D01*
X33171975Y-139435276D01*
G37*
D20*
X70848691Y-103763482D03*
X70848691Y-97921482D03*
D21*
X91440000Y-118765000D03*
X93940000Y-113665000D03*
X93940000Y-123665000D03*
X104140000Y-123665000D03*
X104140000Y-113665000D03*
X91440000Y-105430000D03*
X93940000Y-100330000D03*
X93940000Y-110330000D03*
X104140000Y-110330000D03*
X104140000Y-100330000D03*
D22*
X113852000Y-138521000D03*
X113852000Y-142921000D03*
D23*
X75928690Y-99175479D03*
X76878690Y-97175479D03*
X74978690Y-97175479D03*
X75928690Y-103636480D03*
X76878690Y-101636480D03*
X74978690Y-101636480D03*
D24*
X79880000Y-158849000D03*
D25*
X82420000Y-158849000D03*
D24*
X71880000Y-158849000D03*
D25*
X74420000Y-158849000D03*
D24*
X63880000Y-158849000D03*
D25*
X66420000Y-158849000D03*
D24*
X55880000Y-158849000D03*
D25*
X58420000Y-158849000D03*
D26*
X111622055Y-99902944D03*
X109924999Y-99200000D03*
X108227943Y-99902944D03*
X107524999Y-101600000D03*
X108227943Y-103297056D03*
X109924999Y-104000000D03*
X111622055Y-103297056D03*
X112324999Y-101600000D03*
D27*
X109924999Y-101600000D03*
X34925000Y-156600000D03*
D26*
X37325000Y-156600000D03*
X36622056Y-158297056D03*
X34925000Y-159000000D03*
X33227944Y-158297056D03*
X32525000Y-156600000D03*
X33227944Y-154902944D03*
X34925000Y-154200000D03*
X36622056Y-154902944D03*
X36622056Y-99902944D03*
X34925000Y-99200000D03*
X33227944Y-99902944D03*
X32525000Y-101600000D03*
X33227944Y-103297056D03*
X34925000Y-104000000D03*
X36622056Y-103297056D03*
X37325000Y-101600000D03*
D27*
X34925000Y-101600000D03*
M02*
