M48
; DRILL file {KiCad (5.1.5)-3} date 23.01.2020 15:13:51
; FORMAT={-:-/ absolute / metric / decimal}
; #@! TF.CreationDate,2020-01-23T15:13:51+03:00
; #@! TF.GenerationSoftware,Kicad,Pcbnew,(5.1.5)-3
FMAT,2
METRIC
T1C0.400
T2C0.500
T3C0.600
T4C0.800
T5C0.900
T6C0.950
T7C1.000
T8C1.400
T9C3.200
T10C1.000
%
G90
G05
T1
X26.67Y-146.558
X27.432Y-158.242
X31.242Y-161.798
X36.922Y-148.746
X38.608Y-143.948
X39.37Y-133.35
X39.37Y-142.24
X39.624Y-136.144
X40.386Y-105.664
X40.386Y-135.128
X41.275Y-148.59
X42.164Y-144.723
X42.412Y-146.446
X42.418Y-152.146
X43.18Y-154.686
X44.45Y-148.844
X44.958Y-138.049
X45.72Y-100.076
X45.72Y-145.288
X46.736Y-144.526
X47.117Y-134.366
X47.244Y-130.556
X47.244Y-131.826
X47.565Y-146.366
X47.752Y-142.24
X48.006Y-155.956
X48.514Y-146.05
X49.022Y-122.936
X49.022Y-143.764
X49.276Y-145.288
X51.017Y-143.764
X51.054Y-141.448
X51.054Y-145.542
X51.231Y-109.796
X52.705Y-148.59
X53.811Y-140.425
X54.065Y-143.219
X54.61Y-116.205
X56.224Y-147.664
X56.224Y-140.679
X56.896Y-122.936
X58.488Y-109.646
X60.325Y-102.235
X62.23Y-149.86
X62.865Y-113.665
X62.992Y-140.97
X62.992Y-144.018
X63.5Y-130.588
X63.5Y-131.588
X63.5Y-132.588
X63.5Y-133.604
X65.024Y-112.014
X65.024Y-115.062
X65.024Y-121.158
X65.024Y-124.46
X67.056Y-104.267
X67.31Y-134.62
X67.31Y-137.16
X68.326Y-142.494
X68.434Y-121.118
X68.436Y-103.636
X68.444Y-115.067
X68.444Y-124.596
X69.85Y-106.426
X73.299Y-101.313
X73.389Y-102.747
X73.425Y-98.025
X76.708Y-120.65
X77.453Y-98.683
X78.994Y-106.426
X82.042Y-142.494
X82.487Y-117.665
X82.55Y-98.552
X83.312Y-112.014
X87.376Y-138.176
X90.678Y-155.448
X91.313Y-97.409
X93.218Y-144.907
X97.409Y-141.732
X98.044Y-133.604
X98.679Y-141.732
X98.806Y-122.174
X99.695Y-144.907
X100.076Y-101.854
X100.076Y-114.3
X103.124Y-138.176
X104.902Y-143.51
X105.815Y-137.471
X105.819Y-134.872
X105.918Y-140.716
X106.172Y-155.448
X106.68Y-136.384
X107.748Y-140.716
X108.204Y-113.284
X113.03Y-139.954
X114.046Y-161.29
X114.554Y-97.028
X116.702Y-140.07
X118.11Y-157.988
X118.364Y-101.092
X118.364Y-118.618
T2
X107.525Y-101.6
X108.228Y-99.903
X108.228Y-103.297
X109.925Y-99.2
X109.925Y-104.0
X111.622Y-99.903
X111.622Y-103.297
X112.325Y-101.6
X32.525Y-156.6
X33.228Y-154.903
X33.228Y-158.297
X34.925Y-154.2
X34.925Y-159.0
X36.622Y-154.903
X36.622Y-158.297
X37.325Y-156.6
X32.525Y-101.6
X33.228Y-99.903
X33.228Y-103.297
X34.925Y-99.2
X34.925Y-104.0
X36.622Y-99.903
X36.622Y-103.297
X37.325Y-101.6
T3
X69.368Y-135.894
X69.368Y-149.894
X71.368Y-135.894
X71.368Y-149.894
X73.368Y-135.894
X73.368Y-149.894
X75.368Y-135.894
X75.368Y-149.894
X77.368Y-135.894
X77.368Y-149.894
X79.368Y-135.894
X79.368Y-149.894
X81.368Y-135.894
X81.368Y-149.894
X83.368Y-135.894
X83.368Y-149.894
T4
X41.656Y-110.49
X41.656Y-115.49
T5
X79.88Y-158.849
X82.42Y-158.849
X55.88Y-158.849
X58.42Y-158.849
X71.88Y-158.849
X74.42Y-158.849
X63.88Y-158.849
X66.42Y-158.849
T6
X32.385Y-140.335
X32.385Y-142.835
X32.385Y-145.335
X32.385Y-147.835
X32.385Y-150.335
X32.385Y-115.61
X32.385Y-118.11
X32.385Y-120.61
X112.395Y-148.71
X112.395Y-151.21
X112.395Y-153.71
X112.395Y-156.21
T7
X76.2Y-107.95
X95.885Y-147.955
X32.385Y-107.315
X32.385Y-109.815
X59.055Y-149.86
X112.395Y-107.99
X112.395Y-110.49
X112.395Y-115.61
X112.395Y-118.11
T8
X91.44Y-118.765
X93.94Y-113.665
X93.94Y-123.665
X104.14Y-113.665
X104.14Y-123.665
X91.44Y-105.43
X93.94Y-100.33
X93.94Y-110.33
X104.14Y-100.33
X104.14Y-110.33
T9
X109.925Y-101.6
X34.925Y-156.6
X34.925Y-101.6
T10
X113.852Y-138.521
X113.852Y-142.921
T0
M30
